<svg xmlns="http://www.w3.org/2000/svg" width="39.697" height="39.697" viewBox="0 0 39.697 39.697">
  <g id="Gruppe_4703" data-name="Gruppe 4703" transform="translate(-425.002 -2504.746)">
    <g id="Gruppe_3993" data-name="Gruppe 3993" transform="translate(725.193 2218.916)">
      <circle id="Ellipse_28" data-name="Ellipse 28" cx="19.648" cy="19.648" r="19.648" transform="matrix(0.01, -1, 1, 0.01, -300.192, 325.125)" fill="#b2f6fb"/>
      <path id="Pfad_662" data-name="Pfad 662" d="M-237.892,325.916l-3.821-1.483-6.3.274-1.645,2.193-.365,4.568-.548,1,5.756,8.131-.133,3.993,7.4,7.4a19.686,19.686,0,0,0,12.156-13.616Z" transform="translate(-35.892 -27.924)" fill="rgba(255,255,255,0.3)"/>
      <path id="Pfad_663" data-name="Pfad 663" d="M-246.5,317.662a7.877,7.877,0,0,0-2.582-.426,7.882,7.882,0,0,0-7.862,7.9,7.885,7.885,0,0,0,.451,2.607,6.483,6.483,0,0,0,.714,1.428l6.255,10.081a.658.658,0,0,0,.557.3.628.628,0,0,0,.6-.3l6.083-10.153a6.682,6.682,0,0,0,.685-1.428A7.882,7.882,0,0,0-246.5,317.662Zm-2.582,11.512a3.927,3.927,0,0,1-3.927-3.927,3.927,3.927,0,0,1,3.927-3.927,3.927,3.927,0,0,1,3.927,3.927A3.927,3.927,0,0,1-249.086,329.174Z" transform="translate(-31.282 -22.718)" fill="#1de2f2"/>
      <path id="Pfad_664" data-name="Pfad 664" d="M-248.972,329.168c-.038,0-.076.006-.114.006a3.927,3.927,0,0,1-3.927-3.927,3.927,3.927,0,0,1,3.927-3.927c.038,0,.076,0,.114.006V317.24c-.038,0-.076,0-.114,0a7.882,7.882,0,0,0-7.862,7.9,7.885,7.885,0,0,0,.451,2.607,6.483,6.483,0,0,0,.714,1.428l6.255,10.081a.657.657,0,0,0,.557.3Z" transform="translate(-31.282 -22.718)" fill="#00b3c1"/>
      <circle id="Ellipse_29" data-name="Ellipse 29" cx="3.929" cy="3.929" r="3.929" transform="translate(-284.274 298.61)" fill="none" stroke="#fec00f" stroke-miterlimit="10" stroke-width="3"/>
    </g>
  </g>
</svg>
