<svg xmlns="http://www.w3.org/2000/svg" width="40" height="40" viewBox="0 0 40 40">
  <g id="Gruppe_4702" data-name="Gruppe 4702" transform="translate(-425 -1869.447)">
    <g id="Gruppe_3089" data-name="Gruppe 3089" transform="translate(1385.459 1583.879)">
      <ellipse id="Ellipse_27" data-name="Ellipse 27" cx="19.798" cy="19.798" rx="19.798" ry="19.798" transform="matrix(0.01, -1, 1, 0.01, -960.459, 325.162)" fill="#b6b9ff"/>
      <g id="Gruppe_700" data-name="Gruppe 700" transform="translate(-954.157 290.162)">
        <path id="Pfad_638" data-name="Pfad 638" d="M-902.528,353.657a19.82,19.82,0,0,0,14.779-12.539l-13.06-13.06a6.986,6.986,0,0,0-5.53-2.71,7,7,0,0,0-7,7,12.7,12.7,0,0,0,2.805,6.858,5.587,5.587,0,0,1,.62,3.084h-.133a.358.358,0,0,0-.358.358.357.357,0,0,0,.1.25h0l.409.41v.176h-.151a.358.358,0,0,0-.358.359.36.36,0,0,0,.11.258l-.01.01.409.409v.159h-.151a.358.358,0,0,0-.358.358.354.354,0,0,0,.131.275l-.011.011.389.389v.239a.454.454,0,0,0,.3.425.446.446,0,0,0,.1.258l-.026.025Z" transform="translate(920.171 -318.854)" fill="#a0a0ef"/>
        <g id="Gruppe_699" data-name="Gruppe 699" transform="translate(0 0)">
          <path id="Pfad_639" data-name="Pfad 639" d="M-893.851,400h-5.621a.45.45,0,0,1-.45-.45.45.45,0,0,1,.45-.45h5.621a.45.45,0,0,1,.45.45.45.45,0,0,1-.45.45Z" transform="translate(910.494 -372.05)" fill="#8a81eb"/>
          <g id="Gruppe_698" data-name="Gruppe 698">
            <g id="Gruppe_684" data-name="Gruppe 684" transform="translate(6.832 6.493)">
              <path id="Pfad_640" data-name="Pfad 640" d="M-913.339,332.346a7,7,0,0,1,7-7,7,7,0,0,1,7,7,12.721,12.721,0,0,1-2.8,6.858,5.629,5.629,0,0,0-.638,3.086h-7.131a5.6,5.6,0,0,0-.62-3.086A12.7,12.7,0,0,1-913.339,332.346Z" transform="translate(913.339 -325.347)" fill="#e6e6e6"/>
              <path id="Pfad_641" data-name="Pfad 641" d="M-906.34,342.29h-3.574a5.6,5.6,0,0,0-.62-3.086,12.7,12.7,0,0,1-2.805-6.858,7,7,0,0,1,7-7" transform="translate(913.339 -325.347)" fill="#fff"/>
              <g id="Gruppe_674" data-name="Gruppe 674" transform="translate(6.999 1.487)">
                <path id="Pfad_642" data-name="Pfad 642" d="M-882.715,336.192h-.614a4.9,4.9,0,0,0-4.9-4.9v-.614a5.518,5.518,0,0,1,5.513,5.51Z" transform="translate(888.228 -330.682)" fill="#fff"/>
              </g>
              <g id="Gruppe_679" data-name="Gruppe 679" transform="translate(4.274 10.154)">
                <g id="Gruppe_677" data-name="Gruppe 677">
                  <g id="Gruppe_675" data-name="Gruppe 675" transform="translate(3.649)">
                    <path id="Pfad_643" data-name="Pfad 643" d="M-884.31,369.113l-.606-.1,1.2-7.236.606.1-1.2,7.236Z" transform="translate(884.916 -361.777)" fill="#fec00f"/>
                  </g>
                  <g id="Gruppe_676" data-name="Gruppe 676">
                    <path id="Pfad_644" data-name="Pfad 644" d="M-896.81,369.113l-1.2-7.236.606-.1,1.2,7.236-.606.1Z" transform="translate(898.006 -361.777)" fill="#fec00f"/>
                  </g>
                </g>
                <g id="Gruppe_678" data-name="Gruppe 678" transform="translate(0.458 0.039)">
                  <path id="Pfad_645" data-name="Pfad 645" d="M-891.712,362.9c-.251,0-.36-.245-.44-.424-.033-.075-.1-.23-.141-.23s-.107.155-.14.23c-.08.179-.188.424-.439.424s-.36-.245-.44-.424c-.033-.074-.1-.23-.141-.23s-.108.155-.141.23c-.079.179-.188.424-.44.424s-.36-.245-.44-.424c-.033-.074-.1-.23-.141-.23s-.108.155-.141.23c-.08.179-.188.424-.441.424s-.36-.245-.44-.423c-.033-.075-.1-.231-.142-.231s-.108.156-.142.23c-.079.179-.189.424-.44.424v-.327c.039,0,.109-.155.142-.23.08-.179.188-.423.44-.423s.361.244.441.423c.033.075.1.23.141.23s.108-.155.142-.23c.08-.179.188-.423.44-.423s.36.244.44.423c.033.075.1.23.141.23s.108-.155.141-.23c.08-.179.188-.423.44-.423s.361.245.44.424c.033.075.1.23.141.23s.107-.155.14-.23c.079-.179.188-.424.439-.424s.36.245.44.424c.033.075.1.23.141.23v.327Z" transform="translate(896.361 -361.917)" fill="#fec00f"/>
                </g>
              </g>
              <path id="Pfad_646" data-name="Pfad 646" d="M-893.864,386.146v3.659a.454.454,0,0,1-.454.454h-6.213a.454.454,0,0,1-.453-.454v-3.659Z" transform="translate(904.428 -369.199)" fill="#5b379c"/>
              <g id="Gruppe_683" data-name="Gruppe 683" transform="translate(2.934 16.941)">
                <g id="Gruppe_680" data-name="Gruppe 680">
                  <line id="Linie_80" data-name="Linie 80" x1="7.414" transform="translate(0.358 0.359)" fill="#0e303f"/>
                  <path id="Pfad_647" data-name="Pfad 647" d="M-895.039,386.844h-7.414a.358.358,0,0,1-.358-.359.358.358,0,0,1,.358-.359h7.414a.359.359,0,0,1,.359.359.359.359,0,0,1-.359.359Z" transform="translate(902.811 -386.126)" fill="#8a81eb"/>
                </g>
                <g id="Gruppe_681" data-name="Gruppe 681" transform="translate(0 1.196)">
                  <line id="Linie_81" data-name="Linie 81" x1="7.414" transform="translate(0.358 0.359)" fill="#0e303f"/>
                  <path id="Pfad_648" data-name="Pfad 648" d="M-895.039,391.134h-7.414a.358.358,0,0,1-.358-.359.358.358,0,0,1,.358-.359h7.414a.359.359,0,0,1,.359.359.359.359,0,0,1-.359.359Z" transform="translate(902.811 -390.417)" fill="#8a81eb"/>
                </g>
                <g id="Gruppe_682" data-name="Gruppe 682" transform="translate(0 2.392)">
                  <line id="Linie_82" data-name="Linie 82" x1="7.414" transform="translate(0.358 0.358)" fill="#0e303f"/>
                  <path id="Pfad_649" data-name="Pfad 649" d="M-895.039,395.424h-7.414a.358.358,0,0,1-.358-.359.358.358,0,0,1,.358-.358h7.414a.359.359,0,0,1,.359.358.359.359,0,0,1-.359.359Z" transform="translate(902.811 -394.707)" fill="#8a81eb"/>
                </g>
              </g>
            </g>
            <g id="Gruppe_697" data-name="Gruppe 697">
              <g id="Gruppe_685" data-name="Gruppe 685" transform="translate(13.646)">
                <path id="Pfad_650" data-name="Pfad 650" d="M-888.71,306.262a.183.183,0,0,1-.183-.182v-3.846a.183.183,0,0,1,.183-.182.182.182,0,0,1,.183.182v3.846a.183.183,0,0,1-.183.182Z" transform="translate(888.893 -302.051)" fill="#fff"/>
              </g>
              <g id="Gruppe_686" data-name="Gruppe 686" transform="translate(6.822 1.83)">
                <path id="Pfad_651" data-name="Pfad 651" d="M-911.27,312.312a.181.181,0,0,1-.158-.091l-1.923-3.33a.181.181,0,0,1,.067-.249.182.182,0,0,1,.249.066l1.923,3.33a.182.182,0,0,1-.066.25.185.185,0,0,1-.091.024Z" transform="translate(913.375 -308.617)" fill="#fff"/>
              </g>
              <g id="Gruppe_687" data-name="Gruppe 687" transform="translate(1.827 6.826)">
                <path id="Pfad_652" data-name="Pfad 652" d="M-927.781,328.831a.177.177,0,0,1-.091-.025l-3.33-1.923a.182.182,0,0,1-.067-.249.182.182,0,0,1,.249-.067l3.33,1.923a.183.183,0,0,1,.067.25.184.184,0,0,1-.158.091Z" transform="translate(931.293 -326.542)" fill="#fff"/>
              </g>
              <g id="Gruppe_688" data-name="Gruppe 688" transform="translate(0 13.651)">
                <path id="Pfad_653" data-name="Pfad 653" d="M-933.821,351.392h-3.846a.183.183,0,0,1-.183-.183.183.183,0,0,1,.183-.183h3.846a.183.183,0,0,1,.183.183.183.183,0,0,1-.183.183Z" transform="translate(937.85 -351.026)" fill="#fff"/>
              </g>
              <g id="Gruppe_689" data-name="Gruppe 689" transform="translate(1.831 18.552)">
                <path id="Pfad_654" data-name="Pfad 654" d="M-931.1,370.9a.181.181,0,0,1-.158-.091.182.182,0,0,1,.067-.249l3.33-1.923a.182.182,0,0,1,.249.067.182.182,0,0,1-.067.249l-3.33,1.923a.181.181,0,0,1-.091.025Z" transform="translate(931.282 -368.611)" fill="#fff"/>
              </g>
              <g id="Gruppe_690" data-name="Gruppe 690" transform="translate(6.827 22.14)">
                <path id="Pfad_655" data-name="Pfad 655" d="M-913.174,385.177a.181.181,0,0,1-.091-.025.182.182,0,0,1-.067-.249l1.924-3.33a.181.181,0,0,1,.249-.067.182.182,0,0,1,.067.249l-1.924,3.33a.181.181,0,0,1-.158.091Z" transform="translate(913.357 -381.481)" fill="#fff"/>
              </g>
              <g id="Gruppe_691" data-name="Gruppe 691" transform="translate(18.553 22.137)">
                <path id="Pfad_656" data-name="Pfad 656" d="M-869.181,385.166a.182.182,0,0,1-.159-.091l-1.923-3.33a.182.182,0,0,1,.067-.249.181.181,0,0,1,.249.067l1.922,3.331a.182.182,0,0,1-.066.249.188.188,0,0,1-.091.024Z" transform="translate(871.287 -381.47)" fill="#fff"/>
              </g>
              <g id="Gruppe_692" data-name="Gruppe 692" transform="translate(22.14 18.547)">
                <path id="Pfad_657" data-name="Pfad 657" d="M-854.906,370.88a.18.18,0,0,1-.091-.025l-3.33-1.923a.182.182,0,0,1-.067-.249.182.182,0,0,1,.249-.067l3.331,1.923a.183.183,0,0,1,.067.249.183.183,0,0,1-.158.091Z" transform="translate(858.42 -368.592)" fill="#fff"/>
              </g>
              <g id="Gruppe_693" data-name="Gruppe 693" transform="translate(23.451 13.645)">
                <path id="Pfad_658" data-name="Pfad 658" d="M-849.684,351.371h-3.846a.183.183,0,0,1-.183-.183.183.183,0,0,1,.183-.182h3.846a.182.182,0,0,1,.183.182.183.183,0,0,1-.183.183Z" transform="translate(853.713 -351.006)" fill="#fff"/>
              </g>
              <g id="Gruppe_694" data-name="Gruppe 694" transform="translate(22.137 6.821)">
                <path id="Pfad_659" data-name="Pfad 659" d="M-858.247,328.811a.182.182,0,0,1-.158-.091.182.182,0,0,1,.067-.249l3.331-1.923a.181.181,0,0,1,.249.067.181.181,0,0,1-.067.249l-3.331,1.923a.182.182,0,0,1-.091.025Z" transform="translate(858.43 -326.523)" fill="#fff"/>
              </g>
              <g id="Gruppe_695" data-name="Gruppe 695" transform="translate(18.548 1.827)">
                <path id="Pfad_660" data-name="Pfad 660" d="M-871.124,312.3a.181.181,0,0,1-.091-.025.182.182,0,0,1-.067-.249l1.922-3.331a.183.183,0,0,1,.249-.067.182.182,0,0,1,.067.249l-1.922,3.331a.183.183,0,0,1-.158.091Z" transform="translate(871.307 -308.604)" fill="#fff"/>
              </g>
              <g id="Gruppe_696" data-name="Gruppe 696" transform="translate(13.646)">
                <path id="Pfad_661" data-name="Pfad 661" d="M-888.71,306.262a.183.183,0,0,1-.183-.182v-3.846a.183.183,0,0,1,.183-.182.182.182,0,0,1,.183.182v3.846a.183.183,0,0,1-.183.182Z" transform="translate(888.893 -302.051)" fill="#fff"/>
              </g>
            </g>
          </g>
        </g>
      </g>
    </g>
  </g>
</svg>
