<svg xmlns="http://www.w3.org/2000/svg" width="85.288" height="85.288" viewBox="0 0 85.288 85.288">
  <g id="Gruppe_701" data-name="Gruppe 701" transform="translate(300.192 -285.83)">
    <circle id="Ellipse_28" data-name="Ellipse 28" cx="42.214" cy="42.214" r="42.214" transform="matrix(0.01, -1, 1, 0.01, -300.192, 370.253)" fill="#9df4ed"/>
    <path id="Pfad_662" data-name="Pfad 662" d="M-223.326,327.619l-8.209-3.186-13.544.589-3.533,4.711-.785,9.815-1.178,2.159,12.367,17.469-.286,8.579,15.906,15.906a42.293,42.293,0,0,0,26.116-29.254Z" transform="translate(-20.129 -15.66)" fill="#81e2d8"/>
    <path id="Pfad_663" data-name="Pfad 663" d="M-234.51,318.151a16.924,16.924,0,0,0-5.548-.915,16.934,16.934,0,0,0-16.891,16.979,16.938,16.938,0,0,0,.968,5.6,13.922,13.922,0,0,0,1.534,3.068l13.438,21.659a1.413,1.413,0,0,0,1.2.644,1.35,1.35,0,0,0,1.288-.644l13.07-21.813a14.357,14.357,0,0,0,1.472-3.068A16.934,16.934,0,0,0-234.51,318.151Zm-5.548,24.733a8.437,8.437,0,0,1-8.436-8.437,8.437,8.437,0,0,1,8.436-8.437,8.437,8.437,0,0,1,8.437,8.437A8.437,8.437,0,0,1-240.057,342.884Z" transform="translate(-17.543 -12.741)" fill="#33d4cc"/>
    <path id="Pfad_664" data-name="Pfad 664" d="M-239.813,342.871c-.082,0-.162.012-.245.012a8.437,8.437,0,0,1-8.436-8.437,8.437,8.437,0,0,1,8.436-8.437c.083,0,.163.01.245.012v-8.777c-.081,0-.163-.01-.245-.01a16.934,16.934,0,0,0-16.891,16.978,16.938,16.938,0,0,0,.968,5.6,13.921,13.921,0,0,0,1.534,3.068l13.438,21.659a1.412,1.412,0,0,0,1.2.644Z" transform="translate(-17.543 -12.741)" fill="#479490"/>
    <circle id="Ellipse_29" data-name="Ellipse 29" cx="8.44" cy="8.44" r="8.44" transform="translate(-265.993 313.287)" fill="none" stroke="#fec00f" stroke-miterlimit="10" stroke-width="3"/>
  </g>
</svg>
