<svg xmlns="http://www.w3.org/2000/svg" width="86.778" height="86.778" viewBox="0 0 86.778 86.778">
  <g id="Gruppe_674" data-name="Gruppe 674" transform="translate(960.459 -285.568)">
    <circle id="Ellipse_27" data-name="Ellipse 27" cx="42.951" cy="42.951" r="42.951" transform="matrix(0.01, -1, 1, 0.01, -960.459, 371.466)" fill="#b6b9ff"/>
    <g id="Gruppe_700" data-name="Gruppe 700" transform="translate(-946.787 295.535)">
      <path id="Pfad_638" data-name="Pfad 638" d="M-889.885,386.765a43,43,0,0,0,32.063-27.2l-28.334-28.335a15.156,15.156,0,0,0-12-5.88,15.18,15.18,0,0,0-15.185,15.185c0,.5.356,7.506,6.086,14.879,1.656,2.212,1.364,6.644,1.346,6.69h-.288a.777.777,0,0,0-.778.778.776.776,0,0,0,.22.542l0,0,.888.89v.382h-.327a.778.778,0,0,0-.778.778.782.782,0,0,0,.239.561l-.022.022.888.888v.345h-.327a.777.777,0,0,0-.778.778.768.768,0,0,0,.285.6l-.024.025.844.844v.519a.984.984,0,0,0,.646.922.966.966,0,0,0,.217.559l-.056.055Z" transform="translate(928.161 -311.26)" fill="#a0a0ef"/>
      <g id="Gruppe_699" data-name="Gruppe 699" transform="translate(0 0)">
        <path id="Pfad_639" data-name="Pfad 639" d="M-886.752,401.053h-12.2a.977.977,0,0,1-.975-.976.977.977,0,0,1,.975-.976h12.2a.977.977,0,0,1,.975.976.977.977,0,0,1-.975.976Z" transform="translate(922.857 -340.415)" fill="#8a81eb"/>
        <g id="Gruppe_698" data-name="Gruppe 698">
          <g id="Gruppe_684" data-name="Gruppe 684" transform="translate(14.822 14.087)">
            <path id="Pfad_640" data-name="Pfad 640" d="M-913.339,340.532a15.18,15.18,0,0,1,15.185-15.185,15.179,15.179,0,0,1,15.185,15.185c0,.5-.364,7.516-6.084,14.879-1.674,2.224-1.4,6.695-1.384,6.695h-15.47c.015,0,.319-4.471-1.346-6.695C-912.983,348.038-913.339,341.027-913.339,340.532Z" transform="translate(913.339 -325.347)" fill="#e6e6e6"/>
            <path id="Pfad_641" data-name="Pfad 641" d="M-898.154,362.106h-7.753c.015,0,.319-4.471-1.346-6.695-5.729-7.373-6.086-14.383-6.086-14.879a15.18,15.18,0,0,1,15.185-15.185" transform="translate(913.339 -325.347)" fill="#fff"/>
            <g id="Gruppe_674-2" data-name="Gruppe 674" transform="translate(15.185 3.226)">
              <path id="Pfad_642" data-name="Pfad 642" d="M-876.268,342.636H-877.6a10.637,10.637,0,0,0-10.628-10.622v-1.332a11.971,11.971,0,0,1,11.96,11.954Z" transform="translate(888.228 -330.682)" fill="#fff"/>
            </g>
            <g id="Gruppe_679" data-name="Gruppe 679" transform="translate(9.272 22.029)">
              <g id="Gruppe_677" data-name="Gruppe 677">
                <g id="Gruppe_675" data-name="Gruppe 675" transform="translate(7.915)">
                  <path id="Pfad_643" data-name="Pfad 643" d="M-883.6,377.692l-1.314-.218,2.595-15.7,1.315.217-2.595,15.7Z" transform="translate(884.916 -361.777)" fill="#fec00f"/>
                </g>
                <g id="Gruppe_676" data-name="Gruppe 676">
                  <path id="Pfad_644" data-name="Pfad 644" d="M-895.411,377.692l-2.595-15.7,1.315-.217,2.595,15.7-1.315.218Z" transform="translate(898.006 -361.777)" fill="#fec00f"/>
                </g>
              </g>
              <g id="Gruppe_678" data-name="Gruppe 678" transform="translate(0.995 0.085)">
                <path id="Pfad_645" data-name="Pfad 645" d="M-886.275,364.043c-.545,0-.781-.532-.954-.92-.071-.162-.221-.5-.306-.5s-.232.337-.3.5c-.173.388-.408.92-.953.92s-.781-.532-.954-.92c-.072-.161-.221-.5-.307-.5s-.233.337-.305.5c-.172.388-.408.92-.954.92s-.782-.532-.954-.92c-.072-.161-.222-.5-.307-.5s-.235.337-.306.5c-.174.388-.409.92-.956.92s-.782-.532-.955-.919c-.072-.162-.223-.5-.308-.5s-.235.338-.307.5c-.172.388-.41.92-.956.92v-.709c.085,0,.236-.337.308-.5.173-.388.409-.918.955-.918s.784.53.957.918c.072.162.222.5.307.5s.235-.337.307-.5c.173-.388.409-.918.955-.918s.781.53.955.918c.071.162.221.5.306.5s.235-.337.306-.5c.173-.388.409-.918.954-.918s.782.531.954.919c.072.162.222.5.306.5s.232-.336.3-.5c.172-.388.408-.919.953-.919s.782.531.955.919c.071.162.221.5.305.5v.709Z" transform="translate(896.361 -361.917)" fill="#fec00f"/>
              </g>
            </g>
            <path id="Pfad_646" data-name="Pfad 646" d="M-885.537,386.146v7.939a.985.985,0,0,1-.986.986H-900a.986.986,0,0,1-.983-.986v-7.939Z" transform="translate(908.455 -349.381)" fill="#5b379c"/>
            <g id="Gruppe_683" data-name="Gruppe 683" transform="translate(6.366 36.753)">
              <g id="Gruppe_680" data-name="Gruppe 680">
                <line id="Linie_80" data-name="Linie 80" x1="16.085" transform="translate(0.777 0.779)" fill="#0e303f"/>
                <path id="Pfad_647" data-name="Pfad 647" d="M-885.949,387.683h-16.084a.778.778,0,0,1-.778-.778.778.778,0,0,1,.778-.779h16.084a.778.778,0,0,1,.778.779.778.778,0,0,1-.778.778Z" transform="translate(902.811 -386.126)" fill="#8a81eb"/>
              </g>
              <g id="Gruppe_681" data-name="Gruppe 681" transform="translate(0 2.595)">
                <line id="Linie_81" data-name="Linie 81" x1="16.085" transform="translate(0.777 0.778)" fill="#0e303f"/>
                <path id="Pfad_648" data-name="Pfad 648" d="M-885.949,391.973h-16.084a.778.778,0,0,1-.778-.778.778.778,0,0,1,.778-.778h16.084a.778.778,0,0,1,.778.778.778.778,0,0,1-.778.778Z" transform="translate(902.811 -390.417)" fill="#8a81eb"/>
              </g>
              <g id="Gruppe_682" data-name="Gruppe 682" transform="translate(0 5.189)">
                <line id="Linie_82" data-name="Linie 82" x1="16.085" transform="translate(0.777 0.778)" fill="#0e303f"/>
                <path id="Pfad_649" data-name="Pfad 649" d="M-885.949,396.263h-16.084a.778.778,0,0,1-.778-.778.777.777,0,0,1,.778-.778h16.084a.778.778,0,0,1,.778.778.778.778,0,0,1-.778.778Z" transform="translate(902.811 -394.707)" fill="#8a81eb"/>
              </g>
            </g>
          </g>
          <g id="Gruppe_697" data-name="Gruppe 697">
            <g id="Gruppe_685" data-name="Gruppe 685" transform="translate(29.604)">
              <path id="Pfad_650" data-name="Pfad 650" d="M-888.5,311.186a.4.4,0,0,1-.4-.4v-8.344a.4.4,0,0,1,.4-.4.4.4,0,0,1,.4.4v8.344a.4.4,0,0,1-.4.4Z" transform="translate(888.893 -302.051)" fill="#fff"/>
            </g>
            <g id="Gruppe_686" data-name="Gruppe 686" transform="translate(14.8 3.97)">
              <path id="Pfad_651" data-name="Pfad 651" d="M-908.808,316.633a.394.394,0,0,1-.343-.2l-4.171-7.225a.393.393,0,0,1,.145-.539.394.394,0,0,1,.541.144l4.171,7.225a.4.4,0,0,1-.144.542.4.4,0,0,1-.2.052Z" transform="translate(913.375 -308.617)" fill="#fff"/>
            </g>
            <g id="Gruppe_687" data-name="Gruppe 687" transform="translate(3.965 14.81)">
              <path id="Pfad_652" data-name="Pfad 652" d="M-923.673,331.507a.384.384,0,0,1-.2-.054l-7.224-4.171a.4.4,0,0,1-.145-.541.394.394,0,0,1,.541-.145l7.224,4.171a.4.4,0,0,1,.145.542.4.4,0,0,1-.343.2Z" transform="translate(931.293 -326.542)" fill="#fff"/>
            </g>
            <g id="Gruppe_688" data-name="Gruppe 688" transform="translate(0 29.615)">
              <path id="Pfad_653" data-name="Pfad 653" d="M-929.11,351.819h-8.343a.4.4,0,0,1-.4-.4.4.4,0,0,1,.4-.4h8.343a.4.4,0,0,1,.4.4.4.4,0,0,1-.4.4Z" transform="translate(937.85 -351.026)" fill="#fff"/>
            </g>
            <g id="Gruppe_689" data-name="Gruppe 689" transform="translate(3.972 40.249)">
              <path id="Pfad_654" data-name="Pfad 654" d="M-930.885,373.575a.393.393,0,0,1-.343-.2.4.4,0,0,1,.145-.541l7.225-4.171a.4.4,0,0,1,.541.145.4.4,0,0,1-.146.54l-7.225,4.172a.391.391,0,0,1-.2.053Z" transform="translate(931.282 -368.611)" fill="#fff"/>
            </g>
            <g id="Gruppe_690" data-name="Gruppe 690" transform="translate(14.811 48.031)">
              <path id="Pfad_655" data-name="Pfad 655" d="M-912.96,389.5a.392.392,0,0,1-.2-.053.4.4,0,0,1-.146-.541l4.174-7.225a.394.394,0,0,1,.539-.146.4.4,0,0,1,.146.541l-4.173,7.225a.393.393,0,0,1-.342.2Z" transform="translate(913.357 -381.481)" fill="#fff"/>
            </g>
            <g id="Gruppe_691" data-name="Gruppe 691" transform="translate(40.251 48.025)">
              <path id="Pfad_656" data-name="Pfad 656" d="M-866.719,389.488a.394.394,0,0,1-.344-.2l-4.171-7.225a.394.394,0,0,1,.145-.54.393.393,0,0,1,.541.145l4.171,7.226a.4.4,0,0,1-.144.541.407.407,0,0,1-.2.053Z" transform="translate(871.287 -381.47)" fill="#fff"/>
            </g>
            <g id="Gruppe_692" data-name="Gruppe 692" transform="translate(48.032 40.238)">
              <path id="Pfad_657" data-name="Pfad 657" d="M-850.8,373.556a.391.391,0,0,1-.2-.053l-7.225-4.172a.4.4,0,0,1-.145-.541.394.394,0,0,1,.541-.145l7.226,4.171a.4.4,0,0,1,.145.541.4.4,0,0,1-.343.2Z" transform="translate(858.42 -368.592)" fill="#fff"/>
            </g>
            <g id="Gruppe_693" data-name="Gruppe 693" transform="translate(50.878 29.603)">
              <path id="Pfad_658" data-name="Pfad 658" d="M-844.972,351.8h-8.345a.4.4,0,0,1-.4-.4.4.4,0,0,1,.4-.4h8.345a.4.4,0,0,1,.4.4.4.4,0,0,1-.4.4Z" transform="translate(853.713 -351.006)" fill="#fff"/>
            </g>
            <g id="Gruppe_694" data-name="Gruppe 694" transform="translate(48.025 14.798)">
              <path id="Pfad_659" data-name="Pfad 659" d="M-858.033,331.487a.394.394,0,0,1-.344-.2.4.4,0,0,1,.145-.541l7.226-4.171a.394.394,0,0,1,.54.145.393.393,0,0,1-.145.54l-7.226,4.172a.4.4,0,0,1-.2.053Z" transform="translate(858.43 -326.523)" fill="#fff"/>
            </g>
            <g id="Gruppe_695" data-name="Gruppe 695" transform="translate(40.239 3.963)">
              <path id="Pfad_660" data-name="Pfad 660" d="M-870.911,316.624a.391.391,0,0,1-.2-.054.394.394,0,0,1-.146-.539l4.171-7.227a.4.4,0,0,1,.541-.145.4.4,0,0,1,.145.541l-4.17,7.227a.4.4,0,0,1-.343.2Z" transform="translate(871.307 -308.604)" fill="#fff"/>
            </g>
            <g id="Gruppe_696" data-name="Gruppe 696" transform="translate(29.604)">
              <path id="Pfad_661" data-name="Pfad 661" d="M-888.5,311.186a.4.4,0,0,1-.4-.4v-8.344a.4.4,0,0,1,.4-.4.4.4,0,0,1,.4.4v8.344a.4.4,0,0,1-.4.4Z" transform="translate(888.893 -302.051)" fill="#fff"/>
            </g>
          </g>
        </g>
      </g>
    </g>
  </g>
</svg>
