<svg id="Logo_-_65_x_65_Px" data-name="Logo - 65 x 65 Px" xmlns="http://www.w3.org/2000/svg" width="65" height="65" viewBox="0 0 65 65">
  <g id="Gruppe_2" data-name="Gruppe 2" transform="translate(-167.43 -187.293)">
    <path id="Pfad_4" data-name="Pfad 4" d="M180.808,200.671a27.075,27.075,0,0,1,29.647-5.8,2.729,2.729,0,1,0,2.126-5.027,32.517,32.517,0,0,0-42.6,42.6,2.729,2.729,0,1,0,5.027-2.126,27.018,27.018,0,0,1,5.8-29.648Z"/>
    <path id="Pfad_5" data-name="Pfad 5" d="M229.874,207.141a2.729,2.729,0,1,0-5.026,2.126A27.059,27.059,0,0,1,189.4,244.711a2.729,2.729,0,0,0-2.125,5.028,32.516,32.516,0,0,0,42.595-42.6Z"/>
    <path id="Pfad_6" data-name="Pfad 6" d="M193.464,224.518h-2.136a1.713,1.713,0,0,0-1.891,1.873v.865c0,5.136,3.13,7.965,8.813,7.965h3.426c5.647,0,8.758-2.834,8.758-7.982v-.653c0-4.205-1.835-6.59-6.135-7.977l-6.5-2.1c-1.684-.546-2.34-1.37-2.34-2.936v-1.043c0-1.793.947-2.629,2.982-2.629h3.072c2.038,0,2.947.822,2.947,2.665v1.2a1.7,1.7,0,0,0,1.891,1.873H208.4a1.689,1.689,0,0,0,1.873-1.873v-.937c0-5.125-3.154-7.947-8.882-7.947h-2.826c-5.668,0-8.919,2.9-8.919,7.947v.725c0,4.089,1.95,6.618,6.136,7.959l6.514,2.1c1.685.553,2.342,1.381,2.342,2.954v.989c0,1.868-.887,2.665-2.964,2.665H198.25c-2.063,0-2.983-.822-2.983-2.665v-1.165A1.658,1.658,0,0,0,193.464,224.518Z"/>
  </g>
</svg>
