<?xml version="1.0" encoding="utf-8"?>
<!-- Generator: Adobe Illustrator 23.0.3, SVG Export Plug-In . SVG Version: 6.00 Build 0)  -->
<svg version="1.1" id="Ebene_1" xmlns="http://www.w3.org/2000/svg" xmlns:xlink="http://www.w3.org/1999/xlink" x="0px" y="0px"
	 viewBox="0 0 65 65" style="enable-background:new 0 0 65 65;" xml:space="preserve">
<g>
	<g>
		<path d="M2.3,39.3h2l-0.5-2.5C2.5,27.7,5.5,18.5,12,12c6.5-6.5,15.8-9.5,24.8-8.2l2.5,0.4v-2C29-0.1,18.1,3.1,10.6,10.6
			C3.1,18.1-0.1,29,2.3,39.3z"/>
	</g>
	<g>
		<path d="M25.7,62.7c10.3,2.3,21.3-0.8,28.8-8.3c7.5-7.5,10.6-18.4,8.3-28.8h-2.1l0.5,2.4c1.4,9.2-1.7,18.5-8.1,24.9
			c-6.5,6.5-15.8,9.5-24.8,8.2l-0.2,0l-2.3-0.6V62.7z"/>
	</g>
</g>
<g>
	<path d="M37.8,25.8c-0.2-3-2.2-4.8-5.3-4.8c-2.7,0-4.8,1.5-4.8,3.5c0,1,0.6,1.9,1.7,2.5c0.9,0.5,0.9,0.5,5.4,2.2
		c5.6,2.3,6.4,2.7,7.7,4.1c1.5,1.5,2.3,3.6,2.3,6c0,6.2-4.5,10.1-11.7,10.1c-8,0-12.4-4.1-12.7-11.8h6.1c0.4,4.2,2.6,6.3,6.7,6.3
		c3.1,0,5.2-1.4,5.2-3.5c0-1.3-0.7-2.3-2.3-3.1c-0.9-0.5-0.9-0.5-5.6-2.4c-3.7-1.6-5.5-2.6-6.7-3.9c-1.5-1.6-2.3-3.6-2.3-5.9
		c0-5.6,4.6-9.6,11.2-9.6c4.1,0,7.5,1.6,9.5,4.4c1.1,1.6,1.6,3.2,1.8,5.9H37.8z"/>
</g>
</svg>
