<svg xmlns="http://www.w3.org/2000/svg" xmlns:xlink="http://www.w3.org/1999/xlink" viewBox="0 0 65 65"><defs><linearGradient id="a" y1="42.7" x2="46.68" y2="42.7" gradientTransform="matrix(1, 0, 0, -1, 0, 66)" gradientUnits="userSpaceOnUse"><stop offset="0" stop-color="#58368d"/><stop offset="1" stop-color="#3160ab"/></linearGradient><linearGradient id="b" x1="18.32" y1="24.34" x2="65" y2="24.34" xlink:href="#a"/></defs><title>Zeichenfläche 1</title><path d="M4.9,46.7a2.53,2.53,0,0,1-2.3-1.5,32.32,32.32,0,0,1,0-25.4,31.38,31.38,0,0,1,7-10.3,34.19,34.19,0,0,1,10.3-7A32.42,32.42,0,0,1,32.6-.1,32.78,32.78,0,0,1,45.3,2.5a2.42,2.42,0,0,1,1.3,3.3,2.45,2.45,0,0,1-3.3,1.3A28.83,28.83,0,0,0,32.5,5,26.29,26.29,0,0,0,21.8,7.2a27.35,27.35,0,0,0-8.7,5.9,28.51,28.51,0,0,0-5.9,8.7A26.29,26.29,0,0,0,5,32.5,26.29,26.29,0,0,0,7.2,43.2a2.63,2.63,0,0,1-1.3,3.3A4.4,4.4,0,0,1,4.9,46.7Z" style="fill:url(#a)"/><path d="M32.5,65a32.78,32.78,0,0,1-12.7-2.6,2.42,2.42,0,0,1-1.3-3.3,2.45,2.45,0,0,1,3.3-1.3A28.05,28.05,0,0,0,32.5,60a26.29,26.29,0,0,0,10.7-2.2,27.35,27.35,0,0,0,8.7-5.9,28.51,28.51,0,0,0,5.9-8.7A28.05,28.05,0,0,0,60,32.5a26.29,26.29,0,0,0-2.2-10.7,2.51,2.51,0,1,1,4.6-2A32.42,32.42,0,0,1,65,32.5a32.78,32.78,0,0,1-2.6,12.7,31.38,31.38,0,0,1-7,10.3,34.19,34.19,0,0,1-10.3,7A33.7,33.7,0,0,1,32.5,65Z" style="fill:url(#b)"/></svg>