<svg xmlns="http://www.w3.org/2000/svg" xmlns:xlink="http://www.w3.org/1999/xlink" viewBox="0 0 65 65"><defs><linearGradient id="a" x1="22.43" y1="33.25" x2="42.58" y2="33.25" gradientTransform="matrix(1, 0, 0, -1, 0, 66)" gradientUnits="userSpaceOnUse"><stop offset="0" stop-color="#58368d"/><stop offset="1" stop-color="#3160ab"/></linearGradient><linearGradient id="b" x1="22.18" x2="42.83" xlink:href="#a"/></defs><title>Zeichenfläche 1</title><path d="M22.4,39.1a1.27,1.27,0,0,1,1.4-1.4H26c.9,0,1.3.5,1.3,1.4v1.2c0,2.2,1.2,3.2,3.5,3.2h3.5c2.3,0,3.5-1,3.5-3.2v-1c0-1.7-.7-2.8-2.7-3.5l-6.6-2.1c-4.1-1.3-5.8-3.7-5.8-7.5v-.7c0-4.8,3-7.5,8.5-7.5H34c5.4,0,8.5,2.6,8.5,7.5v.9a1.22,1.22,0,0,1-1.4,1.4H39a1.22,1.22,0,0,1-1.4-1.4V25.2c0-2.2-1.2-3.2-3.5-3.2H31c-2.3,0-3.5,1-3.5,3.1v1.1c0,1.7.7,2.8,2.7,3.4l6.5,2.1c4.3,1.4,5.8,3.7,5.8,7.6V40c0,4.9-2.9,7.5-8.3,7.5H30.7c-5.5,0-8.4-2.6-8.4-7.5v-.9Z" style="fill:url(#a)"/><path d="M34.3,47.8H30.8c-5.6,0-8.6-2.8-8.6-7.8v-.9c0-1.1.6-1.6,1.7-1.6H26a1.47,1.47,0,0,1,1.6,1.6v1.2c0,2,1,2.9,3.3,2.9h3.5c2.2,0,3.2-.9,3.2-2.9v-1c0-1.7-.7-2.6-2.5-3.2L28.4,34c-4.1-1.3-6-3.8-6-7.8v-.7c0-4.9,3.2-7.8,8.7-7.8H34c5.6,0,8.7,2.8,8.7,7.8v.9A1.43,1.43,0,0,1,41.1,28H39a1.5,1.5,0,0,1-1.7-1.6V25.2c0-2-1-2.9-3.2-2.9H31c-2.2,0-3.3.9-3.3,2.9v1.1c0,1.7.7,2.6,2.5,3.2l6.5,2.1c4.2,1.4,6,3.7,6,7.8V40C42.8,45,39.8,47.8,34.3,47.8ZM23.8,38c-.8,0-1.2.4-1.2,1.1V40c0,4.8,2.8,7.3,8.1,7.3h3.5c5.3,0,8.1-2.5,8.1-7.3v-.7c0-3.9-1.6-6-5.7-7.3l-6.5-2.1c-2-.7-2.9-1.8-2.9-3.7V25.1c0-2.2,1.3-3.4,3.8-3.4h3.1c2.5,0,3.7,1.2,3.7,3.4v1.2c0,.8.3,1.1,1.2,1.1h2c.8,0,1.1-.3,1.1-1.1v-.9c0-4.7-2.8-7.3-8.2-7.3H31.1c-5.3,0-8.2,2.6-8.2,7.3v.7c0,3.8,1.7,6.1,5.7,7.3l6.6,2.1c2,.7,2.9,1.8,2.9,3.7v1c0,2.3-1.2,3.4-3.7,3.4H30.9c-2.5,0-3.8-1.2-3.8-3.4V39c0-.8-.3-1.1-1.1-1.1H23.8Z" style="fill:url(#b)"/></svg>