<?xml version="1.0" encoding="utf-8"?>
<!-- Generator: Adobe Illustrator 21.1.0, SVG Export Plug-In . SVG Version: 6.00 Build 0)  -->
<svg version="1.1" id="Ebene_1" xmlns="http://www.w3.org/2000/svg" xmlns:xlink="http://www.w3.org/1999/xlink" x="0px" y="0px"
	 viewBox="0 0 65 65" style="enable-background:new 0 0 65 65;" xml:space="preserve">
<style type="text/css">
	.st0{fill:url(#SVGID_1_);}
	.st1{fill:url(#SVGID_2_);}
	.st2{fill:url(#SVGID_3_);}
	.st3{fill:url(#SVGID_4_);}
</style>
<g>
	<g>
		<linearGradient id="SVGID_1_" gradientUnits="userSpaceOnUse" x1="4.882813e-04" y1="23.3391" x2="46.6786" y2="23.3391">
			<stop  offset="0" style="stop-color:#58368D"/>
			<stop  offset="1" style="stop-color:#3160AB"/>
		</linearGradient>
		<path class="st0" d="M4.9,46.7c-1,0-1.9-0.6-2.3-1.5C0.9,41.1,0,36.9,0,32.5c0-4.4,0.9-8.6,2.6-12.7c1.6-3.9,4-7.3,7-10.3
			c3-3,6.5-5.3,10.3-7c4-1.7,8.3-2.6,12.7-2.6c4.4,0,8.6,0.9,12.7,2.6c1.3,0.5,1.9,2,1.3,3.3s-2,1.9-3.3,1.3C39.8,5.7,36.2,5,32.5,5
			c-3.7,0-7.3,0.7-10.7,2.2c-3.3,1.4-6.2,3.4-8.7,5.9c-2.5,2.5-4.5,5.5-5.9,8.7C5.7,25.2,5,28.8,5,32.5s0.7,7.3,2.2,10.7
			c0.5,1.3-0.1,2.7-1.3,3.3C5.5,46.6,5.2,46.7,4.9,46.7z"/>
	</g>
	<g>
		<linearGradient id="SVGID_2_" gradientUnits="userSpaceOnUse" x1="18.3216" y1="41.6605" x2="64.999" y2="41.6605">
			<stop  offset="0" style="stop-color:#58368D"/>
			<stop  offset="1" style="stop-color:#3160AB"/>
		</linearGradient>
		<path class="st1" d="M32.5,65c-4.4,0-8.6-0.9-12.7-2.6c-1.3-0.5-1.9-2-1.3-3.3s2-1.9,3.3-1.3c3.4,1.4,7,2.2,10.7,2.2
			c3.7,0,7.3-0.7,10.7-2.2c3.3-1.4,6.2-3.4,8.7-5.9c2.5-2.5,4.5-5.5,5.9-8.7c1.4-3.4,2.2-7,2.2-10.7c0-3.7-0.7-7.3-2.2-10.7
			c-0.5-1.3,0.1-2.7,1.3-3.3c1.3-0.5,2.7,0.1,3.3,1.3c1.7,4,2.6,8.3,2.6,12.7c0,4.4-0.9,8.6-2.6,12.7c-1.6,3.9-4,7.3-7,10.3
			s-6.5,5.3-10.3,7C41.1,64.1,36.9,65,32.5,65z"/>
	</g>
	<g>
		<linearGradient id="SVGID_3_" gradientUnits="userSpaceOnUse" x1="22.4265" y1="32.7604" x2="42.5845" y2="32.7604">
			<stop  offset="0" style="stop-color:#58368D"/>
			<stop  offset="1" style="stop-color:#3160AB"/>
		</linearGradient>
		<path class="st2" d="M22.4,39.1c0-0.9,0.5-1.4,1.4-1.4H26c0.9,0,1.3,0.5,1.3,1.4v1.2c0,2.2,1.2,3.2,3.5,3.2h3.5
			c2.3,0,3.5-1,3.5-3.2v-1c0-1.7-0.7-2.8-2.7-3.5l-6.6-2.1c-4.1-1.3-5.8-3.7-5.8-7.5v-0.7c0-4.8,3-7.5,8.5-7.5H34
			c5.4,0,8.5,2.6,8.5,7.5v0.9c0,0.9-0.4,1.4-1.4,1.4H39c-0.9,0-1.4-0.4-1.4-1.4v-1.2c0-2.2-1.2-3.2-3.5-3.2H31c-2.3,0-3.5,1-3.5,3.1
			v1.1c0,1.7,0.7,2.8,2.7,3.4l6.5,2.1c4.3,1.4,5.8,3.7,5.8,7.6V40c0,4.9-2.9,7.5-8.3,7.5h-3.5c-5.5,0-8.4-2.6-8.4-7.5V39.1z"/>
	</g>
	<g>
		<linearGradient id="SVGID_4_" gradientUnits="userSpaceOnUse" x1="22.1763" y1="32.7607" x2="42.835" y2="32.7607">
			<stop  offset="0" style="stop-color:#58368D"/>
			<stop  offset="1" style="stop-color:#3160AB"/>
		</linearGradient>
		<path class="st3" d="M34.3,47.8h-3.5c-5.6,0-8.6-2.8-8.6-7.8v-0.9c0-1.1,0.6-1.6,1.7-1.6H26c1,0,1.6,0.6,1.6,1.6v1.2
			c0,2,1,2.9,3.3,2.9h3.5c2.2,0,3.2-0.9,3.2-2.9v-1c0-1.7-0.7-2.6-2.5-3.2L28.4,34c-4.1-1.3-6-3.8-6-7.8v-0.7c0-4.9,3.2-7.8,8.7-7.8
			H34c5.6,0,8.7,2.8,8.7,7.8v0.9c0,1.1-0.6,1.6-1.6,1.6H39c-1.1,0-1.7-0.6-1.7-1.6v-1.2c0-2-1-2.9-3.2-2.9H31
			c-2.2,0-3.3,0.9-3.3,2.9v1.1c0,1.7,0.7,2.6,2.5,3.2l6.5,2.1c4.2,1.4,6,3.7,6,7.8V40C42.8,45,39.8,47.8,34.3,47.8z M23.8,38
			c-0.8,0-1.2,0.4-1.2,1.1V40c0,4.8,2.8,7.3,8.1,7.3h3.5c5.3,0,8.1-2.5,8.1-7.3v-0.7c0-3.9-1.6-6-5.7-7.3l-6.5-2.1
			c-2-0.7-2.9-1.8-2.9-3.7v-1.1c0-2.2,1.3-3.4,3.8-3.4h3.1c2.5,0,3.7,1.2,3.7,3.4v1.2c0,0.8,0.3,1.1,1.2,1.1H41
			c0.8,0,1.1-0.3,1.1-1.1v-0.9c0-4.7-2.8-7.3-8.2-7.3h-2.8c-5.3,0-8.2,2.6-8.2,7.3v0.7c0,3.8,1.7,6.1,5.7,7.3l6.6,2.1
			c2,0.7,2.9,1.8,2.9,3.7v1c0,2.3-1.2,3.4-3.7,3.4h-3.5c-2.5,0-3.8-1.2-3.8-3.4v-1.2c0-0.8-0.3-1.1-1.1-1.1H23.8z"/>
	</g>
</g>
</svg>
