<?xml version="1.0" encoding="utf-8"?>
<!-- Generator: Adobe Illustrator 21.1.0, SVG Export Plug-In . SVG Version: 6.00 Build 0)  -->
<svg version="1.1" id="Ebene_1" xmlns="http://www.w3.org/2000/svg" xmlns:xlink="http://www.w3.org/1999/xlink" x="0px" y="0px"
	 viewBox="0 0 317.3 317.3" style="enable-background:new 0 0 317.3 317.3;" xml:space="preserve">
<style type="text/css">
	.st0{fill:url(#SVGID_1_);}
	.st1{fill:#FFFFFF;}
	.st2{fill:url(#SVGID_2_);}
</style>
<g>
	
		<linearGradient id="SVGID_1_" gradientUnits="userSpaceOnUse" x1="1921.9805" y1="692.225" x2="2121.5237" y2="492.6819" gradientTransform="matrix(0.9133 -0.4072 0.4072 0.9133 -1930.4149 459.3334)">
		<stop  offset="0.5019" style="stop-color:#5A3795"/>
		<stop  offset="1" style="stop-color:#2E60AD"/>
	</linearGradient>
	<path class="st0" d="M302,90.5c-11.5-16.2-35-26.8-72-23.5c-35.5,3.2-68,13.2-119.4,36.2S12.8,160.5,6.3,202.5
		c-9.5,61.6,30.4,92.3,60.5,81.5c35.8-12.9,25.5-36.2,65.5-60.8c47.1-29,60.2-17.9,121.9-37.7C254.1,185.5,352.3,161.2,302,90.5z"/>
	<g>
		<path class="st1" d="M101.6,85.8c0,1-0.8,1.8-1.8,1.8c-1,0-1.8-0.8-1.8-1.8s0.8-1.8,1.8-1.8C100.8,84,101.6,84.8,101.6,85.8"/>
		<path class="st1" d="M112.2,85.8c0,1-0.8,1.8-1.8,1.8s-1.8-0.8-1.8-1.8s0.8-1.8,1.8-1.8S112.2,84.8,112.2,85.8"/>
		<path class="st1" d="M122.8,85.8c0,1-0.8,1.8-1.8,1.8c-1,0-1.8-0.8-1.8-1.8S120,84,121,84C122,84,122.8,84.8,122.8,85.8"/>
		<path class="st1" d="M91,96.4c0,1-0.8,1.8-1.8,1.8c-1,0-1.8-0.8-1.8-1.8c0-1,0.8-1.8,1.8-1.8C90.2,94.6,91,95.4,91,96.4"/>
		<path class="st1" d="M101.6,96.4c0,1-0.8,1.8-1.8,1.8c-1,0-1.8-0.8-1.8-1.8c0-1,0.8-1.8,1.8-1.8C100.8,94.6,101.6,95.4,101.6,96.4
			"/>
		<path class="st1" d="M112.2,96.4c0,1-0.8,1.8-1.8,1.8s-1.8-0.8-1.8-1.8c0-1,0.8-1.8,1.8-1.8S112.2,95.4,112.2,96.4"/>
		<path class="st1" d="M122.8,96.4c0,1-0.8,1.8-1.8,1.8c-1,0-1.8-0.8-1.8-1.8c0-1,0.8-1.8,1.8-1.8C122,94.6,122.8,95.4,122.8,96.4"
			/>
		<path class="st1" d="M133.4,96.4c0,1-0.8,1.8-1.8,1.8c-1,0-1.8-0.8-1.8-1.8c0-1,0.8-1.8,1.8-1.8C132.6,94.6,133.4,95.4,133.4,96.4
			"/>
		<path class="st1" d="M91,107c0,1-0.8,1.8-1.8,1.8c-1,0-1.8-0.8-1.8-1.8s0.8-1.8,1.8-1.8C90.2,105.2,91,106,91,107"/>
		<path class="st1" d="M101.6,107c0,1-0.8,1.8-1.8,1.8c-1,0-1.8-0.8-1.8-1.8s0.8-1.8,1.8-1.8C100.8,105.2,101.6,106,101.6,107"/>
		<path class="st1" d="M112.2,107c0,1-0.8,1.8-1.8,1.8s-1.8-0.8-1.8-1.8s0.8-1.8,1.8-1.8S112.2,106,112.2,107"/>
		<path class="st1" d="M122.8,107c0,1-0.8,1.8-1.8,1.8c-1,0-1.8-0.8-1.8-1.8s0.8-1.8,1.8-1.8C122,105.2,122.8,106,122.8,107"/>
		<path class="st1" d="M133.4,107c0,1-0.8,1.8-1.8,1.8c-1,0-1.8-0.8-1.8-1.8s0.8-1.8,1.8-1.8C132.6,105.2,133.4,106,133.4,107"/>
		<path class="st1" d="M59.2,117.5c0,1-0.8,1.8-1.8,1.8c-1,0-1.8-0.8-1.8-1.8c0-1,0.8-1.8,1.8-1.8C58.4,115.8,59.2,116.6,59.2,117.5
			"/>
		<path class="st1" d="M69.8,117.5c0,1-0.8,1.8-1.8,1.8s-1.8-0.8-1.8-1.8c0-1,0.8-1.8,1.8-1.8S69.8,116.6,69.8,117.5"/>
		<path class="st1" d="M80.4,117.5c0,1-0.8,1.8-1.8,1.8s-1.8-0.8-1.8-1.8c0-1,0.8-1.8,1.8-1.8S80.4,116.6,80.4,117.5"/>
		<path class="st1" d="M91,117.5c0,1-0.8,1.8-1.8,1.8c-1,0-1.8-0.8-1.8-1.8c0-1,0.8-1.8,1.8-1.8C90.2,115.8,91,116.6,91,117.5"/>
		<path class="st1" d="M101.6,117.5c0,1-0.8,1.8-1.8,1.8c-1,0-1.8-0.8-1.8-1.8c0-1,0.8-1.8,1.8-1.8
			C100.8,115.8,101.6,116.6,101.6,117.5"/>
		<path class="st1" d="M112.2,117.5c0,1-0.8,1.8-1.8,1.8s-1.8-0.8-1.8-1.8c0-1,0.8-1.8,1.8-1.8S112.2,116.6,112.2,117.5"/>
		<path class="st1" d="M122.8,117.5c0,1-0.8,1.8-1.8,1.8c-1,0-1.8-0.8-1.8-1.8c0-1,0.8-1.8,1.8-1.8
			C122,115.8,122.8,116.6,122.8,117.5"/>
		<path class="st1" d="M133.4,117.5c0,1-0.8,1.8-1.8,1.8c-1,0-1.8-0.8-1.8-1.8c0-1,0.8-1.8,1.8-1.8
			C132.6,115.8,133.4,116.6,133.4,117.5"/>
		<path class="st1" d="M48.6,128.1c0,1-0.8,1.8-1.8,1.8s-1.8-0.8-1.8-1.8c0-1,0.8-1.8,1.8-1.8S48.6,127.1,48.6,128.1"/>
		<path class="st1" d="M59.2,128.1c0,1-0.8,1.8-1.8,1.8c-1,0-1.8-0.8-1.8-1.8c0-1,0.8-1.8,1.8-1.8C58.4,126.3,59.2,127.1,59.2,128.1
			"/>
		<path class="st1" d="M69.8,128.1c0,1-0.8,1.8-1.8,1.8s-1.8-0.8-1.8-1.8c0-1,0.8-1.8,1.8-1.8S69.8,127.1,69.8,128.1"/>
		<path class="st1" d="M80.4,128.1c0,1-0.8,1.8-1.8,1.8s-1.8-0.8-1.8-1.8c0-1,0.8-1.8,1.8-1.8S80.4,127.1,80.4,128.1"/>
		<path class="st1" d="M91,128.1c0,1-0.8,1.8-1.8,1.8c-1,0-1.8-0.8-1.8-1.8c0-1,0.8-1.8,1.8-1.8C90.2,126.3,91,127.1,91,128.1"/>
		<path class="st1" d="M101.6,128.1c0,1-0.8,1.8-1.8,1.8c-1,0-1.8-0.8-1.8-1.8c0-1,0.8-1.8,1.8-1.8
			C100.8,126.3,101.6,127.1,101.6,128.1"/>
		<path class="st1" d="M112.2,128.1c0,1-0.8,1.8-1.8,1.8s-1.8-0.8-1.8-1.8c0-1,0.8-1.8,1.8-1.8S112.2,127.1,112.2,128.1"/>
		<path class="st1" d="M122.8,128.1c0,1-0.8,1.8-1.8,1.8c-1,0-1.8-0.8-1.8-1.8c0-1,0.8-1.8,1.8-1.8
			C122,126.3,122.8,127.1,122.8,128.1"/>
		<path class="st1" d="M59.2,138.7c0,1-0.8,1.8-1.8,1.8c-1,0-1.8-0.8-1.8-1.8c0-1,0.8-1.8,1.8-1.8C58.4,136.9,59.2,137.7,59.2,138.7
			"/>
		<path class="st1" d="M69.8,138.7c0,1-0.8,1.8-1.8,1.8s-1.8-0.8-1.8-1.8c0-1,0.8-1.8,1.8-1.8S69.8,137.7,69.8,138.7"/>
		<path class="st1" d="M80.4,138.7c0,1-0.8,1.8-1.8,1.8s-1.8-0.8-1.8-1.8c0-1,0.8-1.8,1.8-1.8S80.4,137.7,80.4,138.7"/>
		<path class="st1" d="M91,138.7c0,1-0.8,1.8-1.8,1.8c-1,0-1.8-0.8-1.8-1.8c0-1,0.8-1.8,1.8-1.8C90.2,136.9,91,137.7,91,138.7"/>
		<path class="st1" d="M101.6,138.7c0,1-0.8,1.8-1.8,1.8c-1,0-1.8-0.8-1.8-1.8c0-1,0.8-1.8,1.8-1.8
			C100.8,136.9,101.6,137.7,101.6,138.7"/>
		<path class="st1" d="M112.2,138.7c0,1-0.8,1.8-1.8,1.8s-1.8-0.8-1.8-1.8c0-1,0.8-1.8,1.8-1.8S112.2,137.7,112.2,138.7"/>
		<path class="st1" d="M122.8,138.7c0,1-0.8,1.8-1.8,1.8c-1,0-1.8-0.8-1.8-1.8c0-1,0.8-1.8,1.8-1.8
			C122,136.9,122.8,137.7,122.8,138.7"/>
		<path class="st1" d="M144,138.7c0,1-0.8,1.8-1.8,1.8c-1,0-1.8-0.8-1.8-1.8c0-1,0.8-1.8,1.8-1.8C143.2,136.9,144,137.7,144,138.7"
			/>
		<path class="st1" d="M154.5,138.7c0,1-0.8,1.8-1.8,1.8s-1.8-0.8-1.8-1.8c0-1,0.8-1.8,1.8-1.8S154.5,137.7,154.5,138.7"/>
		<path class="st1" d="M80.4,149.3c0,1-0.8,1.8-1.8,1.8s-1.8-0.8-1.8-1.8c0-1,0.8-1.8,1.8-1.8S80.4,148.3,80.4,149.3"/>
		<path class="st1" d="M91,149.3c0,1-0.8,1.8-1.8,1.8c-1,0-1.8-0.8-1.8-1.8c0-1,0.8-1.8,1.8-1.8C90.2,147.5,91,148.3,91,149.3"/>
		<path class="st1" d="M101.6,149.3c0,1-0.8,1.8-1.8,1.8c-1,0-1.8-0.8-1.8-1.8c0-1,0.8-1.8,1.8-1.8
			C100.8,147.5,101.6,148.3,101.6,149.3"/>
		<path class="st1" d="M112.2,149.3c0,1-0.8,1.8-1.8,1.8s-1.8-0.8-1.8-1.8c0-1,0.8-1.8,1.8-1.8S112.2,148.3,112.2,149.3"/>
		<path class="st1" d="M122.8,149.3c0,1-0.8,1.8-1.8,1.8c-1,0-1.8-0.8-1.8-1.8c0-1,0.8-1.8,1.8-1.8
			C122,147.5,122.8,148.3,122.8,149.3"/>
		<path class="st1" d="M133.4,149.3c0,1-0.8,1.8-1.8,1.8c-1,0-1.8-0.8-1.8-1.8c0-1,0.8-1.8,1.8-1.8
			C132.6,147.5,133.4,148.3,133.4,149.3"/>
		<path class="st1" d="M144,149.3c0,1-0.8,1.8-1.8,1.8c-1,0-1.8-0.8-1.8-1.8c0-1,0.8-1.8,1.8-1.8C143.2,147.5,144,148.3,144,149.3"
			/>
		<path class="st1" d="M154.5,149.3c0,1-0.8,1.8-1.8,1.8s-1.8-0.8-1.8-1.8c0-1,0.8-1.8,1.8-1.8S154.5,148.3,154.5,149.3"/>
		<path class="st1" d="M80.4,159.9c0,1-0.8,1.8-1.8,1.8s-1.8-0.8-1.8-1.8s0.8-1.8,1.8-1.8S80.4,158.9,80.4,159.9"/>
		<path class="st1" d="M91,159.9c0,1-0.8,1.8-1.8,1.8c-1,0-1.8-0.8-1.8-1.8s0.8-1.8,1.8-1.8C90.2,158.1,91,158.9,91,159.9"/>
		<path class="st1" d="M101.6,159.9c0,1-0.8,1.8-1.8,1.8c-1,0-1.8-0.8-1.8-1.8s0.8-1.8,1.8-1.8C100.8,158.1,101.6,158.9,101.6,159.9
			"/>
		<path class="st1" d="M112.2,159.9c0,1-0.8,1.8-1.8,1.8s-1.8-0.8-1.8-1.8s0.8-1.8,1.8-1.8S112.2,158.9,112.2,159.9"/>
		<path class="st1" d="M122.8,159.9c0,1-0.8,1.8-1.8,1.8c-1,0-1.8-0.8-1.8-1.8s0.8-1.8,1.8-1.8C122,158.1,122.8,158.9,122.8,159.9"
			/>
		<path class="st1" d="M133.4,159.9c0,1-0.8,1.8-1.8,1.8c-1,0-1.8-0.8-1.8-1.8s0.8-1.8,1.8-1.8C132.6,158.1,133.4,158.9,133.4,159.9
			"/>
		<path class="st1" d="M144,159.9c0,1-0.8,1.8-1.8,1.8c-1,0-1.8-0.8-1.8-1.8s0.8-1.8,1.8-1.8C143.2,158.1,144,158.9,144,159.9"/>
		<path class="st1" d="M154.5,159.9c0,1-0.8,1.8-1.8,1.8s-1.8-0.8-1.8-1.8s0.8-1.8,1.8-1.8S154.5,158.9,154.5,159.9"/>
		<path class="st1" d="M165.1,159.9c0,1-0.8,1.8-1.8,1.8c-1,0-1.8-0.8-1.8-1.8s0.8-1.8,1.8-1.8C164.3,158.1,165.1,158.9,165.1,159.9
			"/>
		<path class="st1" d="M175.7,159.9c0,1-0.8,1.8-1.8,1.8c-1,0-1.8-0.8-1.8-1.8s0.8-1.8,1.8-1.8C174.9,158.1,175.7,158.9,175.7,159.9
			"/>
		<path class="st1" d="M59.2,170.5c0,1-0.8,1.8-1.8,1.8c-1,0-1.8-0.8-1.8-1.8c0-1,0.8-1.8,1.8-1.8C58.4,168.7,59.2,169.5,59.2,170.5
			"/>
		<path class="st1" d="M69.8,170.5c0,1-0.8,1.8-1.8,1.8s-1.8-0.8-1.8-1.8c0-1,0.8-1.8,1.8-1.8S69.8,169.5,69.8,170.5"/>
		<path class="st1" d="M80.4,170.5c0,1-0.8,1.8-1.8,1.8s-1.8-0.8-1.8-1.8c0-1,0.8-1.8,1.8-1.8S80.4,169.5,80.4,170.5"/>
		<path class="st1" d="M91,170.5c0,1-0.8,1.8-1.8,1.8c-1,0-1.8-0.8-1.8-1.8c0-1,0.8-1.8,1.8-1.8C90.2,168.7,91,169.5,91,170.5"/>
		<path class="st1" d="M101.6,170.5c0,1-0.8,1.8-1.8,1.8c-1,0-1.8-0.8-1.8-1.8c0-1,0.8-1.8,1.8-1.8
			C100.8,168.7,101.6,169.5,101.6,170.5"/>
		<path class="st1" d="M112.2,170.5c0,1-0.8,1.8-1.8,1.8s-1.8-0.8-1.8-1.8c0-1,0.8-1.8,1.8-1.8S112.2,169.5,112.2,170.5"/>
		<path class="st1" d="M122.8,170.5c0,1-0.8,1.8-1.8,1.8c-1,0-1.8-0.8-1.8-1.8c0-1,0.8-1.8,1.8-1.8
			C122,168.7,122.8,169.5,122.8,170.5"/>
		<path class="st1" d="M133.4,170.5c0,1-0.8,1.8-1.8,1.8c-1,0-1.8-0.8-1.8-1.8c0-1,0.8-1.8,1.8-1.8
			C132.6,168.7,133.4,169.5,133.4,170.5"/>
		<path class="st1" d="M144,170.5c0,1-0.8,1.8-1.8,1.8c-1,0-1.8-0.8-1.8-1.8c0-1,0.8-1.8,1.8-1.8C143.2,168.7,144,169.5,144,170.5"
			/>
		<path class="st1" d="M154.5,170.5c0,1-0.8,1.8-1.8,1.8s-1.8-0.8-1.8-1.8c0-1,0.8-1.8,1.8-1.8S154.5,169.5,154.5,170.5"/>
		<path class="st1" d="M165.1,170.5c0,1-0.8,1.8-1.8,1.8c-1,0-1.8-0.8-1.8-1.8c0-1,0.8-1.8,1.8-1.8
			C164.3,168.7,165.1,169.5,165.1,170.5"/>
		<path class="st1" d="M175.7,170.5c0,1-0.8,1.8-1.8,1.8c-1,0-1.8-0.8-1.8-1.8c0-1,0.8-1.8,1.8-1.8
			C174.9,168.7,175.7,169.5,175.7,170.5"/>
		<path class="st1" d="M59.2,181.1c0,1-0.8,1.8-1.8,1.8c-1,0-1.8-0.8-1.8-1.8c0-1,0.8-1.8,1.8-1.8C58.4,179.3,59.2,180.1,59.2,181.1
			"/>
		<path class="st1" d="M69.8,181.1c0,1-0.8,1.8-1.8,1.8s-1.8-0.8-1.8-1.8c0-1,0.8-1.8,1.8-1.8S69.8,180.1,69.8,181.1"/>
		<path class="st1" d="M80.4,181.1c0,1-0.8,1.8-1.8,1.8s-1.8-0.8-1.8-1.8c0-1,0.8-1.8,1.8-1.8S80.4,180.1,80.4,181.1"/>
		<path class="st1" d="M91,181.1c0,1-0.8,1.8-1.8,1.8c-1,0-1.8-0.8-1.8-1.8c0-1,0.8-1.8,1.8-1.8C90.2,179.3,91,180.1,91,181.1"/>
		<path class="st1" d="M101.6,181.1c0,1-0.8,1.8-1.8,1.8c-1,0-1.8-0.8-1.8-1.8c0-1,0.8-1.8,1.8-1.8
			C100.8,179.3,101.6,180.1,101.6,181.1"/>
		<path class="st1" d="M112.2,181.1c0,1-0.8,1.8-1.8,1.8s-1.8-0.8-1.8-1.8c0-1,0.8-1.8,1.8-1.8S112.2,180.1,112.2,181.1"/>
		<path class="st1" d="M122.8,181.1c0,1-0.8,1.8-1.8,1.8c-1,0-1.8-0.8-1.8-1.8c0-1,0.8-1.8,1.8-1.8
			C122,179.3,122.8,180.1,122.8,181.1"/>
		<path class="st1" d="M133.4,181.1c0,1-0.8,1.8-1.8,1.8c-1,0-1.8-0.8-1.8-1.8c0-1,0.8-1.8,1.8-1.8
			C132.6,179.3,133.4,180.1,133.4,181.1"/>
		<path class="st1" d="M144,181.1c0,1-0.8,1.8-1.8,1.8c-1,0-1.8-0.8-1.8-1.8c0-1,0.8-1.8,1.8-1.8C143.2,179.3,144,180.1,144,181.1"
			/>
		<path class="st1" d="M154.5,181.1c0,1-0.8,1.8-1.8,1.8s-1.8-0.8-1.8-1.8c0-1,0.8-1.8,1.8-1.8S154.5,180.1,154.5,181.1"/>
		<path class="st1" d="M165.1,181.1c0,1-0.8,1.8-1.8,1.8c-1,0-1.8-0.8-1.8-1.8c0-1,0.8-1.8,1.8-1.8
			C164.3,179.3,165.1,180.1,165.1,181.1"/>
		<path class="st1" d="M175.7,181.1c0,1-0.8,1.8-1.8,1.8c-1,0-1.8-0.8-1.8-1.8c0-1,0.8-1.8,1.8-1.8
			C174.9,179.3,175.7,180.1,175.7,181.1"/>
		<path class="st1" d="M69.8,191.7c0,1-0.8,1.8-1.8,1.8s-1.8-0.8-1.8-1.8c0-1,0.8-1.8,1.8-1.8S69.8,190.7,69.8,191.7"/>
		<path class="st1" d="M80.4,191.7c0,1-0.8,1.8-1.8,1.8s-1.8-0.8-1.8-1.8c0-1,0.8-1.8,1.8-1.8S80.4,190.7,80.4,191.7"/>
		<path class="st1" d="M91,191.7c0,1-0.8,1.8-1.8,1.8c-1,0-1.8-0.8-1.8-1.8c0-1,0.8-1.8,1.8-1.8C90.2,189.9,91,190.7,91,191.7"/>
		<path class="st1" d="M101.6,191.7c0,1-0.8,1.8-1.8,1.8c-1,0-1.8-0.8-1.8-1.8c0-1,0.8-1.8,1.8-1.8
			C100.8,189.9,101.6,190.7,101.6,191.7"/>
		<path class="st1" d="M112.2,191.7c0,1-0.8,1.8-1.8,1.8s-1.8-0.8-1.8-1.8c0-1,0.8-1.8,1.8-1.8S112.2,190.7,112.2,191.7"/>
		<path class="st1" d="M122.8,191.7c0,1-0.8,1.8-1.8,1.8c-1,0-1.8-0.8-1.8-1.8c0-1,0.8-1.8,1.8-1.8
			C122,189.9,122.8,190.7,122.8,191.7"/>
		<path class="st1" d="M133.4,191.7c0,1-0.8,1.8-1.8,1.8c-1,0-1.8-0.8-1.8-1.8c0-1,0.8-1.8,1.8-1.8
			C132.6,189.9,133.4,190.7,133.4,191.7"/>
		<path class="st1" d="M144,191.7c0,1-0.8,1.8-1.8,1.8c-1,0-1.8-0.8-1.8-1.8c0-1,0.8-1.8,1.8-1.8C143.2,189.9,144,190.7,144,191.7"
			/>
		<path class="st1" d="M154.5,191.7c0,1-0.8,1.8-1.8,1.8s-1.8-0.8-1.8-1.8c0-1,0.8-1.8,1.8-1.8S154.5,190.7,154.5,191.7"/>
		<path class="st1" d="M165.1,191.7c0,1-0.8,1.8-1.8,1.8c-1,0-1.8-0.8-1.8-1.8c0-1,0.8-1.8,1.8-1.8
			C164.3,189.9,165.1,190.7,165.1,191.7"/>
		<path class="st1" d="M80.4,202.3c0,1-0.8,1.8-1.8,1.8s-1.8-0.8-1.8-1.8c0-1,0.8-1.8,1.8-1.8S80.4,201.3,80.4,202.3"/>
		<path class="st1" d="M91,202.3c0,1-0.8,1.8-1.8,1.8c-1,0-1.8-0.8-1.8-1.8c0-1,0.8-1.8,1.8-1.8C90.2,200.5,91,201.3,91,202.3"/>
		<path class="st1" d="M101.6,202.3c0,1-0.8,1.8-1.8,1.8c-1,0-1.8-0.8-1.8-1.8c0-1,0.8-1.8,1.8-1.8
			C100.8,200.5,101.6,201.3,101.6,202.3"/>
		<path class="st1" d="M112.2,202.3c0,1-0.8,1.8-1.8,1.8s-1.8-0.8-1.8-1.8c0-1,0.8-1.8,1.8-1.8S112.2,201.3,112.2,202.3"/>
		<path class="st1" d="M122.8,202.3c0,1-0.8,1.8-1.8,1.8c-1,0-1.8-0.8-1.8-1.8c0-1,0.8-1.8,1.8-1.8
			C122,200.5,122.8,201.3,122.8,202.3"/>
		<path class="st1" d="M133.4,202.3c0,1-0.8,1.8-1.8,1.8c-1,0-1.8-0.8-1.8-1.8c0-1,0.8-1.8,1.8-1.8
			C132.6,200.5,133.4,201.3,133.4,202.3"/>
		<path class="st1" d="M144,202.3c0,1-0.8,1.8-1.8,1.8c-1,0-1.8-0.8-1.8-1.8c0-1,0.8-1.8,1.8-1.8C143.2,200.5,144,201.3,144,202.3"
			/>
		<path class="st1" d="M154.5,202.3c0,1-0.8,1.8-1.8,1.8s-1.8-0.8-1.8-1.8c0-1,0.8-1.8,1.8-1.8S154.5,201.3,154.5,202.3"/>
	</g>
	<linearGradient id="SVGID_2_" gradientUnits="userSpaceOnUse" x1="4.6559" y1="140.7593" x2="110.5213" y2="34.8938">
		<stop  offset="2.624199e-03" style="stop-color:#55C4C1"/>
		<stop  offset="0.5889" style="stop-color:#38E7C9"/>
	</linearGradient>
	<path class="st2" d="M75.2,87.8l35.3-35.3c4.9-4.9,4.9-12.8,0-17.7c-4.9-4.9-12.8-4.9-17.7,0L57.6,70.2L22.3,34.9
		C17.4,30,9.5,30,4.7,34.9c-4.9,4.9-4.9,12.8,0,17.7l35.3,35.3L4.7,123.1c-4.9,4.9-4.9,12.8,0,17.7c2.4,2.4,5.6,3.7,8.8,3.7
		s6.4-1.2,8.8-3.7l35.3-35.3l35.3,35.3c2.4,2.4,5.6,3.7,8.8,3.7s6.4-1.2,8.8-3.7c4.9-4.9,4.9-12.8,0-17.7L75.2,87.8z"/>
</g>
</svg>
