<?xml version="1.0" encoding="utf-8"?>
<!-- Generator: Adobe Illustrator 21.1.0, SVG Export Plug-In . SVG Version: 6.00 Build 0)  -->
<svg version="1.1" id="Ebene_1" xmlns="http://www.w3.org/2000/svg" xmlns:xlink="http://www.w3.org/1999/xlink" x="0px" y="0px"
	 viewBox="0 0 317.3 317.3" style="enable-background:new 0 0 317.3 317.3;" xml:space="preserve">
<style type="text/css">
	.st0{fill:url(#SVGID_1_);}
	.st1{fill:#323232;}
</style>
<g>
	<linearGradient id="SVGID_1_" gradientUnits="userSpaceOnUse" x1="95.6292" y1="224.0638" x2="228.5004" y2="91.1926">
		<stop  offset="2.624199e-03" style="stop-color:#55C4C1"/>
		<stop  offset="0.5889" style="stop-color:#38E7C9"/>
	</linearGradient>
	<path class="st0" d="M74.4,18c-31,52.9,44.9,115.2,51.8,183.8c6.9,68.6,52,122.3,91.9,112.5c63.3-15.5,117.7-118.1,4.8-228.7
		S85.4-0.8,74.4,18z"/>
	<g>
		<path class="st1" d="M143.3,118.8c0,1-0.8,1.9-1.9,1.9c-1,0-1.9-0.8-1.9-1.9c0-1,0.8-1.9,1.9-1.9
			C142.4,116.9,143.3,117.7,143.3,118.8"/>
		<path class="st1" d="M154.3,118.8c0,1-0.8,1.9-1.9,1.9c-1,0-1.9-0.8-1.9-1.9c0-1,0.8-1.9,1.9-1.9
			C153.5,116.9,154.3,117.7,154.3,118.8"/>
		<path class="st1" d="M165.4,118.8c0,1-0.8,1.9-1.9,1.9s-1.9-0.8-1.9-1.9c0-1,0.8-1.9,1.9-1.9S165.4,117.7,165.4,118.8"/>
		<path class="st1" d="M132.2,129.8c0,1-0.8,1.9-1.9,1.9c-1,0-1.9-0.8-1.9-1.9s0.8-1.9,1.9-1.9C131.4,128,132.2,128.8,132.2,129.8"
			/>
		<path class="st1" d="M143.3,129.8c0,1-0.8,1.9-1.9,1.9c-1,0-1.9-0.8-1.9-1.9s0.8-1.9,1.9-1.9C142.4,128,143.3,128.8,143.3,129.8"
			/>
		<path class="st1" d="M154.3,129.8c0,1-0.8,1.9-1.9,1.9c-1,0-1.9-0.8-1.9-1.9s0.8-1.9,1.9-1.9C153.5,128,154.3,128.8,154.3,129.8"
			/>
		<path class="st1" d="M165.4,129.8c0,1-0.8,1.9-1.9,1.9s-1.9-0.8-1.9-1.9s0.8-1.9,1.9-1.9S165.4,128.8,165.4,129.8"/>
		<path class="st1" d="M54.8,140.9c0,1-0.8,1.9-1.9,1.9s-1.9-0.8-1.9-1.9c0-1,0.8-1.9,1.9-1.9S54.8,139.9,54.8,140.9"/>
		<path class="st1" d="M65.9,140.9c0,1-0.8,1.9-1.9,1.9c-1,0-1.9-0.8-1.9-1.9c0-1,0.8-1.9,1.9-1.9C65.1,139,65.9,139.9,65.9,140.9"
			/>
		<path class="st1" d="M99,140.9c0,1-0.8,1.9-1.9,1.9c-1,0-1.9-0.8-1.9-1.9c0-1,0.8-1.9,1.9-1.9C98.2,139,99,139.9,99,140.9"/>
		<path class="st1" d="M110.1,140.9c0,1-0.8,1.9-1.9,1.9c-1,0-1.9-0.8-1.9-1.9c0-1,0.8-1.9,1.9-1.9
			C109.3,139,110.1,139.9,110.1,140.9"/>
		<path class="st1" d="M121.2,140.9c0,1-0.8,1.9-1.9,1.9c-1,0-1.9-0.8-1.9-1.9c0-1,0.8-1.9,1.9-1.9
			C120.3,139,121.2,139.9,121.2,140.9"/>
		<path class="st1" d="M132.2,140.9c0,1-0.8,1.9-1.9,1.9c-1,0-1.9-0.8-1.9-1.9c0-1,0.8-1.9,1.9-1.9
			C131.4,139,132.2,139.9,132.2,140.9"/>
		<path class="st1" d="M143.3,140.9c0,1-0.8,1.9-1.9,1.9c-1,0-1.9-0.8-1.9-1.9c0-1,0.8-1.9,1.9-1.9
			C142.4,139,143.3,139.9,143.3,140.9"/>
		<path class="st1" d="M32.7,151.9c0,1-0.8,1.9-1.9,1.9c-1,0-1.9-0.8-1.9-1.9c0-1,0.8-1.9,1.9-1.9C31.9,150.1,32.7,150.9,32.7,151.9
			"/>
		<path class="st1" d="M43.8,151.9c0,1-0.8,1.9-1.9,1.9c-1,0-1.9-0.8-1.9-1.9c0-1,0.8-1.9,1.9-1.9C42.9,150.1,43.8,150.9,43.8,151.9
			"/>
		<path class="st1" d="M54.8,151.9c0,1-0.8,1.9-1.9,1.9s-1.9-0.8-1.9-1.9c0-1,0.8-1.9,1.9-1.9S54.8,150.9,54.8,151.9"/>
		<path class="st1" d="M65.9,151.9c0,1-0.8,1.9-1.9,1.9c-1,0-1.9-0.8-1.9-1.9c0-1,0.8-1.9,1.9-1.9C65.1,150.1,65.9,150.9,65.9,151.9
			"/>
		<path class="st1" d="M99,151.9c0,1-0.8,1.9-1.9,1.9c-1,0-1.9-0.8-1.9-1.9c0-1,0.8-1.9,1.9-1.9C98.2,150.1,99,150.9,99,151.9"/>
		<path class="st1" d="M110.1,151.9c0,1-0.8,1.9-1.9,1.9c-1,0-1.9-0.8-1.9-1.9c0-1,0.8-1.9,1.9-1.9
			C109.3,150.1,110.1,150.9,110.1,151.9"/>
		<path class="st1" d="M121.2,151.9c0,1-0.8,1.9-1.9,1.9c-1,0-1.9-0.8-1.9-1.9c0-1,0.8-1.9,1.9-1.9
			C120.3,150.1,121.2,150.9,121.2,151.9"/>
		<path class="st1" d="M132.2,151.9c0,1-0.8,1.9-1.9,1.9c-1,0-1.9-0.8-1.9-1.9c0-1,0.8-1.9,1.9-1.9
			C131.4,150.1,132.2,150.9,132.2,151.9"/>
		<path class="st1" d="M143.3,151.9c0,1-0.8,1.9-1.9,1.9c-1,0-1.9-0.8-1.9-1.9c0-1,0.8-1.9,1.9-1.9
			C142.4,150.1,143.3,150.9,143.3,151.9"/>
		<path class="st1" d="M32.7,163c0,1-0.8,1.9-1.9,1.9c-1,0-1.9-0.8-1.9-1.9c0-1,0.8-1.9,1.9-1.9C31.9,161.1,32.7,162,32.7,163"/>
		<path class="st1" d="M43.8,163c0,1-0.8,1.9-1.9,1.9c-1,0-1.9-0.8-1.9-1.9c0-1,0.8-1.9,1.9-1.9C42.9,161.1,43.8,162,43.8,163"/>
		<path class="st1" d="M54.8,163c0,1-0.8,1.9-1.9,1.9s-1.9-0.8-1.9-1.9c0-1,0.8-1.9,1.9-1.9S54.8,162,54.8,163"/>
		<path class="st1" d="M65.9,163c0,1-0.8,1.9-1.9,1.9c-1,0-1.9-0.8-1.9-1.9c0-1,0.8-1.9,1.9-1.9C65.1,161.1,65.9,162,65.9,163"/>
		<path class="st1" d="M76.9,163c0,1-0.8,1.9-1.9,1.9c-1,0-1.9-0.8-1.9-1.9c0-1,0.8-1.9,1.9-1.9C76.1,161.1,76.9,162,76.9,163"/>
		<path class="st1" d="M88,163c0,1-0.8,1.9-1.9,1.9c-1,0-1.9-0.8-1.9-1.9c0-1,0.8-1.9,1.9-1.9C87.2,161.1,88,162,88,163"/>
		<path class="st1" d="M99,163c0,1-0.8,1.9-1.9,1.9c-1,0-1.9-0.8-1.9-1.9c0-1,0.8-1.9,1.9-1.9C98.2,161.1,99,162,99,163"/>
		<path class="st1" d="M110.1,163c0,1-0.8,1.9-1.9,1.9c-1,0-1.9-0.8-1.9-1.9c0-1,0.8-1.9,1.9-1.9C109.3,161.1,110.1,162,110.1,163"
			/>
		<path class="st1" d="M121.2,163c0,1-0.8,1.9-1.9,1.9c-1,0-1.9-0.8-1.9-1.9c0-1,0.8-1.9,1.9-1.9C120.3,161.1,121.2,162,121.2,163"
			/>
		<path class="st1" d="M132.2,163c0,1-0.8,1.9-1.9,1.9c-1,0-1.9-0.8-1.9-1.9c0-1,0.8-1.9,1.9-1.9C131.4,161.1,132.2,162,132.2,163"
			/>
		<path class="st1" d="M143.3,163c0,1-0.8,1.9-1.9,1.9c-1,0-1.9-0.8-1.9-1.9c0-1,0.8-1.9,1.9-1.9C142.4,161.1,143.3,162,143.3,163"
			/>
		<path class="st1" d="M154.3,163c0,1-0.8,1.9-1.9,1.9c-1,0-1.9-0.8-1.9-1.9c0-1,0.8-1.9,1.9-1.9C153.5,161.1,154.3,162,154.3,163"
			/>
		<path class="st1" d="M165.4,163c0,1-0.8,1.9-1.9,1.9s-1.9-0.8-1.9-1.9c0-1,0.8-1.9,1.9-1.9S165.4,162,165.4,163"/>
		<path class="st1" d="M43.8,174c0,1-0.8,1.9-1.9,1.9c-1,0-1.9-0.8-1.9-1.9c0-1,0.8-1.9,1.9-1.9C42.9,172.2,43.8,173,43.8,174"/>
		<path class="st1" d="M54.8,174c0,1-0.8,1.9-1.9,1.9s-1.9-0.8-1.9-1.9c0-1,0.8-1.9,1.9-1.9S54.8,173,54.8,174"/>
		<path class="st1" d="M65.9,174c0,1-0.8,1.9-1.9,1.9c-1,0-1.9-0.8-1.9-1.9c0-1,0.8-1.9,1.9-1.9C65.1,172.2,65.9,173,65.9,174"/>
		<path class="st1" d="M76.9,174c0,1-0.8,1.9-1.9,1.9c-1,0-1.9-0.8-1.9-1.9c0-1,0.8-1.9,1.9-1.9C76.1,172.2,76.9,173,76.9,174"/>
		<path class="st1" d="M88,174c0,1-0.8,1.9-1.9,1.9c-1,0-1.9-0.8-1.9-1.9c0-1,0.8-1.9,1.9-1.9C87.2,172.2,88,173,88,174"/>
		<path class="st1" d="M99,174c0,1-0.8,1.9-1.9,1.9c-1,0-1.9-0.8-1.9-1.9c0-1,0.8-1.9,1.9-1.9C98.2,172.2,99,173,99,174"/>
		<path class="st1" d="M110.1,174c0,1-0.8,1.9-1.9,1.9c-1,0-1.9-0.8-1.9-1.9c0-1,0.8-1.9,1.9-1.9C109.3,172.2,110.1,173,110.1,174"
			/>
		<path class="st1" d="M121.2,174c0,1-0.8,1.9-1.9,1.9c-1,0-1.9-0.8-1.9-1.9c0-1,0.8-1.9,1.9-1.9C120.3,172.2,121.2,173,121.2,174"
			/>
		<path class="st1" d="M132.2,174c0,1-0.8,1.9-1.9,1.9c-1,0-1.9-0.8-1.9-1.9c0-1,0.8-1.9,1.9-1.9C131.4,172.2,132.2,173,132.2,174"
			/>
		<path class="st1" d="M143.3,174c0,1-0.8,1.9-1.9,1.9c-1,0-1.9-0.8-1.9-1.9c0-1,0.8-1.9,1.9-1.9C142.4,172.2,143.3,173,143.3,174"
			/>
		<path class="st1" d="M154.3,174c0,1-0.8,1.9-1.9,1.9c-1,0-1.9-0.8-1.9-1.9c0-1,0.8-1.9,1.9-1.9C153.5,172.2,154.3,173,154.3,174"
			/>
		<path class="st1" d="M165.4,174c0,1-0.8,1.9-1.9,1.9s-1.9-0.8-1.9-1.9c0-1,0.8-1.9,1.9-1.9S165.4,173,165.4,174"/>
		<path class="st1" d="M54.8,185.1c0,1-0.8,1.9-1.9,1.9s-1.9-0.8-1.9-1.9s0.8-1.9,1.9-1.9S54.8,184.1,54.8,185.1"/>
		<path class="st1" d="M65.9,185.1c0,1-0.8,1.9-1.9,1.9c-1,0-1.9-0.8-1.9-1.9s0.8-1.9,1.9-1.9C65.1,183.2,65.9,184.1,65.9,185.1"/>
		<path class="st1" d="M76.9,185.1c0,1-0.8,1.9-1.9,1.9c-1,0-1.9-0.8-1.9-1.9s0.8-1.9,1.9-1.9C76.1,183.2,76.9,184.1,76.9,185.1"/>
		<path class="st1" d="M88,185.1c0,1-0.8,1.9-1.9,1.9c-1,0-1.9-0.8-1.9-1.9s0.8-1.9,1.9-1.9C87.2,183.2,88,184.1,88,185.1"/>
		<path class="st1" d="M99,185.1c0,1-0.8,1.9-1.9,1.9c-1,0-1.9-0.8-1.9-1.9s0.8-1.9,1.9-1.9C98.2,183.2,99,184.1,99,185.1"/>
		<path class="st1" d="M110.1,185.1c0,1-0.8,1.9-1.9,1.9c-1,0-1.9-0.8-1.9-1.9s0.8-1.9,1.9-1.9C109.3,183.2,110.1,184.1,110.1,185.1
			"/>
		<path class="st1" d="M121.2,185.1c0,1-0.8,1.9-1.9,1.9c-1,0-1.9-0.8-1.9-1.9s0.8-1.9,1.9-1.9C120.3,183.2,121.2,184.1,121.2,185.1
			"/>
		<path class="st1" d="M132.2,185.1c0,1-0.8,1.9-1.9,1.9c-1,0-1.9-0.8-1.9-1.9s0.8-1.9,1.9-1.9C131.4,183.2,132.2,184.1,132.2,185.1
			"/>
		<path class="st1" d="M143.3,185.1c0,1-0.8,1.9-1.9,1.9c-1,0-1.9-0.8-1.9-1.9s0.8-1.9,1.9-1.9C142.4,183.2,143.3,184.1,143.3,185.1
			"/>
		<path class="st1" d="M154.3,185.1c0,1-0.8,1.9-1.9,1.9c-1,0-1.9-0.8-1.9-1.9s0.8-1.9,1.9-1.9C153.5,183.2,154.3,184.1,154.3,185.1
			"/>
		<path class="st1" d="M54.8,196.2c0,1-0.8,1.9-1.9,1.9s-1.9-0.8-1.9-1.9s0.8-1.9,1.9-1.9S54.8,195.1,54.8,196.2"/>
		<path class="st1" d="M65.9,196.2c0,1-0.8,1.9-1.9,1.9c-1,0-1.9-0.8-1.9-1.9s0.8-1.9,1.9-1.9C65.1,194.3,65.9,195.1,65.9,196.2"/>
		<path class="st1" d="M76.9,196.2c0,1-0.8,1.9-1.9,1.9c-1,0-1.9-0.8-1.9-1.9s0.8-1.9,1.9-1.9C76.1,194.3,76.9,195.1,76.9,196.2"/>
		<path class="st1" d="M88,196.2c0,1-0.8,1.9-1.9,1.9c-1,0-1.9-0.8-1.9-1.9s0.8-1.9,1.9-1.9C87.2,194.3,88,195.1,88,196.2"/>
		<path class="st1" d="M110.1,196.2c0,1-0.8,1.9-1.9,1.9c-1,0-1.9-0.8-1.9-1.9s0.8-1.9,1.9-1.9C109.3,194.3,110.1,195.1,110.1,196.2
			"/>
		<path class="st1" d="M121.2,196.2c0,1-0.8,1.9-1.9,1.9c-1,0-1.9-0.8-1.9-1.9s0.8-1.9,1.9-1.9C120.3,194.3,121.2,195.1,121.2,196.2
			"/>
		<path class="st1" d="M132.2,196.2c0,1-0.8,1.9-1.9,1.9c-1,0-1.9-0.8-1.9-1.9s0.8-1.9,1.9-1.9C131.4,194.3,132.2,195.1,132.2,196.2
			"/>
		<path class="st1" d="M143.3,196.2c0,1-0.8,1.9-1.9,1.9c-1,0-1.9-0.8-1.9-1.9s0.8-1.9,1.9-1.9C142.4,194.3,143.3,195.1,143.3,196.2
			"/>
		<path class="st1" d="M154.3,196.2c0,1-0.8,1.9-1.9,1.9c-1,0-1.9-0.8-1.9-1.9s0.8-1.9,1.9-1.9C153.5,194.3,154.3,195.1,154.3,196.2
			"/>
		<path class="st1" d="M43.8,207.2c0,1-0.8,1.9-1.9,1.9c-1,0-1.9-0.8-1.9-1.9s0.8-1.9,1.9-1.9C42.9,205.4,43.8,206.2,43.8,207.2"/>
		<path class="st1" d="M54.8,207.2c0,1-0.8,1.9-1.9,1.9s-1.9-0.8-1.9-1.9s0.8-1.9,1.9-1.9S54.8,206.2,54.8,207.2"/>
		<path class="st1" d="M65.9,207.2c0,1-0.8,1.9-1.9,1.9c-1,0-1.9-0.8-1.9-1.9s0.8-1.9,1.9-1.9C65.1,205.4,65.9,206.2,65.9,207.2"/>
		<path class="st1" d="M76.9,207.2c0,1-0.8,1.9-1.9,1.9c-1,0-1.9-0.8-1.9-1.9s0.8-1.9,1.9-1.9C76.1,205.4,76.9,206.2,76.9,207.2"/>
		<path class="st1" d="M132.2,207.2c0,1-0.8,1.9-1.9,1.9c-1,0-1.9-0.8-1.9-1.9s0.8-1.9,1.9-1.9C131.4,205.4,132.2,206.2,132.2,207.2
			"/>
		<path class="st1" d="M143.3,207.2c0,1-0.8,1.9-1.9,1.9c-1,0-1.9-0.8-1.9-1.9s0.8-1.9,1.9-1.9C142.4,205.4,143.3,206.2,143.3,207.2
			"/>
		<path class="st1" d="M154.3,207.2c0,1-0.8,1.9-1.9,1.9c-1,0-1.9-0.8-1.9-1.9s0.8-1.9,1.9-1.9C153.5,205.4,154.3,206.2,154.3,207.2
			"/>
		<path class="st1" d="M165.4,207.2c0,1-0.8,1.9-1.9,1.9s-1.9-0.8-1.9-1.9s0.8-1.9,1.9-1.9S165.4,206.2,165.4,207.2"/>
		<path class="st1" d="M54.8,218.3c0,1-0.8,1.9-1.9,1.9s-1.9-0.8-1.9-1.9s0.8-1.9,1.9-1.9S54.8,217.2,54.8,218.3"/>
		<path class="st1" d="M65.9,218.3c0,1-0.8,1.9-1.9,1.9c-1,0-1.9-0.8-1.9-1.9s0.8-1.9,1.9-1.9C65.1,216.4,65.9,217.2,65.9,218.3"/>
		<path class="st1" d="M143.3,218.3c0,1-0.8,1.9-1.9,1.9c-1,0-1.9-0.8-1.9-1.9s0.8-1.9,1.9-1.9C142.4,216.4,143.3,217.2,143.3,218.3
			"/>
		<path class="st1" d="M154.3,218.3c0,1-0.8,1.9-1.9,1.9c-1,0-1.9-0.8-1.9-1.9s0.8-1.9,1.9-1.9C153.5,216.4,154.3,217.2,154.3,218.3
			"/>
	</g>
</g>
</svg>
