<?xml version="1.0" encoding="utf-8"?>
<!-- Generator: Adobe Illustrator 21.1.0, SVG Export Plug-In . SVG Version: 6.00 Build 0)  -->
<svg version="1.1" id="Ebene_1" xmlns="http://www.w3.org/2000/svg" xmlns:xlink="http://www.w3.org/1999/xlink" x="0px" y="0px"
	 viewBox="0 0 317.3 317.3" style="enable-background:new 0 0 317.3 317.3;" xml:space="preserve">
<style type="text/css">
	.st0{fill:url(#SVGID_1_);}
</style>
<g>
	<g>
		<g>
			<linearGradient id="SVGID_1_" gradientUnits="userSpaceOnUse" x1="27.6148" y1="286.5968" x2="277.279" y2="36.9327">
				<stop  offset="0.5019" style="stop-color:#5A3795"/>
				<stop  offset="1" style="stop-color:#2E60AD"/>
			</linearGradient>
			<path class="st0" d="M77.3,258.1c-1.6,0-3,1.3-3,3s1.3,3,3,3s3-1.3,3-3S78.9,258.1,77.3,258.1z M77.3,293.5c-1.6,0-3,1.3-3,3
				s1.3,3,3,3s3-1.3,3-3S78.9,293.5,77.3,293.5z M77.3,275.8c-1.6,0-3,1.3-3,3c0,1.6,1.3,3,3,3s3-1.3,3-3
				C80.2,277.1,78.9,275.8,77.3,275.8z M77.3,240.3c-1.6,0-3,1.3-3,3c0,1.6,1.3,3,3,3s3-1.3,3-3C80.2,241.7,78.9,240.3,77.3,240.3z
				 M59.5,240.3c-1.6,0-3,1.3-3,3c0,1.6,1.3,3,3,3c1.6,0,3-1.3,3-3C62.5,241.7,61.2,240.3,59.5,240.3z M77.3,311.3c-1.6,0-3,1.3-3,3
				c0,1.6,1.3,3,3,3s3-1.3,3-3C80.2,312.6,78.9,311.3,77.3,311.3z M59.5,204.8c-1.6,0-3,1.3-3,3c0,1.6,1.3,3,3,3c1.6,0,3-1.3,3-3
				C62.5,206.2,61.2,204.8,59.5,204.8z M59.5,222.6c-1.6,0-3,1.3-3,3c0,1.6,1.3,3,3,3c1.6,0,3-1.3,3-3
				C62.5,223.9,61.2,222.6,59.5,222.6z M95,275.8c-1.6,0-3,1.3-3,3c0,1.6,1.3,3,3,3c1.6,0,3-1.3,3-3C98,277.1,96.6,275.8,95,275.8z
				 M95,258.1c-1.6,0-3,1.3-3,3s1.3,3,3,3c1.6,0,3-1.3,3-3S96.6,258.1,95,258.1z M95,240.3c-1.6,0-3,1.3-3,3c0,1.6,1.3,3,3,3
				c1.6,0,3-1.3,3-3C98,241.7,96.6,240.3,95,240.3z M77.3,222.6c-1.6,0-3,1.3-3,3c0,1.6,1.3,3,3,3s3-1.3,3-3
				C80.2,223.9,78.9,222.6,77.3,222.6z M77.3,204.8c-1.6,0-3,1.3-3,3c0,1.6,1.3,3,3,3s3-1.3,3-3C80.2,206.2,78.9,204.8,77.3,204.8z
				 M95,293.5c-1.6,0-3,1.3-3,3s1.3,3,3,3c1.6,0,3-1.3,3-3S96.6,293.5,95,293.5z M77.3,187.1c-1.6,0-3,1.3-3,3s1.3,3,3,3s3-1.3,3-3
				S78.9,187.1,77.3,187.1z M24,258.1c-1.6,0-3,1.3-3,3s1.3,3,3,3s3-1.3,3-3S25.7,258.1,24,258.1z M24,275.8c-1.6,0-3,1.3-3,3
				c0,1.6,1.3,3,3,3s3-1.3,3-3C27,277.1,25.7,275.8,24,275.8z M95,222.6c-1.6,0-3,1.3-3,3c0,1.6,1.3,3,3,3c1.6,0,3-1.3,3-3
				C98,223.9,96.6,222.6,95,222.6z M59.5,258.1c-1.6,0-3,1.3-3,3s1.3,3,3,3c1.6,0,3-1.3,3-3S61.2,258.1,59.5,258.1z M41.8,275.8
				c-1.6,0-3,1.3-3,3c0,1.6,1.3,3,3,3c1.6,0,3-1.3,3-3C44.8,277.1,43.4,275.8,41.8,275.8z M24,210.8c1.6,0,3-1.3,3-3
				c0-1.6-1.3-3-3-3c-1.6,0-3,1.3-3,3C21,209.5,22.4,210.8,24,210.8z M41.8,258.1c-1.6,0-3,1.3-3,3s1.3,3,3,3c1.6,0,3-1.3,3-3
				S43.4,258.1,41.8,258.1z M24,246.3c1.6,0,3-1.3,3-3c0-1.6-1.3-3-3-3c-1.6,0-3,1.3-3,3C21,244.9,22.4,246.3,24,246.3z M24,228.5
				c1.6,0,3-1.3,3-3c0-1.6-1.3-3-3-3c-1.6,0-3,1.3-3,3C21,227.2,22.4,228.5,24,228.5z M41.8,293.5c-1.6,0-3,1.3-3,3s1.3,3,3,3
				c1.6,0,3-1.3,3-3S43.4,293.5,41.8,293.5z M59.5,293.5c-1.6,0-3,1.3-3,3s1.3,3,3,3c1.6,0,3-1.3,3-3S61.2,293.5,59.5,293.5z
				 M59.5,275.8c-1.6,0-3,1.3-3,3c0,1.6,1.3,3,3,3c1.6,0,3-1.3,3-3C62.5,277.1,61.2,275.8,59.5,275.8z M59.5,311.3c-1.6,0-3,1.3-3,3
				c0,1.6,1.3,3,3,3c1.6,0,3-1.3,3-3C62.5,312.6,61.2,311.3,59.5,311.3z M41.8,222.6c-1.6,0-3,1.3-3,3c0,1.6,1.3,3,3,3
				c1.6,0,3-1.3,3-3C44.8,223.9,43.4,222.6,41.8,222.6z M41.8,240.3c-1.6,0-3,1.3-3,3c0,1.6,1.3,3,3,3c1.6,0,3-1.3,3-3
				C44.8,241.7,43.4,240.3,41.8,240.3z M41.8,187.1c-1.6,0-3,1.3-3,3s1.3,3,3,3c1.6,0,3-1.3,3-3S43.4,187.1,41.8,187.1z M41.8,204.8
				c-1.6,0-3,1.3-3,3c0,1.6,1.3,3,3,3c1.6,0,3-1.3,3-3C44.8,206.2,43.4,204.8,41.8,204.8z M59.5,187.1c-1.6,0-3,1.3-3,3s1.3,3,3,3
				c1.6,0,3-1.3,3-3S61.2,187.1,59.5,187.1z M183.7,240.3c-1.6,0-3,1.3-3,3c0,1.6,1.3,3,3,3c1.6,0,3-1.3,3-3
				C186.7,241.7,185.4,240.3,183.7,240.3z M183.7,222.6c-1.6,0-3,1.3-3,3c0,1.6,1.3,3,3,3c1.6,0,3-1.3,3-3
				C186.7,223.9,185.4,222.6,183.7,222.6z M166,258.1c-1.6,0-3,1.3-3,3s1.3,3,3,3c1.6,0,3-1.3,3-3S167.6,258.1,166,258.1z
				 M183.7,258.1c-1.6,0-3,1.3-3,3s1.3,3,3,3c1.6,0,3-1.3,3-3S185.4,258.1,183.7,258.1z M201.5,258.1c-1.6,0-3,1.3-3,3s1.3,3,3,3
				s3-1.3,3-3S203.1,258.1,201.5,258.1z M166,240.3c-1.6,0-3,1.3-3,3c0,1.6,1.3,3,3,3c1.6,0,3-1.3,3-3
				C169,241.7,167.6,240.3,166,240.3z M166,204.8c-1.6,0-3,1.3-3,3c0,1.6,1.3,3,3,3c1.6,0,3-1.3,3-3
				C169,206.2,167.6,204.8,166,204.8z M166,222.6c-1.6,0-3,1.3-3,3c0,1.6,1.3,3,3,3c1.6,0,3-1.3,3-3
				C169,223.9,167.6,222.6,166,222.6z M183.7,204.8c-1.6,0-3,1.3-3,3c0,1.6,1.3,3,3,3c1.6,0,3-1.3,3-3
				C186.7,206.2,185.4,204.8,183.7,204.8z M219.2,222.6c-1.6,0-3,1.3-3,3c0,1.6,1.3,3,3,3c1.6,0,3-1.3,3-3
				C222.2,223.9,220.9,222.6,219.2,222.6z M219.2,204.8c-1.6,0-3,1.3-3,3c0,1.6,1.3,3,3,3c1.6,0,3-1.3,3-3
				C222.2,206.2,220.9,204.8,219.2,204.8z M201,0.1c-52.5,0-95.3,42.7-95.3,95.3c0,52.5,42.7,95.3,95.3,95.3s95.3-42.7,95.3-95.3
				C296.3,42.8,253.6,0.1,201,0.1z M201,148.8c-29.5,0-53.4-24-53.4-53.4c0-29.5,24-53.4,53.4-53.4s53.4,24,53.4,53.4
				C254.5,124.8,230.5,148.8,201,148.8z M201.5,204.8c-1.6,0-3,1.3-3,3c0,1.6,1.3,3,3,3s3-1.3,3-3
				C204.4,206.2,203.1,204.8,201.5,204.8z M201.5,222.6c-1.6,0-3,1.3-3,3c0,1.6,1.3,3,3,3s3-1.3,3-3
				C204.4,223.9,203.1,222.6,201.5,222.6z M201.5,240.3c-1.6,0-3,1.3-3,3c0,1.6,1.3,3,3,3s3-1.3,3-3
				C204.4,241.7,203.1,240.3,201.5,240.3z M219.2,240.3c-1.6,0-3,1.3-3,3c0,1.6,1.3,3,3,3c1.6,0,3-1.3,3-3
				C222.2,241.7,220.9,240.3,219.2,240.3z M95,204.8c-1.6,0-3,1.3-3,3c0,1.6,1.3,3,3,3c1.6,0,3-1.3,3-3
				C98,206.2,96.6,204.8,95,204.8z M112.7,204.8c-1.6,0-3,1.3-3,3c0,1.6,1.3,3,3,3s3-1.3,3-3C115.7,206.2,114.4,204.8,112.7,204.8z
				 M112.7,222.6c-1.6,0-3,1.3-3,3c0,1.6,1.3,3,3,3s3-1.3,3-3C115.7,223.9,114.4,222.6,112.7,222.6z M130.5,275.8c-1.6,0-3,1.3-3,3
				c0,1.6,1.3,3,3,3s3-1.3,3-3C133.5,277.1,132.1,275.8,130.5,275.8z M112.7,240.3c-1.6,0-3,1.3-3,3c0,1.6,1.3,3,3,3s3-1.3,3-3
				C115.7,241.7,114.4,240.3,112.7,240.3z M112.7,258.1c-1.6,0-3,1.3-3,3s1.3,3,3,3s3-1.3,3-3S114.4,258.1,112.7,258.1z
				 M112.7,293.5c-1.6,0-3,1.3-3,3s1.3,3,3,3s3-1.3,3-3S114.4,293.5,112.7,293.5z M130.5,258.1c-1.6,0-3,1.3-3,3s1.3,3,3,3
				s3-1.3,3-3S132.1,258.1,130.5,258.1z M112.7,275.8c-1.6,0-3,1.3-3,3c0,1.6,1.3,3,3,3s3-1.3,3-3
				C115.7,277.1,114.4,275.8,112.7,275.8z M148.2,204.8c-1.6,0-3,1.3-3,3c0,1.6,1.3,3,3,3c1.6,0,3-1.3,3-3
				C151.2,206.2,149.9,204.8,148.2,204.8z M148.2,258.1c-1.6,0-3,1.3-3,3s1.3,3,3,3c1.6,0,3-1.3,3-3S149.9,258.1,148.2,258.1z
				 M148.2,240.3c-1.6,0-3,1.3-3,3c0,1.6,1.3,3,3,3c1.6,0,3-1.3,3-3C151.2,241.7,149.9,240.3,148.2,240.3z M148.2,222.6
				c-1.6,0-3,1.3-3,3c0,1.6,1.3,3,3,3c1.6,0,3-1.3,3-3C151.2,223.9,149.9,222.6,148.2,222.6z M130.5,187.1c-1.6,0-3,1.3-3,3
				s1.3,3,3,3s3-1.3,3-3S132.1,187.1,130.5,187.1z M130.5,222.6c-1.6,0-3,1.3-3,3c0,1.6,1.3,3,3,3s3-1.3,3-3
				C133.5,223.9,132.1,222.6,130.5,222.6z M130.5,204.8c-1.6,0-3,1.3-3,3c0,1.6,1.3,3,3,3s3-1.3,3-3
				C133.5,206.2,132.1,204.8,130.5,204.8z M130.5,240.3c-1.6,0-3,1.3-3,3c0,1.6,1.3,3,3,3s3-1.3,3-3
				C133.5,241.7,132.1,240.3,130.5,240.3z"/>
		</g>
	</g>
</g>
</svg>
