<?xml version="1.0" encoding="utf-8"?>
<!-- Generator: Adobe Illustrator 21.1.0, SVG Export Plug-In . SVG Version: 6.00 Build 0)  -->
<svg version="1.1" id="Ebene_1" xmlns="http://www.w3.org/2000/svg" xmlns:xlink="http://www.w3.org/1999/xlink" x="0px" y="0px"
	 viewBox="0 0 256.6 175.5" style="enable-background:new 0 0 256.6 175.5;" xml:space="preserve">
<style type="text/css">
	.st0{fill:url(#SVGID_1_);}
	.st1{fill:#323232;}
</style>
<g>
	<linearGradient id="SVGID_1_" gradientUnits="userSpaceOnUse" x1="119.6244" y1="207.8261" x2="222.0739" y2="105.3766">
		<stop  offset="0.5019" style="stop-color:#5A3795"/>
		<stop  offset="1" style="stop-color:#2E60AD"/>
	</linearGradient>
	<path class="st0" d="M123.3,174.2c0,0,0-0.1,0-0.1c0-26.2,21.3-47.6,47.6-47.6s47.6,21.3,47.6,47.6c0,0,0,0.1,0,0.1h37.2
		c0,0,0-0.1,0-0.1c0-46.8-38.1-84.8-84.8-84.8S86,127.3,86,174.1c0,0,0,0.1,0,0.1H123.3z"/>
	<g>
		<path class="st1" d="M19.7,54c1.5,0,2.7-1.2,2.7-2.7c0-1.5-1.2-2.7-2.7-2.7c-1.5,0-2.7,1.2-2.7,2.7C17,52.8,18.2,54,19.7,54"/>
		<path class="st1" d="M19.7,69.8c1.5,0,2.7-1.2,2.7-2.7c0-1.5-1.2-2.7-2.7-2.7c-1.5,0-2.7,1.2-2.7,2.7C17,68.6,18.2,69.8,19.7,69.8
			"/>
		<path class="st1" d="M19.7,85.6c1.5,0,2.7-1.2,2.7-2.7c0-1.5-1.2-2.7-2.7-2.7c-1.5,0-2.7,1.2-2.7,2.7C17,84.4,18.2,85.6,19.7,85.6
			"/>
		<path class="st1" d="M19.7,101.4c1.5,0,2.7-1.2,2.7-2.7c0-1.5-1.2-2.7-2.7-2.7c-1.5,0-2.7,1.2-2.7,2.7
			C17,100.2,18.2,101.4,19.7,101.4"/>
		<path class="st1" d="M35.5,54c1.5,0,2.7-1.2,2.7-2.7c0-1.5-1.2-2.7-2.7-2.7s-2.7,1.2-2.7,2.7C32.8,52.8,34,54,35.5,54"/>
		<path class="st1" d="M35.5,69.8c1.5,0,2.7-1.2,2.7-2.7c0-1.5-1.2-2.7-2.7-2.7s-2.7,1.2-2.7,2.7C32.8,68.6,34,69.8,35.5,69.8"/>
		<path class="st1" d="M35.5,85.6c1.5,0,2.7-1.2,2.7-2.7c0-1.5-1.2-2.7-2.7-2.7s-2.7,1.2-2.7,2.7C32.8,84.4,34,85.6,35.5,85.6"/>
		<path class="st1" d="M35.5,101.4c1.5,0,2.7-1.2,2.7-2.7c0-1.5-1.2-2.7-2.7-2.7s-2.7,1.2-2.7,2.7C32.8,100.2,34,101.4,35.5,101.4"
			/>
		<path class="st1" d="M35.5,117.2c1.5,0,2.7-1.2,2.7-2.7c0-1.5-1.2-2.7-2.7-2.7s-2.7,1.2-2.7,2.7C32.8,116,34,117.2,35.5,117.2"/>
		<path class="st1" d="M51.3,6.6c1.5,0,2.7-1.2,2.7-2.7c0-1.5-1.2-2.7-2.7-2.7S48.6,2.5,48.6,4C48.6,5.4,49.8,6.6,51.3,6.6"/>
		<path class="st1" d="M51.3,22.4c1.5,0,2.7-1.2,2.7-2.7s-1.2-2.7-2.7-2.7s-2.7,1.2-2.7,2.7S49.8,22.4,51.3,22.4"/>
		<path class="st1" d="M51.3,38.2c1.5,0,2.7-1.2,2.7-2.7s-1.2-2.7-2.7-2.7s-2.7,1.2-2.7,2.7S49.8,38.2,51.3,38.2"/>
		<path class="st1" d="M51.3,54c1.5,0,2.7-1.2,2.7-2.7c0-1.5-1.2-2.7-2.7-2.7s-2.7,1.2-2.7,2.7C48.6,52.8,49.8,54,51.3,54"/>
		<path class="st1" d="M51.3,69.8c1.5,0,2.7-1.2,2.7-2.7c0-1.5-1.2-2.7-2.7-2.7s-2.7,1.2-2.7,2.7C48.6,68.6,49.8,69.8,51.3,69.8"/>
		<path class="st1" d="M51.3,85.6c1.5,0,2.7-1.2,2.7-2.7c0-1.5-1.2-2.7-2.7-2.7s-2.7,1.2-2.7,2.7C48.6,84.4,49.8,85.6,51.3,85.6"/>
		<path class="st1" d="M51.3,101.4c1.5,0,2.7-1.2,2.7-2.7c0-1.5-1.2-2.7-2.7-2.7s-2.7,1.2-2.7,2.7C48.6,100.2,49.8,101.4,51.3,101.4
			"/>
		<path class="st1" d="M51.3,117.2c1.5,0,2.7-1.2,2.7-2.7c0-1.5-1.2-2.7-2.7-2.7s-2.7,1.2-2.7,2.7C48.6,116,49.8,117.2,51.3,117.2"
			/>
		<path class="st1" d="M35.5,6.6c1.5,0,2.7-1.2,2.7-2.7c0-1.5-1.2-2.7-2.7-2.7c-1.5,0-2.7,1.2-2.7,2.7C32.8,5.4,34,6.6,35.5,6.6"/>
		<path class="st1" d="M35.5,22.4c1.5,0,2.7-1.2,2.7-2.7s-1.2-2.7-2.7-2.7c-1.5,0-2.7,1.2-2.7,2.7S34,22.4,35.5,22.4"/>
		<path class="st1" d="M35.5,38.2c1.5,0,2.7-1.2,2.7-2.7s-1.2-2.7-2.7-2.7c-1.5,0-2.7,1.2-2.7,2.7S34,38.2,35.5,38.2"/>
		<path class="st1" d="M19.7,22.4c1.5,0,2.7-1.2,2.7-2.7s-1.2-2.7-2.7-2.7c-1.5,0-2.7,1.2-2.7,2.7S18.2,22.4,19.7,22.4"/>
		<path class="st1" d="M19.7,38.2c1.5,0,2.7-1.2,2.7-2.7s-1.2-2.7-2.7-2.7c-1.5,0-2.7,1.2-2.7,2.7S18.2,38.2,19.7,38.2"/>
		<path class="st1" d="M3.9,54c1.5,0,2.7-1.2,2.7-2.7c0-1.5-1.2-2.7-2.7-2.7c-1.5,0-2.7,1.2-2.7,2.7C1.2,52.8,2.4,54,3.9,54"/>
		<path class="st1" d="M3.9,22.4c1.5,0,2.7-1.2,2.7-2.7s-1.2-2.7-2.7-2.7c-1.5,0-2.7,1.2-2.7,2.7S2.4,22.4,3.9,22.4"/>
		<path class="st1" d="M3.9,38.2c1.5,0,2.7-1.2,2.7-2.7s-1.2-2.7-2.7-2.7c-1.5,0-2.7,1.2-2.7,2.7S2.4,38.2,3.9,38.2"/>
		<path class="st1" d="M67.1,6.6c1.5,0,2.7-1.2,2.7-2.7c0-1.5-1.2-2.7-2.7-2.7c-1.5,0-2.7,1.2-2.7,2.7C64.4,5.4,65.6,6.6,67.1,6.6"
			/>
		<path class="st1" d="M67.1,22.4c1.5,0,2.7-1.2,2.7-2.7s-1.2-2.7-2.7-2.7c-1.5,0-2.7,1.2-2.7,2.7S65.6,22.4,67.1,22.4"/>
		<path class="st1" d="M67.1,38.2c1.5,0,2.7-1.2,2.7-2.7s-1.2-2.7-2.7-2.7c-1.5,0-2.7,1.2-2.7,2.7S65.6,38.2,67.1,38.2"/>
		<path class="st1" d="M67.1,54c1.5,0,2.7-1.2,2.7-2.7c0-1.5-1.2-2.7-2.7-2.7c-1.5,0-2.7,1.2-2.7,2.7C64.4,52.8,65.6,54,67.1,54"/>
		<path class="st1" d="M67.1,69.8c1.5,0,2.7-1.2,2.7-2.7c0-1.5-1.2-2.7-2.7-2.7c-1.5,0-2.7,1.2-2.7,2.7
			C64.4,68.6,65.6,69.8,67.1,69.8"/>
		<path class="st1" d="M67.1,85.6c1.5,0,2.7-1.2,2.7-2.7c0-1.5-1.2-2.7-2.7-2.7c-1.5,0-2.7,1.2-2.7,2.7
			C64.4,84.4,65.6,85.6,67.1,85.6"/>
		<path class="st1" d="M67.1,101.4c1.5,0,2.7-1.2,2.7-2.7c0-1.5-1.2-2.7-2.7-2.7c-1.5,0-2.7,1.2-2.7,2.7
			C64.4,100.2,65.6,101.4,67.1,101.4"/>
		<path class="st1" d="M82.9,6.6c1.5,0,2.7-1.2,2.7-2.7c0-1.5-1.2-2.7-2.7-2.7S80.2,2.5,80.2,4C80.2,5.4,81.4,6.6,82.9,6.6"/>
		<path class="st1" d="M82.9,22.4c1.5,0,2.7-1.2,2.7-2.7s-1.2-2.7-2.7-2.7s-2.7,1.2-2.7,2.7S81.4,22.4,82.9,22.4"/>
		<path class="st1" d="M82.9,38.2c1.5,0,2.7-1.2,2.7-2.7s-1.2-2.7-2.7-2.7s-2.7,1.2-2.7,2.7S81.4,38.2,82.9,38.2"/>
		<path class="st1" d="M82.9,54c1.5,0,2.7-1.2,2.7-2.7c0-1.5-1.2-2.7-2.7-2.7s-2.7,1.2-2.7,2.7C80.2,52.8,81.4,54,82.9,54"/>
		<path class="st1" d="M82.9,69.8c1.5,0,2.7-1.2,2.7-2.7c0-1.5-1.2-2.7-2.7-2.7s-2.7,1.2-2.7,2.7C80.2,68.6,81.4,69.8,82.9,69.8"/>
		<path class="st1" d="M82.9,85.6c1.5,0,2.7-1.2,2.7-2.7c0-1.5-1.2-2.7-2.7-2.7s-2.7,1.2-2.7,2.7C80.2,84.4,81.4,85.6,82.9,85.6"/>
		<path class="st1" d="M82.9,101.4c1.5,0,2.7-1.2,2.7-2.7c0-1.5-1.2-2.7-2.7-2.7s-2.7,1.2-2.7,2.7C80.2,100.2,81.4,101.4,82.9,101.4
			"/>
		<path class="st1" d="M67.1,117.2c1.5,0,2.7-1.2,2.7-2.7c0-1.5-1.2-2.7-2.7-2.7c-1.5,0-2.7,1.2-2.7,2.7
			C64.4,116,65.6,117.2,67.1,117.2"/>
		<path class="st1" d="M82.9,117.2c1.5,0,2.7-1.2,2.7-2.7c0-1.5-1.2-2.7-2.7-2.7s-2.7,1.2-2.7,2.7C80.2,116,81.4,117.2,82.9,117.2"
			/>
		<path class="st1" d="M82.9,133c1.5,0,2.7-1.2,2.7-2.7c0-1.5-1.2-2.7-2.7-2.7s-2.7,1.2-2.7,2.7C80.2,131.8,81.4,133,82.9,133"/>
		<path class="st1" d="M82.9,148.8c1.5,0,2.7-1.2,2.7-2.7c0-1.5-1.2-2.7-2.7-2.7s-2.7,1.2-2.7,2.7C80.2,147.6,81.4,148.8,82.9,148.8
			"/>
		<path class="st1" d="M98.7,38.2c1.5,0,2.7-1.2,2.7-2.7s-1.2-2.7-2.7-2.7S96,34.1,96,35.6S97.2,38.2,98.7,38.2"/>
		<path class="st1" d="M98.7,54c1.5,0,2.7-1.2,2.7-2.7c0-1.5-1.2-2.7-2.7-2.7S96,49.9,96,51.4C96,52.8,97.2,54,98.7,54"/>
		<path class="st1" d="M98.7,69.8c1.5,0,2.7-1.2,2.7-2.7c0-1.5-1.2-2.7-2.7-2.7S96,65.7,96,67.2C96,68.6,97.2,69.8,98.7,69.8"/>
		<path class="st1" d="M98.7,85.6c1.5,0,2.7-1.2,2.7-2.7c0-1.5-1.2-2.7-2.7-2.7S96,81.5,96,83C96,84.4,97.2,85.6,98.7,85.6"/>
		<path class="st1" d="M98.7,101.4c1.5,0,2.7-1.2,2.7-2.7c0-1.5-1.2-2.7-2.7-2.7S96,97.3,96,98.8C96,100.2,97.2,101.4,98.7,101.4"/>
		<path class="st1" d="M98.7,117.2c1.5,0,2.7-1.2,2.7-2.7c0-1.5-1.2-2.7-2.7-2.7s-2.7,1.2-2.7,2.7C96,116,97.2,117.2,98.7,117.2"/>
		<path class="st1" d="M98.7,133c1.5,0,2.7-1.2,2.7-2.7c0-1.5-1.2-2.7-2.7-2.7s-2.7,1.2-2.7,2.7C96,131.8,97.2,133,98.7,133"/>
		<path class="st1" d="M98.7,148.8c1.5,0,2.7-1.2,2.7-2.7c0-1.5-1.2-2.7-2.7-2.7s-2.7,1.2-2.7,2.7C96,147.6,97.2,148.8,98.7,148.8"
			/>
		<path class="st1" d="M82.9,164.6c1.5,0,2.7-1.2,2.7-2.7c0-1.5-1.2-2.7-2.7-2.7s-2.7,1.2-2.7,2.7C80.2,163.4,81.4,164.6,82.9,164.6
			"/>
		<path class="st1" d="M98.7,164.6c1.5,0,2.7-1.2,2.7-2.7c0-1.5-1.2-2.7-2.7-2.7S96,160.5,96,162C96,163.4,97.2,164.6,98.7,164.6"/>
		<path class="st1" d="M114.5,38.2c1.5,0,2.7-1.2,2.7-2.7s-1.2-2.7-2.7-2.7c-1.5,0-2.7,1.2-2.7,2.7S113,38.2,114.5,38.2"/>
		<path class="st1" d="M98.7,22.4c1.5,0,2.7-1.2,2.7-2.7c0-1.5-1.2-2.7-2.7-2.7S96,18.3,96,19.8C96,21.2,97.2,22.4,98.7,22.4"/>
		<path class="st1" d="M114.5,22.4c1.5,0,2.7-1.2,2.7-2.7c0-1.5-1.2-2.7-2.7-2.7c-1.5,0-2.7,1.2-2.7,2.7
			C111.8,21.2,113,22.4,114.5,22.4"/>
		<path class="st1" d="M98.7,6.6c1.5,0,2.7-1.2,2.7-2.7c0-1.5-1.2-2.7-2.7-2.7S96,2.5,96,4C96,5.4,97.2,6.6,98.7,6.6"/>
		<path class="st1" d="M114.5,6.6c1.5,0,2.7-1.2,2.7-2.7c0-1.5-1.2-2.7-2.7-2.7c-1.5,0-2.7,1.2-2.7,2.7C111.8,5.4,113,6.6,114.5,6.6
			"/>
		<path class="st1" d="M114.5,54c1.5,0,2.7-1.2,2.7-2.7c0-1.5-1.2-2.7-2.7-2.7c-1.5,0-2.7,1.2-2.7,2.7C111.8,52.8,113,54,114.5,54"
			/>
		<path class="st1" d="M114.5,69.8c1.5,0,2.7-1.2,2.7-2.7c0-1.5-1.2-2.7-2.7-2.7c-1.5,0-2.7,1.2-2.7,2.7
			C111.8,68.6,113,69.8,114.5,69.8"/>
		<path class="st1" d="M114.5,117.2c1.5,0,2.7-1.2,2.7-2.7c0-1.5-1.2-2.7-2.7-2.7c-1.5,0-2.7,1.2-2.7,2.7
			C111.8,116,113,117.2,114.5,117.2"/>
		<path class="st1" d="M114.5,133c1.5,0,2.7-1.2,2.7-2.7c0-1.5-1.2-2.7-2.7-2.7c-1.5,0-2.7,1.2-2.7,2.7
			C111.8,131.8,113,133,114.5,133"/>
		<path class="st1" d="M114.5,148.8c1.5,0,2.7-1.2,2.7-2.7c0-1.5-1.2-2.7-2.7-2.7c-1.5,0-2.7,1.2-2.7,2.7
			C111.8,147.6,113,148.8,114.5,148.8"/>
		<path class="st1" d="M114.5,164.6c1.5,0,2.7-1.2,2.7-2.7c0-1.5-1.2-2.7-2.7-2.7c-1.5,0-2.7,1.2-2.7,2.7
			C111.8,163.4,113,164.6,114.5,164.6"/>
		<path class="st1" d="M130.3,22.4c1.5,0,2.7-1.2,2.7-2.7s-1.2-2.7-2.7-2.7c-1.5,0-2.7,1.2-2.7,2.7S128.8,22.4,130.3,22.4"/>
		<path class="st1" d="M130.3,38.2c1.5,0,2.7-1.2,2.7-2.7s-1.2-2.7-2.7-2.7c-1.5,0-2.7,1.2-2.7,2.7S128.8,38.2,130.3,38.2"/>
		<path class="st1" d="M130.3,54c1.5,0,2.7-1.2,2.7-2.7c0-1.5-1.2-2.7-2.7-2.7c-1.5,0-2.7,1.2-2.7,2.7C127.6,52.8,128.8,54,130.3,54
			"/>
		<path class="st1" d="M130.3,148.8c1.5,0,2.7-1.2,2.7-2.7c0-1.5-1.2-2.7-2.7-2.7c-1.5,0-2.7,1.2-2.7,2.7
			C127.6,147.6,128.8,148.8,130.3,148.8"/>
		<path class="st1" d="M130.3,164.6c1.5,0,2.7-1.2,2.7-2.7c0-1.5-1.2-2.7-2.7-2.7c-1.5,0-2.7,1.2-2.7,2.7
			C127.6,163.4,128.8,164.6,130.3,164.6"/>
		<path class="st1" d="M146.1,22.4c1.5,0,2.7-1.2,2.7-2.7s-1.2-2.7-2.7-2.7s-2.7,1.2-2.7,2.7S144.6,22.4,146.1,22.4"/>
		<path class="st1" d="M146.1,38.2c1.5,0,2.7-1.2,2.7-2.7s-1.2-2.7-2.7-2.7s-2.7,1.2-2.7,2.7S144.6,38.2,146.1,38.2"/>
		<path class="st1" d="M146.1,54c1.5,0,2.7-1.2,2.7-2.7c0-1.5-1.2-2.7-2.7-2.7s-2.7,1.2-2.7,2.7C143.4,52.8,144.6,54,146.1,54"/>
		<path class="st1" d="M146.1,148.8c1.5,0,2.7-1.2,2.7-2.7c0-1.5-1.2-2.7-2.7-2.7s-2.7,1.2-2.7,2.7
			C143.4,147.6,144.6,148.8,146.1,148.8"/>
		<path class="st1" d="M146.1,164.6c1.5,0,2.7-1.2,2.7-2.7c0-1.5-1.2-2.7-2.7-2.7s-2.7,1.2-2.7,2.7
			C143.4,163.4,144.6,164.6,146.1,164.6"/>
		<path class="st1" d="M161.9,22.4c1.5,0,2.7-1.2,2.7-2.7s-1.2-2.7-2.7-2.7c-1.5,0-2.7,1.2-2.7,2.7S160.4,22.4,161.9,22.4"/>
		<path class="st1" d="M177.7,22.4c1.5,0,2.7-1.2,2.7-2.7s-1.2-2.7-2.7-2.7c-1.5,0-2.7,1.2-2.7,2.7S176.2,22.4,177.7,22.4"/>
		<path class="st1" d="M161.9,38.2c1.5,0,2.7-1.2,2.7-2.7s-1.2-2.7-2.7-2.7c-1.5,0-2.7,1.2-2.7,2.7S160.4,38.2,161.9,38.2"/>
		<path class="st1" d="M161.9,54c1.5,0,2.7-1.2,2.7-2.7c0-1.5-1.2-2.7-2.7-2.7c-1.5,0-2.7,1.2-2.7,2.7C159.2,52.8,160.4,54,161.9,54
			"/>
		<path class="st1" d="M161.9,148.8c1.5,0,2.7-1.2,2.7-2.7c0-1.5-1.2-2.7-2.7-2.7c-1.5,0-2.7,1.2-2.7,2.7
			C159.2,147.6,160.4,148.8,161.9,148.8"/>
		<path class="st1" d="M161.9,164.6c1.5,0,2.7-1.2,2.7-2.7c0-1.5-1.2-2.7-2.7-2.7c-1.5,0-2.7,1.2-2.7,2.7
			C159.2,163.4,160.4,164.6,161.9,164.6"/>
		<path class="st1" d="M177.7,164.6c1.5,0,2.7-1.2,2.7-2.7c0-1.5-1.2-2.7-2.7-2.7c-1.5,0-2.7,1.2-2.7,2.7
			C175,163.4,176.2,164.6,177.7,164.6"/>
		<path class="st1" d="M177.7,38.2c1.5,0,2.7-1.2,2.7-2.7s-1.2-2.7-2.7-2.7c-1.5,0-2.7,1.2-2.7,2.7S176.2,38.2,177.7,38.2"/>
		<path class="st1" d="M177.7,148.8c1.5,0,2.7-1.2,2.7-2.7c0-1.5-1.2-2.7-2.7-2.7c-1.5,0-2.7,1.2-2.7,2.7
			C175,147.6,176.2,148.8,177.7,148.8"/>
	</g>
</g>
</svg>
