<svg xmlns="http://www.w3.org/2000/svg" xmlns:xlink="http://www.w3.org/1999/xlink" width="278.26" height="165.926" viewBox="0 0 278.26 165.926">
  <defs>
    <linearGradient id="linear-gradient" y1="0.5" x2="1" y2="0.5" gradientUnits="objectBoundingBox">
      <stop offset="0.324" stop-color="#c8c8c8"/>
      <stop offset="0.562" stop-color="#fff"/>
    </linearGradient>
    <linearGradient id="linear-gradient-2" y1="0.5" x2="1" y2="0.5" gradientUnits="objectBoundingBox">
      <stop offset="0.324" stop-color="#9e9e9e"/>
      <stop offset="0.562" stop-color="#fff"/>
    </linearGradient>
    <linearGradient id="linear-gradient-3" y1="0.5" x2="1" y2="0.5" gradientUnits="objectBoundingBox">
      <stop offset="0" stop-color="#e6e6e6"/>
      <stop offset="1" stop-color="#fff"/>
    </linearGradient>
    <linearGradient id="linear-gradient-4" y1="0.5" x2="1" y2="0.5" gradientUnits="objectBoundingBox">
      <stop offset="0" stop-color="#424949"/>
      <stop offset="0.431" stop-color="#2e3535"/>
      <stop offset="0.691" stop-color="#212727"/>
    </linearGradient>
    <linearGradient id="linear-gradient-5" y1="0.5" x2="1" y2="0.5" gradientUnits="objectBoundingBox">
      <stop offset="0.309" stop-color="#9e9e9e"/>
      <stop offset="0.317" stop-color="#9e9e9e"/>
      <stop offset="0.775" stop-color="#d2d2d2"/>
      <stop offset="1" stop-color="#e6e6e6"/>
    </linearGradient>
    <linearGradient id="linear-gradient-6" x1="0.5" y1="0.236" x2="0.5" y2="1.018" xlink:href="#linear-gradient-5"/>
    <linearGradient id="linear-gradient-7" x1="0.5" x2="0.5" y2="1" gradientUnits="objectBoundingBox">
      <stop offset="0" stop-color="#00b3c1"/>
      <stop offset="1" stop-color="#1de2f2"/>
    </linearGradient>
    <linearGradient id="linear-gradient-8" y1="0.5" x2="1" y2="0.5" gradientUnits="objectBoundingBox">
      <stop offset="0" stop-color="#fec00f"/>
      <stop offset="0.109" stop-color="#fdba10"/>
      <stop offset="0.656" stop-color="#faa319"/>
      <stop offset="1" stop-color="#f99b1c"/>
    </linearGradient>
    <linearGradient id="linear-gradient-9" x1="46.298" y1="0.236" x2="46.298" y2="1.018" xlink:href="#linear-gradient-5"/>
    <linearGradient id="linear-gradient-10" x1="49.421" y1="0.236" x2="49.421" y2="1.018" xlink:href="#linear-gradient-5"/>
    <linearGradient id="linear-gradient-11" x1="0" y1="0.5" x2="1" y2="0.5" xlink:href="#linear-gradient-4"/>
    <linearGradient id="linear-gradient-13" x1="0" y1="0.5" x2="1" y2="0.5" xlink:href="#linear-gradient-8"/>
    <linearGradient id="linear-gradient-14" x1="0" x2="1" xlink:href="#linear-gradient-5"/>
  </defs>
  <g id="Gruppe_4706" data-name="Gruppe 4706" transform="translate(-1271.059 -131.338)">
    <g id="Gruppe_4163" data-name="Gruppe 4163" transform="translate(1711.192 -140.388)">
      <circle id="Ellipse_28" data-name="Ellipse 28" cx="68.462" cy="68.462" r="68.462" transform="matrix(0.01, -1, 1, 0.01, -300.192, 422.746)" fill="#60f3ff"/>
      <path id="Pfad_662" data-name="Pfad 662" d="M-206.382,329.6l-13.314-5.167-21.965.955-5.73,7.641-1.273,15.917-1.91,3.5,20.056,28.332-.464,13.913,25.8,25.8a68.591,68.591,0,0,0,42.355-47.443Z" transform="translate(-1.793 -1.395)" fill="rgba(255,255,255,0.3)"/>
      <path id="Pfad_663" data-name="Pfad 663" d="M-220.557,318.72a27.448,27.448,0,0,0-9-1.484,27.464,27.464,0,0,0-27.393,27.536,27.469,27.469,0,0,0,1.57,9.084,22.571,22.571,0,0,0,2.488,4.975l21.793,35.127a2.291,2.291,0,0,0,1.94,1.045,2.189,2.189,0,0,0,2.09-1.045l21.2-35.376a23.284,23.284,0,0,0,2.387-4.975A27.463,27.463,0,0,0-220.557,318.72Zm-9,40.111a13.682,13.682,0,0,1-13.682-13.683,13.682,13.682,0,0,1,13.682-13.683,13.683,13.683,0,0,1,13.683,13.683A13.683,13.683,0,0,1-229.555,358.831Z" transform="translate(-1.563 -1.135)" fill="#1de2f2"/>
      <path id="Pfad_664" data-name="Pfad 664" d="M-229.158,358.811c-.133,0-.263.02-.4.02a13.682,13.682,0,0,1-13.682-13.683,13.682,13.682,0,0,1,13.682-13.683c.134,0,.264.016.4.02V317.251c-.132,0-.264-.016-.4-.015a27.464,27.464,0,0,0-27.393,27.535,27.469,27.469,0,0,0,1.57,9.084,22.57,22.57,0,0,0,2.488,4.975l21.793,35.127A2.291,2.291,0,0,0-229.158,395Z" transform="translate(-1.563 -1.135)" fill="#00b3c1"/>
      <circle id="Ellipse_29" data-name="Ellipse 29" cx="13.689" cy="13.689" r="13.689" transform="translate(-244.728 330.36)" fill="none" stroke="#fec00f" stroke-miterlimit="10" stroke-width="3"/>
    </g>
    <g id="Gruppe_4164" data-name="Gruppe 4164" transform="translate(11470.272 6234.981)">
      <g id="Gruppe_350" data-name="Gruppe 350" transform="translate(-10119.54 -6103.644)">
        <g id="Gruppe_339" data-name="Gruppe 339" transform="translate(0 7.526)">
          <g id="Gruppe_338" data-name="Gruppe 338">
            <path id="Pfad_118" data-name="Pfad 118" d="M452.655,82.375,423.891,99.091a11.939,11.939,0,0,1-10.833,0l-18.4-10.626a3.83,3.83,0,0,1-2.261-3.16l-.275,96.7a3.834,3.834,0,0,0,2.261,3.158l18.405,10.626a11.927,11.927,0,0,0,10.832,0l28.764-16.714a3.808,3.808,0,0,0,2.226-3.117l.275-96.7A3.8,3.8,0,0,1,452.655,82.375Z" transform="translate(-392.117 -64.175)" fill="url(#linear-gradient)"/>
            <g id="Gruppe_337" data-name="Gruppe 337" transform="translate(0.274)">
              <path id="Pfad_119" data-name="Pfad 119" d="M452.485,83.514c3,1.732,3.017,4.542.035,6.275L423.757,106.5a11.939,11.939,0,0,1-10.833,0l-18.4-10.626c-3-1.732-3.018-4.542-.035-6.275l28.762-16.716a11.943,11.943,0,0,1,10.835,0Z" transform="translate(-392.257 -71.588)" fill="#e6e6e6"/>
            </g>
          </g>
        </g>
        <g id="Gruppe_342" data-name="Gruppe 342" transform="translate(11.336)">
          <g id="Gruppe_341" data-name="Gruppe 341">
            <path id="Pfad_120" data-name="Pfad 120" d="M434.261,75.563l-15.015,8.727a11.943,11.943,0,0,1-10.835,0l-8.231-4.753a3.837,3.837,0,0,1-2.263-3.164l-.035,12.087a3.844,3.844,0,0,0,2.263,3.164l8.233,4.753a11.939,11.939,0,0,0,10.833,0l15.017-8.727a3.808,3.808,0,0,0,2.226-3.117l.033-12.087A3.8,3.8,0,0,1,434.261,75.563Z" transform="translate(-397.882 -63.233)" fill="url(#linear-gradient-2)"/>
            <g id="Gruppe_340" data-name="Gruppe 340" transform="translate(0.035)">
              <path id="Pfad_121" data-name="Pfad 121" d="M434.209,73.816c3,1.732,3.018,4.54.035,6.275l-15.015,8.727a11.943,11.943,0,0,1-10.835,0l-8.231-4.753c-3-1.732-3.022-4.546-.039-6.279l15.015-8.727a11.952,11.952,0,0,1,10.839,0Z" transform="translate(-397.9 -67.761)" fill="#e6e6e6"/>
            </g>
          </g>
        </g>
        <g id="Gruppe_343" data-name="Gruppe 343" transform="translate(0.01 24.995)">
          <path id="Pfad_122" data-name="Pfad 122" d="M394.1,90.04l18.566,10.721a12.048,12.048,0,0,0,10.931,0L452.614,83.9a4.347,4.347,0,0,0,2.128-2.389l0-1.036a4.332,4.332,0,0,1-2.128,2.389L423.6,99.723a12.043,12.043,0,0,1-10.929,0L394.1,89a5,5,0,0,1-1.848-1.717l0,1.038A5,5,0,0,0,394.1,90.04Z" transform="translate(-391.997 -80.472)" fill="#444"/>
          <path id="Pfad_123" data-name="Pfad 123" d="M394.11,93.8l18.566,10.721a12.048,12.048,0,0,0,10.931,0L452.624,87.66a4.427,4.427,0,0,0,2.106-2.3l0-1.036a4.42,4.42,0,0,1-2.106,2.3l-29.018,16.861a12.043,12.043,0,0,1-10.929,0L394.112,92.766a4.967,4.967,0,0,1-1.868-1.75l0,1.036A4.99,4.99,0,0,0,394.11,93.8Z" transform="translate(-392.008 -76.754)" fill="#00b3c1"/>
          <path id="Pfad_124" data-name="Pfad 124" d="M452.637,90.4,423.62,107.262a12.043,12.043,0,0,1-10.929,0L394.123,96.543a4.944,4.944,0,0,1-1.89-1.785l0,1.036a4.951,4.951,0,0,0,1.891,1.785L412.687,108.3a12.036,12.036,0,0,0,10.931,0l29.017-16.861a4.463,4.463,0,0,0,2.084-2.25l0-1.036A4.445,4.445,0,0,1,452.637,90.4Z" transform="translate(-392.019 -73.051)" fill="#444"/>
          <path id="Pfad_125" data-name="Pfad 125" d="M452.647,94.178l-29.018,16.863a12.044,12.044,0,0,1-10.929,0l-18.568-10.719a4.94,4.94,0,0,1-1.911-1.821l0,1.036a4.915,4.915,0,0,0,1.911,1.821L412.7,112.078a12.047,12.047,0,0,0,10.931,0l29.018-16.863a4.486,4.486,0,0,0,2.063-2.2l0-1.036A4.478,4.478,0,0,1,452.647,94.178Z" transform="translate(-392.028 -69.351)" fill="#444"/>
          <path id="Pfad_126" data-name="Pfad 126" d="M452.658,97.957,423.64,114.821a12.043,12.043,0,0,1-10.929,0L394.143,104.1a4.9,4.9,0,0,1-1.933-1.854l0,1.036a4.885,4.885,0,0,0,1.933,1.856l18.566,10.719a12.048,12.048,0,0,0,10.931,0l29.018-16.863a4.53,4.53,0,0,0,2.041-2.147l0-1.036A4.535,4.535,0,0,1,452.658,97.957Z" transform="translate(-392.039 -65.65)" fill="#00b3c1"/>
          <path id="Pfad_127" data-name="Pfad 127" d="M452.668,101.736,423.651,118.6a12.043,12.043,0,0,1-10.929,0l-18.568-10.721a4.828,4.828,0,0,1-1.953-1.89l0,1.036a4.847,4.847,0,0,0,1.955,1.89l18.566,10.721a12.048,12.048,0,0,0,10.931,0l29.017-16.863a4.571,4.571,0,0,0,2.019-2.1l0-1.036A4.577,4.577,0,0,1,452.668,101.736Z" transform="translate(-392.05 -61.949)" fill="#444"/>
          <path id="Pfad_128" data-name="Pfad 128" d="M452.679,105.516l-29.018,16.863a12.043,12.043,0,0,1-10.929,0l-18.568-10.721a4.8,4.8,0,0,1-1.974-1.933l0,1.036a4.818,4.818,0,0,0,1.976,1.933l18.566,10.721a12.048,12.048,0,0,0,10.931,0l29.017-16.863a4.612,4.612,0,0,0,2-2.047l0-1.036A4.61,4.61,0,0,1,452.679,105.516Z" transform="translate(-392.06 -58.249)" fill="#444"/>
          <path id="Pfad_129" data-name="Pfad 129" d="M452.689,109.295l-29.017,16.863a12.043,12.043,0,0,1-10.929,0l-18.568-10.721a4.752,4.752,0,0,1-2-1.984l0,1.036a4.741,4.741,0,0,0,2,1.984l18.566,10.721a12.047,12.047,0,0,0,10.931,0l29.017-16.863a4.646,4.646,0,0,0,1.976-2l0-1.036A4.675,4.675,0,0,1,452.689,109.295Z" transform="translate(-392.07 -54.548)" fill="#444"/>
          <path id="Pfad_130" data-name="Pfad 130" d="M452.7,113.075l-29.017,16.863a12.043,12.043,0,0,1-10.929,0l-18.568-10.721a4.721,4.721,0,0,1-2.018-2.033l0,1.036a4.7,4.7,0,0,0,2.018,2.033l18.566,10.72a12.047,12.047,0,0,0,10.931,0L452.7,114.111a4.727,4.727,0,0,0,1.956-1.945l0-1.038A4.7,4.7,0,0,1,452.7,113.075Z" transform="translate(-392.08 -50.848)" fill="#444"/>
          <path id="Pfad_131" data-name="Pfad 131" d="M452.71,116.854l-29.018,16.863a12.043,12.043,0,0,1-10.929,0L394.2,123a4.661,4.661,0,0,1-2.037-2.084l0,1.036a4.658,4.658,0,0,0,2.039,2.084l18.566,10.721a12.048,12.048,0,0,0,10.931,0l29.017-16.863a4.781,4.781,0,0,0,1.935-1.9l0-1.036A4.769,4.769,0,0,1,452.71,116.854Z" transform="translate(-392.091 -47.146)" fill="#444"/>
          <path id="Pfad_132" data-name="Pfad 132" d="M452.72,120.637,423.7,137.5a12.043,12.043,0,0,1-10.929,0L394.206,126.78a4.607,4.607,0,0,1-2.059-2.135l0,1.038a4.627,4.627,0,0,0,2.061,2.134l18.566,10.721a12.048,12.048,0,0,0,10.931,0l29.018-16.863a4.82,4.82,0,0,0,1.913-1.854l0-1.036A4.811,4.811,0,0,1,452.72,120.637Z" transform="translate(-392.102 -43.45)" fill="#444"/>
          <path id="Pfad_133" data-name="Pfad 133" d="M452.73,124.425l-29.018,16.861a12.043,12.043,0,0,1-10.929,0l-18.568-10.719a4.582,4.582,0,0,1-2.08-2.185l0,1.036a4.563,4.563,0,0,0,2.08,2.185l18.566,10.72a12.047,12.047,0,0,0,10.931,0l29.018-16.863a4.843,4.843,0,0,0,1.892-1.819l0-1.038A4.841,4.841,0,0,1,452.73,124.425Z" transform="translate(-392.112 -39.758)" fill="#444"/>
          <path id="Pfad_134" data-name="Pfad 134" d="M452.741,128.209l-29.018,16.863a12.043,12.043,0,0,1-10.929,0l-18.568-10.719a4.524,4.524,0,0,1-2.1-2.236l0,1.038a4.536,4.536,0,0,0,2.1,2.234l18.566,10.721a12.06,12.06,0,0,0,10.931,0l29.017-16.863a4.862,4.862,0,0,0,1.87-1.785l0-1.036A4.866,4.866,0,0,1,452.741,128.209Z" transform="translate(-392.122 -36.064)" fill="#444"/>
        </g>
        <g id="Gruppe_349" data-name="Gruppe 349" transform="translate(24.288 4.982)">
          <g id="Gruppe_348" data-name="Gruppe 348">
            <g id="Gruppe_347" data-name="Gruppe 347">
              <g id="Gruppe_344" data-name="Gruppe 344" transform="translate(5.39 3.112)">
                <path id="Pfad_135" data-name="Pfad 135" d="M412.576,71.877l-.007,2.479-5.359,3.114.007-2.479Z" transform="translate(-407.21 -71.877)" fill="#fff"/>
              </g>
              <g id="Gruppe_345" data-name="Gruppe 345" transform="translate(0 3.114)">
                <path id="Pfad_136" data-name="Pfad 136" d="M409.866,74.99l-.007,2.479-5.39-3.112.007-2.479Z" transform="translate(-404.469 -71.878)" fill="#9e9e9e"/>
              </g>
              <g id="Gruppe_346" data-name="Gruppe 346" transform="translate(0.007)">
                <path id="Pfad_137" data-name="Pfad 137" d="M415.221,73.406l-5.359,3.114-5.39-3.112,5.359-3.114Z" transform="translate(-404.473 -70.295)" fill="#c8c8c8"/>
              </g>
            </g>
          </g>
        </g>
      </g>
      <g id="Gruppe_357" data-name="Gruppe 357" transform="translate(-10170.8 -6071.238)">
        <path id="Pfad_156" data-name="Pfad 156" d="M345.729,101.58,292.06,70.68a2.485,2.485,0,0,0-3.584,1.326l-.015.043v38.888a2.969,2.969,0,0,0,1.616,2.5l54.241,31.492.794.136a1.808,1.808,0,0,0,2.115-1.783v-39.1A3.01,3.01,0,0,0,345.729,101.58Z" transform="translate(-288.461 -70.347)"/>
        <path id="Pfad_157" data-name="Pfad 157" d="M344.229,102.613,289.991,71.363a1.019,1.019,0,0,0-1.53.881V110.8a3.01,3.01,0,0,0,1.5,2.6L344.2,144.9a1.018,1.018,0,0,0,1.53-.88V105.216A3.01,3.01,0,0,0,344.229,102.613Z" transform="translate(-288.461 -70.38)" fill="url(#linear-gradient-3)"/>
        <g id="Gruppe_354" data-name="Gruppe 354" transform="translate(3.375 10.678)">
          <path id="Pfad_158" data-name="Pfad 158" d="M302.171,88.478l-10.206-5.9.024-1.141,10.182,5.879Z" transform="translate(-291.965 -81.435)"/>
        </g>
        <g id="Gruppe_355" data-name="Gruppe 355" transform="translate(3.375 13.618)">
          <path id="Pfad_159" data-name="Pfad 159" d="M302.171,91.516l-10.206-5.888.024-1.141,10.182,5.878Z" transform="translate(-291.965 -84.487)"/>
        </g>
        <g id="Gruppe_356" data-name="Gruppe 356" transform="translate(3.375 16.557)">
          <path id="Pfad_160" data-name="Pfad 160" d="M297.573,91.9l-5.608-3.222.024-1.141,5.584,3.224Z" transform="translate(-291.965 -87.539)"/>
        </g>
        <path id="Pfad_161" data-name="Pfad 161" d="M344.229,102.613,289.991,71.363a1.019,1.019,0,0,0-1.53.881v1.973l57.266,32.968v-1.97A3.01,3.01,0,0,0,344.229,102.613Z" transform="translate(-288.461 -70.38)" fill="#c8c8c8"/>
        <path id="Pfad_162" data-name="Pfad 162" d="M325.566,134.517l.211.122v-30.1c-.068-.013-.139-.026-.21-.038Z" transform="translate(-289.831 -71.609)" fill="#33fecc"/>
        <path id="Pfad_163" data-name="Pfad 163" d="M292.216,74.48a.544.544,0,1,1-.143-.834A.606.606,0,0,1,292.216,74.48Z" transform="translate(-288.562 -70.467)" fill="#fff"/>
        <path id="Pfad_164" data-name="Pfad 164" d="M294.358,75.627a.544.544,0,1,1-.144-.834A.606.606,0,0,1,294.358,75.627Z" transform="translate(-288.641 -70.509)" fill="#fff"/>
        <path id="Pfad_165" data-name="Pfad 165" d="M296.5,76.774a.544.544,0,1,1-.143-.834A.6.6,0,0,1,296.5,76.774Z" transform="translate(-288.72 -70.552)" fill="#fff"/>
      </g>
      <g id="Gruppe_366" data-name="Gruppe 366" transform="translate(-10195.755 -5974.562)">
        <path id="Pfad_179" data-name="Pfad 179" d="M244.025,180.7v.806a1.594,1.594,0,0,0,.8,1.379l35.691,20.621a4.372,4.372,0,0,0,3.927.007l15.934-9.05a1.569,1.569,0,0,0,.794-1.356h0a3.194,3.194,0,0,0-1.594-2.781l-34.828-20.151a4.4,4.4,0,0,0-3.933-.017L244.777,179.4A1.5,1.5,0,0,0,244.025,180.7Z" transform="translate(-244.025 -169.702)" fill="url(#linear-gradient-4)"/>
        <path id="Pfad_180" data-name="Pfad 180" d="M244.841,179.225a1.185,1.185,0,0,0-.009,2.249l35.679,20.576a4.374,4.374,0,0,0,3.927.007l15.918-9.112a1.192,1.192,0,0,0,0-2.258L264.79,170.174a4.4,4.4,0,0,0-3.933-.017Z" transform="translate(-244.025 -169.702)" fill="#fff"/>
        <ellipse id="Ellipse_24" data-name="Ellipse 24" cx="2.719" cy="1.57" rx="2.719" ry="1.57" transform="translate(43.525 24.302)" fill="#c8c8c8"/>
        <g id="Gruppe_365" data-name="Gruppe 365" transform="translate(8.982 5.035)">
          <path id="Pfad_181" data-name="Pfad 181" d="M253.514,177.3a.161.161,0,0,1-.081-.3l3.548-2.049a.162.162,0,0,1,.162.28l-3.548,2.048A.158.158,0,0,1,253.514,177.3Z" transform="translate(-253.352 -174.93)" fill="#444"/>
        </g>
        <path id="Pfad_182" data-name="Pfad 182" d="M247.812,182.311l18.09-10.578,29.972,17.282-18.245,10.575Z" transform="translate(-244.165 -169.777)" fill="url(#linear-gradient-5)"/>
      </g>
      <g id="Gruppe_379" data-name="Gruppe 379" transform="translate(-10074.065 -5986.383)">
        <path id="Pfad_221" data-name="Pfad 221" d="M420.389,138.644h-1.823v10.021a.455.455,0,0,0,.269.372,1.408,1.408,0,0,0,1.29,0,.444.444,0,0,0,.263-.372h0Z" transform="translate(-412.032 -116.522)"/>
        <path id="Pfad_222" data-name="Pfad 222" d="M430.134,144.643a7.446,7.446,0,1,1-14.891,0c0-4.112,7.447-17.249,7.447-17.249S430.134,140.531,430.134,144.643Z" transform="translate(-415.243 -127.394)" fill="url(#linear-gradient-6)"/>
      </g>
      <g id="Gruppe_380" data-name="Gruppe 380" transform="translate(-10050.757 -5999.805)">
        <path id="Pfad_223" data-name="Pfad 223" d="M432.243,131.819H430.42V141.84a.456.456,0,0,0,.267.372,1.425,1.425,0,0,0,1.292,0,.45.45,0,0,0,.263-.372h0Z" transform="translate(-423.886 -109.696)"/>
        <path id="Pfad_224" data-name="Pfad 224" d="M441.988,137.819a7.446,7.446,0,1,1-14.891,0c0-4.112,7.445-17.251,7.445-17.251S441.988,133.707,441.988,137.819Z" transform="translate(-427.097 -120.568)" fill="url(#linear-gradient-7)"/>
      </g>
      <path id="Pfad_586" data-name="Pfad 586" d="M345.523,118.458c-.634-1.4-1.631-3.5-3.406-3.709-1.983-.229-3.857,2.037-4.649,3.609-.884,1.757-2.872,4.75-5.246,4.069-2.359-.676-2.579-4.145-2.67-6.117-.18-3.923-.3-11.122-5.487-11.82-4.943-.665-6.816,4-8.8,7.555-1.438,2.58-4.464,5.867-7.81,4.523-2.359-.947-3.656-3.469-4.765-5.586-2.145-4.091-4.51-8.605-9.58-5.114a38.985,38.985,0,0,0-4.652,4.122v2.039a3.01,3.01,0,0,0,1.5,2.6l54.237,31.5a1.019,1.019,0,0,0,1.53-.88V118.962C345.659,118.793,345.6,118.62,345.523,118.458Z" transform="translate(-10459.26 -6142.844)" fill="url(#linear-gradient-8)"/>
      <g id="Gruppe_662" data-name="Gruppe 662" transform="translate(-10126.984 -5964.703)">
        <path id="Pfad_621" data-name="Pfad 621" d="M321.842,188.616h.893v4.908a.223.223,0,0,1-.131.183.7.7,0,0,1-.633,0,.218.218,0,0,1-.129-.183h0Z" transform="translate(-318.642 -177.781)"/>
        <path id="Pfad_622" data-name="Pfad 622" d="M318.519,185.815a3.647,3.647,0,0,0,7.293,0c0-2.015-3.647-8.449-3.647-8.449S318.519,183.8,318.519,185.815Z" transform="translate(-318.519 -177.366)" fill="url(#linear-gradient-9)"/>
      </g>
      <g id="Gruppe_663" data-name="Gruppe 663" transform="translate(-10138.401 -5971.276)">
        <path id="Pfad_623" data-name="Pfad 623" d="M309.988,181.791h.893V186.7a.222.222,0,0,1-.131.183.7.7,0,0,1-.632,0,.223.223,0,0,1-.13-.183h0Z" transform="translate(-306.788 -170.956)"/>
        <path id="Pfad_624" data-name="Pfad 624" d="M306.665,178.989a3.647,3.647,0,1,0,7.294,0c0-2.014-3.647-8.448-3.647-8.448S306.665,176.975,306.665,178.989Z" transform="translate(-306.665 -170.541)" fill="url(#linear-gradient-10)"/>
      </g>
      <g id="Gruppe_671" data-name="Gruppe 671" transform="translate(-10178.646 -6002.655)">
        <g id="Gruppe_669" data-name="Gruppe 669" transform="translate(0 0)">
          <path id="Pfad_636" data-name="Pfad 636" d="M278.417,182.678,284.885,159c1.183-2.991,1.134-6.578,1.134-9.3,0-1.605,1.385-4.473.986-5.687l-6.742-3.393a9.676,9.676,0,0,0-6.358,1.518c-6.679,3.882-12.113,13.589-12.113,21.64a11.343,11.343,0,0,0,1.708,6.488l9.371,13.413c.181.259,4.724,3.048,5.076,2.847Zm-10.723-22.439c0-2.2,1.68-4.254,2.93-6.349,1.1-1.85,1.673-3.812,3.281-4.747,3.431-1.993,6.211-.257,6.211,3.877s-2.78,9.1-6.211,11.095S267.694,164.374,267.694,160.239Z" transform="translate(-261.791 -140.531)" fill="#00b3c1"/>
        </g>
        <g id="Gruppe_670" data-name="Gruppe 670" transform="translate(4.577 2.626)">
          <path id="Pfad_637" data-name="Pfad 637" d="M266.544,166.506a11.34,11.34,0,0,0,1.708,6.487l9.371,13.413a.607.607,0,0,0,.858.093l.008,0a2.2,2.2,0,0,0,.858-1.074l9.615-24.266a24.153,24.153,0,0,0,1.809-8.728c0-8.051-5.435-11.443-12.113-7.561S266.544,158.454,266.544,166.506Zm5.9-3.54c0-4.134,2.78-9.1,6.211-11.095s6.211-.258,6.211,3.876-2.781,9.1-6.211,11.1S272.447,167.1,272.447,162.965Z" transform="translate(-266.544 -143.258)" fill="#1de2f2"/>
        </g>
      </g>
      <g id="Gruppe_2910" data-name="Gruppe 2910" transform="translate(-10130.808 -6094.937)">
        <g id="Gruppe_664" data-name="Gruppe 664" transform="translate(0)">
          <path id="Pfad_625" data-name="Pfad 625" d="M270.922,60a4.053,4.053,0,0,0,1.934,3.088L336.682,100c1.064.612,15.86,1.244,16.751,1.164l2.185-1.264c1-.588,1.121-1.379.241-2.5L340.217,77.566a15.038,15.038,0,0,0-3.534-3.143L272.856,37.508c-1.063-.612-1.581-.424-2.875.341l-1.44,1.379Z" transform="translate(-268.149 -37.143)"/>
          <path id="Pfad_626" data-name="Pfad 626" d="M268.134,61.9a4.051,4.051,0,0,0,1.934,3.088L333.895,101.9a7.346,7.346,0,0,0,3.554.97l15.6-1.39c.891-.08.9-1.058.019-2.175L337.429,79.467a15.082,15.082,0,0,0-3.535-3.144L270.068,39.409c-1.064-.613-1.934-.226-1.934.858Z" transform="translate(-268.134 -37.216)" fill="#00b3c1"/>
        </g>
      </g>
      <g id="Gruppe_2911" data-name="Gruppe 2911" transform="translate(-10122.128 -6083.864)">
        <path id="Pfad_630" data-name="Pfad 630" d="M277.145,48.641l1.969,1.136L281.2,63.253l2.025-11.1,1.81,1.044,2.024,13.439,2.122-11.047,1.9,1.1-2.809,14.093-2.378-1.37-1.8-11.273-1.769,9.213-2.378-1.371Z" transform="translate(-277.145 -48.641)" fill="#fff"/>
        <path id="Pfad_631" data-name="Pfad 631" d="M293.9,58a2.1,2.1,0,0,1,.824.937,3.152,3.152,0,0,1,.312,1.4,1.371,1.371,0,0,1-.316,1.05q-.316.277-.853-.031a2.175,2.175,0,0,1-.851-.935,3.014,3.014,0,0,1-.317-1.385,1.349,1.349,0,0,1,.333-1.057A.7.7,0,0,1,293.9,58Zm-1.041,4.223,2.025,1.168v11.2l-2.025-1.168Z" transform="translate(-277.719 -48.981)" fill="#fff"/>
        <path id="Pfad_632" data-name="Pfad 632" d="M303.34,71.875l-1.945-1.122a2.7,2.7,0,0,0-1.265-2.272.82.82,0,0,0-.772-.118.659.659,0,0,0-.308.658,1.688,1.688,0,0,0,.328.984,18.648,18.648,0,0,0,1.577,1.691,17.805,17.805,0,0,1,1.3,1.419,5,5,0,0,1,.676,1.1,5.4,5.4,0,0,1,.464,2.2q0,1.669-.809,2.169t-2.361-.4a6.781,6.781,0,0,1-2.582-2.518,6.983,6.983,0,0,1-.876-3.527l1.9,1.1a3.874,3.874,0,0,0,.321,1.508,2.87,2.87,0,0,0,1.16,1.211,1.07,1.07,0,0,0,.9.195c.22-.089.328-.321.328-.7a1.926,1.926,0,0,0-.529-1.191q-.238-.287-1.648-1.723a8.514,8.514,0,0,1-1.6-2.039,5.205,5.205,0,0,1-.544-2.34,2.382,2.382,0,0,1,.824-2.126q.841-.552,2.3.29a6.137,6.137,0,0,1,2.77,3.428A7.518,7.518,0,0,1,303.34,71.875Z" transform="translate(-277.87 -49.276)" fill="#fff"/>
        <path id="Pfad_633" data-name="Pfad 633" d="M311.592,76.636l-1.944-1.123a2.7,2.7,0,0,0-1.266-2.272.818.818,0,0,0-.771-.118.658.658,0,0,0-.308.658,1.671,1.671,0,0,0,.328.982,18.286,18.286,0,0,0,1.577,1.693,17.588,17.588,0,0,1,1.3,1.419,4.972,4.972,0,0,1,.677,1.1,5.4,5.4,0,0,1,.464,2.2q0,1.67-.809,2.169t-2.362-.394a6.794,6.794,0,0,1-2.581-2.519,6.984,6.984,0,0,1-.876-3.527l1.9,1.1a3.873,3.873,0,0,0,.321,1.508,2.873,2.873,0,0,0,1.16,1.212,1.073,1.073,0,0,0,.9.194c.22-.089.328-.321.328-.7a1.923,1.923,0,0,0-.529-1.191q-.24-.287-1.649-1.722a8.551,8.551,0,0,1-1.6-2.04,5.192,5.192,0,0,1-.544-2.34,2.38,2.38,0,0,1,.824-2.125q.841-.552,2.3.289a6.148,6.148,0,0,1,2.77,3.428A7.477,7.477,0,0,1,311.592,76.636Z" transform="translate(-278.174 -49.451)" fill="#fff"/>
        <path id="Pfad_634" data-name="Pfad 634" d="M320.54,84.718l-5.323-3.071a6.415,6.415,0,0,0,.4,2.107,3.5,3.5,0,0,0,1.489,1.861q1.1.633,1.505-.375l1.785,1.133a2.792,2.792,0,0,1-.833,1.661q-.919.793-2.513-.126a6.708,6.708,0,0,1-2.282-2.225,9.11,9.11,0,0,1-1.217-2.9,12.1,12.1,0,0,1-.352-2.862,6.662,6.662,0,0,1,.665-3.265q1.016-1.82,3.129-.6a6.53,6.53,0,0,1,2.642,3.227,12.246,12.246,0,0,1,.913,4.89C320.547,84.286,320.544,84.468,320.54,84.718Zm-2.025-3.286q-.24-2.385-1.545-3.136-1.329-.767-1.7,1.265Z" transform="translate(-278.476 -49.635)" fill="#fff"/>
        <path id="Pfad_635" data-name="Pfad 635" d="M322.317,79.381l1.961,1.132a7.016,7.016,0,0,1,.16,1.519,1.576,1.576,0,0,1,2.306-.327,4.656,4.656,0,0,1,1.465,1.4,6.246,6.246,0,0,1,1.073,3.1c.037.4.056,1.061.056,1.966V94.63l-2.024-1.168V87.638a9.315,9.315,0,0,0-.185-2.212,2.426,2.426,0,0,0-1.073-1.563.953.953,0,0,0-.768-.139.849.849,0,0,0-.521.546,6.091,6.091,0,0,0-.184,1.886v5.732l-2.025-1.168V83.538q0-1.979-.037-2.611A12.705,12.705,0,0,0,322.317,79.381Z" transform="translate(-278.813 -49.776)" fill="#fff"/>
      </g>
      <path id="Pfad_166" data-name="Pfad 166" d="M393.516,157.065l-34.974-20.131a.639.639,0,0,0-.959.553v12.047l6.771,3.933h0l.262.151,24.707,14.35.263-5.625,4.87,2.829V158.7A1.889,1.889,0,0,0,393.516,157.065Z" transform="translate(-10462.805 -6124.218)" fill="#414042" opacity="0.3"/>
      <g id="Gruppe_364" data-name="Gruppe 364" transform="translate(-10107.404 -5985.813)">
        <path id="Pfad_167" data-name="Pfad 167" d="M391.249,158.684l-34.974-20.13a.638.638,0,0,0-.959.552v25.449a1.889,1.889,0,0,0,.94,1.633l34.973,20.287a.639.639,0,0,0,.96-.553V160.316A1.889,1.889,0,0,0,391.249,158.684Z" transform="translate(-355.316 -138.466)" fill="url(#linear-gradient-11)"/>
        <path id="Pfad_168" data-name="Pfad 168" d="M390.307,159.356l-34.032-19.609a.638.638,0,0,0-.959.553v24.194a1.889,1.889,0,0,0,.94,1.632l34.032,19.765a.638.638,0,0,0,.959-.552V160.988A1.884,1.884,0,0,0,390.307,159.356Z" transform="translate(-355.316 -138.51)" fill="url(#linear-gradient-3)"/>
        <g id="Gruppe_358" data-name="Gruppe 358" transform="translate(2.131 11.203)">
          <path id="Pfad_169" data-name="Pfad 169" d="M389.641,169.116l-32.1-18.3-.01-.718,32.112,18.3Z" transform="translate(-357.529 -150.099)"/>
        </g>
        <g id="Gruppe_359" data-name="Gruppe 359" transform="translate(2.013 7.026)">
          <path id="Pfad_170" data-name="Pfad 170" d="M363.576,150.35l-6.17-3.512.011-1.077,6.159,3.51Z" transform="translate(-357.406 -145.761)"/>
        </g>
        <g id="Gruppe_360" data-name="Gruppe 360" transform="translate(2.065 14.323)">
          <path id="Pfad_171" data-name="Pfad 171" d="M389.572,172.356l-32.1-18.3-.01-.718,32.112,18.3Z" transform="translate(-357.46 -153.339)"/>
        </g>
        <g id="Gruppe_361" data-name="Gruppe 361" transform="translate(1.999 17.443)">
          <path id="Pfad_172" data-name="Pfad 172" d="M389.5,175.6l-32.1-18.3-.01-.718,32.112,18.3Z" transform="translate(-357.392 -156.578)"/>
        </g>
        <g id="Gruppe_362" data-name="Gruppe 362" transform="translate(1.933 20.563)">
          <path id="Pfad_173" data-name="Pfad 173" d="M389.435,178.835l-32.1-18.3-.01-.718,32.112,18.3Z" transform="translate(-357.323 -159.818)"/>
        </g>
        <g id="Gruppe_363" data-name="Gruppe 363" transform="translate(1.867 23.683)">
          <path id="Pfad_174" data-name="Pfad 174" d="M375.491,174.171l-18.226-10.4-.01-.718,18.236,10.394Z" transform="translate(-357.255 -163.058)"/>
        </g>
        <path id="Pfad_175" data-name="Pfad 175" d="M390.307,159.356l-34.032-19.609a.638.638,0,0,0-.959.553v1.907l35.931,20.686v-1.9A1.884,1.884,0,0,0,390.307,159.356Z" transform="translate(-355.316 -138.51)" fill="#fff"/>
        <path id="Pfad_176" data-name="Pfad 176" d="M358.633,142.5a.572.572,0,1,1-.179-.848A.617.617,0,0,1,358.633,142.5Z" transform="translate(-355.399 -138.582)" fill="#aebabc"/>
        <path id="Pfad_177" data-name="Pfad 177" d="M360.316,143.476a.572.572,0,1,1-.179-.847A.616.616,0,0,1,360.316,143.476Z" transform="translate(-355.46 -138.618)" fill="#aebabc"/>
        <path id="Pfad_178" data-name="Pfad 178" d="M361.919,144.427a.572.572,0,1,1-.179-.848A.617.617,0,0,1,361.919,144.427Z" transform="translate(-355.52 -138.653)" fill="#aebabc"/>
      </g>
      <g id="Gruppe_368" data-name="Gruppe 368" transform="translate(-10199.214 -6047.67)">
        <path id="Pfad_183" data-name="Pfad 183" d="M362.924,162.751h-8.5v27.7h0a2.112,2.112,0,0,0,1.241,1.738,6.681,6.681,0,0,0,6.02,0c1.1-.635,1.465-1.537,1.1-2.352Z" transform="translate(-354.42 -160.296)" fill="url(#linear-gradient-13)"/>
        <path id="Pfad_184" data-name="Pfad 184" d="M371.607,174.572h-8.5v20.937h.034a1.963,1.963,0,0,0,1.208,2.029,6.68,6.68,0,0,0,6.021,0c1.1-.636,1.465-1.539,1.1-2.355Z" transform="translate(-354.74 -160.733)" fill="url(#linear-gradient-14)"/>
        <path id="Pfad_185" data-name="Pfad 185" d="M361.682,164.4c1.656-.956,1.656-2.52,0-3.476a6.675,6.675,0,0,0-6.02,0c-1.655.955-1.655,2.519,0,3.476A6.681,6.681,0,0,0,361.682,164.4Z" transform="translate(-354.42 -160.202)" fill="#fec00f"/>
        <path id="Pfad_186" data-name="Pfad 186" d="M370.366,176.216c1.656-.956,1.656-2.52,0-3.477a6.683,6.683,0,0,0-6.021,0c-1.656.956-1.656,2.52,0,3.477A6.683,6.683,0,0,0,370.366,176.216Z" transform="translate(-354.74 -160.639)" fill="#e6e6e6"/>
        <g id="Gruppe_367" data-name="Gruppe 367" transform="translate(16.725 23.335)">
          <path id="Pfad_187" data-name="Pfad 187" d="M380.184,200.585l.106-13.6h-8.5v13.6h.01a2.047,2.047,0,0,0,1.217,1.849,6.524,6.524,0,0,0,5.948,0,2.047,2.047,0,0,0,1.217-1.849Z" transform="translate(-371.786 -184.526)" fill="url(#linear-gradient-5)"/>
          <path id="Pfad_188" data-name="Pfad 188" d="M379.049,188.625c1.656-.956,1.656-2.52,0-3.476a6.675,6.675,0,0,0-6.02,0c-1.655.955-1.655,2.519,0,3.476A6.681,6.681,0,0,0,379.049,188.625Z" transform="translate(-371.786 -184.432)" fill="#e6e6e6"/>
        </g>
      </g>
    </g>
  </g>
</svg>
