<svg xmlns="http://www.w3.org/2000/svg" xmlns:xlink="http://www.w3.org/1999/xlink" width="452.059" height="335.471" viewBox="0 0 452.059 335.471">
  <defs>
    <linearGradient id="linear-gradient" y1="0.5" x2="1" y2="0.5" gradientUnits="objectBoundingBox">
      <stop offset="0" stop-color="#885fd4"/>
      <stop offset="0.34" stop-color="#744dbb"/>
      <stop offset="0.745" stop-color="#613da4"/>
      <stop offset="1" stop-color="#5b379c"/>
    </linearGradient>
    <linearGradient id="linear-gradient-6" x1="3.577" y1="1.127" x2="-1.246" y2="0.391" gradientUnits="objectBoundingBox">
      <stop offset="0.758" stop-color="#444"/>
      <stop offset="0.803" stop-color="#565656"/>
      <stop offset="0.935" stop-color="#8a8a8a"/>
      <stop offset="1" stop-color="#9e9e9e"/>
    </linearGradient>
    <linearGradient id="linear-gradient-7" x1="0.109" y1="0.5" x2="-3.663" y2="0.5" gradientUnits="objectBoundingBox">
      <stop offset="0.086" stop-color="#444"/>
      <stop offset="0.15" stop-color="#565656"/>
      <stop offset="0.337" stop-color="#8a8a8a"/>
      <stop offset="0.428" stop-color="#9e9e9e"/>
    </linearGradient>
    <linearGradient id="linear-gradient-8" x1="0.097" y1="0.303" x2="0.874" y2="0.682" xlink:href="#linear-gradient"/>
    <linearGradient id="linear-gradient-9" x1="65.463" y1="0.5" x2="66.339" y2="0.5" gradientUnits="objectBoundingBox">
      <stop offset="0" stop-color="#9e9e9e"/>
      <stop offset="0.463" stop-color="#9e9e9e"/>
      <stop offset="0.576" stop-color="#b4b4b4"/>
      <stop offset="1" stop-color="#c8c8c8"/>
    </linearGradient>
    <linearGradient id="linear-gradient-11" x1="0.943" y1="0.985" x2="-0.029" y2="-0.079" gradientUnits="objectBoundingBox">
      <stop offset="0.115" stop-color="#444"/>
      <stop offset="0.245" stop-color="#565656"/>
      <stop offset="0.629" stop-color="#8a8a8a"/>
      <stop offset="0.817" stop-color="#9e9e9e"/>
    </linearGradient>
    <linearGradient id="linear-gradient-12" x1="1" y1="0.5" x2="0" y2="0.5" gradientUnits="objectBoundingBox">
      <stop offset="0.167" stop-color="#c8c8c8"/>
      <stop offset="0.657" stop-color="#ebebeb"/>
      <stop offset="1" stop-color="#fff"/>
    </linearGradient>
    <linearGradient id="linear-gradient-13" x1="0.438" y1="0.213" x2="0.604" y2="0.832" xlink:href="#linear-gradient-12"/>
    <linearGradient id="linear-gradient-14" x1="1" y1="0.5" x2="0" y2="0.5" gradientUnits="objectBoundingBox">
      <stop offset="0.167" stop-color="#9e9e9e"/>
      <stop offset="0.567" stop-color="#b4b4b4"/>
      <stop offset="1" stop-color="#c8c8c8"/>
    </linearGradient>
    <linearGradient id="linear-gradient-15" x1="1" y1="0.5" x2="0" y2="0.5" gradientUnits="objectBoundingBox">
      <stop offset="0" stop-color="#5b379c"/>
      <stop offset="0.255" stop-color="#613da4"/>
      <stop offset="0.66" stop-color="#744dbb"/>
      <stop offset="1" stop-color="#885fd4"/>
    </linearGradient>
    <linearGradient id="linear-gradient-16" x1="1" y1="0.5" x2="0" y2="0.5" xlink:href="#linear-gradient"/>
    <linearGradient id="linear-gradient-17" y1="0.5" x2="1" y2="0.5" gradientUnits="objectBoundingBox">
      <stop offset="0.167" stop-color="#444"/>
      <stop offset="0.322" stop-color="#565656"/>
      <stop offset="0.777" stop-color="#8a8a8a"/>
      <stop offset="1" stop-color="#9e9e9e"/>
    </linearGradient>
    <linearGradient id="linear-gradient-19" x1="-0.525" y1="0.524" x2="1.521" y2="0.476" gradientUnits="objectBoundingBox">
      <stop offset="0" stop-color="#f99b1c"/>
      <stop offset="0.344" stop-color="#faa319"/>
      <stop offset="0.891" stop-color="#fdba10"/>
      <stop offset="1" stop-color="#fec00f"/>
    </linearGradient>
    <linearGradient id="linear-gradient-20" x1="0" y1="0.5" x2="1" y2="0.5" xlink:href="#linear-gradient-15"/>
    <linearGradient id="linear-gradient-22" x1="0" y1="0.5" x2="1" y2="0.5" xlink:href="#linear-gradient-14"/>
    <linearGradient id="linear-gradient-25" y1="0.5" x2="1" y2="0.5" gradientUnits="objectBoundingBox">
      <stop offset="0" stop-color="#fec00f"/>
      <stop offset="0.109" stop-color="#fdba10"/>
      <stop offset="0.656" stop-color="#faa319"/>
      <stop offset="1" stop-color="#f99b1c"/>
    </linearGradient>
    <linearGradient id="linear-gradient-26" x1="0.001" y1="0.5" x2="0.999" y2="0.5" xlink:href="#linear-gradient-25"/>
    <linearGradient id="linear-gradient-27" x1="-0.368" y1="0.566" x2="1" y2="0.566" gradientUnits="objectBoundingBox">
      <stop offset="0.212" stop-color="#29c1ed"/>
      <stop offset="0.357" stop-color="#b3e4f2"/>
    </linearGradient>
  </defs>
  <g id="Gruppe_4700" data-name="Gruppe 4700" transform="translate(-408.438 -437.549)">
    <g id="Gruppe_3972" data-name="Gruppe 3972" transform="translate(28.777 10.912)">
      <g id="Gruppe_3710" data-name="Gruppe 3710" transform="translate(728.269 463.69)">
        <ellipse id="Ellipse_27" data-name="Ellipse 27" cx="51.203" cy="51.203" rx="51.203" ry="51.203" transform="matrix(0.01, -1, 1, 0.01, 0, 102.401)" fill="#b6b9ff"/>
        <g id="Gruppe_700" data-name="Gruppe 700" transform="translate(16.298 11.882)">
          <path id="Pfad_638" data-name="Pfad 638" d="M-885.379,398.565a51.259,51.259,0,0,0,38.223-32.43l-33.778-33.778a18.068,18.068,0,0,0-14.3-7.009,18.1,18.1,0,0,0-18.1,18.1c0,.591.425,8.948,7.255,17.738,1.974,2.637,1.626,7.921,1.6,7.976h-.343a.926.926,0,0,0-.927.927.926.926,0,0,0,.262.646l0,0,1.059,1.06v.456h-.39a.927.927,0,0,0-.927.928.933.933,0,0,0,.285.668l-.026.026,1.059,1.059v.412h-.39a.927.927,0,0,0-.927.927.914.914,0,0,0,.34.711l-.029.03,1.006,1.006v.619a1.173,1.173,0,0,0,.77,1.1,1.153,1.153,0,0,0,.259.667l-.067.066Z" transform="translate(931.009 -308.553)" fill="#a0a0ef"/>
          <g id="Gruppe_699" data-name="Gruppe 699" transform="translate(0 0)">
            <path id="Pfad_639" data-name="Pfad 639" d="M-884.221,401.428h-14.538a1.165,1.165,0,0,1-1.163-1.163,1.164,1.164,0,0,1,1.163-1.164h14.538a1.164,1.164,0,0,1,1.163,1.164,1.164,1.164,0,0,1-1.163,1.163Z" transform="translate(927.264 -329.139)" fill="#8a81eb"/>
            <g id="Gruppe_698" data-name="Gruppe 698">
              <g id="Gruppe_684" data-name="Gruppe 684" transform="translate(17.669 16.794)">
                <path id="Pfad_640" data-name="Pfad 640" d="M-913.339,343.449a18.1,18.1,0,0,1,18.1-18.1,18.1,18.1,0,0,1,18.1,18.1c0,.591-.434,8.96-7.253,17.738-2,2.651-1.667,7.981-1.649,7.981h-18.442c.017,0,.38-5.33-1.6-7.981C-912.914,352.4-913.339,344.04-913.339,343.449Z" transform="translate(913.339 -325.347)" fill="#e6e6e6"/>
                <path id="Pfad_641" data-name="Pfad 641" d="M-895.237,369.168h-9.242c.017,0,.38-5.33-1.6-7.981-6.83-8.79-7.255-17.147-7.255-17.738a18.1,18.1,0,0,1,18.1-18.1" transform="translate(913.339 -325.347)" fill="#fff"/>
                <g id="Gruppe_674" data-name="Gruppe 674" transform="translate(18.102 3.846)">
                  <path id="Pfad_642" data-name="Pfad 642" d="M-873.97,344.933h-1.588a12.681,12.681,0,0,0-12.67-12.663v-1.587a14.271,14.271,0,0,1,14.258,14.25Z" transform="translate(888.228 -330.682)" fill="#fff"/>
                </g>
                <g id="Gruppe_679" data-name="Gruppe 679" transform="translate(11.053 26.262)">
                  <g id="Gruppe_677" data-name="Gruppe 677">
                    <g id="Gruppe_675" data-name="Gruppe 675" transform="translate(9.436)">
                      <path id="Pfad_643" data-name="Pfad 643" d="M-883.349,380.75l-1.567-.26,3.093-18.714,1.567.259-3.093,18.715Z" transform="translate(884.916 -361.777)" fill="#fec00f"/>
                    </g>
                    <g id="Gruppe_676" data-name="Gruppe 676">
                      <path id="Pfad_644" data-name="Pfad 644" d="M-894.913,380.75l-3.093-18.715,1.567-.259,3.093,18.714-1.567.26Z" transform="translate(898.006 -361.777)" fill="#fec00f"/>
                    </g>
                  </g>
                  <g id="Gruppe_678" data-name="Gruppe 678" transform="translate(1.186 0.101)">
                    <path id="Pfad_645" data-name="Pfad 645" d="M-884.338,364.452c-.65,0-.931-.634-1.137-1.1-.084-.193-.264-.595-.365-.595s-.277.4-.363.595c-.206.463-.486,1.1-1.136,1.1s-.931-.634-1.137-1.1c-.086-.192-.264-.595-.365-.595s-.278.4-.364.595c-.206.463-.487,1.1-1.137,1.1s-.932-.634-1.138-1.1c-.086-.192-.265-.595-.366-.595s-.28.4-.364.595c-.208.463-.487,1.1-1.14,1.1s-.932-.634-1.138-1.1c-.086-.193-.265-.6-.368-.6s-.28.4-.366.595c-.205.463-.489,1.1-1.139,1.1v-.845c.1,0,.281-.4.367-.6.207-.463.488-1.094,1.138-1.094s.935.632,1.141,1.094c.086.193.264.6.365.6s.28-.4.366-.6c.206-.463.487-1.094,1.138-1.094s.932.632,1.138,1.094c.085.193.264.6.365.6s.28-.4.365-.6c.206-.463.487-1.094,1.137-1.094s.933.633,1.138,1.1c.086.193.264.594.365.594s.277-.4.362-.594c.206-.463.487-1.1,1.136-1.1s.932.633,1.138,1.1c.085.193.263.594.364.594v.845Z" transform="translate(896.361 -361.917)" fill="#fec00f"/>
                  </g>
                </g>
                <path id="Pfad_646" data-name="Pfad 646" d="M-882.57,386.146v9.464a1.175,1.175,0,0,1-1.175,1.175h-16.068a1.175,1.175,0,0,1-1.171-1.175v-9.464Z" transform="translate(909.891 -342.317)" fill="#5b379c"/>
                <g id="Gruppe_683" data-name="Gruppe 683" transform="translate(7.589 43.815)">
                  <g id="Gruppe_680" data-name="Gruppe 680">
                    <line id="Linie_80" data-name="Linie 80" x1="19.175" transform="translate(0.927 0.928)" fill="#0e303f"/>
                    <path id="Pfad_647" data-name="Pfad 647" d="M-882.709,387.982h-19.175a.927.927,0,0,1-.927-.928.927.927,0,0,1,.927-.929h19.175a.927.927,0,0,1,.927.929.927.927,0,0,1-.927.928Z" transform="translate(902.811 -386.126)" fill="#8a81eb"/>
                  </g>
                  <g id="Gruppe_681" data-name="Gruppe 681" transform="translate(0 3.093)">
                    <line id="Linie_81" data-name="Linie 81" x1="19.175" transform="translate(0.927 0.928)" fill="#0e303f"/>
                    <path id="Pfad_648" data-name="Pfad 648" d="M-882.709,392.272h-19.175a.927.927,0,0,1-.927-.928.927.927,0,0,1,.927-.928h19.175a.927.927,0,0,1,.927.928.927.927,0,0,1-.927.928Z" transform="translate(902.811 -390.417)" fill="#8a81eb"/>
                  </g>
                  <g id="Gruppe_682" data-name="Gruppe 682" transform="translate(0 6.186)">
                    <line id="Linie_82" data-name="Linie 82" x1="19.175" transform="translate(0.927 0.927)" fill="#0e303f"/>
                    <path id="Pfad_649" data-name="Pfad 649" d="M-882.709,396.562h-19.175a.927.927,0,0,1-.927-.928.927.927,0,0,1,.927-.927h19.175a.927.927,0,0,1,.927.927.927.927,0,0,1-.927.928Z" transform="translate(902.811 -394.707)" fill="#8a81eb"/>
                  </g>
                </g>
              </g>
              <g id="Gruppe_697" data-name="Gruppe 697">
                <g id="Gruppe_685" data-name="Gruppe 685" transform="translate(35.292)">
                  <path id="Pfad_650" data-name="Pfad 650" d="M-888.42,312.941a.473.473,0,0,1-.473-.471v-9.947a.473.473,0,0,1,.473-.471.472.472,0,0,1,.472.471v9.947a.472.472,0,0,1-.472.471Z" transform="translate(888.893 -302.051)" fill="#fff"/>
                </g>
                <g id="Gruppe_686" data-name="Gruppe 686" transform="translate(17.643 4.733)">
                  <path id="Pfad_651" data-name="Pfad 651" d="M-907.93,318.174a.469.469,0,0,1-.409-.236l-4.973-8.613a.469.469,0,0,1,.172-.643.469.469,0,0,1,.644.171l4.973,8.613a.471.471,0,0,1-.171.646.477.477,0,0,1-.236.062Z" transform="translate(913.375 -308.617)" fill="#fff"/>
                </g>
                <g id="Gruppe_687" data-name="Gruppe 687" transform="translate(4.726 17.655)">
                  <path id="Pfad_652" data-name="Pfad 652" d="M-922.209,332.461a.455.455,0,0,1-.235-.065l-8.613-4.973a.471.471,0,0,1-.173-.644.47.47,0,0,1,.645-.173l8.613,4.973a.473.473,0,0,1,.173.646.476.476,0,0,1-.41.237Z" transform="translate(931.293 -326.542)" fill="#fff"/>
                </g>
                <g id="Gruppe_688" data-name="Gruppe 688" transform="translate(0 35.305)">
                  <path id="Pfad_653" data-name="Pfad 653" d="M-927.43,351.972h-9.946a.473.473,0,0,1-.474-.473.474.474,0,0,1,.474-.473h9.946a.474.474,0,0,1,.472.473.472.472,0,0,1-.472.473Z" transform="translate(937.85 -351.026)" fill="#fff"/>
                </g>
                <g id="Gruppe_689" data-name="Gruppe 689" transform="translate(4.735 47.982)">
                  <path id="Pfad_654" data-name="Pfad 654" d="M-930.809,374.529a.468.468,0,0,1-.409-.236.471.471,0,0,1,.172-.645l8.613-4.972a.471.471,0,0,1,.645.172.47.47,0,0,1-.174.644l-8.613,4.974a.469.469,0,0,1-.235.063Z" transform="translate(931.282 -368.611)" fill="#fff"/>
                </g>
                <g id="Gruppe_690" data-name="Gruppe 690" transform="translate(17.657 57.26)">
                  <path id="Pfad_655" data-name="Pfad 655" d="M-912.884,391.039a.47.47,0,0,1-.235-.063.472.472,0,0,1-.174-.644l4.976-8.613a.469.469,0,0,1,.643-.174.472.472,0,0,1,.174.645l-4.975,8.613a.468.468,0,0,1-.408.236Z" transform="translate(913.357 -381.481)" fill="#fff"/>
                </g>
                <g id="Gruppe_691" data-name="Gruppe 691" transform="translate(47.984 57.252)">
                  <path id="Pfad_656" data-name="Pfad 656" d="M-865.841,391.028a.47.47,0,0,1-.41-.236l-4.973-8.613a.47.47,0,0,1,.173-.644.469.469,0,0,1,.644.172l4.972,8.614a.472.472,0,0,1-.172.645.484.484,0,0,1-.235.063Z" transform="translate(871.287 -381.47)" fill="#fff"/>
                </g>
                <g id="Gruppe_692" data-name="Gruppe 692" transform="translate(57.26 47.968)">
                  <path id="Pfad_657" data-name="Pfad 657" d="M-849.333,374.51a.465.465,0,0,1-.236-.063l-8.613-4.973a.47.47,0,0,1-.173-.644.471.471,0,0,1,.645-.172l8.614,4.973a.473.473,0,0,1,.173.644.472.472,0,0,1-.409.237Z" transform="translate(858.42 -368.592)" fill="#fff"/>
                </g>
                <g id="Gruppe_693" data-name="Gruppe 693" transform="translate(60.653 35.291)">
                  <path id="Pfad_658" data-name="Pfad 658" d="M-843.293,351.95h-9.948a.473.473,0,0,1-.472-.473.472.472,0,0,1,.472-.471h9.948a.472.472,0,0,1,.472.471.473.473,0,0,1-.472.473Z" transform="translate(853.713 -351.006)" fill="#fff"/>
                </g>
                <g id="Gruppe_694" data-name="Gruppe 694" transform="translate(57.252 17.642)">
                  <path id="Pfad_659" data-name="Pfad 659" d="M-857.957,332.441a.469.469,0,0,1-.41-.236.472.472,0,0,1,.173-.644l8.615-4.973a.47.47,0,0,1,.644.172.469.469,0,0,1-.173.644l-8.614,4.974a.471.471,0,0,1-.235.063Z" transform="translate(858.43 -326.523)" fill="#fff"/>
                </g>
                <g id="Gruppe_695" data-name="Gruppe 695" transform="translate(47.97 4.724)">
                  <path id="Pfad_660" data-name="Pfad 660" d="M-870.835,318.164a.467.467,0,0,1-.235-.065.47.47,0,0,1-.174-.643l4.972-8.616a.473.473,0,0,1,.645-.173.472.472,0,0,1,.173.644l-4.971,8.616a.474.474,0,0,1-.409.236Z" transform="translate(871.306 -308.604)" fill="#fff"/>
                </g>
                <g id="Gruppe_696" data-name="Gruppe 696" transform="translate(35.292)">
                  <path id="Pfad_661" data-name="Pfad 661" d="M-888.42,312.941a.473.473,0,0,1-.473-.471v-9.947a.473.473,0,0,1,.473-.471.472.472,0,0,1,.472.471v9.947a.472.472,0,0,1-.472.471Z" transform="translate(888.893 -302.051)" fill="#fff"/>
                </g>
              </g>
            </g>
          </g>
        </g>
      </g>
      <g id="Gruppe_3777" data-name="Gruppe 3777" transform="translate(494.419 511.994)">
        <g id="Gruppe_3802" data-name="Gruppe 3802" transform="translate(0 0)">
          <g id="Gruppe_3797" data-name="Gruppe 3797">
            <g id="Gruppe_3777-2" data-name="Gruppe 3777" transform="translate(0 84.701)">
              <path id="Pfad_2097" data-name="Pfad 2097" d="M208.437,299.386l61.43,35.468,45.487-26.263L289.563,293.7l53.928-31.136,25.792,14.891,45.487-26.263-61.431-35.468Z" transform="translate(-135.997 -215.725)" fill="#f1f8f8"/>
              <path id="Pfad_2098" data-name="Pfad 2098" d="M169.618,233.851l-45.487,26.262,90.259,52.113,45.487-26.262Z" transform="translate(-124.131 -218.277)" fill="#f1f8f8"/>
            </g>
            <path id="Pfad_2099" data-name="Pfad 2099" d="M395.631,184.689v84.7l45.487-26.263v-84.7Z" transform="translate(-162.346 -122.959)" fill="#9e9e9e"/>
            <path id="Pfad_2100" data-name="Pfad 2100" d="M365.614,171.661v84.7l25.792,14.891v-84.7Z" transform="translate(-158.121 -124.822)" fill="#c8c8c8"/>
            <path id="Pfad_2101" data-name="Pfad 2101" d="M302.852,202.8v84.7l53.928-31.136v-84.7Z" transform="translate(-149.287 -124.822)" fill="#9e9e9e"/>
            <path id="Pfad_2102" data-name="Pfad 2102" d="M325.417,225.228v84.7l-45.487,26.263v-84.7Z" transform="translate(-146.06 -132.362)" fill="#9e9e9e"/>
            <path id="Pfad_2103" data-name="Pfad 2103" d="M124.131,165.839v84.7L258,327.832v-84.7Z" transform="translate(-124.131 -124.002)" fill="#c8c8c8"/>
            <path id="Pfad_2104" data-name="Pfad 2104" d="M130.352,159.492l40.141-23.176,72.44,41.824,99.413-57.4,56.085,32.38L358.29,176.3,332.5,161.408l-59.275,34.223,25.792,14.891L258.877,233.7Z" transform="translate(-125.006 -117.655)" fill="#e6e6e6"/>
            <path id="Pfad_2105" data-name="Pfad 2105" d="M138.824,164.626l32.121-18.546,69.767,40.281,2.673,1.543,2.673-1.543L342.8,130.506l48.078,27.759,5.333-3.094h0L342.8,124.333l-99.414,57.4-72.44-41.824L133.56,161.492Z" transform="translate(-125.458 -118.16)" fill="#c8c8c8"/>
            <path id="Pfad_2106" data-name="Pfad 2106" d="M290.409,207.9v6.173l8.019,4.63,15.1,8.718h0l5.425-3.041L301.1,214.071Z" transform="translate(-147.535 -129.922)" fill="#c4cccb"/>
            <path id="Pfad_2107" data-name="Pfad 2107" d="M341.472,123.322l50.739,29.3-34.8,20.089L334.3,159.358l-2.673-1.543-2.673,1.543-53.927,31.136L267,195.125l8.019,4.63L292.8,210.015,258,230.105l-40.939-23.637-82.24-47.483,34.8-20.089,69.766,40.281,2.673,1.543,2.673-1.543,96.741-55.855Zm0-6.173-99.415,57.4-72.439-41.824-45.487,26.262L214.39,211.1,258,236.278l45.487-26.263L277.7,195.125l53.928-31.136,25.792,14.892L402.9,152.617l-61.431-35.468Z" transform="translate(-124.131 -117.149)" fill="#fff"/>
            <g id="Gruppe_3778" data-name="Gruppe 3778" transform="translate(0 113.875)">
              <path id="Pfad_2108" data-name="Pfad 2108" d="M395.631,275.941v6.294l45.487-26.263v-6.294Z" transform="translate(-162.346 -249.678)" fill="url(#linear-gradient)"/>
              <path id="Pfad_2109" data-name="Pfad 2109" d="M365.614,262.912v6.294L391.406,284.1V277.8Z" transform="translate(-158.121 -251.541)" fill="url(#linear-gradient)"/>
              <path id="Pfad_2110" data-name="Pfad 2110" d="M325.417,316.479v6.294l-45.487,26.263v-6.294Z" transform="translate(-146.06 -259.081)" fill="url(#linear-gradient)"/>
              <path id="Pfad_2111" data-name="Pfad 2111" d="M124.131,257.09v6.294L258,340.676v-6.294Z" transform="translate(-124.131 -250.721)" fill="url(#linear-gradient)"/>
            </g>
            <path id="Pfad_2112" data-name="Pfad 2112" d="M332.869,279.157v6.294L361,269.206v-6.294Z" transform="translate(-153.512 -137.666)" fill="url(#linear-gradient)"/>
            <g id="Gruppe_3783" data-name="Gruppe 3783" transform="translate(186.038 128.183)">
              <path id="Pfad_2117" data-name="Pfad 2117" d="M340.973,281.909l-.329.19V266.52l.329-.19Z" transform="translate(-340.644 -266.33)" fill="#f1f8f8"/>
            </g>
            <path id="Pfad_2118" data-name="Pfad 2118" d="M284.078,254.559V323.9l38.359-22.147V232.412Z" transform="translate(-146.644 -133.373)" fill="url(#linear-gradient-6)"/>
            <path id="Pfad_2119" data-name="Pfad 2119" d="M400.634,188.165v69.343l38.359-22.147V166.018Z" transform="translate(-163.05 -124.028)" fill="url(#linear-gradient-7)"/>
            <g id="Gruppe_3784" data-name="Gruppe 3784" transform="translate(155.677 107.848)">
              <rect id="Rechteck_783" data-name="Rechteck 783" width="1.872" height="74.175" fill="#9e9e9e"/>
            </g>
            <g id="Gruppe_3785" data-name="Gruppe 3785" transform="translate(146.767 113.193)">
              <rect id="Rechteck_784" data-name="Rechteck 784" width="1.872" height="74.175" fill="#9e9e9e"/>
            </g>
            <g id="Gruppe_3786" data-name="Gruppe 3786" transform="translate(164.588 102.501)">
              <rect id="Rechteck_785" data-name="Rechteck 785" width="1.872" height="74.175" fill="#9e9e9e"/>
            </g>
            <g id="Gruppe_3787" data-name="Gruppe 3787" transform="translate(257.492 50.647)">
              <rect id="Rechteck_786" data-name="Rechteck 786" width="1.872" height="74.175" fill="#9e9e9e"/>
            </g>
            <g id="Gruppe_3788" data-name="Gruppe 3788" transform="translate(248.583 55.994)">
              <rect id="Rechteck_787" data-name="Rechteck 787" width="1.872" height="74.175" fill="#9e9e9e"/>
            </g>
            <g id="Gruppe_3789" data-name="Gruppe 3789" transform="translate(266.402 45.303)">
              <rect id="Rechteck_788" data-name="Rechteck 788" width="1.872" height="74.175" fill="#9e9e9e"/>
            </g>
            <g id="Gruppe_3792" data-name="Gruppe 3792" transform="translate(134.808 115.571)">
              <g id="Gruppe_3790" data-name="Gruppe 3790" transform="translate(0 0)">
                <rect id="Rechteck_789" data-name="Rechteck 789" width="47.538" height="3.746" transform="matrix(0.866, -0.5, 0.5, 0.866, 0, 23.764)" fill="#9e9e9e"/>
              </g>
              <g id="Gruppe_3791" data-name="Gruppe 3791" transform="translate(0 37.421)">
                <rect id="Rechteck_790" data-name="Rechteck 790" width="47.538" height="3.745" transform="translate(0 23.765) rotate(-29.995)" fill="#9e9e9e"/>
              </g>
            </g>
            <g id="Gruppe_3795" data-name="Gruppe 3795" transform="translate(234.506 58.734)">
              <g id="Gruppe_3793" data-name="Gruppe 3793" transform="translate(0 0)">
                <rect id="Rechteck_791" data-name="Rechteck 791" width="47.539" height="3.745" transform="translate(0 23.766) rotate(-29.995)" fill="#9e9e9e"/>
              </g>
              <g id="Gruppe_3794" data-name="Gruppe 3794" transform="translate(0 37.422)">
                <rect id="Rechteck_792" data-name="Rechteck 792" width="47.538" height="3.746" transform="translate(0 23.765) rotate(-29.995)" fill="#9e9e9e"/>
              </g>
            </g>
            <path id="Pfad_2120" data-name="Pfad 2120" d="M342.167,308.145l-2.723,1.572V247.225l2.722-1.572Z" transform="translate(-154.437 -135.237)" fill="#9e9e9e"/>
            <path id="Pfad_2121" data-name="Pfad 2121" d="M339,309.717l-2.722-1.572V245.653L339,247.225Z" transform="translate(-153.991 -135.237)" fill="#c8c8c8"/>
            <path id="Pfad_2122" data-name="Pfad 2122" d="M388.707,281.065l-2.722,1.572V220.145l2.722-1.572Z" transform="translate(-160.988 -131.425)" fill="#9e9e9e"/>
            <path id="Pfad_2123" data-name="Pfad 2123" d="M356.552,236.212v20.6l3.129-7.159,3.13,3.465v-20.6ZM345.7,242.774V274.5l3.129-7.16,3.13,3.466V239.08ZM374.991,224.1l-6.26,3.694v29.97l3.129-7.159,3.129,3.465Z" transform="translate(-155.318 -132.202)" fill="url(#linear-gradient-8)"/>
            <path id="Pfad_2124" data-name="Pfad 2124" d="M385.538,282.636l-2.722-1.572V218.573l2.723,1.572Z" transform="translate(-160.542 -131.425)" fill="#e6e6e6"/>
            <path id="Pfad_2125" data-name="Pfad 2125" d="M338.311,218.849,357.275,229.7,360,228.125l-18.964-10.848Z" transform="translate(-154.278 -131.243)" fill="#fff"/>
            <path id="Pfad_2126" data-name="Pfad 2126" d="M338.311,219.106l18.964,10.848v5.189L338.311,224.3Z" transform="translate(-154.278 -131.5)" fill="#c8c8c8"/>
            <path id="Pfad_2127" data-name="Pfad 2127" d="M381.71,218.316,339,243.156l-2.723-1.572,42.712-24.84Z" transform="translate(-153.991 -131.168)" fill="#fff"/>
            <path id="Pfad_2128" data-name="Pfad 2128" d="M382.156,218.573l-42.712,24.84v5.19l42.712-24.84Z" transform="translate(-154.437 -131.425)" fill="#9e9e9e"/>
            <g id="Gruppe_3796" data-name="Gruppe 3796" transform="translate(52.162 83.935)">
              <path id="Pfad_2129" data-name="Pfad 2129" d="M185.382,275.138,210.9,289.749V238.513l-25.522-14.736Z" transform="translate(-184.914 -216.093)" fill="#fefefd"/>
              <path id="Pfad_2130" data-name="Pfad 2130" d="M211.295,302.573l-26.458-15.149v-72.59L211.3,230.111Z" transform="translate(-184.837 -214.834)" fill="#9e9e9e"/>
            </g>
          </g>
        </g>
        <g id="Gruppe_3804" data-name="Gruppe 3804" transform="translate(121.167 197.294)">
          <path id="Pfad_2134" data-name="Pfad 2134" d="M304.526,378.883h-3.381v18.589a.847.847,0,0,0,.5.692,2.64,2.64,0,0,0,2.4,0,.835.835,0,0,0,.489-.692h0Z" transform="translate(-289.04 -360.696)"/>
          <path id="Pfad_2135" data-name="Pfad 2135" d="M314.649,371.513a13.8,13.8,0,1,1-13.8-13.8A13.8,13.8,0,0,1,314.649,371.513Z" transform="translate(-287.057 -357.717)" fill="url(#linear-gradient-9)"/>
        </g>
        <g id="Gruppe_3805" data-name="Gruppe 3805" transform="translate(91.004 212.36)">
          <path id="Pfad_2136" data-name="Pfad 2136" d="M269.423,396.416h-3.382V415a.846.846,0,0,0,.5.692,2.632,2.632,0,0,0,2.395,0,.831.831,0,0,0,.489-.692h0Z" transform="translate(-253.936 -378.23)"/>
          <path id="Pfad_2137" data-name="Pfad 2137" d="M279.545,389.047a13.8,13.8,0,1,1-13.8-13.8A13.8,13.8,0,0,1,279.545,389.047Z" transform="translate(-251.953 -375.251)" fill="url(#linear-gradient)"/>
        </g>
        <path id="Pfad_2159" data-name="Pfad 2159" d="M184.813,287.3l9.27-5.586.544-61.369-10-5.226Z" transform="translate(-132.645 -130.939)" fill="#9e9e9e"/>
        <path id="Pfad_2160" data-name="Pfad 2160" d="M195.853,282.724l16.885,9.688V230.933l-16.6-9.649Z" transform="translate(-134.226 -131.807)" fill="#444"/>
        <path id="Pfad_2161" data-name="Pfad 2161" d="M157.081,232.306l7.2,4.157v-9.125l-7.2-4.157Zm0,24.9,7.2,4.157v-9.124l-7.2-4.157Zm0-12.426,7.2,4.157v-9.125l-7.2-4.157Zm-8.909-42.061,7.2,4.157v-9.124l-7.2-4.157Zm0,12.2,7.2,4.157v-9.124l-7.2-4.158Zm8.909-7.058,7.2,4.157v-9.125l-7.2-4.157Zm8.91,42.06,7.2,4.157v-9.124l-7.2-4.157Zm-8.91-29.859,7.2,4.158v-9.125l-7.2-4.157Zm8.91,5.144,7.2,4.157v-9.124l-7.2-4.157Zm0,12.243,7.2,4.157v-9.124l-7.2-4.157Zm0,24.9,7.2,4.157v-9.124l-7.2-4.158Zm-17.82-35.185,7.2,4.157v-9.124l-7.2-4.157Zm-8.91,19.753,7.2,4.157v-9.124l-7.2-4.158ZM165.992,213l7.2,4.157v-9.124l-7.2-4.157Zm-35.64-20.575,7.2,4.157V187.46l-7.2-4.157Zm0,24.445,7.2,4.157v-9.125l-7.2-4.157Zm0-12.243,7.2,4.157v-9.125l-7.2-4.157Zm0,37.14,7.2,4.157V236.8l-7.2-4.157Zm0-12.426,7.2,4.157v-9.125l-7.2-4.157Zm17.82,22.713,7.2,4.158v-9.125l-7.2-4.157Zm-8.91-17.57,7.2,4.157v-9.124l-7.2-4.157Zm0-36.917,7.2,4.157V192.6l-7.2-4.157Zm8.91,42.061,7.2,4.157v-9.125l-7.2-4.156Zm-8.91-29.859,7.2,4.157v-9.124l-7.2-4.157Zm0,12.243,7.2,4.157V217.05l-7.2-4.157Zm85.372,24.8,7.2,4.157v-9.124l-7.2-4.157Zm8.91,29.59,7.2,4.157v-9.124l-7.2-4.157Zm0-12.243,7.2,4.157v-9.125l-7.2-4.156Zm0,24.714,7.2,4.157v-9.125l-7.2-4.157Zm0,12.426,7.2,4.158v-9.125l-7.2-4.157Zm-8.91-30.041,7.2,4.157v-9.124l-7.2-4.157Zm0-12.243,7.2,4.157v-9.124l-7.2-4.157Zm8.91-7.058,7.2,4.157v-9.124l-7.2-4.157Zm8.909,17.346,7.2,4.158v-9.125l-7.2-4.157Zm-35.64,16.565,7.2,4.157V280.9l-7.2-4.157Zm35.64,8.149,7.2,4.157v-9.124l-7.2-4.157Zm0,12.426,7.2,4.157v-9.124l-7.2-4.157Zm0-24.9,7.2,4.157v-9.125l-7.2-4.157Zm0-33.571V257.1l7.2,4.157v-9.125Zm-35.64-11.451,7.2,4.157v-9.124l-7.2-4.157Zm8.91,54.486,7.2,4.157v-9.124l-7.2-4.157Zm8.91-7.282,7.2,4.157v-9.124l-7.2-4.157Zm-17.82-10.288,7.2,4.157v-9.125l-7.2-4.156Zm0-12.471,7.2,4.157v-9.124l-7.2-4.157Zm0-12.243,7.2,4.157v-9.124l-7.2-4.157Zm8.91,29.859,7.2,4.156v-9.124l-7.2-4.157Zm8.91,17.57,7.2,4.157v-9.124l-7.2-4.158Zm-8.91-54.486,7.2,4.157V236.7l-7.2-4.157Zm0,12.2,7.2,4.157v-9.125l-7.2-4.157Zm0,12.243,7.2,4.157V261.15l-7.2-4.157Z" transform="translate(-125.006 -126.461)" fill="url(#linear-gradient-11)"/>
        <g id="Gruppe_3811" data-name="Gruppe 3811" transform="translate(197.752 136.607)">
          <path id="Pfad_2013" data-name="Pfad 2013" d="M243.741,360.194q-.341-10.26,11.9-17.913,12.3-7.653,29.931-8.22,1.556-.06,3.063-.056a59.169,59.169,0,0,1,24.405,4.705q.459.187.907.4,1.075.517,2.126,1.076.959.511,1.842,1.05a30.082,30.082,0,0,1,5.782,4.337,20.888,20.888,0,0,1,2.551,2.947,15.565,15.565,0,0,1,2.92,8.675,15.376,15.376,0,0,1-.141,2.777c-.034.314-.082.626-.143.935q-1.61,7.917-11.621,14.144-12.245,7.653-29.931,8.276t-30.5-6.178q-11.065-5.9-12.784-14.313c-.067-.323-.123-.645-.169-.963A16.153,16.153,0,0,1,243.741,360.194Z" transform="translate(-243.732 -302.436)" fill="#885fd4" fill-rule="evenodd"/>
          <path id="Pfad_2014" data-name="Pfad 2014" d="M261.2,369.735q9.185,4.875,21.939,4.423,12.7-.455,21.487-5.953,7.794-4.848,8.531-11.14a10.641,10.641,0,0,0,.085-1.729q-.283-7.37-9.466-12.246T281.89,338.67q-12.7.453-21.542,5.951-8.786,5.5-8.56,12.87a12.516,12.516,0,0,0,.2,1.87Q253.2,365.491,261.2,369.735Z" transform="translate(-239.762 -300.185)" fill="#ff65a7" fill-rule="evenodd"/>
          <path id="Pfad_2015" data-name="Pfad 2015" d="M304.48,366.479q-8.788,5.5-21.487,5.953-12.753.453-21.939-4.423-7.992-4.244-9.211-10.374,1.548-5.2,8.248-9.354,8.958-5.613,21.939-6.065,12.869-.453,22.166,4.536,6.835,3.6,8.814,8.589Q312.276,361.63,304.48,366.479Z" transform="translate(-239.618 -298.459)" fill-rule="evenodd" fill="url(#linear-gradient-12)"/>
          <path id="Pfad_2016" data-name="Pfad 2016" d="M248.222,314.266a8.4,8.4,0,0,0-9.127-.312L211.941,329.6a8.337,8.337,0,0,0-3.259,3.372l.028-.027a3.463,3.463,0,0,1,3.685.226,9.364,9.364,0,0,1,3.74,3.742,9.675,9.675,0,0,1,1.53,4.988,3.765,3.765,0,0,1-1.53,3.459,3.636,3.636,0,0,1-.425.2,7.955,7.955,0,0,0,4.79-1.106l27.154-15.646a8.178,8.178,0,0,0,3.968-5.272v-.028a8.214,8.214,0,0,0-.85-6.434A8.383,8.383,0,0,0,248.222,314.266Z" transform="translate(-114.371 -312.77)" fill-rule="evenodd"/>
          <path id="Pfad_2017" data-name="Pfad 2017" d="M233.962,341.807q1.075.517,2.126,1.076.959.511,1.842,1.05a30.083,30.083,0,0,1,5.782,4.336l17.375-10.035a5.2,5.2,0,0,0,.937-.679,5.1,5.1,0,0,0,1.5-2.551,4.916,4.916,0,0,0-.51-3.911,5.28,5.28,0,0,0-6.462-2.269,6.592,6.592,0,0,0-.679.34l-20.04,11.565Z" transform="translate(-163.743 -305.135)" fill-rule="evenodd" fill="url(#linear-gradient-13)"/>
          <path id="Pfad_2018" data-name="Pfad 2018" d="M237.2,338.726a3.983,3.983,0,0,0,3.061.369,3.6,3.6,0,0,0,.425-.2,3.765,3.765,0,0,0,1.53-3.459,9.674,9.674,0,0,0-1.53-4.988,9.365,9.365,0,0,0-3.74-3.742,3.463,3.463,0,0,0-3.685-.226l-.028.027a3.543,3.543,0,0,0-1.5,3.318V330a5.28,5.28,0,0,1,6.462,2.269,4.916,4.916,0,0,1,.51,3.911A5.1,5.1,0,0,1,237.2,338.726Z" transform="translate(-138.921 -306.307)" fill-rule="evenodd" fill="url(#linear-gradient-14)"/>
          <path id="Pfad_2019" data-name="Pfad 2019" d="M313.155,357.066a10.641,10.641,0,0,0,.085-1.729q-.283-7.37-9.466-12.246T281.89,338.67q-12.7.453-21.542,5.951-8.786,5.5-8.56,12.87a12.516,12.516,0,0,0,.2,1.87q1.548-5.2,8.248-9.354,8.958-5.613,21.939-6.065,12.869-.453,22.166,4.536Q311.175,352.081,313.155,357.066Z" transform="translate(-239.762 -300.185)" fill-rule="evenodd" fill="url(#linear-gradient-15)"/>
          <path id="Pfad_2020" data-name="Pfad 2020" d="M243.767,356.209a15.018,15.018,0,0,0-.027,1.531,14.658,14.658,0,0,0,.141,1.615q1.235,9.085,12.953,15.335,12.812,6.8,30.5,6.179t29.931-8.276q10.592-6.59,11.764-15.079a15.359,15.359,0,0,0,.141-2.779c0-.143-.013-.284-.028-.425a15.082,15.082,0,0,0-.256-2.211q-1.61,7.916-11.621,14.144-12.245,7.653-29.931,8.276t-30.5-6.179q-11.065-5.9-12.784-14.314A14.742,14.742,0,0,0,243.767,356.209Z" transform="translate(-243.731 -293.631)" fill-rule="evenodd" fill="url(#linear-gradient-16)"/>
          <path id="Pfad_2021" data-name="Pfad 2021" d="M277.8,353.7q7.881-4.817,16.838-1.076a2.448,2.448,0,0,0,1.3.113l1.418-3.684q-2.324-6.576-10.374-4.931a28.785,28.785,0,0,0-16.667,9.3,6.676,6.676,0,0,0-1.757,6.235Q272.761,356.817,277.8,353.7Z" transform="translate(-248.578 -297.675)" fill="#fff" fill-rule="evenodd"/>
        </g>
      </g>
      <g id="Gruppe_3809" data-name="Gruppe 3809" transform="translate(433.481 662.449)">
        <path id="Pfad_2162" data-name="Pfad 2162" d="M97.032,326.051v1.673a3.308,3.308,0,0,0,1.653,2.865l74.131,42.832a9.087,9.087,0,0,0,8.159.015l33.1-18.8a3.259,3.259,0,0,0,1.65-2.817h0a6.637,6.637,0,0,0-3.312-5.777l-72.341-41.858a9.141,9.141,0,0,0-8.17-.034l-33.3,19.195A3.122,3.122,0,0,0,97.032,326.051Z" transform="translate(-97.032 -303.206)" fill="url(#linear-gradient-17)"/>
        <path id="Pfad_2163" data-name="Pfad 2163" d="M98.726,322.987c-2.252,1.275-2.261,3.377-.02,4.671l74.11,42.739a9.085,9.085,0,0,0,8.159.015l33.063-18.926c2.246-1.285,2.25-3.4.009-4.691l-73.884-42.608a9.143,9.143,0,0,0-8.171-.034Z" transform="translate(-97.032 -303.206)" fill="#fff"/>
        <ellipse id="Ellipse_91" data-name="Ellipse 91" cx="5.649" cy="3.261" rx="5.649" ry="3.261" transform="translate(90.406 50.478)" fill="#e6e6e6"/>
        <g id="Gruppe_3809-2" data-name="Gruppe 3809" transform="translate(18.657 10.459)">
          <path id="Pfad_2164" data-name="Pfad 2164" d="M119.081,320.306a.336.336,0,0,1-.168-.627l7.371-4.255a.336.336,0,1,1,.336.582l-7.371,4.255A.328.328,0,0,1,119.081,320.306Z" transform="translate(-118.745 -315.378)" fill="#444"/>
        </g>
        <path id="Pfad_2165" data-name="Pfad 2165" d="M105.848,329.908l37.576-21.971,62.255,35.9-37.9,21.966Z" transform="translate(-98.273 -303.872)" fill="url(#linear-gradient-17)"/>
      </g>
      <g id="Gruppe_3810" data-name="Gruppe 3810" transform="translate(461.145 624.89)">
        <path id="Pfad_2166" data-name="Pfad 2166" d="M163.675,271.572l.041,65.574h-.041l-9.453-5.582V265.99Z" transform="translate(-132.744 -260.408)" fill-rule="evenodd" fill="url(#linear-gradient-19)"/>
        <path id="Pfad_2167" data-name="Pfad 2167" d="M173.128,265.075l-9.453,5.583-9.453-5.583,1.711-1,7.783-4.584Z" transform="translate(-132.744 -259.493)" fill="#fcb013" fill-rule="evenodd"/>
        <path id="Pfad_2168" data-name="Pfad 2168" d="M174.676,328.141v3.423l-9.412,5.582-.041-65.574,9.453-5.583Z" transform="translate(-134.293 -260.408)" fill="#e69123" fill-rule="evenodd"/>
        <path id="Pfad_2169" data-name="Pfad 2169" d="M199.809,320.727v30.438l-9.412,5.582-.041-30.438Z" transform="translate(-137.83 -268.112)" fill="#5b379c" fill-rule="evenodd"/>
        <path id="Pfad_2170" data-name="Pfad 2170" d="M179.354,348.029v-27.3l9.453,5.582.041,30.438h-.041l-9.453-5.582Z" transform="translate(-136.282 -268.112)" fill-rule="evenodd" fill="url(#linear-gradient-20)"/>
        <path id="Pfad_2171" data-name="Pfad 2171" d="M198.26,319.648l-9.453,5.582-9.453-5.582,9.494-5.583Z" transform="translate(-136.282 -267.175)" fill="#885fd4" fill-rule="evenodd"/>
        <path id="Pfad_2172" data-name="Pfad 2172" d="M149.68,272.521v49.1l-9.412,5.582-.041-49.1Z" transform="translate(-130.774 -261.327)" fill="#5b379c" fill-rule="evenodd"/>
        <path id="Pfad_2173" data-name="Pfad 2173" d="M129.226,318.488V272.521l9.453,5.582.041,49.1h-.041l-9.453-5.582Z" transform="translate(-129.226 -261.327)" fill-rule="evenodd" fill="url(#linear-gradient-20)"/>
        <path id="Pfad_2174" data-name="Pfad 2174" d="M148.132,271.607l-9.453,5.582-9.453-5.582,9.494-5.583Z" transform="translate(-129.226 -260.413)" fill="#885fd4" fill-rule="evenodd"/>
      </g>
      <g id="Gruppe_3823" data-name="Gruppe 3823" transform="translate(534.476 441.793)">
        <path id="Pfad_2138" data-name="Pfad 2138" d="M218.121,147.04l53.371,30.794-4.905,2.817-1.408-.821-17.791-10.28-21.757-12.557-9.88-5.7q-2.535-1.5.376-3.1Z" transform="translate(-214.571 -51.157)" fill-rule="evenodd" fill="url(#linear-gradient-22)"/>
        <path id="Pfad_2139" data-name="Pfad 2139" d="M399,134.449l3.568,1.737A81.365,81.365,0,0,1,393.2,145.5c-.451.384-.9.769-1.361,1.151q-2.659,2.16-5.539,4.178-1.556,1.092-3.168,2.135-.181.1-.352.211l-1.034.656h-.093l-.306.165-6.525,3.778-1.689.986-6.712,3.873-10.258,5.915-6.431,3.708-2.44,1.408-1.972,1.126-2.066,1.2-2.347,1.361-3.661,2.113-21.17,12.2v-5.633L381.656,148.2h.093l1.034-.656q2.507-1.6,4.858-3.31.731-.532,1.455-1.08A85.21,85.21,0,0,0,399,134.449Z" transform="translate(-228.859 -49.384)" fill-rule="evenodd" fill="url(#linear-gradient-22)"/>
        <path id="Pfad_2140" data-name="Pfad 2140" d="M282.969,149.593a5.025,5.025,0,0,0-.235.963.782.782,0,0,0-.047.235v.375a2.415,2.415,0,0,0,.047.47V154.4a2.667,2.667,0,0,0-.047.516,5.221,5.221,0,0,0,.047.7l-11.242,6.5-53.371-30.794-2.371-1.384q-2.535-1.5.376-3.1l19.6-11.336,3.99-2.3,6.572-3.8,2.44-1.408,6.407-3.709,1.736-1.01,6.5-3.755,10.045-5.8,6.689-3.873,1.9-1.1,3.356-1.925,1.079-.633q2.366-1.518,4.576-3.122.73-.527,1.432-1.056a86.926,86.926,0,0,0,10.4-9.154A78.363,78.363,0,0,0,308.2,66.7q.572-.733,1.127-1.479,2.031-2.747,3.8-5.656a76.449,76.449,0,0,0,4.6-8.8q1.3-2.985,2.371-6.1l2.817-6.9.046-.093q1.361-3.193,3.755-1.785l8.45,4.882L403.839,80.38q2.395,1.455,1.268,4.6l-.611,1.525-5.4,13.308a74.778,74.778,0,0,1-4.154,7.651c-.015.024-.03.047-.046.07q-1.465,2.365-3.1,4.624c-.064.088-.127.174-.188.259q-.543.731-1.1,1.432a.593.593,0,0,1-.047.07,78.114,78.114,0,0,1-5.539,6.383c-.067.07-.137.141-.211.212a85.192,85.192,0,0,1-9.9,8.707q-.723.549-1.455,1.08-2.352,1.709-4.858,3.31l-1.034.656h-.093L301.792,172.1V161.587a15.375,15.375,0,0,0,3-1.315,8.361,8.361,0,0,0,3.239-2.957,4.992,4.992,0,0,0,.565-2.347v-3.239a4.7,4.7,0,0,1,.046-.657,5.048,5.048,0,0,0-.046-.7,4.36,4.36,0,0,0-.329-1.08,5.775,5.775,0,0,0-.869-1.455l3.732-2.159-10.279-5.961a16.524,16.524,0,0,1-1.408,1.877,23.684,23.684,0,0,1-1.855,2.042q-.951-.071-1.948-.07a18.235,18.235,0,0,0-8.519,1.877l-13.449-7.745q-1.22.986-3.192,2.535-.844.657-1.548,1.22ZM249.5,123.659l-5.68,3.239,20.935,12.157a21.153,21.153,0,0,1,6.15-3Zm11.828-6.807-5.726,3.239,24.971,14.41-.046.047,11.923,6.9q1.032-.892,2.44-2.066,1.315-1.032,2.347-1.736Zm84.4-51.211q-5.821-3.285-11.688-6.572-1.83,2.112-3.9,4.413,5.445,3.1,10.749,6.2,1.08-1.032,2.488-2.206A24.78,24.78,0,0,1,345.728,65.641ZM329.487,84.088q-.7.985-1.831,2.722-.892,1.175-1.643,2.019,5.867,3.378,11.782,6.946a30.141,30.141,0,0,1,3-3.051c.5-.406.955-.766,1.362-1.078Q335.964,87.983,329.487,84.088ZM345.07,70.476q-.516.562-.892,1.032,6.384,3.709,12.862,7.276v.094q12.3,7.37,24.644,14.692,1.923-2.3,3.9-4.647-17.79-10.845-37.928-22.156A44.2,44.2,0,0,1,345.07,70.476Zm-19.339-2.535a40.484,40.484,0,0,1-4.459,4.178q13.425,7.839,27.084,15.96v.094q1.736.94,3.473,2.018a20.193,20.193,0,0,1,1.643-1.643,16.722,16.722,0,0,1,2.394-2.136q.307-.213.611-.4-3.356-2.017-6.784-4.061Q338.169,75.1,325.731,67.941ZM307.706,84.793q-1.924,2.017-3.661,4.225,29.2,16.757,51.728,31.167,1.924-1.737,3.8-3.8Q336.809,101.69,307.706,84.793ZM322.4,124.832q-.985.893-2.769,2.488-.94.8-1.878,1.455l11.359,6.525,5.68-3.286ZM313.01,104.46a32.2,32.2,0,0,1-3.191,3.474q-.423.375-.845.7L316.484,113l-.047.046,24.972,14.41,5.632-3.286Zm29.62-8.684q-.892,1.175-1.549,1.972,5.3,3.285,10.655,6.665a11.75,11.75,0,0,1,1.831-1.548,29.353,29.353,0,0,1,3.192-2.253q-5.915-3.756-12.11-7.417Q343.9,94.133,342.63,95.776ZM292.4,127.7l-.047.048,24.926,14.363,5.68-3.286-27.648-15.96q-.94.844-2.394,2.113-1.174,1.032-2.066,1.783Zm-2.112-5.21a18.393,18.393,0,0,1,2.3-1.22l-19.433-11.313-5.727,3.333,19.714,11.406A21.474,21.474,0,0,1,290.292,122.485Zm-5.351-19.339-5.68,3.332,24.972,14.364-.047.046,9.342,5.4a34.964,34.964,0,0,1,3.567-1.925q1.409-.657,2.536-1.174Zm12.3-7.84-5.727,3.334,13.049,7.51a20.415,20.415,0,0,1,5.258-3.52Zm58.722,11.688q4.084,2.534,8.028,5.07l4.177-4.178q-4.271-2.816-8.824-5.632a24.62,24.62,0,0,1-1.831,2.723A13.532,13.532,0,0,1,355.96,106.995Zm3.708-19.011-.61.7q-.691.8-1.549,1.785-1.032,1.173-1.924,2.018,8.589,5.257,17.321,10.656,1.2-1.369,2.464-2.746.865-.95,1.76-1.9-3.9-2.374-7.933-4.811c-.241-.146-.485-.295-.728-.446Q364.145,90.651,359.669,87.984Zm-69.33,85.008-8.9-5.139,8.9-5.14Z" transform="translate(-214.571 -35.45)" fill="#fff" fill-rule="evenodd"/>
        <path id="Pfad_2141" data-name="Pfad 2141" d="M254.293,127.528l21.4,12.392a21.151,21.151,0,0,0-6.15,3l-20.935-12.157Zm11.828-6.807,35.909,20.8q-1.034.7-2.347,1.736-1.408,1.175-2.44,2.066l-11.923-6.9.046-.047-24.971-14.41Zm84.4-51.211a24.789,24.789,0,0,0-2.347,1.83q-1.409,1.173-2.488,2.206-5.3-3.1-10.749-6.2,2.065-2.3,3.9-4.413Q344.7,66.223,350.519,69.51Zm-20,2.3q12.436,7.157,23.963,14.011,3.428,2.044,6.784,4.061-.3.186-.611.4a16.716,16.716,0,0,0-2.394,2.136,20.215,20.215,0,0,0-1.643,1.643q-1.736-1.079-3.473-2.018v-.094q-13.661-8.121-27.084-15.96A40.474,40.474,0,0,0,330.523,71.811Zm19.339,2.535a44.217,44.217,0,0,0,2.582-3.708q20.137,11.312,37.928,22.156-1.972,2.347-3.9,4.647-12.346-7.323-24.644-14.692v-.094q-6.477-3.568-12.862-7.276Q349.347,74.908,349.862,74.345ZM334.279,87.957q6.477,3.9,12.674,7.558c-.407.312-.861.673-1.362,1.078a30.131,30.131,0,0,0-3,3.051Q336.672,96.079,330.8,92.7q.751-.845,1.643-2.019Q333.574,88.943,334.279,87.957Zm-21.781.7q29.1,16.9,51.869,31.59-1.878,2.066-3.8,3.8-22.531-14.411-51.728-31.167Q310.574,90.679,312.5,88.662ZM302.03,99.176l12.58,7.323a20.415,20.415,0,0,0-5.258,3.52L296.3,102.51Zm-12.3,7.84,34.689,20.043q-1.128.517-2.536,1.174a34.94,34.94,0,0,0-3.567,1.925l-9.342-5.4.047-.046-24.972-14.364Zm5.351,19.339a21.474,21.474,0,0,0-3.146,2.207l-19.714-11.406,5.727-3.333,19.433,11.313A18.387,18.387,0,0,0,295.083,126.355Zm2.112,5.21-1.549-.938q.893-.751,2.066-1.783,1.455-1.268,2.394-2.113l27.648,15.96-5.68,3.286-24.926-14.363Zm50.226-31.919q1.267-1.642,2.018-2.581,6.2,3.662,12.11,7.417a29.35,29.35,0,0,0-3.192,2.253,11.74,11.74,0,0,0-1.831,1.548q-5.35-3.378-10.655-6.665Q346.53,100.82,347.422,99.645Zm-29.62,8.684,34.031,19.714L346.2,131.33l-24.972-14.41.047-.046-7.511-4.366q.423-.329.845-.7A32.193,32.193,0,0,0,317.8,108.329ZM327.19,128.7l12.392,7.182-5.68,3.286-11.359-6.525q.938-.657,1.878-1.455Q326.205,129.593,327.19,128.7Zm37.271-36.848q4.476,2.668,8.8,5.258.365.227.728.446,4.033,2.435,7.933,4.811-.9.952-1.761,1.9-1.264,1.378-2.464,2.746-8.731-5.4-17.321-10.656.891-.844,1.924-2.018.857-.985,1.549-1.785Zm-3.708,19.011a13.532,13.532,0,0,0,1.549-2.018,24.63,24.63,0,0,0,1.831-2.723q4.553,2.816,8.824,5.632l-4.177,4.178Q364.835,113.4,360.752,110.864ZM312.193,151.7a9.834,9.834,0,0,0-2.558-2.066,16.993,16.993,0,0,0-7.253-2.135,23.678,23.678,0,0,0,1.855-2.042,16.521,16.521,0,0,0,1.408-1.877l10.279,5.961Zm-24.433,1.76-14.034-8.144q.7-.563,1.548-1.22,1.972-1.549,3.192-2.535l13.449,7.745c-.2.108-.4.218-.587.328a7.642,7.642,0,0,0-3.474,3.52A2.433,2.433,0,0,0,287.76,153.462Z" transform="translate(-219.362 -39.319)" fill="#c8c8c8" fill-rule="evenodd"/>
        <path id="Pfad_2142" data-name="Pfad 2142" d="M279.212,191.1l-2.066,1.2.751-5.727-8.777.118-2.206.023,4.6-2.652,2.441-1.408,4.905-2.817,11.242-6.5c.029.127.06.253.094.376q.562,2.393,3.708,4.271a17.928,17.928,0,0,0,9.154,2.158,20.643,20.643,0,0,0,6.1-.844v25.629l-5.3-6.2-6.149,6.477V180.424l-8.9,5.14-4.881,2.816Zm10.89-21.757a2.415,2.415,0,0,1-.047-.47V168.5a.782.782,0,0,1,.047-.235,5.016,5.016,0,0,1,.235-.963,2.426,2.426,0,0,1,.094-.305,7.642,7.642,0,0,1,3.474-3.52c.19-.11.386-.22.587-.328a18.235,18.235,0,0,1,8.519-1.877q1,0,1.948.07a16.993,16.993,0,0,1,7.253,2.135,9.836,9.836,0,0,1,2.558,2.066,5.775,5.775,0,0,1,.869,1.455,4.365,4.365,0,0,1,.329,1.08,5.038,5.038,0,0,1,.046.7,4.705,4.705,0,0,0-.046.657q-.424,2.723-3.8,4.694-.7.376-1.361.7a14.431,14.431,0,0,1-1.643.609,20.67,20.67,0,0,1-6.15.846,17.775,17.775,0,0,1-8.308-1.831,8.383,8.383,0,0,1-.751-.375,11.2,11.2,0,0,1-2.23-1.691A5.4,5.4,0,0,1,290.1,169.346Z" transform="translate(-221.938 -53.16)" fill="#885fd4" fill-rule="evenodd"/>
        <path id="Pfad_2143" data-name="Pfad 2143" d="M312.95,180.62a20.643,20.643,0,0,1-6.1.844,17.929,17.929,0,0,1-9.154-2.158q-3.145-1.878-3.708-4.271c-.034-.123-.065-.249-.095-.376a5.231,5.231,0,0,1-.047-.7,2.672,2.672,0,0,1,.047-.516v-2.769a5.4,5.4,0,0,0,1.62,3.05,11.2,11.2,0,0,0,2.23,1.691,8.391,8.391,0,0,0,.751.375,17.775,17.775,0,0,0,8.308,1.831,20.672,20.672,0,0,0,6.15-.845,14.439,14.439,0,0,0,1.643-.609q.656-.329,1.361-.7,3.379-1.972,3.8-4.694V174a4.992,4.992,0,0,1-.564,2.347,8.362,8.362,0,0,1-3.239,2.957A15.38,15.38,0,0,1,312.95,180.62Z" transform="translate(-225.729 -54.482)" fill="#5b379c" fill-rule="evenodd"/>
      </g>
      <g id="Gruppe_3824" data-name="Gruppe 3824" transform="translate(567.746 426.637)">
        <path id="Pfad_2144" data-name="Pfad 2144" d="M301.209,81.324v25.869a7.382,7.382,0,0,1-3.692,6.394L270.133,129.4a17.357,17.357,0,0,1-17.356,0l-27.423-15.832a7.383,7.383,0,0,1-3.691-6.327l-.235-26.071,39.89-22.873Z" transform="translate(-201.739 -41.392)" fill="url(#linear-gradient)"/>
        <path id="Pfad_2145" data-name="Pfad 2145" d="M240.062,118.782v5.01l-7.32-4.226.351-2.613a2.612,2.612,0,0,1,1.08-2.13V95.211l30.563-18.058,2.39,4.045L238.872,97.892v17.987A4.138,4.138,0,0,1,240.062,118.782Z" transform="translate(-203.331 -44.047)" fill="#231f20" opacity="0.3"/>
        <path id="Pfad_2146" data-name="Pfad 2146" d="M258.2,40.577l59.682,32.779v1.678L258.2,109.491,198.513,75.034V73.356Z" transform="translate(-198.513 -38.899)" fill="#5b379c"/>
        <path id="Pfad_2147" data-name="Pfad 2147" d="M258.2,38.624l59.682,34.458L258.2,107.538,198.513,73.081Z" transform="translate(-198.513 -38.624)" fill="#885fd4"/>
        <path id="Pfad_2148" data-name="Pfad 2148" d="M231.723,114.823V95.211l30.562-18.058,2.39,4.045L236.421,97.892v17.987a4.135,4.135,0,0,1,1.191,2.9v9.091l-1.006.587-6.969-4.023,1.006-7.483A2.612,2.612,0,0,1,231.723,114.823Z" transform="translate(-202.894 -44.047)" fill="#e69123"/>
        <path id="Pfad_2149" data-name="Pfad 2149" d="M230.716,114.042V94.43l30.562-18.058,2.39,4.044L235.415,97.111V115.1a4.138,4.138,0,0,1,1.19,2.9v10.349l-6.969-4.023v-8.155A2.61,2.61,0,0,1,230.716,114.042Z" transform="translate(-202.894 -43.937)" fill="url(#linear-gradient-25)"/>
        <ellipse id="Ellipse_90" data-name="Ellipse 90" cx="7.034" cy="4.061" rx="7.034" ry="4.061" transform="translate(52.648 30.397)" fill="url(#linear-gradient-26)"/>
      </g>
      <g id="Gruppe_3822" data-name="Gruppe 3822" transform="translate(379.66 492.029)">
        <g id="Gruppe_3820" data-name="Gruppe 3820" transform="translate(0 0)">
          <path id="Pfad_2175" data-name="Pfad 2175" d="M211.842,230.728l.253-.235a.874.874,0,0,0,.169-.017Z" transform="translate(-70.872 -173.211)" fill="#e8f9ff" fill-rule="evenodd"/>
          <path id="Pfad_2176" data-name="Pfad 2176" d="M245.412,207.015c-.037.047-.072.092-.1.135a1.756,1.756,0,0,1-1.044.673q-.407.1-.859.185l1.162-.656A3.235,3.235,0,0,1,245.412,207.015Z" transform="translate(-75.23 -169.973)" fill-rule="evenodd" fill="url(#linear-gradient-27)"/>
          <path id="Pfad_2177" data-name="Pfad 2177" d="M92.537,277.512a4.519,4.519,0,0,0-.1-.539,21.957,21.957,0,0,0-.708-2.156,12.381,12.381,0,0,0,4.782-.27,69.859,69.859,0,0,1,9.462-.942q5.893-.3,9.563-.27a7.325,7.325,0,0,1,2.8.607,5.508,5.508,0,0,0,2.762.471,43.137,43.137,0,0,0,2.559-6.128,127.376,127.376,0,0,1,5.017-12.83,31.75,31.75,0,0,0,1.717-4.479,66.184,66.184,0,0,1,2.963-7.509,13.4,13.4,0,0,1,.27-6.3,12.181,12.181,0,0,1,1.852-3.8q.1-.136.2-.3.37-.472.774-.943.438-.506.909-.977.741-.706,1.515-1.347a21.638,21.638,0,0,1,6.937-3.737,20.9,20.9,0,0,1,6.23,4.074q-.94.716-1.852,1.515-1.288,1.129-2.525,2.425a21.382,21.382,0,0,0-3.974,5.388q-.6,1.206-1.2,2.508-.411.917-.825,1.886-1.853,4.389-3.569,9.716-2.839,8.267-5.658,15.22-.622,1.55-1.245,3.031a17.375,17.375,0,0,1-3.721,5.91,6.354,6.354,0,0,1-4.833,1.936q-5.185-.269-13.435-1.414a99.957,99.957,0,0,0-12.83-1.146A17.631,17.631,0,0,0,92.537,277.512Zm94.153-89.877a13.544,13.544,0,0,0,6.433,1.414q7.879,0,15.658-6.3a5.67,5.67,0,0,1,.539-.472,13.953,13.953,0,0,1-3.232,2.963.03.03,0,0,1,.034.034.1.1,0,0,1,.033.067c0,.022.022.056.068.1a4.543,4.543,0,0,1,.505,1.718.1.1,0,0,1-.034-.067,1.257,1.257,0,0,1-.2.168,21.828,21.828,0,0,1-4.478,3.232,22.834,22.834,0,0,1-10.844,2.29,6.841,6.841,0,0,1-2.525-.505A10.009,10.009,0,0,1,186.689,187.635Zm-.067-4.311a7.965,7.965,0,0,1,1.448-3.67,19.862,19.862,0,0,1,7.611-6.129,16.7,16.7,0,0,1,9.563-1.549,10.892,10.892,0,0,0,2.492-.841,1.793,1.793,0,0,1,.572-.1,3.171,3.171,0,0,0-.809,1.381.389.389,0,0,0,.168.3,6.786,6.786,0,0,0,.607.606,5.587,5.587,0,0,0,1.381-1.146,3.075,3.075,0,0,0,1.515-.4,4.343,4.343,0,0,1,1.65-.471q-1.987,2.122-1.987,2.829c0,.493.067.617.2.37a4.6,4.6,0,0,0,1.819-1.044,1.274,1.274,0,0,1-.067.4,2.279,2.279,0,0,0,0,1.347q-.3.3-.64.606-2.358,2.626-3.839,4.074-5.86,5.623-12.56,5.623Q189.081,185.513,186.622,183.324Z" transform="translate(-54.289 -165.005)" fill="#9e9e9e" fill-rule="evenodd"/>
          <path id="Pfad_2178" data-name="Pfad 2178" d="M229.032,189.863q.078-.418.151-.859h.135a4.558,4.558,0,0,0,.809,0,2.849,2.849,0,0,0,1.785-1.448q.182-.305.421-.809,1.067-.853.959-1.246-.147-.481-1.65.219l-.135-.05a4.678,4.678,0,0,0-1.952-.371q0-.067,0-.134.009-.39,0-.791a5.25,5.25,0,0,1,1.616.219q2.357.572,2.425,1.01a3.372,3.372,0,0,1-.775,2.357,4.084,4.084,0,0,1-2.492,1.953,3.371,3.371,0,0,1-1.146.134A1.981,1.981,0,0,0,229.032,189.863Z" transform="translate(-73.245 -166.846)" fill="#5b379c" fill-rule="evenodd"/>
          <path id="Pfad_2179" data-name="Pfad 2179" d="M159.16,207.607c.014-.322.031-.642.05-.959a30.759,30.759,0,0,1,.758-4.8q.1-.371.2-.741.125-.478.269-.943a23.164,23.164,0,0,1,.791-2.188q.243-.6.521-1.179l1.414-.371q-.211.658-.471,1.4c-.041.116-.08.234-.118.354q-.44,1.212-.994,2.626-.168.438-.337.876a17.776,17.776,0,0,0-.942,4.883,10.022,10.022,0,0,0,0,1.044Zm68.122,9.058v.034c-.4.067-.785.135-1.145.2v-.033q-.066-.557-.286-1.566a.192.192,0,0,1-.016-.051,16.522,16.522,0,0,1-.3-2.155,4.18,4.18,0,0,0-.438-1.3q-.22-.473-.539-1.095-.244-.467-.539-1.01-.336-.64-.775-1.347-.741-1.246-1.212-2.121l.841.067a34.987,34.987,0,0,1,2.257,3.368c.11.177.216.351.32.522q.33.56.59,1.077a11.156,11.156,0,0,1,.64,1.5c.047.143.091.3.135.472q.138.56.253,1.314.092.7.168,1.549C227.25,216.278,227.267,216.468,227.282,216.666Z" transform="translate(-63.599 -168.511)" fill="#fff" fill-rule="evenodd"/>
          <path id="Pfad_2180" data-name="Pfad 2180" d="M243.686,190.205q-1.125,2.5-2.576,5.118-.6,1.1-1.263,2.223-1.562,2.674-3.754,5.927l-.691,1.044q-.266.379-.539.774a22.3,22.3,0,0,1-3.7.371,12.586,12.586,0,0,1-3.149-.623q-.57-.162-1.213-.371-1.217-.4-2.71-.942c-.1-.041-.2-.08-.3-.118q-.64-.248-1.2-.455a21.237,21.237,0,0,0-2.206-.69,25.269,25.269,0,0,0,4.092-.388c.3-.056.587-.117.859-.185a1.756,1.756,0,0,0,1.044-.673c.029-.042.064-.087.1-.134q.217-.343.572-.943a21.369,21.369,0,0,1,3.368-6.029q.764-1,2.441-2.862.392-.447.842-.943.665-.724,1.431-1.549,1.133-1.228,2.055-2.29.459-.531.858-1.027,1.024-1.219,1.7-2.172a19.009,19.009,0,0,0,2.963-6.4.716.716,0,0,1,.034-.084,21.419,21.419,0,0,1,4.042-7.054,45.028,45.028,0,0,1,5.892-5.691,1.491,1.491,0,0,1,.438,1.785,7.506,7.506,0,0,1-1.414,1.953q-1.482,1.583-1.751,1.953a2.186,2.186,0,0,0-.572,1.885,3.353,3.353,0,0,1,1.23.623,6.456,6.456,0,0,1,1.4,1.667,7.286,7.286,0,0,0,2.289,2.626,8.688,8.688,0,0,1-2.054,3.3q-.875.909-2.9,2.593a22.884,22.884,0,0,0-2.862,2.593,9.488,9.488,0,0,0-2.02,3.368q-.121.3-.253.59Q243.954,189.584,243.686,190.205Zm-95.146,8.536a61.675,61.675,0,0,1-7.391,2.442q-2.021.538-4.378,1.145-1.01.269-1.852.505a107.767,107.767,0,0,1-11.213-1.212.42.42,0,0,0-.169-.1q-2.458.877-6.533-.74-2.458-.943-3.2-1.178a8.34,8.34,0,0,0-3.334-.3q-1.818-.034-2.256-.1-1.347-.3-.943-1.414,1.043-.136,3.4-.235h.876l.371-.034q.506,0,1.178-.034,2.8-.235,3.267-.875c.09-.113.123-.191.1-.236a.38.38,0,0,1-.134-.134,31.445,31.445,0,0,0-3.806.235q-.605.034-1.077.068c-.471-.09-1.01-.179-1.616-.27q-2.762-.4-3.569-1.852a4.241,4.241,0,0,1,3.468-.336,26.1,26.1,0,0,0,3.838.572,1.109,1.109,0,0,0-.336-.269,5.487,5.487,0,0,1,.606.034,21.082,21.082,0,0,0,3.637-.1,23.464,23.464,0,0,0-4.613-1.179q-2.526-.37-2.8,0h-.034q-2.155-.975-1.212-2.424,2.8.707,7.543,2.189a.365.365,0,0,0-.134-.067q5.927,1.752,6.095,1.549a.284.284,0,0,0,0-.27q.336.2.741.439,1.211.672,2.929,1.515,1.584-.3,3.4-.674,6.163-1.211,8.924-1.549,1.448-.235,2.829-.336a45.145,45.145,0,0,1,6.2-.169,21.968,21.968,0,0,0,3.3.286c-.047.053-.092.1-.134.152A9.671,9.671,0,0,0,149.3,196v-.034a.1.1,0,0,1-.034.068,9.942,9.942,0,0,0-.438,1.38Q148.659,198.046,148.539,198.741ZM208.6,188.2q1.073-.72,3.686-2.224c-.006.028-.012.055-.016.084a1.187,1.187,0,0,1-.034.135q-.074.441-.151.858-.438,2.23-.825,3.889a25.626,25.626,0,0,1-1.28,3.974,3.131,3.131,0,0,1-1.582,1.448,8.7,8.7,0,0,1-2.155.572,3.282,3.282,0,0,1-2.627-2.256,4.492,4.492,0,0,1-.134-3.637,2.612,2.612,0,0,0,2.526.741,3.641,3.641,0,0,0,1.92-1.751A6.938,6.938,0,0,0,208.6,188.2Zm3.923-4.109c-.062.041-.123.081-.185.117q-1.453.87-2.593,1.583a25.022,25.022,0,0,0,1.717-1.953q.578-.729,1.044-1.347c.035-.046.069-.091.1-.134q0,.067,0,.134Q212.586,183.309,212.521,184.093Z" transform="translate(-56.296 -164.04)" fill="#feb37c" fill-rule="evenodd"/>
          <path id="Pfad_2181" data-name="Pfad 2181" d="M135.522,205.336q.842-.235,1.852-.505,2.357-.605,4.378-1.145a61.675,61.675,0,0,0,7.391-2.442,20.227,20.227,0,0,0-.219,3.081,4.355,4.355,0,0,0,.067.69q-1.116.115-2.188.253a46.151,46.151,0,0,1-5.051.3q-.976,0-2.02-.034h-.337l-3.232-.168C135.938,205.347,135.725,205.336,135.522,205.336Zm-18.689-10a6.894,6.894,0,0,1-1.549-2.121q-.674-1.482.942-1.314a2.837,2.837,0,0,1,.371.371.139.139,0,0,1,.1.034,1.761,1.761,0,0,0,.37.337.547.547,0,0,1,.135.1,3.548,3.548,0,0,0,.3.2.37.37,0,0,0,.1.068l4.95,3.4c.09.045.214.113.371.2a.284.284,0,0,1,0,.27Q122.76,197.086,116.834,195.334Zm-4.782,3.7q.472-.035,1.077-.068a31.442,31.442,0,0,1,3.805-.235.381.381,0,0,0,.134.134c.022.045-.011.123-.1.236q-.472.64-3.267.875-.672.034-1.178.034a15.375,15.375,0,0,0,2.188-.235l-2.323-.707A2.121,2.121,0,0,1,112.051,199.039Zm-1.414-3.4h.034q.27-.37,2.8,0a23.465,23.465,0,0,1,4.613,1.179,21.079,21.079,0,0,1-3.637.1,5.493,5.493,0,0,0-.606-.034,5.159,5.159,0,0,0-.674-.3.82.82,0,0,1-.2-.1q-1.347-.4-1.987-.673A2.282,2.282,0,0,1,110.637,195.637ZM213.209,184.07q.009.4,0,.791c-.033.044-.066.089-.1.134q-.467.618-1.044,1.347a25.022,25.022,0,0,1-1.717,1.953q-.542.326-1.01.623V188.7a4.544,4.544,0,0,0-.505-1.718c-.046-.045-.068-.078-.068-.1a.1.1,0,0,0-.033-.067.03.03,0,0,0-.034-.034,13.954,13.954,0,0,0,3.232-2.963q.605-.741,1.212-1.65Q213.212,183.138,213.209,184.07Zm7.778,20.9a21.24,21.24,0,0,1,2.206.69q.556.207,1.2.455c.1.038.2.077.3.118q1.493.544,2.71.942.643.208,1.213.371a12.588,12.588,0,0,0,3.149.623,22.3,22.3,0,0,0,3.7-.371,7.485,7.485,0,0,0-.572.808,7.229,7.229,0,0,1-1.414,1.684,9.46,9.46,0,0,1-2.862,1.616,22.982,22.982,0,0,1-3.637.859q-.862.15-1.852.286-1.335.394-2.694.707l-.3.067v-.235a15.385,15.385,0,0,0-.372-3.25,11.58,11.58,0,0,0-.673-2.054c-.091-.223-.193-.442-.3-.657q-.123-.226-.253-.438c-.048-.091-.1-.182-.152-.27l-1.482-1.852-.1-.1h2.189Z" transform="translate(-56.9 -166.543)" fill="#ed8a55" fill-rule="evenodd"/>
          <path id="Pfad_2182" data-name="Pfad 2182" d="M151.149,244.578a6.46,6.46,0,0,0-2.425,3.772c-.047.193-.1.384-.152.572q-.341,1.35-.74,2.676-.72,2.288-1.633,4.5-.983,2.355-2.188,4.613-1.7,3.171-3.7,6.162-1.327,1.994-2.794,3.906-.846,1.1-1.718,2.172a81.114,81.114,0,0,1-11.449,11.365,9.9,9.9,0,0,1-6.23,2.29q-5.724-.337-11.55-.707a165.847,165.847,0,0,0-19.261-.472,26.054,26.054,0,0,0,1.279-3.8q.27-1.146.438-2.357a.749.749,0,0,0,.034-.235,4.9,4.9,0,0,0-.034-1.515,17.631,17.631,0,0,1,3.839-.405,99.957,99.957,0,0,1,12.83,1.146q8.25,1.146,13.435,1.414a6.354,6.354,0,0,0,4.833-1.936,17.375,17.375,0,0,0,3.721-5.91q.623-1.48,1.246-3.031,2.819-6.953,5.658-15.22,1.716-5.327,3.569-9.716.414-.97.825-1.886.6-1.3,1.2-2.508a21.382,21.382,0,0,1,3.974-5.388q1.237-1.3,2.525-2.425.913-.8,1.852-1.515.118.147.269.3l.034.034a2.789,2.789,0,0,1,.371.371.845.845,0,0,0,.2.2q.672.774,1.279,1.583a15.3,15.3,0,0,1,2.9,9.462v.3Zm-84.893,30.24a21.634,21.634,0,0,0,1.246-5.354,4.086,4.086,0,0,0-.471-2.458q3.906-2.122,9.058-5.556a48.364,48.364,0,0,1,9.227-5.152,7.514,7.514,0,0,1,3.3-.64q1.112-.032,3.435.135a9.527,9.527,0,0,0,3.267-.236,5.12,5.12,0,0,0,2.727-1.886,118.548,118.548,0,0,1,19.564-21.282,31.118,31.118,0,0,1,9.6-7.846q1.144-.606,2.256-1.077a26.935,26.935,0,0,1,2.863-.977,24.78,24.78,0,0,1,4.748,1.314q2.491.976,5.219,2.256a21.637,21.637,0,0,0-6.937,3.737,33.438,33.438,0,0,0-4.243,2.458,116.1,116.1,0,0,0-15.524,12.8,40.1,40.1,0,0,0-3.939,4.613,43.944,43.944,0,0,1-4.277,5.017q-6.162,5.826-17.814,7.678-4.04.606-12.223,5.354Q72.015,270.777,66.256,274.818Zm136.953-87.436q-1.1.719-1.819,1.229l1.01,1.044a5.41,5.41,0,0,1,.674-.488A6.937,6.937,0,0,1,202.4,191a3.641,3.641,0,0,1-1.92,1.752,2.612,2.612,0,0,1-2.526-.741q-1.111,1.146-1.684,1.718a16.022,16.022,0,0,1-1.751,1.549q-2.088,1.482-6.8-.606-.336-.235-.64-.471a9.344,9.344,0,0,1-1.953-1.92,6.841,6.841,0,0,0,2.526.505A22.834,22.834,0,0,0,198.5,190.5a21.828,21.828,0,0,0,4.478-3.232,1.258,1.258,0,0,0,.2-.168.1.1,0,0,0,.035.067v.219Zm1.583-16.35a.635.635,0,0,1,.2.034,1.191,1.191,0,0,1,.977.909.03.03,0,0,0,.034.034.265.265,0,0,0,.034.1v.034a.275.275,0,0,0,.1.033,5.587,5.587,0,0,1-1.381,1.146,6.782,6.782,0,0,1-.607-.606.389.389,0,0,1-.168-.3A3.171,3.171,0,0,1,204.792,171.033Zm4.546,2.425a4.6,4.6,0,0,1-1.819,1.044c-.134.247-.2.123-.2-.37q0-.707,1.987-2.829h.168A4.69,4.69,0,0,1,209.338,173.458Zm-26.232,9.867q2.459,2.189,9.126,2.188,6.7,0,12.56-5.623,1.482-1.448,3.839-4.074.336-.3.64-.606a1.307,1.307,0,0,0,.067.168l.471.606q.067.067.1.067a3.331,3.331,0,0,1-1.044,2.526,15.359,15.359,0,0,0-1.852,2.055q-.605.909-1.212,1.65a5.666,5.666,0,0,0-.539.472q-7.779,6.3-15.658,6.3a13.544,13.544,0,0,1-6.433-1.414,3.572,3.572,0,0,1-.1-.472A12.855,12.855,0,0,1,183.105,183.324Z" transform="translate(-50.773 -165.005)" fill="#444" fill-rule="evenodd"/>
          <path id="Pfad_2183" data-name="Pfad 2183" d="M197.2,197.3q.3.235.64.472a33.154,33.154,0,0,1,4.176,4.411,14.752,14.752,0,0,0,1.111,1.448,21.324,21.324,0,0,0-4.68,2.626,35.089,35.089,0,0,0-9.126,9.715q-.237.375-.471.758a27.993,27.993,0,0,1-5.454,6.9q-4.951,3.973-14.716,6.028a19.734,19.734,0,0,0-9.362,4.277,2.787,2.787,0,0,0-.371-.371l-.034-.034q-.151-.156-.269-.3a20.9,20.9,0,0,0-6.23-4.074q-2.727-1.28-5.219-2.256a24.782,24.782,0,0,0-4.748-1.314,26.939,26.939,0,0,0-2.862.977,1.911,1.911,0,0,1,.438-1.146,3.072,3.072,0,0,1,2.088-.977,26.053,26.053,0,0,0,2.863-.505,16.493,16.493,0,0,0,3.065-1.044q2.76-1.146,5.657-2.121a16.11,16.11,0,0,0,3.4-1.583,33.267,33.267,0,0,0,8.991-8.284,26.806,26.806,0,0,0,2.289-3.569.03.03,0,0,1,.034-.034c-.046-.022-.068-.022-.068,0-.022-.09.068-.28.27-.572q.437-.64,2.39-3.569,1.987-2.9,3.031-4.143l.034-.034a7.365,7.365,0,0,1,3.232-2.559q1.718-.707,6.5-2.189a.1.1,0,0,1,.067.034.1.1,0,0,0-.034-.067q3.166.1,6.567.4A14.168,14.168,0,0,1,197.2,197.3Zm-36.739-1.28q1.718-.437,4.075-1.077a64.148,64.148,0,0,1,6.7-1.347,18.075,18.075,0,0,1,3.839,0q-.506.337-1.01.708a36.236,36.236,0,0,0-4.849,4.344c-.315.022-.617.034-.909.034A70.686,70.686,0,0,0,160.885,200q-.948.186-2,.4.555-1.415.994-2.626c.038-.121.077-.238.118-.354Q160.253,196.681,160.464,196.023Zm-1.414.371q-.278.578-.522,1.179a23.156,23.156,0,0,0-.791,2.189q-.144.465-.269.943-.61.118-1.179.236l-2.862.538a9.946,9.946,0,0,1,.438-1.38.1.1,0,0,0,.034-.068v.034a9.671,9.671,0,0,1,1.213-2.222c.042-.049.087-.1.134-.152.087-.105.177-.211.269-.32a.419.419,0,0,1,.3-.2q.337-.066.707-.134.675-.168,1.414-.337h.034C158.287,196.607,158.646,196.505,159.05,196.393Zm62.264,12.9q-.741.034-1.381.067-2.491.2-3.031.2a41.124,41.124,0,0,0-19.935,4.68q-.944.506-3.671,2.256a.365.365,0,0,1,.035-.168v-.034a12.16,12.16,0,0,1,1.565-3.536,15.583,15.583,0,0,1,1.633-2.121,19.93,19.93,0,0,1,5.489-4.445,4.838,4.838,0,0,1,2.762-.64,4.633,4.633,0,0,1,.572.034c.247-.044.483-.078.707-.1.565-.089,1.155-.155,1.768-.2a32.179,32.179,0,0,1,3.62-.067q1.784.067,6.2.438.843.1,1.684.168.471.875,1.212,2.121Q220.977,208.65,221.314,209.291Zm1.111-.034a35,35,0,0,0-2.257-3.368,10.109,10.109,0,0,1,1.179.067,6.513,6.513,0,0,1,.673.034.542.542,0,0,1,.337.134,2.505,2.505,0,0,1,.438.405l.1.1,1.482,1.852c.053.088.1.178.152.27q.129.212.253.438c-.364.01-.717.021-1.061.034Q223.05,209.238,222.425,209.257Z" transform="translate(-60.896 -168.106)" fill="#885fd4" fill-rule="evenodd"/>
          <path id="Pfad_2184" data-name="Pfad 2184" d="M161.017,201.226q1.056-.218,2-.4a70.689,70.689,0,0,1,7.425-1.313c.292,0,.595-.011.909-.034a28.325,28.325,0,0,0-2.425,3,19.552,19.552,0,0,0-2.93,5.523q-3.232-.068-6.263.034a10.024,10.024,0,0,1,0-1.044,17.776,17.776,0,0,1,.942-4.883Q160.85,201.663,161.017,201.226Zm-1.414.3q-.1.37-.2.741a30.756,30.756,0,0,0-.758,4.8c-.019.317-.036.637-.05.959q-1.449.034-2.829.134H155.7a.579.579,0,0,1-.37-.134.452.452,0,0,1-.168-.3v-.067c-.016-.09-.028-.174-.035-.253a4.354,4.354,0,0,1-.067-.69,20.224,20.224,0,0,1,.219-3.081q.119-.7.286-1.33l2.862-.538Q158.994,201.648,159.6,201.529Zm45.493,24.3c-.195.128-.385.246-.572.354a.619.619,0,0,1-.1.016.877.877,0,0,1-.169.017,8.552,8.552,0,0,0-2.1-1.2c-.126-.053-.255-.1-.387-.151l-1.111-.371q-.99-.349-1.549-.572-3.536-1.28-3.974-3.94a.139.139,0,0,1-.034-.1,9.787,9.787,0,0,1,.336-2.559q2.728-1.751,3.671-2.256a41.124,41.124,0,0,1,19.935-4.68q.539,0,3.031-.2.64-.034,1.381-.067.295.543.539,1.01.319.622.539,1.095a4.179,4.179,0,0,1,.438,1.3,16.517,16.517,0,0,0,.3,2.155.2.2,0,0,0,.016.051q.221,1.008.286,1.566-2.8.486-5.691.724-1.7.134-3.436.184a14.5,14.5,0,0,0-6.027,3.334l-.035.034q-1.818,1.616-2.794,2.425A25.164,25.164,0,0,1,205.1,225.825Zm23.168-9.614v.134a.493.493,0,0,1-.1.3.516.516,0,0,1-.3.2.548.548,0,0,1-.168.034c-.1.02-.192.036-.286.051q-.354.08-.69.152c-.015-.2-.032-.388-.05-.572q-.075-.853-.168-1.549-.115-.754-.253-1.314c-.044-.171-.089-.328-.135-.471a11.154,11.154,0,0,0-.64-1.5q-.26-.517-.59-1.077c-.1-.172-.209-.346-.32-.522q.624-.019,1.3-.034c.344-.013.7-.023,1.061-.034.109.215.211.434.3.657a11.58,11.58,0,0,1,.673,2.054,15.387,15.387,0,0,1,.371,3.25Z" transform="translate(-63.032 -168.932)" fill-rule="evenodd" fill="url(#linear-gradient)"/>
          <path id="Pfad_2185" data-name="Pfad 2185" d="M167.026,206.059a19.552,19.552,0,0,1,2.93-5.523,28.338,28.338,0,0,1,2.425-3,36.229,36.229,0,0,1,4.849-4.344q.506-.37,1.01-.708.774.034,1.616.135a1.711,1.711,0,0,1,.471.067,1.116,1.116,0,0,1,.27.034,20.441,20.441,0,0,0,4.209.269q.741-.066.876-.1a5.634,5.634,0,0,0,.606.068,2.811,2.811,0,0,1,.673.168q-4.781,1.482-6.5,2.188a7.365,7.365,0,0,0-3.232,2.559l-.034.034q-1.045,1.246-3.031,4.143-1.952,2.928-2.39,3.569c-.2.292-.292.483-.27.572Q169.248,206.093,167.026,206.059Zm39.264-3.536q.741.909,1.651,1.919a4.838,4.838,0,0,0-2.762.64,19.93,19.93,0,0,0-5.489,4.445,15.579,15.579,0,0,0-1.633,2.121,12.161,12.161,0,0,0-1.565,3.536v.034a.365.365,0,0,0-.034.168,9.787,9.787,0,0,0-.336,2.559.139.139,0,0,0,.034.1q.437,2.66,3.974,3.94.559.224,1.549.572l1.111.371c.132.047.261.1.387.151a8.552,8.552,0,0,1,2.1,1.2l-.253.235a28.75,28.75,0,0,1-2.508,2.054q-1.061.787-2.189,1.465a28.685,28.685,0,0,1-5.085,2.374q-3.637,1.245-7.375,2.257-4.242,1.178-8.351,2.625-2.154.808-4.411,1.718-.4.168-.808.371a11.333,11.333,0,0,0-1.01.707,4.9,4.9,0,0,0-.572.371v.034q-.168.134-.977,1.01a6.017,6.017,0,0,0-1.213,1.852q-.472,1.043-1.482,3.3a4.192,4.192,0,0,1-3.7,2.088,2.333,2.333,0,0,1-.909-.168l2.425-2.188v-.3a15.305,15.305,0,0,0-2.9-9.462q-.606-.808-1.279-1.583a.844.844,0,0,1-.2-.2,19.734,19.734,0,0,1,9.362-4.277q9.765-2.054,14.716-6.028a27.993,27.993,0,0,0,5.454-6.9q.234-.383.471-.758a35.087,35.087,0,0,1,9.126-9.715A21.323,21.323,0,0,1,206.29,202.523Zm13.756-13.589q-2.613,1.5-3.687,2.224a5.4,5.4,0,0,0-.674.488l-1.01-1.044q.715-.511,1.819-1.229.469-.3,1.01-.623,1.139-.714,2.593-1.583c.062-.036.123-.076.185-.117a23.168,23.168,0,0,1,2.172-1.179q1.5-.7,1.65-.219.107.393-.959,1.246a27.506,27.506,0,0,1-2.846,1.886C220.212,188.833,220.128,188.884,220.046,188.935Z" transform="translate(-64.057 -166.996)" fill="#5b379c" fill-rule="evenodd"/>
          <path id="Pfad_2186" data-name="Pfad 2186" d="M134.768,239.206q-.774.64-1.515,1.347-.472.472-.909.977-.4.472-.774.943c-.067.112-.134.213-.2.3a12.18,12.18,0,0,0-1.852,3.8,13.4,13.4,0,0,0-.27,6.3l-3.367,3.4A165.074,165.074,0,0,1,105,273.184a16.17,16.17,0,0,1-6.331,2.9,46.858,46.858,0,0,1-7.038.91,104.687,104.687,0,0,0-15.255,6.634c-.112.067-.236.134-.371.2l-12.392,7q-.573.336-1.145.708l-.471.269q.134-.235.236-.438l.875-1.616c.112-.2.225-.415.337-.639l.134-.3a.845.845,0,0,1,.1-.2q1.179-2.323,1.987-4.378,5.759-4.04,11.079-7.105,8.183-4.749,12.223-5.354,11.652-1.853,17.814-7.678a43.95,43.95,0,0,0,4.277-5.017A40.1,40.1,0,0,1,115,254.461a116.091,116.091,0,0,1,15.524-12.8A33.444,33.444,0,0,1,134.768,239.206Z" transform="translate(-50.185 -174.417)" fill-rule="evenodd"/>
          <path id="Pfad_2187" data-name="Pfad 2187" d="M215.39,205.745c-.224.022-.46.056-.707.1a4.645,4.645,0,0,0-.572-.034q-.91-1.01-1.651-1.919a14.744,14.744,0,0,1-1.111-1.448,33.15,33.15,0,0,0-4.176-4.411q4.715,2.088,6.8.606a16.027,16.027,0,0,0,1.751-1.549q.574-.573,1.684-1.718a4.492,4.492,0,0,0,.134,3.637,3.282,3.282,0,0,0,2.627,2.256,20.656,20.656,0,0,0-2.829,2.493Q216.063,205.037,215.39,205.745Z" transform="translate(-70.227 -168.365)" fill="#ce7c56" fill-rule="evenodd"/>
          <path id="Pfad_2188" data-name="Pfad 2188" d="M82.095,289.436q2.323-.3,2.02,2.863-.269,3.1-4.041,10.506-3.738,7.408-4.142,9.563-.237,1.381-2.492,2.02a4.636,4.636,0,0,1-3.334-1.111,4.169,4.169,0,0,1-.034-3.165q.37-1.045.708-2.089a48.724,48.724,0,0,1,3.232-7.508q.506-.944.909-1.887a28.793,28.793,0,0,1,5.152-7.846,2.9,2.9,0,0,0,.371-.371.1.1,0,0,1,.067-.034A4.3,4.3,0,0,1,82.095,289.436Zm-20.069-8.823a2.367,2.367,0,0,1,1.01,1.078q.471.84-1.314,3.872t-5.657,13.47q-2.323,6.264-4.917,6.128l-.1-.033q-6.331-7.442,1.886-16.771,2.9-3.231,5.893-6.33A3.748,3.748,0,0,1,62.025,280.613Z" transform="translate(-48.293 -180.129)" fill="#9e9e9e" fill-rule="evenodd"/>
          <path id="Pfad_2189" data-name="Pfad 2189" d="M87,292.641a4.9,4.9,0,0,1,.034,1.515.749.749,0,0,1-.034.235q-.168,1.213-.438,2.357a26.046,26.046,0,0,1-1.279,3.8,12.86,12.86,0,0,0-2.492,3.974q-.506,1.045-1.347,3.166a19.538,19.538,0,0,1-1.583,2.963,6.385,6.385,0,0,1-4.142,3.4,13.125,13.125,0,0,1-1.819.337q2.256-.64,2.492-2.02.4-2.155,4.142-9.563Q84.3,295.4,84.573,292.3q.3-3.166-2.02-2.862a4.4,4.4,0,0,1,2.963.168,4.684,4.684,0,0,0,.673.337A21.985,21.985,0,0,1,86.9,292.1,4.515,4.515,0,0,1,87,292.641ZM51.606,305.166q2.592.136,4.917-6.128,3.872-10.439,5.657-13.47t1.314-3.872a2.368,2.368,0,0,0-1.01-1.078,4.308,4.308,0,0,1,2.525,1.515,4.087,4.087,0,0,1,.471,2.458,21.635,21.635,0,0,1-1.246,5.354q-.808,2.054-1.987,4.378a.849.849,0,0,0-.1.2l-.134.3c-.112.224-.225.437-.337.64l-.875,1.616q-.1.2-.236.438-.909.977-3.368,4.344-2.491,3.368-3.839,3.333Q51.977,305.2,51.606,305.166Z" transform="translate(-48.75 -180.133)" fill="#fff" fill-rule="evenodd"/>
        </g>
      </g>
    </g>
  </g>
</svg>
