<svg xmlns="http://www.w3.org/2000/svg" xmlns:xlink="http://www.w3.org/1999/xlink" width="320.001" height="179.795" viewBox="0 0 320.001 179.795">
  <defs>
    <linearGradient id="linear-gradient" x1="0.5" y1="0.236" x2="0.5" y2="1.018" gradientUnits="objectBoundingBox">
      <stop offset="0.309" stop-color="#9e9e9e"/>
      <stop offset="0.317" stop-color="#9e9e9e"/>
      <stop offset="0.775" stop-color="#d2d2d2"/>
      <stop offset="1" stop-color="#e6e6e6"/>
    </linearGradient>
    <linearGradient id="linear-gradient-3" x1="100.503" y1="0.5" x2="101.503" y2="0.5" gradientUnits="objectBoundingBox">
      <stop offset="0.309" stop-color="#212727"/>
      <stop offset="0.569" stop-color="#2e3535"/>
      <stop offset="1" stop-color="#424949"/>
    </linearGradient>
    <linearGradient id="linear-gradient-4" x1="53.967" y1="0.5" x2="54.967" y2="0.5" xlink:href="#linear-gradient"/>
    <linearGradient id="linear-gradient-5" x1="107.666" y1="0.5" x2="108.666" y2="0.5" xlink:href="#linear-gradient-3"/>
    <linearGradient id="linear-gradient-6" x1="73.064" y1="0.5" x2="74.064" y2="0.5" xlink:href="#linear-gradient"/>
  </defs>
  <g id="Gruppe_4705" data-name="Gruppe 4705" transform="translate(-1110 -139.363)">
    <g id="Gruppe_4365" data-name="Gruppe 4365" transform="translate(2070.459 -102.521)">
      <ellipse id="Ellipse_27" data-name="Ellipse 27" cx="43.533" cy="43.533" rx="43.533" ry="43.533" transform="matrix(0.01, -1, 1, 0.01, -960.459, 372.63)" fill="#b6b9ff"/>
      <g id="Gruppe_700" data-name="Gruppe 700" transform="translate(-946.602 295.67)">
        <path id="Pfad_638" data-name="Pfad 638" d="M-889.567,387.6a43.58,43.58,0,0,0,32.5-27.572l-28.718-28.718a15.361,15.361,0,0,0-12.16-5.959,15.386,15.386,0,0,0-15.39,15.39c0,.5.361,7.608,6.168,15.081,1.678,2.242,1.383,6.735,1.364,6.781h-.292a.787.787,0,0,0-.788.788.787.787,0,0,0,.223.549l0,0,.9.9v.387h-.332a.788.788,0,0,0-.788.789.793.793,0,0,0,.242.568l-.022.022.9.9v.35h-.332a.788.788,0,0,0-.788.788.778.778,0,0,0,.289.6l-.024.025.856.855v.526a1,1,0,0,0,.655.935.979.979,0,0,0,.22.567l-.057.056Z" transform="translate(928.362 -311.069)" fill="#a0a0ef"/>
        <g id="Gruppe_699" data-name="Gruppe 699" transform="translate(0 0)">
          <path id="Pfad_639" data-name="Pfad 639" d="M-886.573,401.079h-12.36a.99.99,0,0,1-.989-.989.99.99,0,0,1,.989-.989h12.36a.99.99,0,0,1,.989.989.99.99,0,0,1-.989.989Z" transform="translate(923.168 -339.62)" fill="#8a81eb"/>
          <g id="Gruppe_698" data-name="Gruppe 698">
            <g id="Gruppe_684" data-name="Gruppe 684" transform="translate(15.023 14.278)">
              <path id="Pfad_640" data-name="Pfad 640" d="M-913.339,340.737a15.386,15.386,0,0,1,15.39-15.39,15.384,15.384,0,0,1,15.39,15.39c0,.5-.369,7.618-6.166,15.081-1.7,2.254-1.417,6.785-1.4,6.785h-15.68c.015,0,.324-4.532-1.364-6.785C-912.978,348.345-913.339,341.24-913.339,340.737Z" transform="translate(913.339 -325.347)" fill="#e6e6e6"/>
              <path id="Pfad_641" data-name="Pfad 641" d="M-897.949,362.6h-7.858c.015,0,.324-4.532-1.364-6.785-5.807-7.473-6.168-14.578-6.168-15.081a15.386,15.386,0,0,1,15.39-15.39" transform="translate(913.339 -325.347)" fill="#fff"/>
              <g id="Gruppe_674" data-name="Gruppe 674" transform="translate(15.39 3.27)">
                <path id="Pfad_642" data-name="Pfad 642" d="M-876.106,342.8h-1.35a10.781,10.781,0,0,0-10.772-10.766v-1.35A12.133,12.133,0,0,1-876.106,342.8Z" transform="translate(888.228 -330.682)" fill="#fff"/>
              </g>
              <g id="Gruppe_679" data-name="Gruppe 679" transform="translate(9.398 22.328)">
                <g id="Gruppe_677" data-name="Gruppe 677">
                  <g id="Gruppe_675" data-name="Gruppe 675" transform="translate(8.023)">
                    <path id="Pfad_643" data-name="Pfad 643" d="M-883.584,377.908l-1.332-.221,2.63-15.91,1.332.22-2.63,15.911Z" transform="translate(884.916 -361.777)" fill="#fec00f"/>
                  </g>
                  <g id="Gruppe_676" data-name="Gruppe 676">
                    <path id="Pfad_644" data-name="Pfad 644" d="M-895.376,377.908-898.006,362l1.332-.22,2.63,15.91-1.332.221Z" transform="translate(898.006 -361.777)" fill="#fec00f"/>
                  </g>
                </g>
                <g id="Gruppe_678" data-name="Gruppe 678" transform="translate(1.008 0.086)">
                  <path id="Pfad_645" data-name="Pfad 645" d="M-886.139,364.072c-.553,0-.792-.539-.967-.932-.072-.164-.224-.506-.31-.506s-.235.341-.308.506c-.175.393-.413.932-.966.932s-.792-.539-.967-.932c-.073-.163-.224-.506-.311-.506s-.237.341-.309.506c-.175.393-.414.932-.967.932s-.793-.539-.967-.932c-.073-.163-.225-.506-.311-.506s-.238.341-.31.506c-.177.393-.414.932-.969.932s-.792-.539-.968-.931c-.073-.164-.225-.507-.312-.507s-.238.343-.311.506c-.175.393-.415.932-.968.932v-.718c.086,0,.239-.342.312-.506.176-.393.415-.93.968-.93s.794.537.97.93c.073.164.225.506.311.506s.239-.342.311-.506c.175-.393.414-.93.968-.93s.792.537.968.93c.072.164.224.506.31.506s.238-.342.31-.506c.175-.393.414-.93.967-.93s.793.538.967.932c.073.164.225.505.31.505s.235-.341.308-.505c.175-.393.414-.932.966-.932s.792.538.968.932c.072.164.224.505.31.505v.718Z" transform="translate(896.361 -361.917)" fill="#fec00f"/>
                </g>
              </g>
              <path id="Pfad_646" data-name="Pfad 646" d="M-885.328,386.146v8.047a1,1,0,0,1-1,1h-13.661a1,1,0,0,1-1-1v-8.047Z" transform="translate(908.556 -348.883)" fill="#5b379c"/>
              <g id="Gruppe_683" data-name="Gruppe 683" transform="translate(6.453 37.251)">
                <g id="Gruppe_680" data-name="Gruppe 680">
                  <line id="Linie_80" data-name="Linie 80" x1="16.303" transform="translate(0.788 0.789)" fill="#0e303f"/>
                  <path id="Pfad_647" data-name="Pfad 647" d="M-885.72,387.7h-16.3a.788.788,0,0,1-.788-.789.788.788,0,0,1,.788-.789h16.3a.789.789,0,0,1,.789.789.788.788,0,0,1-.789.789Z" transform="translate(902.811 -386.126)" fill="#8a81eb"/>
                </g>
                <g id="Gruppe_681" data-name="Gruppe 681" transform="translate(0 2.63)">
                  <line id="Linie_81" data-name="Linie 81" x1="16.303" transform="translate(0.788 0.789)" fill="#0e303f"/>
                  <path id="Pfad_648" data-name="Pfad 648" d="M-885.72,391.995h-16.3a.788.788,0,0,1-.788-.789.788.788,0,0,1,.788-.789h16.3a.788.788,0,0,1,.789.789.788.788,0,0,1-.789.789Z" transform="translate(902.811 -390.417)" fill="#8a81eb"/>
                </g>
                <g id="Gruppe_682" data-name="Gruppe 682" transform="translate(0 5.259)">
                  <line id="Linie_82" data-name="Linie 82" x1="16.303" transform="translate(0.788 0.788)" fill="#0e303f"/>
                  <path id="Pfad_649" data-name="Pfad 649" d="M-885.72,396.284h-16.3a.788.788,0,0,1-.788-.789.788.788,0,0,1,.788-.788h16.3a.788.788,0,0,1,.789.788.788.788,0,0,1-.789.789Z" transform="translate(902.811 -394.707)" fill="#8a81eb"/>
                </g>
              </g>
            </g>
            <g id="Gruppe_697" data-name="Gruppe 697">
              <g id="Gruppe_685" data-name="Gruppe 685" transform="translate(30.005)">
                <path id="Pfad_650" data-name="Pfad 650" d="M-888.491,311.309a.4.4,0,0,1-.4-.4v-8.457a.4.4,0,0,1,.4-.4.4.4,0,0,1,.4.4v8.457a.4.4,0,0,1-.4.4Z" transform="translate(888.893 -302.051)" fill="#fff"/>
              </g>
              <g id="Gruppe_686" data-name="Gruppe 686" transform="translate(15 4.024)">
                <path id="Pfad_651" data-name="Pfad 651" d="M-908.746,316.742a.4.4,0,0,1-.348-.2l-4.228-7.323a.4.4,0,0,1,.146-.547.4.4,0,0,1,.548.146l4.228,7.323a.4.4,0,0,1-.146.549.407.407,0,0,1-.2.053Z" transform="translate(913.376 -308.617)" fill="#fff"/>
              </g>
              <g id="Gruppe_687" data-name="Gruppe 687" transform="translate(4.018 15.01)">
                <path id="Pfad_652" data-name="Pfad 652" d="M-923.569,331.575a.388.388,0,0,1-.2-.055l-7.323-4.228a.4.4,0,0,1-.147-.548.4.4,0,0,1,.548-.147l7.322,4.228a.4.4,0,0,1,.147.549.4.4,0,0,1-.348.2Z" transform="translate(931.293 -326.542)" fill="#fff"/>
              </g>
              <g id="Gruppe_688" data-name="Gruppe 688" transform="translate(0 30.016)">
                <path id="Pfad_653" data-name="Pfad 653" d="M-928.991,351.83h-8.456a.4.4,0,0,1-.4-.4.4.4,0,0,1,.4-.4h8.456a.4.4,0,0,1,.4.4.4.4,0,0,1-.4.4Z" transform="translate(937.85 -351.026)" fill="#fff"/>
              </g>
              <g id="Gruppe_689" data-name="Gruppe 689" transform="translate(4.026 40.794)">
                <path id="Pfad_654" data-name="Pfad 654" d="M-930.88,373.642a.4.4,0,0,1-.348-.2.4.4,0,0,1,.146-.548l7.323-4.228a.4.4,0,0,1,.549.146.4.4,0,0,1-.148.547l-7.323,4.229a.4.4,0,0,1-.2.054Z" transform="translate(931.282 -368.611)" fill="#fff"/>
              </g>
              <g id="Gruppe_690" data-name="Gruppe 690" transform="translate(15.012 48.682)">
                <path id="Pfad_655" data-name="Pfad 655" d="M-912.955,389.607a.4.4,0,0,1-.2-.054.4.4,0,0,1-.148-.548l4.23-7.323a.4.4,0,0,1,.547-.148.4.4,0,0,1,.148.549l-4.23,7.323a.4.4,0,0,1-.347.2Z" transform="translate(913.357 -381.481)" fill="#fff"/>
              </g>
              <g id="Gruppe_691" data-name="Gruppe 691" transform="translate(40.796 48.676)">
                <path id="Pfad_656" data-name="Pfad 656" d="M-866.657,389.6a.4.4,0,0,1-.349-.2l-4.228-7.323a.4.4,0,0,1,.147-.547.4.4,0,0,1,.548.146l4.227,7.323a.4.4,0,0,1-.146.548.412.412,0,0,1-.2.053Z" transform="translate(871.287 -381.47)" fill="#fff"/>
              </g>
              <g id="Gruppe_692" data-name="Gruppe 692" transform="translate(48.682 40.783)">
                <path id="Pfad_657" data-name="Pfad 657" d="M-850.694,373.623a.4.4,0,0,1-.2-.054l-7.323-4.228a.4.4,0,0,1-.147-.548.4.4,0,0,1,.548-.147l7.324,4.228a.4.4,0,0,1,.147.548.4.4,0,0,1-.348.2Z" transform="translate(858.42 -368.592)" fill="#fff"/>
              </g>
              <g id="Gruppe_693" data-name="Gruppe 693" transform="translate(51.567 30.004)">
                <path id="Pfad_658" data-name="Pfad 658" d="M-844.854,351.809h-8.458a.4.4,0,0,1-.4-.4.4.4,0,0,1,.4-.4h8.458a.4.4,0,0,1,.4.4.4.4,0,0,1-.4.4Z" transform="translate(853.713 -351.006)" fill="#fff"/>
              </g>
              <g id="Gruppe_694" data-name="Gruppe 694" transform="translate(48.676 14.999)">
                <path id="Pfad_659" data-name="Pfad 659" d="M-858.028,331.554a.4.4,0,0,1-.348-.2.4.4,0,0,1,.147-.548l7.324-4.228a.4.4,0,0,1,.547.146.4.4,0,0,1-.147.547l-7.323,4.229a.4.4,0,0,1-.2.054Z" transform="translate(858.43 -326.523)" fill="#fff"/>
              </g>
              <g id="Gruppe_695" data-name="Gruppe 695" transform="translate(40.784 4.017)">
                <path id="Pfad_660" data-name="Pfad 660" d="M-870.905,316.732a.4.4,0,0,1-.2-.055.4.4,0,0,1-.148-.547l4.227-7.325a.4.4,0,0,1,.548-.147.4.4,0,0,1,.147.548l-4.226,7.325a.4.4,0,0,1-.348.2Z" transform="translate(871.306 -308.604)" fill="#fff"/>
              </g>
              <g id="Gruppe_696" data-name="Gruppe 696" transform="translate(30.005)">
                <path id="Pfad_661" data-name="Pfad 661" d="M-888.491,311.309a.4.4,0,0,1-.4-.4v-8.457a.4.4,0,0,1,.4-.4.4.4,0,0,1,.4.4v8.457a.4.4,0,0,1-.4.4Z" transform="translate(888.893 -302.051)" fill="#fff"/>
              </g>
            </g>
          </g>
        </g>
      </g>
    </g>
    <g id="Gruppe_3842" data-name="Gruppe 3842" transform="translate(-115 -44)">
      <g id="Gruppe_3312" data-name="Gruppe 3312" transform="translate(16000.613 5667.107)">
        <g id="Gruppe_633" data-name="Gruppe 633" transform="translate(-14534.822 -5356.974)">
          <path id="Pfad_511" data-name="Pfad 511" d="M65.434,199.75H63.111v12.768a.581.581,0,0,0,.341.476,1.816,1.816,0,0,0,1.646,0,.569.569,0,0,0,.336-.476h0Z" transform="translate(-54.784 -171.555)"/>
          <path id="Pfad_512" data-name="Pfad 512" d="M78.766,210.484a9.489,9.489,0,0,1-18.978,0c0-5.242,9.49-21.985,9.49-21.985S78.766,205.242,78.766,210.484Z" transform="translate(-59.788 -188.499)" fill="url(#linear-gradient)"/>
        </g>
        <g id="Gruppe_634" data-name="Gruppe 634" transform="translate(-14505.122 -5374.075)">
          <path id="Pfad_513" data-name="Pfad 513" d="M77.288,192.924H74.965v12.77a.576.576,0,0,0,.341.476,1.81,1.81,0,0,0,1.644,0,.577.577,0,0,0,.338-.476h0Z" transform="translate(-66.635 -164.732)"/>
          <path id="Pfad_514" data-name="Pfad 514" d="M90.621,203.659a9.49,9.49,0,0,1-18.98,0c0-5.243,9.49-21.985,9.49-21.985S90.621,198.416,90.621,203.659Z" transform="translate(-71.641 -181.674)" fill="#5b379c"/>
        </g>
        <g id="Gruppe_635" data-name="Gruppe 635" transform="translate(-14474.593 -5356.364)">
          <path id="Pfad_515" data-name="Pfad 515" d="M89.469,199.992H87.146v12.771a.576.576,0,0,0,.341.476,1.811,1.811,0,0,0,1.644,0,.577.577,0,0,0,.338-.476h0Z" transform="translate(-78.816 -171.8)"/>
          <path id="Pfad_516" data-name="Pfad 516" d="M102.8,210.727a9.49,9.49,0,0,1-18.98,0c0-5.243,9.49-21.985,9.49-21.985S102.8,205.484,102.8,210.727Z" transform="translate(-83.822 -188.742)" fill="url(#linear-gradient)"/>
        </g>
        <g id="Gruppe_661" data-name="Gruppe 661" transform="translate(-14671.961 -5423.514)">
          <g id="Gruppe_660" data-name="Gruppe 660">
            <path id="Pfad_587" data-name="Pfad 587" d="M137.856,202.492l28.089-16.183,35.037,20.228-28.089,16.183Z" transform="translate(-119.825 -120.594)" fill="#444"/>
            <path id="Pfad_588" data-name="Pfad 588" d="M169.682,209.315,152,218.807l-1.609-24.259h15.594l-.035,9.043,1.726.478Z" transform="translate(-100.951 -108.188)" fill="#231f20"/>
            <path id="Pfad_589" data-name="Pfad 589" d="M191.605,196.6l-17.464,10.5-1.829-25.263h15.594l.789,7.1.9,2.422Z" transform="translate(-67.935 -127.331)" fill="#231f20"/>
            <path id="Pfad_590" data-name="Pfad 590" d="M174.972,203.773l-6.978-4.063V183.562l6.978,3.591Z" transform="translate(-74.437 -124.732)" fill="#1e327a"/>
            <path id="Pfad_591" data-name="Pfad 591" d="M177.465,184.7c-4.3,2.481-7.819,8.576-7.819,13.54s3.518,7.074,7.819,4.691,7.816-8.478,7.816-13.54S181.763,182.221,177.465,184.7Z" transform="translate(-71.95 -124.58)" fill="#2842a2"/>
            <path id="Pfad_592" data-name="Pfad 592" d="M156.036,218.455l-6.978-4.063V198.244l6.978,3.591Z" transform="translate(-102.954 -102.621)" fill="#231f20"/>
            <path id="Pfad_593" data-name="Pfad 593" d="M178.368,205.471l-4.847-2.822a4.291,4.291,0,0,1-2.13-3.709V185.26l6.977,3.591Z" transform="translate(-69.322 -122.175)" fill="#231f20"/>
            <path id="Pfad_594" data-name="Pfad 594" d="M180.861,186.4c-4.3,2.481-7.819,8.576-7.819,13.54s3.518,7.077,7.819,4.691,7.816-8.475,7.816-13.54S185.158,183.919,180.861,186.4Z" transform="translate(-66.836 -122.022)" fill="url(#linear-gradient-3)"/>
            <path id="Pfad_595" data-name="Pfad 595" d="M178.731,187.762a9.486,9.486,0,0,0-4.275,7.4c0,2.716,1.925,3.872,4.275,2.566a9.316,9.316,0,0,0,4.275-7.4C183.006,187.559,181.082,186.4,178.731,187.762Z" transform="translate(-64.706 -119.265)" fill="#fff"/>
            <path id="Pfad_596" data-name="Pfad 596" d="M185.113,218.054,243.52,184.36l-42.044-24.274L143.069,193.78Z" transform="translate(-111.976 -160.086)" fill="#e6e6e6"/>
            <path id="Pfad_597" data-name="Pfad 597" d="M185.113,197.806v32.431l-42.044-24.274V173.532Z" transform="translate(-111.976 -139.838)" fill="#c8c8c8"/>
            <path id="Pfad_598" data-name="Pfad 598" d="M159.846,235.9,218.253,202.2V169.773l-58.407,33.694Z" transform="translate(-86.709 -145.499)" fill="#fff"/>
            <path id="Pfad_599" data-name="Pfad 599" d="M159.846,214.04l58.407-33.2v-4l-58.407,33.2Z" transform="translate(-86.709 -134.859)" fill="#5b379c"/>
            <path id="Pfad_600" data-name="Pfad 600" d="M179.282,205.161,146.94,186.714v-4l32.342,18.447Z" transform="translate(-106.145 -126.009)" fill="#291266"/>
            <path id="Pfad_601" data-name="Pfad 601" d="M130.661,196.979V202.8l37,21.29V218.2Z" transform="translate(-130.661 -104.526)" fill="#9e9e9e"/>
            <path id="Pfad_602" data-name="Pfad 602" d="M145.438,215.006,156,209.114v-6.1l-10.57,6.1Z" transform="translate(-108.424 -95.442)" fill="#c8c8c8"/>
            <path id="Pfad_603" data-name="Pfad 603" d="M131.446,183.611l35.037,20.228V236.2l-35.037-20.228Z" transform="translate(-129.479 -124.659)" fill="#c8c8c8"/>
            <path id="Pfad_604" data-name="Pfad 604" d="M131.446,184.554l32.664,18.758v20.616L131.446,205.17Z" transform="translate(-129.479 -123.238)" fill="url(#linear-gradient-4)"/>
            <path id="Pfad_605" data-name="Pfad 605" d="M141.782,199.878l7.692,4.417v4.855l-7.692-4.417Z" transform="translate(-113.913 -100.161)" fill="#fff"/>
            <path id="Pfad_606" data-name="Pfad 606" d="M135.732,196.751l13.553,8.1v1.83l-13.553-8.1Z" transform="translate(-123.024 -104.87)" fill="#371c72"/>
            <path id="Pfad_607" data-name="Pfad 607" d="M132.06,194.2l7.692,4.417v4.855l-7.692-4.417Z" transform="translate(-128.554 -108.709)" fill="#fff"/>
            <path id="Pfad_608" data-name="Pfad 608" d="M157.551,234.994a10.666,10.666,0,0,1-.12-1.619c0-5.729,4.057-12.758,9.019-15.622,2.8-1.616,5.313-1.544,6.972-.123l.093-32.4-28.087,16.184V235.9L156,229.8v6.1Z" transform="translate(-108.424 -122.228)" fill="#fff"/>
            <path id="Pfad_609" data-name="Pfad 609" d="M158.515,199.387c-4.3,2.483-7.819,8.576-7.819,13.54s3.518,7.077,7.819,4.694,7.816-8.478,7.816-13.54S162.812,196.906,158.515,199.387Z" transform="translate(-100.489 -102.466)" fill="url(#linear-gradient-5)"/>
            <path id="Pfad_610" data-name="Pfad 610" d="M156.385,200.746a9.483,9.483,0,0,0-4.275,7.405c0,2.714,1.922,3.869,4.275,2.566a9.318,9.318,0,0,0,4.273-7.405C160.658,200.546,158.736,199.391,156.385,200.746Z" transform="translate(-98.359 -99.708)" fill="#fff"/>
            <path id="Pfad_611" data-name="Pfad 611" d="M131.446,193.336l28.089-16.183,35.037,20.229-28.089,16.183Z" transform="translate(-129.479 -134.384)" fill="#e6e6e6"/>
            <path id="Pfad_612" data-name="Pfad 612" d="M146.4,200.44l23.23-13.119V200.7l-11.589,6.7-.026,9.479-11.525,6.657Z" transform="translate(-106.964 -119.072)" fill="url(#linear-gradient-6)"/>
            <path id="Pfad_613" data-name="Pfad 613" d="M178.576,188.526l.063.286a7.1,7.1,0,0,1,2.062,5.433c0,.393-.023.792-.058,1.2l7.052-4.115v-8.092Z" transform="translate(-58.502 -125.228)" fill="#c8c8c8"/>
            <path id="Pfad_614" data-name="Pfad 614" d="M197.423,197.491a9.819,9.819,0,0,1-.1-1.421,16.85,16.85,0,0,1,2.318-7.954L156.6,213.128v.243a7.1,7.1,0,0,1,2.062,5.433c0,.393-.022.795-.057,1.2Z" transform="translate(-91.6 -117.874)" fill="#c8c8c8"/>
            <path id="Pfad_615" data-name="Pfad 615" d="M132.627,196.526l-1.966,1.135,37,21.219,1.987-1.147Z" transform="translate(-130.661 -105.208)" fill="#f1f2f2"/>
            <path id="Pfad_616" data-name="Pfad 616" d="M156.864,203.607l-1.678-.987-10.334,6,1.685.973Z" transform="translate(-109.291 -96.031)" fill="#f1f2f2"/>
            <g id="Gruppe_658" data-name="Gruppe 658" transform="translate(1.966 65.713)">
              <path id="Pfad_617" data-name="Pfad 617" d="M150.2,190.806l-3.044-1.748-13.1,13.1,3.044,1.748Z" transform="translate(-127.506 -182.169)" fill="#fff" opacity="0.2"/>
              <path id="Pfad_618" data-name="Pfad 618" d="M139.1,186.309l-7.655,7.655v8.564l3.794,2.179,13.1-13.1Z" transform="translate(-131.446 -186.309)" fill="#fff" opacity="0.2"/>
            </g>
            <g id="Gruppe_659" data-name="Gruppe 659" transform="translate(39.436 75.034)">
              <path id="Pfad_619" data-name="Pfad 619" d="M157.579,190.028l-2.127,1.2-9.035,18.377.012,3.1Z" transform="translate(-146.369 -190.028)" fill="#fff" opacity="0.2"/>
              <path id="Pfad_620" data-name="Pfad 620" d="M146.4,196l.037,9.405,7.111-14.464-6.453,3.644Z" transform="translate(-146.398 -188.65)" fill="#fff" opacity="0.2"/>
            </g>
          </g>
        </g>
      </g>
      <g id="Gruppe_3841" data-name="Gruppe 3841" transform="translate(1286.632 183.363)">
        <g id="Gruppe_667" data-name="Gruppe 667" transform="translate(0 0)">
          <g id="Gruppe_666" data-name="Gruppe 666">
            <path id="Pfad_627" data-name="Pfad 627" d="M278.367,123.683a8.475,8.475,0,0,1-4.047,6.46L140.749,207.395c-2.225,1.282-33.188,2.6-35.055,2.437l-4.573-2.644c-2.092-1.229-2.346-2.886-.5-5.222l32.735-41.518a31.506,31.506,0,0,1,7.4-6.578L274.32,76.617c2.227-1.282,3.309-.887,6.016.713l3.015,2.886Z" transform="translate(-99.38 -75.853)"/>
            <path id="Pfad_628" data-name="Pfad 628" d="M281.315,125.5a8.481,8.481,0,0,1-4.049,6.462l-133.572,77.25a15.35,15.35,0,0,1-7.437,2.03L103.6,208.334c-1.864-.167-1.882-2.213-.04-4.551L136.3,162.267a31.563,31.563,0,0,1,7.4-6.58l133.572-77.25c2.227-1.282,4.049-.474,4.049,1.8Z" transform="translate(-96.524 -73.848)" fill="#5b379c"/>
          </g>
        </g>
        <path id="Pfad_629" data-name="Pfad 629" d="M207.517,105.4q-4.822,2.818-7.141,9.225a24.771,24.771,0,0,0-1.516,8.554,14.592,14.592,0,0,0,.8,5.119,4.345,4.345,0,0,0,2.777,3q2.137.665,5.2-1.127a14.931,14.931,0,0,0,5.736-6.131,18.547,18.547,0,0,0,1.9-5.609l-4.073,2.161a7.562,7.562,0,0,1-3.432,4.617q-2.264,1.324-3.4-.121a5.932,5.932,0,0,1-.915-3.408l12.145-7.092c.012-.54.018-.929.018-1.171q0-5.829-2.082-7.953Q211.315,103.184,207.517,105.4Zm-3.928,11.752q.84-5.209,3.874-6.977,2.975-1.738,3.525,2.656Zm31.195-21.118q-.366-3.392-2.447-3.8a4.8,4.8,0,0,0-3.344.792,13.219,13.219,0,0,0-5.258,6.552,9.044,9.044,0,0,0-.367-2.785l-4.474,2.614a15.228,15.228,0,0,1,.468,2.727q.082,1.233.081,5.393v15.094l4.619-2.7V107.881a17.034,17.034,0,0,1,.421-4.43,8.18,8.18,0,0,1,1.187-2.471,5.728,5.728,0,0,1,1.753-1.665q1.753-1.025,2.447.554a12.729,12.729,0,0,1,.421,4.182v12.238l4.619-2.7v-13.57Q234.911,97.169,234.784,96.034ZM132.529,140.362l-4.914,2.868v33.017l15.725-9.182v-5.419l-10.811,6.314Zm21.239-3.575q-4.819,2.818-7.141,9.225a24.77,24.77,0,0,0-1.516,8.554,14.59,14.59,0,0,0,.8,5.119,4.341,4.341,0,0,0,2.777,3q2.134.665,5.2-1.129a14.909,14.909,0,0,0,5.734-6.129,18.5,18.5,0,0,0,1.9-5.609l-4.073,2.161a7.558,7.558,0,0,1-3.434,4.617q-2.264,1.324-3.4-.119a5.945,5.945,0,0,1-.913-3.41l12.145-7.092c.012-.54.018-.929.018-1.171q0-5.829-2.082-7.953Q157.568,134.57,153.767,136.786Zm-3.926,11.752q.84-5.209,3.872-6.979,2.978-1.738,3.525,2.658Zm22.547-21.2a24.6,24.6,0,0,0-2.273,5.438c.01-.522.018-.929.018-1.219a19.286,19.286,0,0,0-.276-3.515l-4.4,2.57a55.327,55.327,0,0,1,.238,5.544V154.01l4.6-2.687V140.39a19.094,19.094,0,0,1,.867-6.359,6.282,6.282,0,0,1,2.676-3.45,3.4,3.4,0,0,1,2.757-.474v-6.191a4.609,4.609,0,0,0-1.387.52A8.216,8.216,0,0,0,172.388,127.342Zm20.209-11.9a4.8,4.8,0,0,0-3.344.792A13.216,13.216,0,0,0,184,122.789a9.035,9.035,0,0,0-.367-2.785l-4.474,2.612a15.229,15.229,0,0,1,.468,2.727q.082,1.233.081,5.4V145.83l4.621-2.7V131.087a17.05,17.05,0,0,1,.419-4.43,8.178,8.178,0,0,1,1.187-2.471,5.748,5.748,0,0,1,1.753-1.665q1.753-1.025,2.447.556a12.714,12.714,0,0,1,.421,4.18V139.5l4.619-2.7v-13.57q0-2.854-.127-3.989Q194.678,115.848,192.6,115.443Z" transform="translate(-70.709 -59.281)" fill="#fff"/>
      </g>
    </g>
  </g>
</svg>
