<?xml version="1.0" encoding="utf-8"?>
<!-- Generator: Adobe Illustrator 24.1.0, SVG Export Plug-In . SVG Version: 6.00 Build 0)  -->
<svg version="1.1" id="Ebene_1" xmlns="http://www.w3.org/2000/svg" xmlns:xlink="http://www.w3.org/1999/xlink" x="0px" y="0px"
	 viewBox="0 0 191.3 138.4" style="enable-background:new 0 0 191.3 138.4;" xml:space="preserve">
<style type="text/css">
	.st0{fill:#B6B9FF;}
	.st1{fill:#A0A0EF;}
	.st2{fill:#8A81EB;}
	.st3{fill:#E6E6E6;}
	.st4{fill:#FFFFFF;}
	.st5{fill:#FEC00F;}
	.st6{fill:#5B379C;}
	.st7{fill:none;}
	.st8{fill:#C8C8C8;}
	.st9{fill:#9E9E9E;}
	.st10{fill:#004355;}
	.st11{fill:#707070;}
	.st12{fill:#444444;}
	.st13{opacity:0.8;fill:url(#Pfad_117_1_);enable-background:new    ;}
	.st14{fill:url(#Pfad_226_1_);}
	.st15{fill:url(#Pfad_232_1_);}
	.st16{fill:url(#Pfad_518_1_);}
</style>
<g id="Gruppe_4704" transform="translate(-1087 -147.947)">
	<g id="Gruppe_4365" transform="translate(2047.459 -117.521)">
		<ellipse id="Ellipse_27" class="st0" cx="-919.7" cy="312.8" rx="39.8" ry="39.8"/>
		<g id="Gruppe_700" transform="translate(-939.266 301.019)">
			<path id="Pfad_638" class="st1" d="M27.5,50.8c13.6-2.7,24.9-12.2,29.7-25.2L31-0.6c-2.7-3.4-6.8-5.5-11.1-5.4
				C12.1-6.1,5.8,0.2,5.8,8c0,0,0,0,0,0c0,0.5,0.3,7,5.6,13.8c1.5,2,1.3,6.2,1.2,6.2h-0.3c-0.4,0-0.7,0.3-0.7,0.7c0,0,0,0,0,0
				c0,0.2,0.1,0.4,0.2,0.5h0l0.8,0.8v0.4h-0.3c-0.4,0-0.7,0.3-0.7,0.7c0,0,0,0,0,0c0,0.2,0.1,0.4,0.2,0.5l0,0l0.8,0.8v0.3h-0.3
				c-0.4,0-0.7,0.3-0.7,0.7c0,0,0,0,0,0c0,0.2,0.1,0.4,0.3,0.6l0,0l0.8,0.8v0.5c0,0.4,0.2,0.7,0.6,0.9c0,0.2,0.1,0.4,0.2,0.5
				l-0.1,0.1L27.5,50.8z"/>
			<g id="Gruppe_699" transform="translate(0 0)">
				<path id="Pfad_639" class="st2" d="M25.5,37H14.2c-0.5,0-0.9-0.4-0.9-0.9c0-0.5,0.4-0.9,0.9-0.9h11.3c0.5,0,0.9,0.4,0.9,0.9
					C26.4,36.6,26,37,25.5,37z"/>
				<g id="Gruppe_698">
					<g id="Gruppe_684" transform="translate(22.976 21.837)">
						<path id="Pfad_640" class="st3" d="M-17.2-13.9c0-7.8,6.3-14.1,14.1-14.1c0,0,0,0,0,0c7.8,0,14.1,6.3,14.1,14.1c0,0,0,0,0,0
							c0,0.5-0.3,7-5.6,13.8C3.8,2,4,6.1,4,6.1h-14.3c0,0,0.3-4.1-1.2-6.2C-16.9-6.9-17.2-13.4-17.2-13.9z"/>
						<path id="Pfad_641" class="st4" d="M-3.1,6.1h-7.2c0,0,0.3-4.1-1.2-6.2c-5.3-6.8-5.6-13.3-5.6-13.8c0-7.8,6.3-14.1,14.1-14.1
							c0,0,0,0,0,0"/>
						<g id="Gruppe_674" transform="translate(23.539 5.001)">
							<path id="Pfad_642" class="st4" d="M-15.6-18.9h-1.2c0-5.4-4.4-9.8-9.8-9.8v-1.2C-20.5-29.9-15.6-25-15.6-18.9z"/>
						</g>
						<g id="Gruppe_679" transform="translate(14.373 34.149)">
							<g id="Gruppe_677">
								<g id="Gruppe_675" transform="translate(12.27)">
									<path id="Pfad_643" class="st5" d="M-26.7-26.9l-1.2-0.2l2.4-14.5l1.2,0.2L-26.7-26.9L-26.7-26.9z"/>
								</g>
								<g id="Gruppe_676">
									<path id="Pfad_644" class="st5" d="M-20.6-26.9L-23-41.5l1.2-0.2l2.4,14.5L-20.6-26.9L-20.6-26.9z"/>
								</g>
							</g>
							<g id="Gruppe_678" transform="translate(1.542 0.131)">
								<path id="Pfad_645" class="st5" d="M-14.2-39.7c-0.5,0-0.7-0.5-0.9-0.9c-0.1-0.1-0.2-0.5-0.3-0.5c-0.1,0-0.2,0.3-0.3,0.5
									c-0.2,0.4-0.4,0.9-0.9,0.9s-0.7-0.5-0.9-0.9c-0.1-0.1-0.2-0.5-0.3-0.5c-0.1,0-0.2,0.3-0.3,0.5c-0.2,0.4-0.4,0.9-0.9,0.9
									s-0.7-0.5-0.9-0.9c-0.1-0.1-0.2-0.5-0.3-0.5c-0.1,0-0.2,0.3-0.3,0.5c-0.2,0.4-0.4,0.9-0.9,0.9s-0.7-0.5-0.9-0.9
									c-0.1-0.1-0.2-0.5-0.3-0.5s-0.2,0.3-0.3,0.5c-0.2,0.4-0.4,0.9-0.9,0.9v-0.7c0.1,0,0.2-0.3,0.3-0.5c0.2-0.4,0.4-0.9,0.9-0.9
									s0.7,0.5,0.9,0.9c0.1,0.1,0.2,0.5,0.3,0.5c0.1,0,0.2-0.3,0.3-0.5c0.2-0.4,0.4-0.9,0.9-0.9s0.7,0.5,0.9,0.9
									c0.1,0.1,0.2,0.5,0.3,0.5c0.1,0,0.2-0.3,0.3-0.5c0.2-0.4,0.4-0.9,0.9-0.9s0.7,0.5,0.9,0.9c0.1,0.1,0.2,0.5,0.3,0.5
									s0.2-0.3,0.3-0.5c0.2-0.4,0.4-0.9,0.9-0.9s0.7,0.5,0.9,0.9c0.1,0.1,0.2,0.5,0.3,0.5L-14.2-39.7L-14.2-39.7z"/>
							</g>
						</g>
						<path id="Pfad_646" class="st6" d="M4,6.1v7.4c0,0.5-0.4,0.9-0.9,0.9l0,0H-9.4c-0.5,0-0.9-0.4-0.9-0.9V6.1H4z"/>
						<g id="Gruppe_683" transform="translate(9.869 56.973)">
							<g id="Gruppe_680">
								<line id="Linie_80" class="st7" x1="-5.5" y1="-50.1" x2="-20.4" y2="-50.1"/>
								<path id="Pfad_647" class="st2" d="M-5.5-49.4h-14.9c-0.4,0-0.7-0.3-0.7-0.7c0-0.4,0.3-0.7,0.7-0.7c0,0,0,0,0,0h14.9
									c0.4,0,0.7,0.3,0.7,0.7c0,0,0,0,0,0C-4.8-49.7-5.1-49.4-5.5-49.4z"/>
							</g>
							<g id="Gruppe_681" transform="translate(0 4.022)">
								<line id="Linie_81" class="st7" x1="-5.5" y1="-51.7" x2="-20.4" y2="-51.7"/>
								<path id="Pfad_648" class="st2" d="M-5.5-51h-14.9c-0.4,0-0.7-0.3-0.7-0.7c0-0.4,0.3-0.7,0.7-0.7h14.9
									c0.4,0,0.7,0.3,0.7,0.7C-4.8-51.3-5.1-51-5.5-51z"/>
							</g>
							<g id="Gruppe_682" transform="translate(0 8.044)">
								<line id="Linie_82" class="st7" x1="-5.5" y1="-53.4" x2="-20.4" y2="-53.4"/>
								<path id="Pfad_649" class="st2" d="M-5.5-52.6h-14.9c-0.4,0-0.7-0.3-0.7-0.7c0-0.4,0.3-0.7,0.7-0.7h14.9
									c0.4,0,0.7,0.3,0.7,0.7C-4.8-53-5.1-52.6-5.5-52.6z"/>
							</g>
						</g>
					</g>
					<g id="Gruppe_697">
						<g id="Gruppe_685" transform="translate(45.891)">
							<path id="Pfad_650" class="st4" d="M-26-10.7c-0.2,0-0.4-0.2-0.4-0.4v-7.7c0-0.2,0.2-0.4,0.4-0.4c0.2,0,0.4,0.2,0.4,0.4
								c0,0,0,0,0,0v7.7C-25.7-10.8-25.8-10.7-26-10.7C-26-10.7-26-10.7-26-10.7L-26-10.7z"/>
						</g>
						<g id="Gruppe_686" transform="translate(22.942 6.155)">
							<path id="Pfad_651" class="st4" d="M-12.9-14.2c-0.1,0-0.3-0.1-0.3-0.2l-3.9-6.7c-0.1-0.2,0-0.4,0.1-0.5c0,0,0,0,0,0
								c0.2-0.1,0.4,0,0.5,0.1c0,0,0,0,0,0l3.9,6.7c0.1,0.2,0,0.4-0.1,0.5c0,0,0,0,0,0C-12.8-14.2-12.9-14.2-12.9-14.2L-12.9-14.2z"
								/>
						</g>
						<g id="Gruppe_687" transform="translate(6.146 22.958)">
							<path id="Pfad_652" class="st4" d="M-3.4-23.8c-0.1,0-0.1,0-0.2-0.1l-6.7-3.9c-0.2-0.1-0.2-0.3-0.1-0.5c0,0,0,0,0,0
								c0.1-0.2,0.3-0.2,0.5-0.1c0,0,0,0,0,0l6.7,3.9C-3-24.4-2.9-24.1-3-24C-3.1-23.8-3.2-23.8-3.4-23.8L-3.4-23.8z"/>
						</g>
						<g id="Gruppe_688" transform="translate(0 45.909)">
							<path id="Pfad_653" class="st4" d="M0.2-36.9h-7.7c-0.2,0-0.4-0.2-0.4-0.4c0,0,0,0,0,0c0-0.2,0.2-0.4,0.4-0.4h7.7
								c0.2,0,0.4,0.2,0.4,0.4C0.5-37,0.4-36.9,0.2-36.9C0.2-36.9,0.2-36.9,0.2-36.9z"/>
						</g>
						<g id="Gruppe_689" transform="translate(6.157 62.393)">
							<path id="Pfad_654" class="st4" d="M-10-39.6c-0.1,0-0.3-0.1-0.3-0.2c-0.1-0.2,0-0.4,0.1-0.5c0,0,0,0,0,0l6.7-3.9
								c0.2-0.1,0.4,0,0.5,0.1c0,0,0,0,0,0c0.1,0.2,0,0.4-0.1,0.5c0,0,0,0,0,0l-6.7,3.9C-9.9-39.7-10-39.6-10-39.6L-10-39.6z"/>
						</g>
						<g id="Gruppe_690" transform="translate(22.96 74.457)">
							<path id="Pfad_655" class="st4" d="M-16.8-41.7c-0.1,0-0.1,0-0.2,0c-0.2-0.1-0.2-0.3-0.1-0.5c0,0,0,0,0,0l3.9-6.7
								c0.1-0.2,0.3-0.2,0.5-0.1c0,0,0,0,0,0c0.2,0.1,0.2,0.3,0.1,0.5c0,0,0,0,0,0l-3.9,6.7C-16.6-41.7-16.7-41.7-16.8-41.7
								L-16.8-41.7z"/>
						</g>
						<g id="Gruppe_691" transform="translate(62.395 74.447)">
							<path id="Pfad_656" class="st4" d="M-28.8-41.7c-0.1,0-0.3-0.1-0.3-0.2l-3.9-6.7c-0.1-0.2,0-0.4,0.1-0.5c0,0,0,0,0,0
								c0.2-0.1,0.4,0,0.5,0.1c0,0,0,0,0,0l3.9,6.7c0.1,0.2,0,0.4-0.1,0.5c0,0,0,0,0,0C-28.7-41.7-28.7-41.7-28.8-41.7L-28.8-41.7z"
								/>
						</g>
						<g id="Gruppe_692" transform="translate(74.457 62.375)">
							<path id="Pfad_657" class="st4" d="M-30.8-39.6c-0.1,0-0.1,0-0.2,0l-6.7-3.9c-0.2-0.1-0.2-0.3-0.1-0.5c0,0,0,0,0,0
								c0.1-0.2,0.3-0.2,0.5-0.1c0,0,0,0,0,0l6.7,3.9c0.2,0.1,0.2,0.3,0.1,0.5C-30.6-39.7-30.7-39.6-30.8-39.6L-30.8-39.6z"/>
						</g>
						<g id="Gruppe_693" transform="translate(78.869 45.89)">
							<path id="Pfad_658" class="st4" d="M-31.6-36.9h-7.7c-0.2,0-0.4-0.2-0.4-0.4c0-0.2,0.2-0.4,0.4-0.4h7.7
								c0.2,0,0.4,0.2,0.4,0.4c0,0,0,0,0,0C-31.2-37-31.4-36.9-31.6-36.9C-31.6-36.9-31.6-36.9-31.6-36.9L-31.6-36.9z"/>
						</g>
						<g id="Gruppe_694" transform="translate(74.447 22.94)">
							<path id="Pfad_659" class="st4" d="M-37.5-23.8c-0.1,0-0.3-0.1-0.3-0.2c-0.1-0.2,0-0.4,0.1-0.5c0,0,0,0,0,0l6.7-3.9
								c0.2-0.1,0.4,0,0.5,0.1c0,0,0,0,0,0c0.1,0.2,0,0.4-0.1,0.5c0,0,0,0,0,0l-6.7,3.9C-37.4-23.8-37.5-23.8-37.5-23.8L-37.5-23.8z
								"/>
						</g>
						<g id="Gruppe_695" transform="translate(62.377 6.143)">
							<path id="Pfad_660" class="st4" d="M-32.7-14.2c-0.1,0-0.1,0-0.2-0.1c-0.2-0.1-0.2-0.3-0.1-0.5c0,0,0,0,0,0l3.9-6.7
								c0.1-0.2,0.3-0.2,0.5-0.1c0.2,0.1,0.2,0.3,0.1,0.5c0,0,0,0,0,0l-3.9,6.7C-32.4-14.2-32.5-14.2-32.7-14.2L-32.7-14.2z"/>
						</g>
						<g id="Gruppe_696" transform="translate(45.891)">
							<path id="Pfad_661" class="st4" d="M-26-10.7c-0.2,0-0.4-0.2-0.4-0.4v-7.7c0-0.2,0.2-0.4,0.4-0.4c0.2,0,0.4,0.2,0.4,0.4
								c0,0,0,0,0,0v7.7C-25.7-10.8-25.8-10.7-26-10.7C-26-10.7-26-10.7-26-10.7L-26-10.7z"/>
						</g>
					</g>
				</g>
			</g>
		</g>
	</g>
	<g id="Gruppe_3312" transform="translate(15962.922 5753.822)">
		<g id="Gruppe_333" transform="translate(-14638.925 -5605.875)">
			<g id="Gruppe_332">
				<g id="Gruppe_309" transform="translate(0 99.363)">
					<g id="Gruppe_305">
						<g id="Gruppe_304">
							<g id="Gruppe_301" transform="translate(0 18.213)">
								<path id="Pfad_81" class="st8" d="M-113.6-46.4l0,8.2l18.7,10.9l0-8.2L-113.6-46.4z"/>
							</g>
							<g id="Gruppe_302" transform="translate(31.342 18.214)">
								<path id="Pfad_82" class="st4" d="M-126.2-35.5l0,8.2l18.9-10.9l0-8.2L-126.2-35.5z"/>
							</g>
							<g id="Gruppe_303">
								<path id="Pfad_83" class="st9" d="M-113.6-28.2l18.7,10.9l18.9-10.9l-18.7-10.9L-113.6-28.2z"/>
							</g>
						</g>
					</g>
					<g id="Gruppe_308" transform="translate(36.488 26.731)">
						<g id="Gruppe_306" transform="translate(12.613)">
							<path id="Pfad_84" class="st9" d="M-133.4-46.3l0,4.4l6.1-3.5l0-4.4L-133.4-46.3z"/>
						</g>
						<g id="Gruppe_307" transform="translate(0 7.285)">
							<path id="Pfad_85" class="st9" d="M-128.3-49.2l0,4.4l6.1-3.5l0-4.4L-128.3-49.2z"/>
						</g>
					</g>
				</g>
				<g id="Gruppe_331" transform="translate(4.743)">
					<g id="Gruppe_313">
						<g id="Gruppe_310" transform="translate(0 15.469)">
							<path id="Pfad_86" class="st8" d="M-115.5-5.3l0,61.3l15.9,9.2l0-61.3L-115.5-5.3z"/>
						</g>
						<g id="Gruppe_311" transform="translate(26.618 15.469)">
							<path id="Pfad_87" class="st4" d="M-126.3,3.9l0,61.3l16-9.2l0-61.3L-126.3,3.9z"/>
						</g>
						<g id="Gruppe_312">
							<path id="Pfad_88" class="st3" d="M-115.5,10.2l15.9,9.2l16-9.2l-15.9-9.2L-115.5,10.2z"/>
						</g>
					</g>
					<path id="Pfad_89" class="st9" d="M-88.4,15.6l1.8-1.1l0.1,57.2l-1.8,1.1L-88.4,15.6z"/>
					<path id="Pfad_90" class="st10" d="M-92.2,17.8l1.8-1.1l0.1,57.2l-1.8,1.1L-92.2,17.8z"/>
					<path id="Pfad_91" class="st9" d="M-96,20l1.8-1.1l0.1,57.2l-1.8,1.1L-96,20z"/>
					<g id="Gruppe_319" transform="translate(39.79 11.333)">
						<g id="Gruppe_318">
							<g id="Gruppe_317">
								<g id="Gruppe_314" transform="translate(0 2.922)">
									<path id="Pfad_92" class="st9" d="M-131.6-4.8l0,1.4l3,1.7l0-1.4L-131.6-4.8z"/>
								</g>
								<g id="Gruppe_315" transform="translate(5.032 2.924)">
									<path id="Pfad_93" class="st4" d="M-133.6-3.1l0,1.4l3-1.7l0-1.4L-133.6-3.1z"/>
								</g>
								<g id="Gruppe_316">
									<path id="Pfad_94" class="st8" d="M-131.6-1.9l3,1.7l3-1.7l-3-1.7L-131.6-1.9z"/>
								</g>
							</g>
						</g>
					</g>
					<g id="Gruppe_325" transform="translate(21.971 1.451)">
						<g id="Gruppe_324">
							<g id="Gruppe_323">
								<g id="Gruppe_320" transform="translate(0 2.922)">
									<path id="Pfad_95" class="st9" d="M-124.4-0.8l0,1.4l3,1.7l0-1.4L-124.4-0.8z"/>
								</g>
								<g id="Gruppe_321" transform="translate(5.032 2.924)">
									<path id="Pfad_96" class="st4" d="M-126.4,0.9l0,1.4l3-1.7l0-1.4L-126.4,0.9z"/>
								</g>
								<g id="Gruppe_322">
									<path id="Pfad_97" class="st8" d="M-124.4,2.1l3,1.7l3-1.7l-3-1.7L-124.4,2.1z"/>
								</g>
							</g>
						</g>
					</g>
					<g id="Gruppe_330" transform="translate(8.435 11.898)">
						<g id="Gruppe_329">
							<g id="Gruppe_326" transform="translate(0 4.572)">
								<path id="Pfad_98" class="st9" d="M-118.9-5.7v0.9l11.2,6.5V0.8L-118.9-5.7z"/>
							</g>
							<g id="Gruppe_327" transform="translate(18.667 10.848)">
								<path id="Pfad_99" class="st4" d="M-126.4-5.5v0.9l4.7-2.7v-0.9L-126.4-5.5z"/>
							</g>
							<g id="Gruppe_328">
								<path id="Pfad_100" class="st8" d="M-118.9-1.1l11.2,6.5l4.7-2.7l-11.2-6.5L-118.9-1.1z"/>
							</g>
						</g>
					</g>
				</g>
			</g>
		</g>
		<g id="Gruppe_336" transform="translate(-14606.854 -5466.939)">
			<g id="Gruppe_334" transform="translate(0 2.42)">
				<path id="Pfad_101" class="st9" d="M-108.2-29.8l-18.3-10.6v-0.2l26.4-14.3l13.9,12.4L-108.2-29.8z"/>
				<path id="Pfad_102" class="st11" d="M-108.2-30.1l-18.3-10.6l26.4-14.5l13.9,12.4L-108.2-30.1z"/>
				<path id="Pfad_103" class="st4" d="M-107.5-30.3l-18.3-10.6l-0.1-3.4l26.5-11.4l13.9,12.4L-107.5-30.3z"/>
				<path id="Pfad_104" class="st9" d="M-97.2-61.3l-29.3,16.7v0.2l18.3,10.6l29.3-16.9L-97.2-61.3z"/>
				<path id="Pfad_105" class="st3" d="M-97.2-61.6l-29.3,16.9l18.3,10.6L-78.9-51L-97.2-61.6z"/>
				<path id="Pfad_106" class="st4" d="M-101-57.6l-8.2,4.7l14.7,8.5l8.2-4.7L-101-57.6z"/>
				<path id="Pfad_107" class="st9" d="M-79.1-50.9v4.1l-29.1,16.9l-0.2-0.1v-4L-79.1-50.9z"/>
				<path id="Pfad_108" class="st4" d="M-78.9-51v4.1l-29.3,17V-34L-78.9-51z"/>
			</g>
			<g id="Gruppe_335" transform="translate(10.518 0)">
				<path id="Pfad_109" class="st9" d="M-114-34.2l-15.4-8.9v-0.2l22.2-12l11.6,10.4L-114-34.2z"/>
				<path id="Pfad_110" class="st12" d="M-114-34.4l-15.4-8.9l22.2-12.2l11.6,10.4L-114-34.4z"/>
				<path id="Pfad_111" class="st4" d="M-113.4-34.6l-15.4-8.9l-0.1-2.8l22.3-9.6L-95-45.6L-113.4-34.6z"/>
				<path id="Pfad_112" class="st9" d="M-104.8-60.7l-24.6,14v0.2l15.4,8.9l24.6-14.2L-104.8-60.7z"/>
				<path id="Pfad_113" class="st12" d="M-104.8-60.9l-24.6,14.2l15.4,8.9L-89.4-52L-104.8-60.9z"/>
				<path id="Pfad_114" class="st4" d="M-108-57.6l-6.9,4l12.4,7.1l6.9-4L-108-57.6z"/>
				<path id="Pfad_115" class="st9" d="M-89.6-51.9v3.5L-114-34.2l-0.2-0.1v-3.3L-89.6-51.9z"/>
				<path id="Pfad_116" class="st11" d="M-89.4-52v3.5L-114-34.2v-3.6L-89.4-52z"/>
			</g>
		</g>
		
			<linearGradient id="Pfad_117_1_" gradientUnits="userSpaceOnUse" x1="-15043.502" y1="-5068.9414" x2="-15042.9043" y2="-5068.9414" gradientTransform="matrix(138.317 0 0 -184.3087 2065972.75 -939797.375)">
			<stop  offset="0" style="stop-color:#FEC00F"/>
			<stop  offset="0.109" style="stop-color:#FDBA10"/>
			<stop  offset="0.656" style="stop-color:#FAA319"/>
			<stop  offset="1" style="stop-color:#F99B1C"/>
		</linearGradient>
		<path id="Pfad_117" class="st13" d="M-14799.3-5540c0.1,1.4,11.1,2.7,16.9,0.9c6.7-2.1-4.8-11.1,1.5-7.5
			c6.2,3.6,2.8-60.8,12.3-55.4c6.8,3.9,4.6,25.5,10.6,28.9c6.8,3.9,5.6-6.8,10.8-3.8s5.3,16.7,10.1,18.9c4.9,2.2,2.6-46.6,10.3-42.2
			c7.8,4.5,10.1,108,10.1,108L-14799.3-5540z"/>
		<g id="Gruppe_382" transform="translate(-14691.562 -5570.497)">
			<path id="Pfad_225" d="M-57.7-11.7l0.3,0.5c0.4,0.3,0.6,2.1,0.6,2.6v63.7c0,3.1-2.1,7-4.7,8.5l-23.8,13.7
				c-0.7,0.3-1.5,0.5-2.2,0.5l-1-0.4c-2.3-0.8-3.8-2.9-3.8-5.3V8.5c0-3.1,2.2-6.8,4.8-8.3l21.7-12.5C-63.2-13.9-60.3-13.5-57.7-11.7
				z"/>
			
				<linearGradient id="Pfad_226_1_" gradientUnits="userSpaceOnUse" x1="-351.3439" y1="501.0143" x2="-350.5037" y2="501.5462" gradientTransform="matrix(55.155 0 0 -150.9525 19282.0117 75702.2891)">
				<stop  offset="0" style="stop-color:#C8C8C8"/>
				<stop  offset="0.676" style="stop-color:#DBDBDB"/>
				<stop  offset="0.971" style="stop-color:#E6E6E6"/>
				<stop  offset="1" style="stop-color:#E6E6E6"/>
			</linearGradient>
			<path id="Pfad_226" class="st14" d="M-61.5-11.6c2.6-1.5,4.8-0.3,4.8,2.8v64.3c0,3.1-2.2,6.8-4.8,8.3l-23.3,13.5
				c-2.6,1.5-4.8,0.3-4.8-2.8V10.2c0-3.1,2.2-6.8,4.8-8.3L-61.5-11.6z"/>
			<path id="Pfad_227" class="st4" d="M-59.4-1.1v52L-87,66.7v-52L-59.4-1.1z"/>
			<g id="Gruppe_381" transform="translate(25.187 19.038)">
				<path id="Pfad_228" class="st4" d="M-102-15.6c0.1,0,0.2,0,0.3-0.1l7.3-4.2c0.3-0.2,0.4-0.5,0.2-0.8c-0.2-0.3-0.5-0.4-0.8-0.2
					l-7.3,4.2c-0.3,0.2-0.4,0.5-0.2,0.8C-102.4-15.8-102.2-15.6-102-15.6L-102-15.6z"/>
			</g>
			<path id="Pfad_229" class="st4" d="M-73.2,60.9c1.6-0.9,2.9-0.2,2.9,1.7c-0.1,2.1-1.2,3.9-2.9,5.1c-1.6,0.9-2.9,0.2-2.9-1.7
				C-76,64-74.9,62.1-73.2,60.9z"/>
		</g>
		<g id="Gruppe_384" transform="translate(-14757.539 -5519.021)">
			<path id="Pfad_230" class="st9" d="M-45.3-34l-0.4,0.3v45.9l20.1,11.6v-46.4L-45.3-34z"/>
			<path id="Pfad_231" class="st12" d="M-45.7-33.7v46.4l20.1,11.1v-45.9L-45.7-33.7z"/>
			
				<linearGradient id="Pfad_232_1_" gradientUnits="userSpaceOnUse" x1="-284.3454" y1="440.5397" x2="-283.7478" y2="440.5397" gradientTransform="matrix(41.525 0 0 -23.961 11755.3838 10530.5742)">
				<stop  offset="0.213" style="stop-color:#FFFFFF"/>
				<stop  offset="1" style="stop-color:#C8C8C8"/>
			</linearGradient>
			<path id="Pfad_232" class="st15" d="M-45.7-32.4l-6.3,3.7L-33.7-18l6.4-3.7L-45.7-32.4z"/>
			<path id="Pfad_233" class="st11" d="M-25.6-22.7v45.9l-8,4.6v-46.4l7.1-4.1L-25.6-22.7z"/>
			<path id="Pfad_234" class="st11" d="M-25.6-22.7v46.4l-8,4.6V-18L-25.6-22.7z"/>
			<path id="Pfad_235" class="st9" d="M-33.7,27.8l-20.1-11.6v-45.9l0.5-0.3l19.6,11.3L-33.7,27.8z"/>
			<path id="Pfad_236" class="st12" d="M-33.7,28.4l-20.1-11.6v-46.4L-33.7-18L-33.7,28.4z"/>
		</g>
		<g id="Gruppe_385" transform="translate(-14769.759 -5502.66)">
			<path id="Pfad_244" class="st3" d="M-32.7-37.5l2.6,4.6l-2.6,1.5l-2.6-1.5L-32.7-37.5z"/>
			<path id="Pfad_245" class="st12" d="M-31.9-36.2h-1.6l0.8-1.4L-31.9-36.2z"/>
			<path id="Pfad_246" class="st4" d="M-30.1-33V16l-2.6,1.5v-48.9L-30.1-33z"/>
			<path id="Pfad_247" class="st8" d="M-32.7-31.4l-2.6-1.5V16l2.6,1.5V-31.4z"/>
			<path id="Pfad_248" class="st8" d="M-30.1,12.9V16l-2.6,1.5v-3.1L-30.1,12.9z"/>
			<path id="Pfad_249" class="st11" d="M-32.7,14.4l-2.6-1.5V16l2.6,1.5V14.4z"/>
			<path id="Pfad_250" class="st3" d="M-30.1,12.5v0.8l-2.6,1.5V14L-30.1,12.5z"/>
			<path id="Pfad_251" class="st9" d="M-32.7,14l-2.6-1.5v0.8l2.6,1.5V14z"/>
		</g>
		<g id="Gruppe_387" transform="translate(-14785.923 -5490.871)">
			<path id="Pfad_252" class="st12" d="M-21.2-42l0.2,0.2c0.1,0.2,0.2,0.4,0.2,0.6l0,48.1c0,0.7-0.4,1.3-1,1.7l-5.3,3.1
				c-0.2,0.1-0.4,0.2-0.7,0.2h-0.2c-0.5,0-0.9-0.4-0.9-1v-48.2c0-0.7,0.4-1.3,1-1.7l5.5-3.3C-22-42.4-21.5-42.3-21.2-42z"/>
			<path id="Pfad_253" class="st4" d="M-21.7-41.6c0.5-0.3,1-0.1,1,0.6V7c0,0.7-0.4,1.3-1,1.7l-5.5,3.2c-0.5,0.3-1,0.1-1-0.6v-48
				c0-0.7,0.4-1.3,1-1.7L-21.7-41.6z"/>
			<g id="Gruppe_386" transform="translate(9.604 3.653)">
				<path id="Pfad_254" class="st8" d="M-31.4-27.2l1.1-0.6v0.8l-1.1,0.6L-31.4-27.2z"/>
				<path id="Pfad_255" class="st8" d="M-32.7-24.1l2.4-1.3v0.8l-2.4,1.3L-32.7-24.1z"/>
				<path id="Pfad_256" class="st8" d="M-32.7-15l2.4-1.3v0.8l-2.4,1.3L-32.7-15z"/>
				<path id="Pfad_257" class="st8" d="M-31.4-20.3l1.1-0.6v0.8l-1.1,0.6L-31.4-20.3z"/>
				<path id="Pfad_258" class="st8" d="M-31.4-22.6l1.1-0.6v0.8l-1.1,0.6L-31.4-22.6z"/>
				<path id="Pfad_259" class="st8" d="M-31.4-31.7l1.1-0.6v0.8l-1.1,0.6V-31.7z"/>
				<path id="Pfad_260" class="st8" d="M-31.4-40.8l1.1-0.6v0.8l-1.1,0.6L-31.4-40.8z"/>
				<path id="Pfad_261" class="st8" d="M-31.4-36.3l1.1-0.6v0.8l-1.1,0.6L-31.4-36.3z"/>
				<path id="Pfad_262" class="st8" d="M-32.7-33.3l2.4-1.3v0.8l-2.4,1.3L-32.7-33.3z"/>
				<path id="Pfad_263" class="st8" d="M-31.4-38.6l1.1-0.6v0.8l-1.1,0.6L-31.4-38.6z"/>
				<path id="Pfad_264" class="st8" d="M-31.4-29.4l1.1-0.6v0.8l-1.1,0.6L-31.4-29.4z"/>
				<path id="Pfad_265" class="st8" d="M-31.4-2.1l1.1-0.6v0.8l-1.1,0.6V-2.1z"/>
				<path id="Pfad_266" class="st8" d="M-31.4,0.2l1.1-0.6v0.8L-31.4,1V0.2z"/>
				<path id="Pfad_267" class="st8" d="M-31.4-4.3l1.1-0.6v0.8l-1.1,0.6V-4.3z"/>
				<path id="Pfad_268" class="st8" d="M-30.3-42.9l-2.4,1.3v-0.8l2.4-1.3L-30.3-42.9z"/>
				<path id="Pfad_269" class="st8" d="M-32.7,3.2l2.4-1.3v0.8L-32.7,4V3.2z"/>
				<path id="Pfad_270" class="st8" d="M-31.4-8.9l1.1-0.6v0.8l-1.1,0.6V-8.9z"/>
				<path id="Pfad_271" class="st8" d="M-31.4-13.5l1.1-0.6v0.8l-1.1,0.6V-13.5z"/>
				<path id="Pfad_272" class="st8" d="M-31.4-11.2l1.1-0.6v0.8l-1.1,0.6V-11.2z"/>
				<path id="Pfad_273" class="st8" d="M-32.7-5.9l2.4-1.3v0.8l-2.4,1.3V-5.9z"/>
				<path id="Pfad_274" class="st8" d="M-31.4-18l1.1-0.6v0.8l-1.1,0.6L-31.4-18z"/>
			</g>
		</g>
		<g id="Gruppe_636" transform="translate(-14582.152 -5403.391)">
			<path id="Pfad_517" d="M-149.1-89.8h-2.2v12.1c0,0.2,0.1,0.4,0.3,0.4c0.5,0.3,1.1,0.3,1.6,0c0.2-0.1,0.3-0.3,0.3-0.4l0,0
				L-149.1-89.8z"/>
			
				<linearGradient id="Pfad_518_1_" gradientUnits="userSpaceOnUse" x1="-460.5906" y1="320.8448" x2="-460.5906" y2="319.6334" gradientTransform="matrix(13.018 0 0 -13.018 5845.7427 4076.0791)">
				<stop  offset="0.309" style="stop-color:#9E9E9E"/>
				<stop  offset="0.317" style="stop-color:#9E9E9E"/>
				<stop  offset="0.775" style="stop-color:#D2D2D2"/>
				<stop  offset="1" style="stop-color:#E6E6E6"/>
			</linearGradient>
			<path id="Pfad_518" class="st16" d="M-141.2-92.6c0,5-4,9-9,9s-9-4-9-9s4-9,9-9S-141.2-97.6-141.2-92.6L-141.2-92.6z"/>
		</g>
		<g id="Gruppe_637" transform="translate(-14597.721 -5394.409)">
			<path id="Pfad_519" d="M-155.1-86.3h-2.2v12.1c0,0.2,0.1,0.4,0.3,0.5c0.5,0.2,1.1,0.2,1.6,0c0.2-0.1,0.3-0.3,0.3-0.5l0,0
				L-155.1-86.3z"/>
			<path id="Pfad_520" class="st6" d="M-147.2-89.2c0,5-4,9-9,9c-5,0-9-4-9-9s4-9,9-9C-151.2-98.2-147.2-94.2-147.2-89.2
				L-147.2-89.2z"/>
		</g>
	</g>
</g>
</svg>
