<?xml version="1.0" encoding="utf-8"?>
<!-- Generator: Adobe Illustrator 21.1.0, SVG Export Plug-In . SVG Version: 6.00 Build 0)  -->
<svg version="1.1" id="Ebene_1" xmlns="http://www.w3.org/2000/svg" xmlns:xlink="http://www.w3.org/1999/xlink" x="0px" y="0px"
	 viewBox="0 0 317.3 317.3" style="enable-background:new 0 0 317.3 317.3;" xml:space="preserve">
<style type="text/css">
	.st0{fill:url(#SVGID_1_);}
</style>
<linearGradient id="SVGID_1_" gradientUnits="userSpaceOnUse" x1="77.5932" y1="219.9327" x2="242.0253" y2="55.5007">
	<stop  offset="2.624199e-03" style="stop-color:#55C4C1"/>
	<stop  offset="0.5889" style="stop-color:#38E7C9"/>
</linearGradient>
<path class="st0" d="M193.1,6.6c-7.6-7.6-19.8-7.6-27.4,0l-54.8,54.8L56.1,6.6C48.5-1,36.3-1,28.7,6.6c-7.6,7.6-7.6,19.8,0,27.4
	l54.8,54.8l-54.8,54.8c-7.6,7.6-7.6,19.8,0,27.4c3.8,3.8,8.7,5.7,13.7,5.7s9.9-1.9,13.7-5.7l54.8-54.8l54.8,54.8
	c3.8,3.8,8.7,5.7,13.7,5.7c5,0,9.9-1.9,13.7-5.7c7.6-7.6,7.6-19.8,0-27.4l-54.8-54.8L193.1,34C200.7,26.4,200.7,14.2,193.1,6.6z
	 M192.9,261.5c-1.5,0-2.8,1.2-2.8,2.8c0,1.5,1.2,2.8,2.8,2.8c1.5,0,2.8-1.2,2.8-2.8C195.6,262.8,194.4,261.5,192.9,261.5z
	 M192.9,212.2c-1.5,0-2.8,1.2-2.8,2.8c0,1.5,1.2,2.8,2.8,2.8c1.5,0,2.8-1.2,2.8-2.8C195.6,213.4,194.4,212.2,192.9,212.2z
	 M192.9,228.6c-1.5,0-2.8,1.2-2.8,2.8c0,1.5,1.2,2.8,2.8,2.8c1.5,0,2.8-1.2,2.8-2.8C195.6,229.9,194.4,228.6,192.9,228.6z
	 M192.9,278c-1.5,0-2.8,1.2-2.8,2.8s1.2,2.8,2.8,2.8c1.5,0,2.8-1.2,2.8-2.8S194.4,278,192.9,278z M192.9,245.1
	c-1.5,0-2.8,1.2-2.8,2.8c0,1.5,1.2,2.8,2.8,2.8c1.5,0,2.8-1.2,2.8-2.8C195.6,246.3,194.4,245.1,192.9,245.1z M176.4,245.1
	c-1.5,0-2.8,1.2-2.8,2.8c0,1.5,1.2,2.8,2.8,2.8s2.8-1.2,2.8-2.8C179.2,246.3,177.9,245.1,176.4,245.1z M176.4,261.5
	c-1.5,0-2.8,1.2-2.8,2.8c0,1.5,1.2,2.8,2.8,2.8s2.8-1.2,2.8-2.8C179.2,262.8,177.9,261.5,176.4,261.5z M176.4,228.6
	c-1.5,0-2.8,1.2-2.8,2.8c0,1.5,1.2,2.8,2.8,2.8s2.8-1.2,2.8-2.8C179.2,229.9,177.9,228.6,176.4,228.6z M176.4,212.2
	c-1.5,0-2.8,1.2-2.8,2.8c0,1.5,1.2,2.8,2.8,2.8s2.8-1.2,2.8-2.8C179.2,213.4,177.9,212.2,176.4,212.2z M176.4,195.7
	c-1.5,0-2.8,1.2-2.8,2.8c0,1.5,1.2,2.8,2.8,2.8s2.8-1.2,2.8-2.8C179.2,197,177.9,195.7,176.4,195.7z M192.9,294.4
	c-1.5,0-2.8,1.2-2.8,2.8c0,1.5,1.2,2.8,2.8,2.8c1.5,0,2.8-1.2,2.8-2.8C195.6,295.7,194.4,294.4,192.9,294.4z M192.9,195.7
	c-1.5,0-2.8,1.2-2.8,2.8c0,1.5,1.2,2.8,2.8,2.8c1.5,0,2.8-1.2,2.8-2.8C195.6,197,194.4,195.7,192.9,195.7z M209.3,162.8
	c-1.5,0-2.8,1.2-2.8,2.8c0,1.5,1.2,2.8,2.8,2.8c1.5,0,2.8-1.2,2.8-2.8C212.1,164.1,210.8,162.8,209.3,162.8z M209.3,146.4
	c-1.5,0-2.8,1.2-2.8,2.8c0,1.5,1.2,2.8,2.8,2.8c1.5,0,2.8-1.2,2.8-2.8C212.1,147.6,210.8,146.4,209.3,146.4z M176.4,278
	c-1.5,0-2.8,1.2-2.8,2.8s1.2,2.8,2.8,2.8s2.8-1.2,2.8-2.8S177.9,278,176.4,278z M225.8,245.1c-1.5,0-2.8,1.2-2.8,2.8
	c0,1.5,1.2,2.8,2.8,2.8c1.5,0,2.8-1.2,2.8-2.8C228.5,246.3,227.3,245.1,225.8,245.1z M225.8,261.5c-1.5,0-2.8,1.2-2.8,2.8
	c0,1.5,1.2,2.8,2.8,2.8c1.5,0,2.8-1.2,2.8-2.8C228.5,262.8,227.3,261.5,225.8,261.5z M209.3,179.3c-1.5,0-2.8,1.2-2.8,2.8
	c0,1.5,1.2,2.8,2.8,2.8c1.5,0,2.8-1.2,2.8-2.8C212.1,180.5,210.8,179.3,209.3,179.3z M209.3,195.7c-1.5,0-2.8,1.2-2.8,2.8
	c0,1.5,1.2,2.8,2.8,2.8c1.5,0,2.8-1.2,2.8-2.8C212.1,197,210.8,195.7,209.3,195.7z M209.3,245.1c-1.5,0-2.8,1.2-2.8,2.8
	c0,1.5,1.2,2.8,2.8,2.8c1.5,0,2.8-1.2,2.8-2.8C212.1,246.3,210.8,245.1,209.3,245.1z M209.3,228.6c-1.5,0-2.8,1.2-2.8,2.8
	c0,1.5,1.2,2.8,2.8,2.8c1.5,0,2.8-1.2,2.8-2.8C212.1,229.9,210.8,228.6,209.3,228.6z M209.3,212.2c-1.5,0-2.8,1.2-2.8,2.8
	c0,1.5,1.2,2.8,2.8,2.8c1.5,0,2.8-1.2,2.8-2.8C212.1,213.4,210.8,212.2,209.3,212.2z M176.4,310.9c-1.5,0-2.8,1.2-2.8,2.8
	s1.2,2.8,2.8,2.8s2.8-1.2,2.8-2.8S177.9,310.9,176.4,310.9z M127.1,179.3c-1.5,0-2.8,1.2-2.8,2.8c0,1.5,1.2,2.8,2.8,2.8
	c1.5,0,2.8-1.2,2.8-2.8C129.8,180.5,128.6,179.3,127.1,179.3z M127.1,228.6c-1.5,0-2.8,1.2-2.8,2.8c0,1.5,1.2,2.8,2.8,2.8
	c1.5,0,2.8-1.2,2.8-2.8C129.8,229.9,128.6,228.6,127.1,228.6z M127.1,212.2c-1.5,0-2.8,1.2-2.8,2.8c0,1.5,1.2,2.8,2.8,2.8
	c1.5,0,2.8-1.2,2.8-2.8C129.8,213.4,128.6,212.2,127.1,212.2z M127.1,195.7c-1.5,0-2.8,1.2-2.8,2.8c0,1.5,1.2,2.8,2.8,2.8
	c1.5,0,2.8-1.2,2.8-2.8C129.8,197,128.6,195.7,127.1,195.7z M176.4,294.4c-1.5,0-2.8,1.2-2.8,2.8c0,1.5,1.2,2.8,2.8,2.8
	s2.8-1.2,2.8-2.8C179.2,295.7,177.9,294.4,176.4,294.4z M143.5,228.6c-1.5,0-2.8,1.2-2.8,2.8c0,1.5,1.2,2.8,2.8,2.8
	c1.5,0,2.8-1.2,2.8-2.8C146.3,229.9,145,228.6,143.5,228.6z M110.6,195.7c-1.5,0-2.8,1.2-2.8,2.8c0,1.5,1.2,2.8,2.8,2.8
	c1.5,0,2.8-1.2,2.8-2.8C113.4,197,112.1,195.7,110.6,195.7z M291.6,151.9c1.5,0,2.8-1.2,2.8-2.8c0-1.5-1.2-2.8-2.8-2.8
	c-1.5,0-2.8,1.2-2.8,2.8C288.8,150.7,290,151.9,291.6,151.9z M110.6,228.6c-1.5,0-2.8,1.2-2.8,2.8c0,1.5,1.2,2.8,2.8,2.8
	c1.5,0,2.8-1.2,2.8-2.8C113.4,229.9,112.1,228.6,110.6,228.6z M127.1,245.1c-1.5,0-2.8,1.2-2.8,2.8c0,1.5,1.2,2.8,2.8,2.8
	c1.5,0,2.8-1.2,2.8-2.8C129.8,246.3,128.6,245.1,127.1,245.1z M110.6,212.2c-1.5,0-2.8,1.2-2.8,2.8c0,1.5,1.2,2.8,2.8,2.8
	c1.5,0,2.8-1.2,2.8-2.8C113.4,213.4,112.1,212.2,110.6,212.2z M143.5,212.2c-1.5,0-2.8,1.2-2.8,2.8c0,1.5,1.2,2.8,2.8,2.8
	c1.5,0,2.8-1.2,2.8-2.8C146.3,213.4,145,212.2,143.5,212.2z M143.5,245.1c-1.5,0-2.8,1.2-2.8,2.8c0,1.5,1.2,2.8,2.8,2.8
	c1.5,0,2.8-1.2,2.8-2.8C146.3,246.3,145,245.1,143.5,245.1z M160,195.7c-1.5,0-2.8,1.2-2.8,2.8c0,1.5,1.2,2.8,2.8,2.8
	c1.5,0,2.8-1.2,2.8-2.8C162.7,197,161.5,195.7,160,195.7z M160,212.2c-1.5,0-2.8,1.2-2.8,2.8c0,1.5,1.2,2.8,2.8,2.8
	c1.5,0,2.8-1.2,2.8-2.8C162.7,213.4,161.5,212.2,160,212.2z M160,179.3c-1.5,0-2.8,1.2-2.8,2.8c0,1.5,1.2,2.8,2.8,2.8
	c1.5,0,2.8-1.2,2.8-2.8C162.7,180.5,161.5,179.3,160,179.3z M225.8,228.6c-1.5,0-2.8,1.2-2.8,2.8c0,1.5,1.2,2.8,2.8,2.8
	c1.5,0,2.8-1.2,2.8-2.8C228.5,229.9,227.3,228.6,225.8,228.6z M143.5,195.7c-1.5,0-2.8,1.2-2.8,2.8c0,1.5,1.2,2.8,2.8,2.8
	c1.5,0,2.8-1.2,2.8-2.8C146.3,197,145,195.7,143.5,195.7z M160,228.6c-1.5,0-2.8,1.2-2.8,2.8c0,1.5,1.2,2.8,2.8,2.8
	c1.5,0,2.8-1.2,2.8-2.8C162.7,229.9,161.5,228.6,160,228.6z M160,294.4c-1.5,0-2.8,1.2-2.8,2.8c0,1.5,1.2,2.8,2.8,2.8
	c1.5,0,2.8-1.2,2.8-2.8C162.7,295.7,161.5,294.4,160,294.4z M143.5,179.3c-1.5,0-2.8,1.2-2.8,2.8c0,1.5,1.2,2.8,2.8,2.8
	c1.5,0,2.8-1.2,2.8-2.8C146.3,180.5,145,179.3,143.5,179.3z M160,261.5c-1.5,0-2.8,1.2-2.8,2.8c0,1.5,1.2,2.8,2.8,2.8
	c1.5,0,2.8-1.2,2.8-2.8C162.7,262.8,161.5,261.5,160,261.5z M160,245.1c-1.5,0-2.8,1.2-2.8,2.8c0,1.5,1.2,2.8,2.8,2.8
	c1.5,0,2.8-1.2,2.8-2.8C162.7,246.3,161.5,245.1,160,245.1z M160,278c-1.5,0-2.8,1.2-2.8,2.8s1.2,2.8,2.8,2.8c1.5,0,2.8-1.2,2.8-2.8
	S161.5,278,160,278z M209.3,261.5c-1.5,0-2.8,1.2-2.8,2.8c0,1.5,1.2,2.8,2.8,2.8c1.5,0,2.8-1.2,2.8-2.8
	C212.1,262.8,210.8,261.5,209.3,261.5z M275.1,245.1c-1.5,0-2.8,1.2-2.8,2.8c0,1.5,1.2,2.8,2.8,2.8c1.5,0,2.8-1.2,2.8-2.8
	C277.9,246.3,276.6,245.1,275.1,245.1z M275.1,261.5c-1.5,0-2.8,1.2-2.8,2.8c0,1.5,1.2,2.8,2.8,2.8c1.5,0,2.8-1.2,2.8-2.8
	C277.9,262.8,276.6,261.5,275.1,261.5z M275.1,278c-1.5,0-2.8,1.2-2.8,2.8s1.2,2.8,2.8,2.8c1.5,0,2.8-1.2,2.8-2.8
	S276.6,278,275.1,278z M258.7,113.5c-1.5,0-2.8,1.2-2.8,2.8c0,1.5,1.2,2.8,2.8,2.8c1.5,0,2.8-1.2,2.8-2.8
	C261.4,114.7,260.2,113.5,258.7,113.5z M275.1,228.6c-1.5,0-2.8,1.2-2.8,2.8c0,1.5,1.2,2.8,2.8,2.8c1.5,0,2.8-1.2,2.8-2.8
	C277.9,229.9,276.6,228.6,275.1,228.6z M275.1,195.7c-1.5,0-2.8,1.2-2.8,2.8c0,1.5,1.2,2.8,2.8,2.8c1.5,0,2.8-1.2,2.8-2.8
	C277.9,197,276.6,195.7,275.1,195.7z M275.1,212.2c-1.5,0-2.8,1.2-2.8,2.8c0,1.5,1.2,2.8,2.8,2.8c1.5,0,2.8-1.2,2.8-2.8
	C277.9,213.4,276.6,212.2,275.1,212.2z M258.7,195.7c-1.5,0-2.8,1.2-2.8,2.8c0,1.5,1.2,2.8,2.8,2.8c1.5,0,2.8-1.2,2.8-2.8
	C261.4,197,260.2,195.7,258.7,195.7z M258.7,179.3c-1.5,0-2.8,1.2-2.8,2.8c0,1.5,1.2,2.8,2.8,2.8c1.5,0,2.8-1.2,2.8-2.8
	C261.4,180.5,260.2,179.3,258.7,179.3z M258.7,212.2c-1.5,0-2.8,1.2-2.8,2.8c0,1.5,1.2,2.8,2.8,2.8c1.5,0,2.8-1.2,2.8-2.8
	C261.4,213.4,260.2,212.2,258.7,212.2z M258.7,129.9c-1.5,0-2.8,1.2-2.8,2.8c0,1.5,1.2,2.8,2.8,2.8c1.5,0,2.8-1.2,2.8-2.8
	C261.4,131.2,260.2,129.9,258.7,129.9z M258.7,162.8c-1.5,0-2.8,1.2-2.8,2.8c0,1.5,1.2,2.8,2.8,2.8c1.5,0,2.8-1.2,2.8-2.8
	C261.4,164.1,260.2,162.8,258.7,162.8z M258.7,146.4c-1.5,0-2.8,1.2-2.8,2.8c0,1.5,1.2,2.8,2.8,2.8c1.5,0,2.8-1.2,2.8-2.8
	C261.4,147.6,260.2,146.4,258.7,146.4z M291.6,212.2c-1.5,0-2.8,1.2-2.8,2.8c0,1.5,1.2,2.8,2.8,2.8c1.5,0,2.8-1.2,2.8-2.8
	C294.3,213.4,293.1,212.2,291.6,212.2z M291.6,228.6c-1.5,0-2.8,1.2-2.8,2.8c0,1.5,1.2,2.8,2.8,2.8c1.5,0,2.8-1.2,2.8-2.8
	C294.3,229.9,293.1,228.6,291.6,228.6z M291.6,195.7c-1.5,0-2.8,1.2-2.8,2.8c0,1.5,1.2,2.8,2.8,2.8c1.5,0,2.8-1.2,2.8-2.8
	C294.3,197,293.1,195.7,291.6,195.7z M291.6,179.3c-1.5,0-2.8,1.2-2.8,2.8c0,1.5,1.2,2.8,2.8,2.8c1.5,0,2.8-1.2,2.8-2.8
	C294.3,180.5,293.1,179.3,291.6,179.3z M275.1,179.3c-1.5,0-2.8,1.2-2.8,2.8c0,1.5,1.2,2.8,2.8,2.8c1.5,0,2.8-1.2,2.8-2.8
	C277.9,180.5,276.6,179.3,275.1,179.3z M291.6,162.8c-1.5,0-2.8,1.2-2.8,2.8c0,1.5,1.2,2.8,2.8,2.8c1.5,0,2.8-1.2,2.8-2.8
	C294.3,164.1,293.1,162.8,291.6,162.8z M291.6,245.1c-1.5,0-2.8,1.2-2.8,2.8c0,1.5,1.2,2.8,2.8,2.8c1.5,0,2.8-1.2,2.8-2.8
	C294.3,246.3,293.1,245.1,291.6,245.1z M275.1,162.8c-1.5,0-2.8,1.2-2.8,2.8c0,1.5,1.2,2.8,2.8,2.8c1.5,0,2.8-1.2,2.8-2.8
	C277.9,164.1,276.6,162.8,275.1,162.8z M275.1,146.4c-1.5,0-2.8,1.2-2.8,2.8c0,1.5,1.2,2.8,2.8,2.8c1.5,0,2.8-1.2,2.8-2.8
	C277.9,147.6,276.6,146.4,275.1,146.4z M291.6,261.5c-1.5,0-2.8,1.2-2.8,2.8c0,1.5,1.2,2.8,2.8,2.8c1.5,0,2.8-1.2,2.8-2.8
	C294.3,262.8,293.1,261.5,291.6,261.5z M275.1,129.9c-1.5,0-2.8,1.2-2.8,2.8c0,1.5,1.2,2.8,2.8,2.8c1.5,0,2.8-1.2,2.8-2.8
	C277.9,131.2,276.6,129.9,275.1,129.9z M258.7,261.5c-1.5,0-2.8,1.2-2.8,2.8c0,1.5,1.2,2.8,2.8,2.8c1.5,0,2.8-1.2,2.8-2.8
	C261.4,262.8,260.2,261.5,258.7,261.5z M225.8,113.5c-1.5,0-2.8,1.2-2.8,2.8c0,1.5,1.2,2.8,2.8,2.8c1.5,0,2.8-1.2,2.8-2.8
	C228.5,114.7,227.3,113.5,225.8,113.5z M242.2,294.4c-1.5,0-2.8,1.2-2.8,2.8c0,1.5,1.2,2.8,2.8,2.8c1.5,0,2.8-1.2,2.8-2.8
	C245,295.7,243.7,294.4,242.2,294.4z M258.7,228.6c-1.5,0-2.8,1.2-2.8,2.8c0,1.5,1.2,2.8,2.8,2.8c1.5,0,2.8-1.2,2.8-2.8
	C261.4,229.9,260.2,228.6,258.7,228.6z M242.2,261.5c-1.5,0-2.8,1.2-2.8,2.8c0,1.5,1.2,2.8,2.8,2.8c1.5,0,2.8-1.2,2.8-2.8
	C245,262.8,243.7,261.5,242.2,261.5z M242.2,228.6c-1.5,0-2.8,1.2-2.8,2.8c0,1.5,1.2,2.8,2.8,2.8c1.5,0,2.8-1.2,2.8-2.8
	C245,229.9,243.7,228.6,242.2,228.6z M242.2,245.1c-1.5,0-2.8,1.2-2.8,2.8c0,1.5,1.2,2.8,2.8,2.8c1.5,0,2.8-1.2,2.8-2.8
	C245,246.3,243.7,245.1,242.2,245.1z M225.8,179.3c-1.5,0-2.8,1.2-2.8,2.8c0,1.5,1.2,2.8,2.8,2.8c1.5,0,2.8-1.2,2.8-2.8
	C228.5,180.5,227.3,179.3,225.8,179.3z M225.8,129.9c-1.5,0-2.8,1.2-2.8,2.8c0,1.5,1.2,2.8,2.8,2.8c1.5,0,2.8-1.2,2.8-2.8
	C228.5,131.2,227.3,129.9,225.8,129.9z M225.8,195.7c-1.5,0-2.8,1.2-2.8,2.8c0,1.5,1.2,2.8,2.8,2.8c1.5,0,2.8-1.2,2.8-2.8
	C228.5,197,227.3,195.7,225.8,195.7z M225.8,146.4c-1.5,0-2.8,1.2-2.8,2.8c0,1.5,1.2,2.8,2.8,2.8c1.5,0,2.8-1.2,2.8-2.8
	C228.5,147.6,227.3,146.4,225.8,146.4z M225.8,162.8c-1.5,0-2.8,1.2-2.8,2.8c0,1.5,1.2,2.8,2.8,2.8c1.5,0,2.8-1.2,2.8-2.8
	C228.5,164.1,227.3,162.8,225.8,162.8z M242.2,278c-1.5,0-2.8,1.2-2.8,2.8s1.2,2.8,2.8,2.8c1.5,0,2.8-1.2,2.8-2.8
	S243.7,278,242.2,278z M258.7,294.4c-1.5,0-2.8,1.2-2.8,2.8c0,1.5,1.2,2.8,2.8,2.8c1.5,0,2.8-1.2,2.8-2.8
	C261.4,295.7,260.2,294.4,258.7,294.4z M258.7,278c-1.5,0-2.8,1.2-2.8,2.8s1.2,2.8,2.8,2.8c1.5,0,2.8-1.2,2.8-2.8
	S260.2,278,258.7,278z M225.8,212.2c-1.5,0-2.8,1.2-2.8,2.8c0,1.5,1.2,2.8,2.8,2.8c1.5,0,2.8-1.2,2.8-2.8
	C228.5,213.4,227.3,212.2,225.8,212.2z M242.2,113.5c-1.5,0-2.8,1.2-2.8,2.8c0,1.5,1.2,2.8,2.8,2.8c1.5,0,2.8-1.2,2.8-2.8
	C245,114.7,243.7,113.5,242.2,113.5z M242.2,212.2c-1.5,0-2.8,1.2-2.8,2.8c0,1.5,1.2,2.8,2.8,2.8c1.5,0,2.8-1.2,2.8-2.8
	C245,213.4,243.7,212.2,242.2,212.2z M258.7,245.1c-1.5,0-2.8,1.2-2.8,2.8c0,1.5,1.2,2.8,2.8,2.8c1.5,0,2.8-1.2,2.8-2.8
	C261.4,246.3,260.2,245.1,258.7,245.1z M242.2,129.9c-1.5,0-2.8,1.2-2.8,2.8c0,1.5,1.2,2.8,2.8,2.8c1.5,0,2.8-1.2,2.8-2.8
	C245,131.2,243.7,129.9,242.2,129.9z M242.2,195.7c-1.5,0-2.8,1.2-2.8,2.8c0,1.5,1.2,2.8,2.8,2.8c1.5,0,2.8-1.2,2.8-2.8
	C245,197,243.7,195.7,242.2,195.7z M242.2,179.3c-1.5,0-2.8,1.2-2.8,2.8c0,1.5,1.2,2.8,2.8,2.8c1.5,0,2.8-1.2,2.8-2.8
	C245,180.5,243.7,179.3,242.2,179.3z M242.2,162.8c-1.5,0-2.8,1.2-2.8,2.8c0,1.5,1.2,2.8,2.8,2.8c1.5,0,2.8-1.2,2.8-2.8
	C245,164.1,243.7,162.8,242.2,162.8z M242.2,146.4c-1.5,0-2.8,1.2-2.8,2.8c0,1.5,1.2,2.8,2.8,2.8c1.5,0,2.8-1.2,2.8-2.8
	C245,147.6,243.7,146.4,242.2,146.4z"/>
</svg>
