<?xml version="1.0" encoding="utf-8"?>
<!-- Generator: Adobe Illustrator 21.1.0, SVG Export Plug-In . SVG Version: 6.00 Build 0)  -->
<svg version="1.1" id="Ebene_1" xmlns="http://www.w3.org/2000/svg" xmlns:xlink="http://www.w3.org/1999/xlink" x="0px" y="0px"
	 viewBox="0 0 317.3 317.3" style="enable-background:new 0 0 317.3 317.3;" xml:space="preserve">
<style type="text/css">
	.st0{fill:url(#SVGID_1_);}
</style>
<linearGradient id="SVGID_1_" gradientUnits="userSpaceOnUse" x1="46.5793" y1="305.8257" x2="318.6745" y2="33.7305">
	<stop  offset="0.5019" style="stop-color:#5A3795"/>
	<stop  offset="1" style="stop-color:#2E60AD"/>
</linearGradient>
<path class="st0" d="M94.5,255c-1.7,0-3.1,1.4-3.1,3.1s1.4,3.1,3.1,3.1c1.7,0,3.1-1.4,3.1-3.1S96.2,255,94.5,255z M76.3,236.7
	c-1.7,0-3.1,1.4-3.1,3.1c0,1.7,1.4,3.1,3.1,3.1c1.7,0,3.1-1.4,3.1-3.1C79.3,238.1,78,236.7,76.3,236.7z M76.3,218.4
	c-1.7,0-3.1,1.4-3.1,3.1c0,1.7,1.4,3.1,3.1,3.1c1.7,0,3.1-1.4,3.1-3.1C79.3,219.8,78,218.4,76.3,218.4z M58,218.4
	c-1.7,0-3.1,1.4-3.1,3.1c0,1.7,1.4,3.1,3.1,3.1c1.7,0,3.1-1.4,3.1-3.1C61.1,219.8,59.7,218.4,58,218.4z M76.3,255
	c-1.7,0-3.1,1.4-3.1,3.1s1.4,3.1,3.1,3.1c1.7,0,3.1-1.4,3.1-3.1S78,255,76.3,255z M76.3,273.3c-1.7,0-3.1,1.4-3.1,3.1
	c0,1.7,1.4,3.1,3.1,3.1c1.7,0,3.1-1.4,3.1-3.1C79.3,274.6,78,273.3,76.3,273.3z M58,200.2c-1.7,0-3.1,1.4-3.1,3.1
	c0,1.7,1.4,3.1,3.1,3.1c1.7,0,3.1-1.4,3.1-3.1C61.1,201.5,59.7,200.2,58,200.2z M58,163.6c-1.7,0-3.1,1.4-3.1,3.1
	c0,1.7,1.4,3.1,3.1,3.1c1.7,0,3.1-1.4,3.1-3.1C61.1,165,59.7,163.6,58,163.6z M76.3,200.2c-1.7,0-3.1,1.4-3.1,3.1
	c0,1.7,1.4,3.1,3.1,3.1c1.7,0,3.1-1.4,3.1-3.1C79.3,201.5,78,200.2,76.3,200.2z M112.8,163.6c-1.7,0-3.1,1.4-3.1,3.1
	c0,1.7,1.4,3.1,3.1,3.1s3.1-1.4,3.1-3.1C115.9,165,114.5,163.6,112.8,163.6z M94.5,236.7c-1.7,0-3.1,1.4-3.1,3.1
	c0,1.7,1.4,3.1,3.1,3.1c1.7,0,3.1-1.4,3.1-3.1C97.6,238.1,96.2,236.7,94.5,236.7z M112.8,200.2c-1.7,0-3.1,1.4-3.1,3.1
	c0,1.7,1.4,3.1,3.1,3.1s3.1-1.4,3.1-3.1C115.9,201.5,114.5,200.2,112.8,200.2z M131.1,255c-1.7,0-3.1,1.4-3.1,3.1s1.4,3.1,3.1,3.1
	c1.7,0,3.1-1.4,3.1-3.1S132.8,255,131.1,255z M112.8,181.9c-1.7,0-3.1,1.4-3.1,3.1c0,1.7,1.4,3.1,3.1,3.1s3.1-1.4,3.1-3.1
	C115.9,183.3,114.5,181.9,112.8,181.9z M94.5,200.2c-1.7,0-3.1,1.4-3.1,3.1c0,1.7,1.4,3.1,3.1,3.1c1.7,0,3.1-1.4,3.1-3.1
	C97.6,201.5,96.2,200.2,94.5,200.2z M112.8,218.4c-1.7,0-3.1,1.4-3.1,3.1c0,1.7,1.4,3.1,3.1,3.1s3.1-1.4,3.1-3.1
	C115.9,219.8,114.5,218.4,112.8,218.4z M94.5,218.4c-1.7,0-3.1,1.4-3.1,3.1c0,1.7,1.4,3.1,3.1,3.1c1.7,0,3.1-1.4,3.1-3.1
	C97.6,219.8,96.2,218.4,94.5,218.4z M112.8,236.7c-1.7,0-3.1,1.4-3.1,3.1c0,1.7,1.4,3.1,3.1,3.1s3.1-1.4,3.1-3.1
	C115.9,238.1,114.5,236.7,112.8,236.7z M58,236.7c-1.7,0-3.1,1.4-3.1,3.1c0,1.7,1.4,3.1,3.1,3.1c1.7,0,3.1-1.4,3.1-3.1
	C61.1,238.1,59.7,236.7,58,236.7z M39.7,291.5c-1.7,0-3.1,1.4-3.1,3.1s1.4,3.1,3.1,3.1c1.7,0,3.1-1.4,3.1-3.1S41.4,291.5,39.7,291.5
	z M21.4,181.9c-1.7,0-3.1,1.4-3.1,3.1c0,1.7,1.4,3.1,3.1,3.1c1.7,0,3.1-1.4,3.1-3.1C24.5,183.3,23.1,181.9,21.4,181.9z M39.7,255
	c-1.7,0-3.1,1.4-3.1,3.1s1.4,3.1,3.1,3.1c1.7,0,3.1-1.4,3.1-3.1S41.4,255,39.7,255z M39.7,273.3c-1.7,0-3.1,1.4-3.1,3.1
	c0,1.7,1.4,3.1,3.1,3.1c1.7,0,3.1-1.4,3.1-3.1C42.8,274.6,41.4,273.3,39.7,273.3z M131.1,236.7c-1.7,0-3.1,1.4-3.1,3.1
	c0,1.7,1.4,3.1,3.1,3.1c1.7,0,3.1-1.4,3.1-3.1C134.2,238.1,132.8,236.7,131.1,236.7z M21.4,218.4c-1.7,0-3.1,1.4-3.1,3.1
	c0,1.7,1.4,3.1,3.1,3.1c1.7,0,3.1-1.4,3.1-3.1C24.5,219.8,23.1,218.4,21.4,218.4z M3.2,181.9c-1.7,0-3.1,1.4-3.1,3.1
	c0,1.7,1.4,3.1,3.1,3.1s3.1-1.4,3.1-3.1C6.2,183.3,4.9,181.9,3.2,181.9z M3.2,200.2c-1.7,0-3.1,1.4-3.1,3.1c0,1.7,1.4,3.1,3.1,3.1
	s3.1-1.4,3.1-3.1C6.2,201.5,4.9,200.2,3.2,200.2z M21.4,273.3c-1.7,0-3.1,1.4-3.1,3.1c0,1.7,1.4,3.1,3.1,3.1c1.7,0,3.1-1.4,3.1-3.1
	C24.5,274.6,23.1,273.3,21.4,273.3z M21.4,200.2c-1.7,0-3.1,1.4-3.1,3.1c0,1.7,1.4,3.1,3.1,3.1c1.7,0,3.1-1.4,3.1-3.1
	C24.5,201.5,23.1,200.2,21.4,200.2z M58,291.5c-1.7,0-3.1,1.4-3.1,3.1s1.4,3.1,3.1,3.1c1.7,0,3.1-1.4,3.1-3.1S59.7,291.5,58,291.5z
	 M39.7,163.6c-1.7,0-3.1,1.4-3.1,3.1c0,1.7,1.4,3.1,3.1,3.1c1.7,0,3.1-1.4,3.1-3.1C42.8,165,41.4,163.6,39.7,163.6z M39.7,236.7
	c-1.7,0-3.1,1.4-3.1,3.1c0,1.7,1.4,3.1,3.1,3.1c1.7,0,3.1-1.4,3.1-3.1C42.8,238.1,41.4,236.7,39.7,236.7z M58,255
	c-1.7,0-3.1,1.4-3.1,3.1s1.4,3.1,3.1,3.1c1.7,0,3.1-1.4,3.1-3.1S59.7,255,58,255z M58,273.3c-1.7,0-3.1,1.4-3.1,3.1
	c0,1.7,1.4,3.1,3.1,3.1c1.7,0,3.1-1.4,3.1-3.1C61.1,274.6,59.7,273.3,58,273.3z M39.7,218.4c-1.7,0-3.1,1.4-3.1,3.1
	c0,1.7,1.4,3.1,3.1,3.1c1.7,0,3.1-1.4,3.1-3.1C42.8,219.8,41.4,218.4,39.7,218.4z M39.7,200.2c-1.7,0-3.1,1.4-3.1,3.1
	c0,1.7,1.4,3.1,3.1,3.1c1.7,0,3.1-1.4,3.1-3.1C42.8,201.5,41.4,200.2,39.7,200.2z M39.7,181.9c-1.7,0-3.1,1.4-3.1,3.1
	c0,1.7,1.4,3.1,3.1,3.1c1.7,0,3.1-1.4,3.1-3.1C42.8,183.3,41.4,181.9,39.7,181.9z M58,181.9c-1.7,0-3.1,1.4-3.1,3.1
	c0,1.7,1.4,3.1,3.1,3.1c1.7,0,3.1-1.4,3.1-3.1C61.1,183.3,59.7,181.9,58,181.9z M185.9,145.3c-1.7,0-3.1,1.4-3.1,3.1
	c0,1.7,1.4,3.1,3.1,3.1c1.7,0,3.1-1.4,3.1-3.1C189,146.7,187.6,145.3,185.9,145.3z M204.2,291.5c-1.7,0-3.1,1.4-3.1,3.1
	s1.4,3.1,3.1,3.1c1.7,0,3.1-1.4,3.1-3.1S205.9,291.5,204.2,291.5z M185.9,181.9c-1.7,0-3.1,1.4-3.1,3.1c0,1.7,1.4,3.1,3.1,3.1
	c1.7,0,3.1-1.4,3.1-3.1C189,183.3,187.6,181.9,185.9,181.9z M185.9,127.1c-1.7,0-3.1,1.4-3.1,3.1c0,1.7,1.4,3.1,3.1,3.1
	c1.7,0,3.1-1.4,3.1-3.1C189,128.4,187.6,127.1,185.9,127.1z M185.9,163.6c-1.7,0-3.1,1.4-3.1,3.1c0,1.7,1.4,3.1,3.1,3.1
	c1.7,0,3.1-1.4,3.1-3.1C189,165,187.6,163.6,185.9,163.6z M185.9,236.7c-1.7,0-3.1,1.4-3.1,3.1c0,1.7,1.4,3.1,3.1,3.1
	c1.7,0,3.1-1.4,3.1-3.1C189,238.1,187.6,236.7,185.9,236.7z M185.9,255c-1.7,0-3.1,1.4-3.1,3.1s1.4,3.1,3.1,3.1
	c1.7,0,3.1-1.4,3.1-3.1S187.6,255,185.9,255z M185.9,218.4c-1.7,0-3.1,1.4-3.1,3.1c0,1.7,1.4,3.1,3.1,3.1c1.7,0,3.1-1.4,3.1-3.1
	C189,219.8,187.6,218.4,185.9,218.4z M185.9,200.2c-1.7,0-3.1,1.4-3.1,3.1c0,1.7,1.4,3.1,3.1,3.1c1.7,0,3.1-1.4,3.1-3.1
	C189,201.5,187.6,200.2,185.9,200.2z M204.2,200.2c-1.7,0-3.1,1.4-3.1,3.1c0,1.7,1.4,3.1,3.1,3.1c1.7,0,3.1-1.4,3.1-3.1
	C207.2,201.5,205.9,200.2,204.2,200.2z M222.4,218.4c-1.7,0-3.1,1.4-3.1,3.1c0,1.7,1.4,3.1,3.1,3.1c1.7,0,3.1-1.4,3.1-3.1
	C225.5,219.8,224.1,218.4,222.4,218.4z M222.4,273.3c-1.7,0-3.1,1.4-3.1,3.1c0,1.7,1.4,3.1,3.1,3.1c1.7,0,3.1-1.4,3.1-3.1
	C225.5,274.6,224.1,273.3,222.4,273.3z M222.4,200.2c-1.7,0-3.1,1.4-3.1,3.1c0,1.7,1.4,3.1,3.1,3.1c1.7,0,3.1-1.4,3.1-3.1
	C225.5,201.5,224.1,200.2,222.4,200.2z M204.2,273.3c-1.7,0-3.1,1.4-3.1,3.1c0,1.7,1.4,3.1,3.1,3.1c1.7,0,3.1-1.4,3.1-3.1
	C207.2,274.6,205.9,273.3,204.2,273.3z M295.7,173.2c-30.4,0-55.2-24.8-55.2-55.2s24.8-55.2,55.2-55.2c11.9,0,21.6-9.7,21.6-21.6
	s-9.7-21.6-21.6-21.6c-54.3,0-98.4,44.1-98.4,98.4s44.1,98.4,98.4,98.4c11.9,0,21.6-9.7,21.6-21.6
	C317.3,182.9,307.6,173.2,295.7,173.2z M204.2,236.7c-1.7,0-3.1,1.4-3.1,3.1c0,1.7,1.4,3.1,3.1,3.1c1.7,0,3.1-1.4,3.1-3.1
	C207.2,238.1,205.9,236.7,204.2,236.7z M185.9,273.3c-1.7,0-3.1,1.4-3.1,3.1c0,1.7,1.4,3.1,3.1,3.1c1.7,0,3.1-1.4,3.1-3.1
	C189,274.6,187.6,273.3,185.9,273.3z M204.2,255c-1.7,0-3.1,1.4-3.1,3.1s1.4,3.1,3.1,3.1c1.7,0,3.1-1.4,3.1-3.1S205.9,255,204.2,255
	z M131.1,218.4c-1.7,0-3.1,1.4-3.1,3.1c0,1.7,1.4,3.1,3.1,3.1c1.7,0,3.1-1.4,3.1-3.1C134.2,219.8,132.8,218.4,131.1,218.4z
	 M204.2,218.4c-1.7,0-3.1,1.4-3.1,3.1c0,1.7,1.4,3.1,3.1,3.1c1.7,0,3.1-1.4,3.1-3.1C207.2,219.8,205.9,218.4,204.2,218.4z
	 M149.3,236.7c-1.7,0-3.1,1.4-3.1,3.1c0,1.7,1.4,3.1,3.1,3.1c1.7,0,3.1-1.4,3.1-3.1C152.4,238.1,151,236.7,149.3,236.7z
	 M149.3,218.4c-1.7,0-3.1,1.4-3.1,3.1c0,1.7,1.4,3.1,3.1,3.1c1.7,0,3.1-1.4,3.1-3.1C152.4,219.8,151,218.4,149.3,218.4z
	 M149.3,200.2c-1.7,0-3.1,1.4-3.1,3.1c0,1.7,1.4,3.1,3.1,3.1c1.7,0,3.1-1.4,3.1-3.1C152.4,201.5,151,200.2,149.3,200.2z
	 M149.3,181.9c-1.7,0-3.1,1.4-3.1,3.1c0,1.7,1.4,3.1,3.1,3.1c1.7,0,3.1-1.4,3.1-3.1C152.4,183.3,151,181.9,149.3,181.9z
	 M131.1,181.9c-1.7,0-3.1,1.4-3.1,3.1c0,1.7,1.4,3.1,3.1,3.1c1.7,0,3.1-1.4,3.1-3.1C134.2,183.3,132.8,181.9,131.1,181.9z
	 M131.1,200.2c-1.7,0-3.1,1.4-3.1,3.1c0,1.7,1.4,3.1,3.1,3.1c1.7,0,3.1-1.4,3.1-3.1C134.2,201.5,132.8,200.2,131.1,200.2z
	 M149.3,163.6c-1.7,0-3.1,1.4-3.1,3.1c0,1.7,1.4,3.1,3.1,3.1c1.7,0,3.1-1.4,3.1-3.1C152.4,165,151,163.6,149.3,163.6z M131.1,163.6
	c-1.7,0-3.1,1.4-3.1,3.1c0,1.7,1.4,3.1,3.1,3.1c1.7,0,3.1-1.4,3.1-3.1C134.2,165,132.8,163.6,131.1,163.6z M149.3,255
	c-1.7,0-3.1,1.4-3.1,3.1s1.4,3.1,3.1,3.1c1.7,0,3.1-1.4,3.1-3.1S151,255,149.3,255z M167.6,181.9c-1.7,0-3.1,1.4-3.1,3.1
	c0,1.7,1.4,3.1,3.1,3.1c1.7,0,3.1-1.4,3.1-3.1C170.7,183.3,169.3,181.9,167.6,181.9z M167.6,200.2c-1.7,0-3.1,1.4-3.1,3.1
	c0,1.7,1.4,3.1,3.1,3.1c1.7,0,3.1-1.4,3.1-3.1C170.7,201.5,169.3,200.2,167.6,200.2z M167.6,163.6c-1.7,0-3.1,1.4-3.1,3.1
	c0,1.7,1.4,3.1,3.1,3.1c1.7,0,3.1-1.4,3.1-3.1C170.7,165,169.3,163.6,167.6,163.6z M185.9,291.5c-1.7,0-3.1,1.4-3.1,3.1
	s1.4,3.1,3.1,3.1c1.7,0,3.1-1.4,3.1-3.1S187.6,291.5,185.9,291.5z M167.6,273.3c-1.7,0-3.1,1.4-3.1,3.1c0,1.7,1.4,3.1,3.1,3.1
	c1.7,0,3.1-1.4,3.1-3.1C170.7,274.6,169.3,273.3,167.6,273.3z M167.6,145.3c-1.7,0-3.1,1.4-3.1,3.1c0,1.7,1.4,3.1,3.1,3.1
	c1.7,0,3.1-1.4,3.1-3.1C170.7,146.7,169.3,145.3,167.6,145.3z M167.6,255c-1.7,0-3.1,1.4-3.1,3.1s1.4,3.1,3.1,3.1
	c1.7,0,3.1-1.4,3.1-3.1S169.3,255,167.6,255z M167.6,218.4c-1.7,0-3.1,1.4-3.1,3.1c0,1.7,1.4,3.1,3.1,3.1c1.7,0,3.1-1.4,3.1-3.1
	C170.7,219.8,169.3,218.4,167.6,218.4z M167.6,236.7c-1.7,0-3.1,1.4-3.1,3.1c0,1.7,1.4,3.1,3.1,3.1c1.7,0,3.1-1.4,3.1-3.1
	C170.7,238.1,169.3,236.7,167.6,236.7z"/>
</svg>
