<?xml version="1.0" encoding="utf-8"?>
<!-- Generator: Adobe Illustrator 21.1.0, SVG Export Plug-In . SVG Version: 6.00 Build 0)  -->
<svg version="1.1" id="Ebene_1" xmlns="http://www.w3.org/2000/svg" xmlns:xlink="http://www.w3.org/1999/xlink" x="0px" y="0px"
	 viewBox="0 0 317.3 317.3" style="enable-background:new 0 0 317.3 317.3;" xml:space="preserve">
<style type="text/css">
	.st0{fill:url(#SVGID_1_);}
	.st1{fill:#323232;}
</style>
<g>
	<linearGradient id="SVGID_1_" gradientUnits="userSpaceOnUse" x1="137.1019" y1="286.2178" x2="284.2884" y2="139.0313">
		<stop  offset="0.5019" style="stop-color:#5A3795"/>
		<stop  offset="1" style="stop-color:#2E60AD"/>
	</linearGradient>
	<path class="st0" d="M210.7,316.8c-57.4,0-104.1-46.7-104.1-104.1s46.7-104.1,104.1-104.1s104.1,46.7,104.1,104.1
		S268.1,316.8,210.7,316.8z M210.7,154.2c-32.2,0-58.4,26.2-58.4,58.4s26.2,58.4,58.4,58.4s58.4-26.2,58.4-58.4
		S242.9,154.2,210.7,154.2z"/>
	<g>
		<path class="st1" d="M25.2,65.3c1.8,0,3.3-1.5,3.3-3.3c0-1.8-1.5-3.3-3.3-3.3c-1.8,0-3.3,1.5-3.3,3.3
			C21.9,63.8,23.4,65.3,25.2,65.3"/>
		<path class="st1" d="M25.2,84.7c1.8,0,3.3-1.5,3.3-3.3c0-1.8-1.5-3.3-3.3-3.3c-1.8,0-3.3,1.5-3.3,3.3
			C21.9,83.2,23.4,84.7,25.2,84.7"/>
		<path class="st1" d="M25.2,104.1c1.8,0,3.3-1.5,3.3-3.3c0-1.8-1.5-3.3-3.3-3.3c-1.8,0-3.3,1.5-3.3,3.3
			C21.9,102.6,23.4,104.1,25.2,104.1"/>
		<path class="st1" d="M25.2,123.5c1.8,0,3.3-1.5,3.3-3.3c0-1.8-1.5-3.3-3.3-3.3c-1.8,0-3.3,1.5-3.3,3.3
			C21.9,122,23.4,123.5,25.2,123.5"/>
		<path class="st1" d="M44.6,65.3c1.8,0,3.3-1.5,3.3-3.3c0-1.8-1.5-3.3-3.3-3.3s-3.3,1.5-3.3,3.3C41.3,63.8,42.8,65.3,44.6,65.3"/>
		<path class="st1" d="M44.6,84.7c1.8,0,3.3-1.5,3.3-3.3c0-1.8-1.5-3.3-3.3-3.3s-3.3,1.5-3.3,3.3C41.3,83.2,42.8,84.7,44.6,84.7"/>
		<path class="st1" d="M44.6,104.1c1.8,0,3.3-1.5,3.3-3.3c0-1.8-1.5-3.3-3.3-3.3s-3.3,1.5-3.3,3.3C41.3,102.6,42.8,104.1,44.6,104.1
			"/>
		<path class="st1" d="M44.6,123.5c1.8,0,3.3-1.5,3.3-3.3c0-1.8-1.5-3.3-3.3-3.3s-3.3,1.5-3.3,3.3C41.3,122,42.8,123.5,44.6,123.5"
			/>
		<path class="st1" d="M44.6,142.9c1.8,0,3.3-1.5,3.3-3.3c0-1.8-1.5-3.3-3.3-3.3s-3.3,1.5-3.3,3.3C41.3,141.4,42.8,142.9,44.6,142.9
			"/>
		<path class="st1" d="M64,7.1c1.8,0,3.3-1.5,3.3-3.3c0-1.8-1.5-3.3-3.3-3.3c-1.8,0-3.3,1.5-3.3,3.3C60.7,5.6,62.2,7.1,64,7.1"/>
		<path class="st1" d="M64,26.5c1.8,0,3.3-1.5,3.3-3.3S65.8,20,64,20c-1.8,0-3.3,1.5-3.3,3.3S62.2,26.5,64,26.5"/>
		<path class="st1" d="M64,45.9c1.8,0,3.3-1.5,3.3-3.3c0-1.8-1.5-3.3-3.3-3.3c-1.8,0-3.3,1.5-3.3,3.3C60.7,44.4,62.2,45.9,64,45.9"
			/>
		<path class="st1" d="M64,65.3c1.8,0,3.3-1.5,3.3-3.3c0-1.8-1.5-3.3-3.3-3.3c-1.8,0-3.3,1.5-3.3,3.3C60.7,63.8,62.2,65.3,64,65.3"
			/>
		<path class="st1" d="M64,84.7c1.8,0,3.3-1.5,3.3-3.3c0-1.8-1.5-3.3-3.3-3.3c-1.8,0-3.3,1.5-3.3,3.3C60.7,83.2,62.2,84.7,64,84.7"
			/>
		<path class="st1" d="M64,104.1c1.8,0,3.3-1.5,3.3-3.3c0-1.8-1.5-3.3-3.3-3.3c-1.8,0-3.3,1.5-3.3,3.3
			C60.7,102.6,62.2,104.1,64,104.1"/>
		<path class="st1" d="M64,123.5c1.8,0,3.3-1.5,3.3-3.3c0-1.8-1.5-3.3-3.3-3.3c-1.8,0-3.3,1.5-3.3,3.3C60.7,122,62.2,123.5,64,123.5
			"/>
		<path class="st1" d="M64,142.9c1.8,0,3.3-1.5,3.3-3.3c0-1.8-1.5-3.3-3.3-3.3c-1.8,0-3.3,1.5-3.3,3.3
			C60.7,141.4,62.2,142.9,64,142.9"/>
		<path class="st1" d="M44.6,7.1c1.8,0,3.3-1.5,3.3-3.3c0-1.8-1.5-3.3-3.3-3.3c-1.8,0-3.3,1.5-3.3,3.3C41.3,5.6,42.8,7.1,44.6,7.1"
			/>
		<path class="st1" d="M44.6,26.5c1.8,0,3.3-1.5,3.3-3.3S46.4,20,44.6,20c-1.8,0-3.3,1.5-3.3,3.3S42.8,26.5,44.6,26.5"/>
		<path class="st1" d="M44.6,45.9c1.8,0,3.3-1.5,3.3-3.3c0-1.8-1.5-3.3-3.3-3.3c-1.8,0-3.3,1.5-3.3,3.3
			C41.3,44.4,42.8,45.9,44.6,45.9"/>
		<path class="st1" d="M25.2,26.5c1.8,0,3.3-1.5,3.3-3.3S27,20,25.2,20c-1.8,0-3.3,1.5-3.3,3.3S23.4,26.5,25.2,26.5"/>
		<path class="st1" d="M25.2,45.9c1.8,0,3.3-1.5,3.3-3.3c0-1.8-1.5-3.3-3.3-3.3c-1.8,0-3.3,1.5-3.3,3.3
			C21.9,44.4,23.4,45.9,25.2,45.9"/>
		<path class="st1" d="M5.8,65.3C7.6,65.3,9,63.8,9,62c0-1.8-1.5-3.3-3.3-3.3c-1.8,0-3.3,1.5-3.3,3.3C2.5,63.8,4,65.3,5.8,65.3"/>
		<path class="st1" d="M5.8,26.5C7.6,26.5,9,25,9,23.2S7.6,20,5.8,20c-1.8,0-3.3,1.5-3.3,3.3S4,26.5,5.8,26.5"/>
		<path class="st1" d="M5.8,45.9c1.8,0,3.3-1.5,3.3-3.3c0-1.8-1.5-3.3-3.3-3.3c-1.8,0-3.3,1.5-3.3,3.3C2.5,44.4,4,45.9,5.8,45.9"/>
		<path class="st1" d="M83.3,7.1c1.8,0,3.3-1.5,3.3-3.3c0-1.8-1.5-3.3-3.3-3.3c-1.8,0-3.3,1.5-3.3,3.3C80.1,5.6,81.5,7.1,83.3,7.1"
			/>
		<path class="st1" d="M83.3,26.5c1.8,0,3.3-1.5,3.3-3.3S85.1,20,83.3,20c-1.8,0-3.3,1.5-3.3,3.3S81.5,26.5,83.3,26.5"/>
		<path class="st1" d="M83.3,45.9c1.8,0,3.3-1.5,3.3-3.3c0-1.8-1.5-3.3-3.3-3.3c-1.8,0-3.3,1.5-3.3,3.3
			C80.1,44.4,81.5,45.9,83.3,45.9"/>
		<path class="st1" d="M83.3,65.3c1.8,0,3.3-1.5,3.3-3.3c0-1.8-1.5-3.3-3.3-3.3c-1.8,0-3.3,1.5-3.3,3.3
			C80.1,63.8,81.5,65.3,83.3,65.3"/>
		<path class="st1" d="M83.3,84.7c1.8,0,3.3-1.5,3.3-3.3c0-1.8-1.5-3.3-3.3-3.3c-1.8,0-3.3,1.5-3.3,3.3
			C80.1,83.2,81.5,84.7,83.3,84.7"/>
		<path class="st1" d="M83.3,104.1c1.8,0,3.3-1.5,3.3-3.3c0-1.8-1.5-3.3-3.3-3.3c-1.8,0-3.3,1.5-3.3,3.3
			C80.1,102.6,81.5,104.1,83.3,104.1"/>
		<path class="st1" d="M83.3,123.5c1.8,0,3.3-1.5,3.3-3.3c0-1.8-1.5-3.3-3.3-3.3c-1.8,0-3.3,1.5-3.3,3.3
			C80.1,122,81.5,123.5,83.3,123.5"/>
		<path class="st1" d="M102.7,7.1c1.8,0,3.3-1.5,3.3-3.3c0-1.8-1.5-3.3-3.3-3.3c-1.8,0-3.3,1.5-3.3,3.3
			C99.5,5.6,100.9,7.1,102.7,7.1"/>
		<path class="st1" d="M102.7,26.5c1.8,0,3.3-1.5,3.3-3.3s-1.5-3.3-3.3-3.3c-1.8,0-3.3,1.5-3.3,3.3S100.9,26.5,102.7,26.5"/>
		<path class="st1" d="M102.7,45.9c1.8,0,3.3-1.5,3.3-3.3c0-1.8-1.5-3.3-3.3-3.3c-1.8,0-3.3,1.5-3.3,3.3
			C99.5,44.4,100.9,45.9,102.7,45.9"/>
		<path class="st1" d="M102.7,65.3c1.8,0,3.3-1.5,3.3-3.3c0-1.8-1.5-3.3-3.3-3.3c-1.8,0-3.3,1.5-3.3,3.3
			C99.5,63.8,100.9,65.3,102.7,65.3"/>
		<path class="st1" d="M102.7,84.7c1.8,0,3.3-1.5,3.3-3.3c0-1.8-1.5-3.3-3.3-3.3c-1.8,0-3.3,1.5-3.3,3.3
			C99.5,83.2,100.9,84.7,102.7,84.7"/>
		<path class="st1" d="M102.7,104.1c1.8,0,3.3-1.5,3.3-3.3c0-1.8-1.5-3.3-3.3-3.3c-1.8,0-3.3,1.5-3.3,3.3
			C99.5,102.6,100.9,104.1,102.7,104.1"/>
		<path class="st1" d="M102.7,123.5c1.8,0,3.3-1.5,3.3-3.3c0-1.8-1.5-3.3-3.3-3.3c-1.8,0-3.3,1.5-3.3,3.3
			C99.5,122,100.9,123.5,102.7,123.5"/>
		<path class="st1" d="M83.3,142.9c1.8,0,3.3-1.5,3.3-3.3c0-1.8-1.5-3.3-3.3-3.3c-1.8,0-3.3,1.5-3.3,3.3
			C80.1,141.4,81.5,142.9,83.3,142.9"/>
		<path class="st1" d="M102.7,142.9c1.8,0,3.3-1.5,3.3-3.3c0-1.8-1.5-3.3-3.3-3.3c-1.8,0-3.3,1.5-3.3,3.3
			C99.5,141.4,100.9,142.9,102.7,142.9"/>
		<path class="st1" d="M102.7,162.3c1.8,0,3.3-1.5,3.3-3.3c0-1.8-1.5-3.3-3.3-3.3c-1.8,0-3.3,1.5-3.3,3.3
			C99.5,160.8,100.9,162.3,102.7,162.3"/>
		<path class="st1" d="M102.7,181.6c1.8,0,3.3-1.5,3.3-3.3c0-1.8-1.5-3.3-3.3-3.3c-1.8,0-3.3,1.5-3.3,3.3
			C99.5,180.2,100.9,181.6,102.7,181.6"/>
		<path class="st1" d="M122.1,45.9c1.8,0,3.3-1.5,3.3-3.3c0-1.8-1.5-3.3-3.3-3.3c-1.8,0-3.3,1.5-3.3,3.3
			C118.9,44.4,120.3,45.9,122.1,45.9"/>
		<path class="st1" d="M122.1,65.3c1.8,0,3.3-1.5,3.3-3.3c0-1.8-1.5-3.3-3.3-3.3c-1.8,0-3.3,1.5-3.3,3.3
			C118.9,63.8,120.3,65.3,122.1,65.3"/>
		<path class="st1" d="M122.1,84.7c1.8,0,3.3-1.5,3.3-3.3c0-1.8-1.5-3.3-3.3-3.3c-1.8,0-3.3,1.5-3.3,3.3
			C118.9,83.2,120.3,84.7,122.1,84.7"/>
		<path class="st1" d="M122.1,104.1c1.8,0,3.3-1.5,3.3-3.3c0-1.8-1.5-3.3-3.3-3.3c-1.8,0-3.3,1.5-3.3,3.3
			C118.9,102.6,120.3,104.1,122.1,104.1"/>
		<path class="st1" d="M122.1,123.5c1.8,0,3.3-1.5,3.3-3.3c0-1.8-1.5-3.3-3.3-3.3c-1.8,0-3.3,1.5-3.3,3.3
			C118.9,122,120.3,123.5,122.1,123.5"/>
		<path class="st1" d="M122.1,142.9c1.8,0,3.3-1.5,3.3-3.3c0-1.8-1.5-3.3-3.3-3.3c-1.8,0-3.3,1.5-3.3,3.3
			C118.9,141.4,120.3,142.9,122.1,142.9"/>
		<path class="st1" d="M122.1,162.3c1.8,0,3.3-1.5,3.3-3.3c0-1.8-1.5-3.3-3.3-3.3c-1.8,0-3.3,1.5-3.3,3.3
			C118.9,160.8,120.3,162.3,122.1,162.3"/>
		<path class="st1" d="M122.1,181.6c1.8,0,3.3-1.5,3.3-3.3c0-1.8-1.5-3.3-3.3-3.3c-1.8,0-3.3,1.5-3.3,3.3
			C118.9,180.2,120.3,181.6,122.1,181.6"/>
		<path class="st1" d="M102.7,201c1.8,0,3.3-1.5,3.3-3.3c0-1.8-1.5-3.3-3.3-3.3c-1.8,0-3.3,1.5-3.3,3.3
			C99.5,199.6,100.9,201,102.7,201"/>
		<path class="st1" d="M122.1,201c1.8,0,3.3-1.5,3.3-3.3c0-1.8-1.5-3.3-3.3-3.3c-1.8,0-3.3,1.5-3.3,3.3
			C118.9,199.6,120.3,201,122.1,201"/>
		<path class="st1" d="M122.1,220.4c1.8,0,3.3-1.5,3.3-3.3c0-1.8-1.5-3.3-3.3-3.3c-1.8,0-3.3,1.5-3.3,3.3
			C118.9,219,120.3,220.4,122.1,220.4"/>
		<path class="st1" d="M141.5,45.9c1.8,0,3.3-1.5,3.3-3.3c0-1.8-1.5-3.3-3.3-3.3c-1.8,0-3.3,1.5-3.3,3.3
			C138.3,44.4,139.7,45.9,141.5,45.9"/>
		<path class="st1" d="M122.1,26.5c1.8,0,3.3-1.5,3.3-3.3c0-1.8-1.5-3.3-3.3-3.3c-1.8,0-3.3,1.5-3.3,3.3
			C118.9,25,120.3,26.5,122.1,26.5"/>
		<path class="st1" d="M141.5,26.5c1.8,0,3.3-1.5,3.3-3.3c0-1.8-1.5-3.3-3.3-3.3c-1.8,0-3.3,1.5-3.3,3.3
			C138.3,25,139.7,26.5,141.5,26.5"/>
		<path class="st1" d="M122.1,7.1c1.8,0,3.3-1.5,3.3-3.3c0-1.8-1.5-3.3-3.3-3.3c-1.8,0-3.3,1.5-3.3,3.3
			C118.9,5.6,120.3,7.1,122.1,7.1"/>
		<path class="st1" d="M141.5,7.1c1.8,0,3.3-1.5,3.3-3.3c0-1.8-1.5-3.3-3.3-3.3c-1.8,0-3.3,1.5-3.3,3.3
			C138.3,5.6,139.7,7.1,141.5,7.1"/>
		<path class="st1" d="M141.5,65.3c1.8,0,3.3-1.5,3.3-3.3c0-1.8-1.5-3.3-3.3-3.3c-1.8,0-3.3,1.5-3.3,3.3
			C138.3,63.8,139.7,65.3,141.5,65.3"/>
		<path class="st1" d="M141.5,84.7c1.8,0,3.3-1.5,3.3-3.3c0-1.8-1.5-3.3-3.3-3.3c-1.8,0-3.3,1.5-3.3,3.3
			C138.3,83.2,139.7,84.7,141.5,84.7"/>
		<path class="st1" d="M141.5,142.9c1.8,0,3.3-1.5,3.3-3.3c0-1.8-1.5-3.3-3.3-3.3c-1.8,0-3.3,1.5-3.3,3.3
			C138.3,141.4,139.7,142.9,141.5,142.9"/>
		<path class="st1" d="M141.5,162.3c1.8,0,3.3-1.5,3.3-3.3c0-1.8-1.5-3.3-3.3-3.3c-1.8,0-3.3,1.5-3.3,3.3
			C138.3,160.8,139.7,162.3,141.5,162.3"/>
		<path class="st1" d="M141.5,181.6c1.8,0,3.3-1.5,3.3-3.3c0-1.8-1.5-3.3-3.3-3.3c-1.8,0-3.3,1.5-3.3,3.3
			C138.3,180.2,139.7,181.6,141.5,181.6"/>
		<path class="st1" d="M141.5,201c1.8,0,3.3-1.5,3.3-3.3c0-1.8-1.5-3.3-3.3-3.3c-1.8,0-3.3,1.5-3.3,3.3
			C138.3,199.6,139.7,201,141.5,201"/>
		<path class="st1" d="M141.5,220.4c1.8,0,3.3-1.5,3.3-3.3c0-1.8-1.5-3.3-3.3-3.3c-1.8,0-3.3,1.5-3.3,3.3
			C138.3,219,139.7,220.4,141.5,220.4"/>
		<path class="st1" d="M160.9,26.5c1.8,0,3.3-1.5,3.3-3.3s-1.5-3.3-3.3-3.3c-1.8,0-3.3,1.5-3.3,3.3S159.1,26.5,160.9,26.5"/>
		<path class="st1" d="M160.9,45.9c1.8,0,3.3-1.5,3.3-3.3c0-1.8-1.5-3.3-3.3-3.3c-1.8,0-3.3,1.5-3.3,3.3
			C157.7,44.4,159.1,45.9,160.9,45.9"/>
		<path class="st1" d="M160.9,65.3c1.8,0,3.3-1.5,3.3-3.3c0-1.8-1.5-3.3-3.3-3.3c-1.8,0-3.3,1.5-3.3,3.3
			C157.7,63.8,159.1,65.3,160.9,65.3"/>
		<path class="st1" d="M160.9,181.6c1.8,0,3.3-1.5,3.3-3.3c0-1.8-1.5-3.3-3.3-3.3c-1.8,0-3.3,1.5-3.3,3.3
			C157.7,180.2,159.1,181.6,160.9,181.6"/>
		<path class="st1" d="M160.9,201c1.8,0,3.3-1.5,3.3-3.3c0-1.8-1.5-3.3-3.3-3.3c-1.8,0-3.3,1.5-3.3,3.3
			C157.7,199.6,159.1,201,160.9,201"/>
		<path class="st1" d="M160.9,220.4c1.8,0,3.3-1.5,3.3-3.3c0-1.8-1.5-3.3-3.3-3.3c-1.8,0-3.3,1.5-3.3,3.3
			C157.7,219,159.1,220.4,160.9,220.4"/>
		<path class="st1" d="M180.3,26.5c1.8,0,3.3-1.5,3.3-3.3s-1.5-3.3-3.3-3.3c-1.8,0-3.3,1.5-3.3,3.3S178.5,26.5,180.3,26.5"/>
		<path class="st1" d="M180.3,45.9c1.8,0,3.3-1.5,3.3-3.3c0-1.8-1.5-3.3-3.3-3.3c-1.8,0-3.3,1.5-3.3,3.3
			C177,44.4,178.5,45.9,180.3,45.9"/>
		<path class="st1" d="M180.3,65.3c1.8,0,3.3-1.5,3.3-3.3c0-1.8-1.5-3.3-3.3-3.3c-1.8,0-3.3,1.5-3.3,3.3
			C177,63.8,178.5,65.3,180.3,65.3"/>
		<path class="st1" d="M180.3,181.6c1.8,0,3.3-1.5,3.3-3.3c0-1.8-1.5-3.3-3.3-3.3c-1.8,0-3.3,1.5-3.3,3.3
			C177,180.2,178.5,181.6,180.3,181.6"/>
		<path class="st1" d="M180.3,201c1.8,0,3.3-1.5,3.3-3.3c0-1.8-1.5-3.3-3.3-3.3c-1.8,0-3.3,1.5-3.3,3.3
			C177,199.6,178.5,201,180.3,201"/>
		<path class="st1" d="M180.3,220.4c1.8,0,3.3-1.5,3.3-3.3c0-1.8-1.5-3.3-3.3-3.3c-1.8,0-3.3,1.5-3.3,3.3
			C177,219,178.5,220.4,180.3,220.4"/>
		<path class="st1" d="M199.7,26.5c1.8,0,3.3-1.5,3.3-3.3s-1.5-3.3-3.3-3.3c-1.8,0-3.3,1.5-3.3,3.3S197.9,26.5,199.7,26.5"/>
		<path class="st1" d="M219.1,26.5c1.8,0,3.3-1.5,3.3-3.3s-1.5-3.3-3.3-3.3c-1.8,0-3.3,1.5-3.3,3.3S217.3,26.5,219.1,26.5"/>
		<path class="st1" d="M199.7,45.9c1.8,0,3.3-1.5,3.3-3.3c0-1.8-1.5-3.3-3.3-3.3c-1.8,0-3.3,1.5-3.3,3.3
			C196.4,44.4,197.9,45.9,199.7,45.9"/>
		<path class="st1" d="M199.7,65.3c1.8,0,3.3-1.5,3.3-3.3c0-1.8-1.5-3.3-3.3-3.3c-1.8,0-3.3,1.5-3.3,3.3
			C196.4,63.8,197.9,65.3,199.7,65.3"/>
		<path class="st1" d="M199.7,181.6c1.8,0,3.3-1.5,3.3-3.3c0-1.8-1.5-3.3-3.3-3.3c-1.8,0-3.3,1.5-3.3,3.3
			C196.4,180.2,197.9,181.6,199.7,181.6"/>
		<path class="st1" d="M199.7,201c1.8,0,3.3-1.5,3.3-3.3c0-1.8-1.5-3.3-3.3-3.3c-1.8,0-3.3,1.5-3.3,3.3
			C196.4,199.6,197.9,201,199.7,201"/>
		<path class="st1" d="M199.7,220.4c1.8,0,3.3-1.5,3.3-3.3c0-1.8-1.5-3.3-3.3-3.3c-1.8,0-3.3,1.5-3.3,3.3
			C196.4,219,197.9,220.4,199.7,220.4"/>
		<path class="st1" d="M219.1,201c1.8,0,3.3-1.5,3.3-3.3c0-1.8-1.5-3.3-3.3-3.3c-1.8,0-3.3,1.5-3.3,3.3
			C215.8,199.6,217.3,201,219.1,201"/>
		<path class="st1" d="M219.1,45.9c1.8,0,3.3-1.5,3.3-3.3c0-1.8-1.5-3.3-3.3-3.3c-1.8,0-3.3,1.5-3.3,3.3
			C215.8,44.4,217.3,45.9,219.1,45.9"/>
		<path class="st1" d="M219.1,181.6c1.8,0,3.3-1.5,3.3-3.3c0-1.8-1.5-3.3-3.3-3.3c-1.8,0-3.3,1.5-3.3,3.3
			C215.8,180.2,217.3,181.6,219.1,181.6"/>
	</g>
</g>
</svg>
