<?xml version="1.0" encoding="utf-8"?>
<!-- Generator: Adobe Illustrator 21.1.0, SVG Export Plug-In . SVG Version: 6.00 Build 0)  -->
<svg version="1.1" id="Ebene_1" xmlns="http://www.w3.org/2000/svg" xmlns:xlink="http://www.w3.org/1999/xlink" x="0px" y="0px"
	 viewBox="0 0 317.3 317.3" style="enable-background:new 0 0 317.3 317.3;" xml:space="preserve">
<style type="text/css">
	.st0{fill:url(#SVGID_1_);}
	.st1{fill:#323232;}
</style>
<g>
	<g>
		<linearGradient id="SVGID_1_" gradientUnits="userSpaceOnUse" x1="1.3333" y1="186.1935" x2="313.2082" y2="186.1935">
			<stop  offset="2.624199e-03" style="stop-color:#55C4C1"/>
			<stop  offset="0.5889" style="stop-color:#38E7C9"/>
		</linearGradient>
		<path class="st0" d="M116.3,122.6c-50.8,60.3-136.6,59.5-110,139.5c27.2,81.6,133.3,11.8,166.2-3.5c55.7-26,154.8-3.4,138.9-108.7
			C297.2,55.4,184.5,46.1,116.3,122.6"/>
	</g>
	<g>
		<path class="st1" d="M263.6,151.2c0-1.1,0.9-2,2-2c1.1,0,2,0.9,2,2s-0.9,2-2,2C264.5,153.2,263.6,152.3,263.6,151.2"/>
		<path class="st1" d="M251.6,151.2c0-1.1,0.9-2,2-2c1.1,0,2,0.9,2,2s-0.9,2-2,2C252.5,153.2,251.6,152.3,251.6,151.2"/>
		<path class="st1" d="M239.5,151.2c0-1.1,0.9-2,2-2c1.1,0,2,0.9,2,2s-0.9,2-2,2C240.4,153.2,239.5,152.3,239.5,151.2"/>
		<path class="st1" d="M275.7,139.1c0-1.1,0.9-2,2-2s2,0.9,2,2c0,1.1-0.9,2-2,2S275.7,140.3,275.7,139.1"/>
		<path class="st1" d="M263.6,139.1c0-1.1,0.9-2,2-2c1.1,0,2,0.9,2,2c0,1.1-0.9,2-2,2C264.5,141.2,263.6,140.3,263.6,139.1"/>
		<path class="st1" d="M251.6,139.1c0-1.1,0.9-2,2-2c1.1,0,2,0.9,2,2c0,1.1-0.9,2-2,2C252.5,141.2,251.6,140.3,251.6,139.1"/>
		<path class="st1" d="M239.5,139.1c0-1.1,0.9-2,2-2c1.1,0,2,0.9,2,2c0,1.1-0.9,2-2,2C240.4,141.2,239.5,140.3,239.5,139.1"/>
		<path class="st1" d="M227.4,139.1c0-1.1,0.9-2,2-2c1.1,0,2,0.9,2,2c0,1.1-0.9,2-2,2C228.3,141.2,227.4,140.3,227.4,139.1"/>
		<path class="st1" d="M275.7,127.1c0-1.1,0.9-2,2-2s2,0.9,2,2c0,1.1-0.9,2-2,2S275.7,128.2,275.7,127.1"/>
		<path class="st1" d="M263.6,127.1c0-1.1,0.9-2,2-2c1.1,0,2,0.9,2,2c0,1.1-0.9,2-2,2C264.5,129.1,263.6,128.2,263.6,127.1"/>
		<path class="st1" d="M251.6,127.1c0-1.1,0.9-2,2-2c1.1,0,2,0.9,2,2c0,1.1-0.9,2-2,2C252.5,129.1,251.6,128.2,251.6,127.1"/>
		<path class="st1" d="M239.5,127.1c0-1.1,0.9-2,2-2c1.1,0,2,0.9,2,2c0,1.1-0.9,2-2,2C240.4,129.1,239.5,128.2,239.5,127.1"/>
		<path class="st1" d="M227.4,127.1c0-1.1,0.9-2,2-2c1.1,0,2,0.9,2,2c0,1.1-0.9,2-2,2C228.3,129.1,227.4,128.2,227.4,127.1"/>
		<path class="st1" d="M299.9,115c0-1.1,0.9-2,2-2c1.1,0,2,0.9,2,2s-0.9,2-2,2C300.8,117,299.9,116.1,299.9,115"/>
		<path class="st1" d="M287.8,115c0-1.1,0.9-2,2-2c1.1,0,2,0.9,2,2s-0.9,2-2,2C288.7,117,287.8,116.1,287.8,115"/>
		<path class="st1" d="M275.7,115c0-1.1,0.9-2,2-2s2,0.9,2,2s-0.9,2-2,2S275.7,116.1,275.7,115"/>
		<path class="st1" d="M263.6,115c0-1.1,0.9-2,2-2c1.1,0,2,0.9,2,2s-0.9,2-2,2C264.5,117,263.6,116.1,263.6,115"/>
		<path class="st1" d="M251.6,115c0-1.1,0.9-2,2-2c1.1,0,2,0.9,2,2s-0.9,2-2,2C252.5,117,251.6,116.1,251.6,115"/>
		<path class="st1" d="M239.5,115c0-1.1,0.9-2,2-2c1.1,0,2,0.9,2,2s-0.9,2-2,2C240.4,117,239.5,116.1,239.5,115"/>
		<path class="st1" d="M227.4,115c0-1.1,0.9-2,2-2c1.1,0,2,0.9,2,2s-0.9,2-2,2C228.3,117,227.4,116.1,227.4,115"/>
		<path class="st1" d="M299.9,127.1c0-1.1,0.9-2,2-2c1.1,0,2,0.9,2,2s-0.9,2-2,2C300.8,129.1,299.9,128.2,299.9,127.1"/>
		<path class="st1" d="M287.8,127.1c0-1.1,0.9-2,2-2c1.1,0,2,0.9,2,2s-0.9,2-2,2C288.7,129.1,287.8,128.2,287.8,127.1"/>
		<path class="st1" d="M299.9,139.1c0-1.1,0.9-2,2-2c1.1,0,2,0.9,2,2c0,1.1-0.9,2-2,2C300.8,141.2,299.9,140.3,299.9,139.1"/>
		<path class="st1" d="M287.8,139.1c0-1.1,0.9-2,2-2c1.1,0,2,0.9,2,2c0,1.1-0.9,2-2,2C288.7,141.2,287.8,140.3,287.8,139.1"/>
		<path class="st1" d="M275.7,151.2c0-1.1,0.9-2,2-2s2,0.9,2,2s-0.9,2-2,2S275.7,152.3,275.7,151.2"/>
		<path class="st1" d="M299.9,102.9c0-1.1,0.9-2,2-2c1.1,0,2,0.9,2,2s-0.9,2-2,2C300.8,104.9,299.9,104,299.9,102.9"/>
		<path class="st1" d="M287.8,102.9c0-1.1,0.9-2,2-2c1.1,0,2,0.9,2,2s-0.9,2-2,2C288.7,104.9,287.8,104,287.8,102.9"/>
		<path class="st1" d="M275.7,102.9c0-1.1,0.9-2,2-2s2,0.9,2,2s-0.9,2-2,2S275.7,104,275.7,102.9"/>
		<path class="st1" d="M263.6,102.9c0-1.1,0.9-2,2-2c1.1,0,2,0.9,2,2s-0.9,2-2,2C264.5,104.9,263.6,104,263.6,102.9"/>
		<path class="st1" d="M251.6,102.9c0-1.1,0.9-2,2-2c1.1,0,2,0.9,2,2s-0.9,2-2,2C252.5,104.9,251.6,104,251.6,102.9"/>
		<path class="st1" d="M239.5,102.9c0-1.1,0.9-2,2-2c1.1,0,2,0.9,2,2s-0.9,2-2,2C240.4,104.9,239.5,104,239.5,102.9"/>
		<path class="st1" d="M311.9,90.8c0-1.1,0.9-2,2-2c1.1,0,2,0.9,2,2s-0.9,2-2,2C312.8,92.9,311.9,91.9,311.9,90.8"/>
		<path class="st1" d="M299.9,90.8c0-1.1,0.9-2,2-2c1.1,0,2,0.9,2,2s-0.9,2-2,2C300.8,92.9,299.9,91.9,299.9,90.8"/>
		<path class="st1" d="M287.8,90.8c0-1.1,0.9-2,2-2c1.1,0,2,0.9,2,2s-0.9,2-2,2C288.7,92.9,287.8,91.9,287.8,90.8"/>
		<path class="st1" d="M275.7,90.8c0-1.1,0.9-2,2-2s2,0.9,2,2s-0.9,2-2,2S275.7,91.9,275.7,90.8"/>
		<path class="st1" d="M263.6,90.8c0-1.1,0.9-2,2-2c1.1,0,2,0.9,2,2s-0.9,2-2,2C264.5,92.9,263.6,91.9,263.6,90.8"/>
		<path class="st1" d="M251.6,90.8c0-1.1,0.9-2,2-2c1.1,0,2,0.9,2,2s-0.9,2-2,2C252.5,92.9,251.6,91.9,251.6,90.8"/>
		<path class="st1" d="M239.5,90.8c0-1.1,0.9-2,2-2c1.1,0,2,0.9,2,2s-0.9,2-2,2C240.4,92.9,239.5,91.9,239.5,90.8"/>
		<path class="st1" d="M227.4,102.9c0-1.1,0.9-2,2-2c1.1,0,2,0.9,2,2s-0.9,2-2,2C228.3,104.9,227.4,104,227.4,102.9"/>
		<path class="st1" d="M215.3,127.1c0-1.1,0.9-2,2-2c1.1,0,2,0.9,2,2c0,1.1-0.9,2-2,2C216.2,129.1,215.3,128.2,215.3,127.1"/>
		<path class="st1" d="M215.3,115c0-1.1,0.9-2,2-2c1.1,0,2,0.9,2,2s-0.9,2-2,2C216.2,117,215.3,116.1,215.3,115"/>
		<path class="st1" d="M215.3,102.9c0-1.1,0.9-2,2-2c1.1,0,2,0.9,2,2s-0.9,2-2,2C216.2,104.9,215.3,104,215.3,102.9"/>
		<path class="st1" d="M203.3,127.1c0-1.1,0.9-2,2-2c1.1,0,2,0.9,2,2c0,1.1-0.9,2-2,2C204.2,129.1,203.3,128.2,203.3,127.1"/>
		<path class="st1" d="M203.3,115c0-1.1,0.9-2,2-2c1.1,0,2,0.9,2,2s-0.9,2-2,2C204.2,117,203.3,116.1,203.3,115"/>
		<path class="st1" d="M203.3,102.9c0-1.1,0.9-2,2-2c1.1,0,2,0.9,2,2s-0.9,2-2,2C204.2,104.9,203.3,104,203.3,102.9"/>
		<path class="st1" d="M227.4,90.8c0-1.1,0.9-2,2-2c1.1,0,2,0.9,2,2s-0.9,2-2,2C228.3,92.9,227.4,91.9,227.4,90.8"/>
		<path class="st1" d="M215.3,90.8c0-1.1,0.9-2,2-2c1.1,0,2,0.9,2,2s-0.9,2-2,2C216.2,92.9,215.3,91.9,215.3,90.8"/>
		<path class="st1" d="M203.3,90.8c0-1.1,0.9-2,2-2c1.1,0,2,0.9,2,2s-0.9,2-2,2C204.2,92.9,203.3,91.9,203.3,90.8"/>
		<path class="st1" d="M287.8,78.8c0-1.1,0.9-2,2-2c1.1,0,2,0.9,2,2s-0.9,2-2,2C288.7,80.8,287.8,79.9,287.8,78.8"/>
		<path class="st1" d="M275.7,78.8c0-1.1,0.9-2,2-2s2,0.9,2,2s-0.9,2-2,2S275.7,79.9,275.7,78.8"/>
		<path class="st1" d="M263.6,78.8c0-1.1,0.9-2,2-2c1.1,0,2,0.9,2,2s-0.9,2-2,2C264.5,80.8,263.6,79.9,263.6,78.8"/>
		<path class="st1" d="M251.6,78.8c0-1.1,0.9-2,2-2c1.1,0,2,0.9,2,2s-0.9,2-2,2C252.5,80.8,251.6,79.9,251.6,78.8"/>
		<path class="st1" d="M239.5,78.8c0-1.1,0.9-2,2-2c1.1,0,2,0.9,2,2s-0.9,2-2,2C240.4,80.8,239.5,79.9,239.5,78.8"/>
		<path class="st1" d="M227.4,78.8c0-1.1,0.9-2,2-2c1.1,0,2,0.9,2,2s-0.9,2-2,2C228.3,80.8,227.4,79.9,227.4,78.8"/>
		<path class="st1" d="M215.3,78.8c0-1.1,0.9-2,2-2c1.1,0,2,0.9,2,2s-0.9,2-2,2C216.2,80.8,215.3,79.9,215.3,78.8"/>
		<path class="st1" d="M203.3,78.8c0-1.1,0.9-2,2-2c1.1,0,2,0.9,2,2s-0.9,2-2,2C204.2,80.8,203.3,79.9,203.3,78.8"/>
		<path class="st1" d="M191.2,127.1c0-1.1,0.9-2,2-2c1.1,0,2,0.9,2,2c0,1.1-0.9,2-2,2C192.1,129.1,191.2,128.2,191.2,127.1"/>
		<path class="st1" d="M191.2,115c0-1.1,0.9-2,2-2c1.1,0,2,0.9,2,2s-0.9,2-2,2C192.1,117,191.2,116.1,191.2,115"/>
		<path class="st1" d="M191.2,102.9c0-1.1,0.9-2,2-2c1.1,0,2,0.9,2,2s-0.9,2-2,2C192.1,104.9,191.2,104,191.2,102.9"/>
		<path class="st1" d="M191.2,90.8c0-1.1,0.9-2,2-2c1.1,0,2,0.9,2,2s-0.9,2-2,2C192.1,92.9,191.2,91.9,191.2,90.8"/>
		<path class="st1" d="M179.1,115c0-1.1,0.9-2,2-2c1.1,0,2,0.9,2,2s-0.9,2-2,2C180,117,179.1,116.1,179.1,115"/>
		<path class="st1" d="M179.1,102.9c0-1.1,0.9-2,2-2c1.1,0,2,0.9,2,2s-0.9,2-2,2C180,104.9,179.1,104,179.1,102.9"/>
		<path class="st1" d="M287.8,66.7c0-1.1,0.9-2,2-2c1.1,0,2,0.9,2,2s-0.9,2-2,2C288.7,68.7,287.8,67.8,287.8,66.7"/>
		<path class="st1" d="M299.9,78.8c0-1.1,0.9-2,2-2s2,0.9,2,2s-0.9,2-2,2S299.9,79.9,299.9,78.8"/>
		<path class="st1" d="M299.9,66.7c0-1.1,0.9-2,2-2s2,0.9,2,2s-0.9,2-2,2S299.9,67.8,299.9,66.7"/>
		<path class="st1" d="M311.9,78.8c0-1.1,0.9-2,2-2c1.1,0,2,0.9,2,2s-0.9,2-2,2C312.8,80.8,311.9,79.9,311.9,78.8"/>
		<path class="st1" d="M311.9,66.7c0-1.1,0.9-2,2-2c1.1,0,2,0.9,2,2s-0.9,2-2,2C312.8,68.7,311.9,67.8,311.9,66.7"/>
		<path class="st1" d="M275.7,66.7c0-1.1,0.9-2,2-2s2,0.9,2,2s-0.9,2-2,2S275.7,67.8,275.7,66.7"/>
		<path class="st1" d="M263.6,66.7c0-1.1,0.9-2,2-2c1.1,0,2,0.9,2,2s-0.9,2-2,2C264.5,68.7,263.6,67.8,263.6,66.7"/>
		<path class="st1" d="M251.6,66.7c0-1.1,0.9-2,2-2c1.1,0,2,0.9,2,2s-0.9,2-2,2C252.5,68.7,251.6,67.8,251.6,66.7"/>
		<path class="st1" d="M239.5,66.7c0-1.1,0.9-2,2-2c1.1,0,2,0.9,2,2s-0.9,2-2,2C240.4,68.7,239.5,67.8,239.5,66.7"/>
		<path class="st1" d="M227.4,66.7c0-1.1,0.9-2,2-2c1.1,0,2,0.9,2,2s-0.9,2-2,2C228.3,68.7,227.4,67.8,227.4,66.7"/>
		<path class="st1" d="M215.3,66.7c0-1.1,0.9-2,2-2c1.1,0,2,0.9,2,2s-0.9,2-2,2C216.2,68.7,215.3,67.8,215.3,66.7"/>
		<path class="st1" d="M203.3,66.7c0-1.1,0.9-2,2-2c1.1,0,2,0.9,2,2s-0.9,2-2,2C204.2,68.7,203.3,67.8,203.3,66.7"/>
		<path class="st1" d="M191.2,66.7c0-1.1,0.9-2,2-2c1.1,0,2,0.9,2,2s-0.9,2-2,2C192.1,68.7,191.2,67.8,191.2,66.7"/>
		<path class="st1" d="M311.9,54.6c0-1.1,0.9-2,2-2c1.1,0,2,0.9,2,2c0,1.1-0.9,2-2,2C312.8,56.6,311.9,55.7,311.9,54.6"/>
		<path class="st1" d="M299.9,54.6c0-1.1,0.9-2,2-2c1.1,0,2,0.9,2,2c0,1.1-0.9,2-2,2C300.8,56.6,299.9,55.7,299.9,54.6"/>
		<path class="st1" d="M287.8,54.6c0-1.1,0.9-2,2-2c1.1,0,2,0.9,2,2c0,1.1-0.9,2-2,2C288.7,56.6,287.8,55.7,287.8,54.6"/>
		<path class="st1" d="M275.7,54.6c0-1.1,0.9-2,2-2s2,0.9,2,2c0,1.1-0.9,2-2,2S275.7,55.7,275.7,54.6"/>
		<path class="st1" d="M263.6,54.6c0-1.1,0.9-2,2-2c1.1,0,2,0.9,2,2c0,1.1-0.9,2-2,2C264.5,56.6,263.6,55.7,263.6,54.6"/>
		<path class="st1" d="M251.6,54.6c0-1.1,0.9-2,2-2c1.1,0,2,0.9,2,2c0,1.1-0.9,2-2,2C252.5,56.6,251.6,55.7,251.6,54.6"/>
		<path class="st1" d="M239.5,54.6c0-1.1,0.9-2,2-2c1.1,0,2,0.9,2,2c0,1.1-0.9,2-2,2C240.4,56.6,239.5,55.7,239.5,54.6"/>
		<path class="st1" d="M227.4,54.6c0-1.1,0.9-2,2-2c1.1,0,2,0.9,2,2c0,1.1-0.9,2-2,2C228.3,56.6,227.4,55.7,227.4,54.6"/>
		<path class="st1" d="M215.3,54.6c0-1.1,0.9-2,2-2c1.1,0,2,0.9,2,2c0,1.1-0.9,2-2,2C216.2,56.6,215.3,55.7,215.3,54.6"/>
		<path class="st1" d="M203.3,54.6c0-1.1,0.9-2,2-2c1.1,0,2,0.9,2,2c0,1.1-0.9,2-2,2C204.2,56.6,203.3,55.7,203.3,54.6"/>
		<path class="st1" d="M191.2,54.6c0-1.1,0.9-2,2-2c1.1,0,2,0.9,2,2c0,1.1-0.9,2-2,2C192.1,56.6,191.2,55.7,191.2,54.6"/>
		<path class="st1" d="M299.9,42.5c0-1.1,0.9-2,2-2c1.1,0,2,0.9,2,2c0,1.1-0.9,2-2,2C300.8,44.6,299.9,43.6,299.9,42.5"/>
		<path class="st1" d="M287.8,42.5c0-1.1,0.9-2,2-2c1.1,0,2,0.9,2,2c0,1.1-0.9,2-2,2C288.7,44.6,287.8,43.6,287.8,42.5"/>
		<path class="st1" d="M275.7,42.5c0-1.1,0.9-2,2-2s2,0.9,2,2c0,1.1-0.9,2-2,2S275.7,43.6,275.7,42.5"/>
		<path class="st1" d="M263.6,42.5c0-1.1,0.9-2,2-2c1.1,0,2,0.9,2,2c0,1.1-0.9,2-2,2C264.5,44.6,263.6,43.6,263.6,42.5"/>
		<path class="st1" d="M251.6,42.5c0-1.1,0.9-2,2-2c1.1,0,2,0.9,2,2c0,1.1-0.9,2-2,2C252.5,44.6,251.6,43.6,251.6,42.5"/>
		<path class="st1" d="M215.3,42.5c0-1.1,0.9-2,2-2c1.1,0,2,0.9,2,2c0,1.1-0.9,2-2,2C216.2,44.6,215.3,43.6,215.3,42.5"/>
		<path class="st1" d="M203.3,42.5c0-1.1,0.9-2,2-2c1.1,0,2,0.9,2,2c0,1.1-0.9,2-2,2C204.2,44.6,203.3,43.6,203.3,42.5"/>
		<path class="st1" d="M191.2,42.5c0-1.1,0.9-2,2-2c1.1,0,2,0.9,2,2c0,1.1-0.9,2-2,2C192.1,44.6,191.2,43.6,191.2,42.5"/>
		<path class="st1" d="M179.1,42.5c0-1.1,0.9-2,2-2c1.1,0,2,0.9,2,2c0,1.1-0.9,2-2,2C180,44.6,179.1,43.6,179.1,42.5"/>
		<path class="st1" d="M299.9,30.5c0-1.1,0.9-2,2-2c1.1,0,2,0.9,2,2c0,1.1-0.9,2-2,2C300.8,32.5,299.9,31.6,299.9,30.5"/>
		<path class="st1" d="M287.8,30.5c0-1.1,0.9-2,2-2c1.1,0,2,0.9,2,2c0,1.1-0.9,2-2,2C288.7,32.5,287.8,31.6,287.8,30.5"/>
		<path class="st1" d="M275.7,30.5c0-1.1,0.9-2,2-2s2,0.9,2,2c0,1.1-0.9,2-2,2S275.7,31.6,275.7,30.5"/>
		<path class="st1" d="M263.6,30.5c0-1.1,0.9-2,2-2c1.1,0,2,0.9,2,2c0,1.1-0.9,2-2,2C264.5,32.5,263.6,31.6,263.6,30.5"/>
		<path class="st1" d="M215.3,30.5c0-1.1,0.9-2,2-2c1.1,0,2,0.9,2,2c0,1.1-0.9,2-2,2C216.2,32.5,215.3,31.6,215.3,30.5"/>
		<path class="st1" d="M203.3,30.5c0-1.1,0.9-2,2-2c1.1,0,2,0.9,2,2c0,1.1-0.9,2-2,2C204.2,32.5,203.3,31.6,203.3,30.5"/>
		<path class="st1" d="M191.2,30.5c0-1.1,0.9-2,2-2c1.1,0,2,0.9,2,2c0,1.1-0.9,2-2,2C192.1,32.5,191.2,31.6,191.2,30.5"/>
		<path class="st1" d="M179.1,30.5c0-1.1,0.9-2,2-2c1.1,0,2,0.9,2,2c0,1.1-0.9,2-2,2C180,32.5,179.1,31.6,179.1,30.5"/>
		<path class="st1" d="M191.2,18.4c0-1.1,0.9-2,2-2c1.1,0,2,0.9,2,2c0,1.1-0.9,2-2,2C192.1,20.4,191.2,19.5,191.2,18.4"/>
		<path class="st1" d="M215.3,18.4c0-1.1,0.9-2,2-2c1.1,0,2,0.9,2,2c0,1.1-0.9,2-2,2C216.2,20.4,215.3,19.5,215.3,18.4"/>
		<path class="st1" d="M203.3,18.4c0-1.1,0.9-2,2-2c1.1,0,2,0.9,2,2c0,1.1-0.9,2-2,2C204.2,20.4,203.3,19.5,203.3,18.4"/>
	</g>
</g>
</svg>
