<?xml version="1.0" encoding="utf-8"?>
<!-- Generator: Adobe Illustrator 21.1.0, SVG Export Plug-In . SVG Version: 6.00 Build 0)  -->
<svg version="1.1" id="Ebene_1" xmlns="http://www.w3.org/2000/svg" xmlns:xlink="http://www.w3.org/1999/xlink" x="0px" y="0px"
	 viewBox="0 0 317.3 317.3" style="enable-background:new 0 0 317.3 317.3;" xml:space="preserve">
<style type="text/css">
	.st0{fill:#FFFFFF;}
	.st1{fill:#323232;}
	.st2{fill:url(#SVGID_1_);}
	.st3{fill:url(#SVGID_2_);}
	.st4{fill:url(#SVGID_3_);}
	.st5{fill:url(#SVGID_4_);}
	.st6{fill:url(#SVGID_5_);}
	.st7{fill:url(#SVGID_6_);}
	.st8{fill:url(#SVGID_7_);}
	.st9{fill:url(#SVGID_8_);}
	.st10{fill:url(#SVGID_9_);}
	.st11{fill:url(#SVGID_10_);}
	.st12{fill:url(#SVGID_11_);}
	.st13{fill:url(#SVGID_12_);}
	.st14{fill:url(#SVGID_13_);}
	.st15{fill:url(#SVGID_14_);}
	.st16{fill:url(#SVGID_15_);}
	.st17{fill:url(#SVGID_16_);}
	.st18{fill:url(#SVGID_17_);}
	.st19{fill:url(#SVGID_18_);}
	.st20{fill:url(#SVGID_19_);}
	.st21{fill:url(#SVGID_20_);}
	.st22{fill:url(#SVGID_21_);}
	.st23{fill:url(#SVGID_22_);}
	.st24{fill:url(#SVGID_23_);}
	.st25{fill:url(#SVGID_24_);}
	.st26{fill:url(#SVGID_25_);}
	.st27{fill:url(#SVGID_26_);}
	.st28{fill:url(#SVGID_27_);}
	.st29{fill:url(#SVGID_28_);}
	.st30{fill:url(#SVGID_29_);}
	.st31{fill:url(#SVGID_30_);}
	.st32{fill:url(#SVGID_31_);}
	.st33{fill:url(#SVGID_32_);}
	.st34{fill:url(#SVGID_33_);}
	.st35{fill:url(#SVGID_34_);}
	.st36{fill:url(#SVGID_35_);}
	.st37{fill:url(#SVGID_36_);}
	.st38{fill:url(#SVGID_37_);}
	.st39{fill:url(#SVGID_38_);}
	.st40{fill:url(#SVGID_39_);}
	.st41{fill:url(#SVGID_40_);}
	.st42{fill:url(#SVGID_41_);}
	.st43{fill:url(#SVGID_42_);}
	.st44{fill:url(#SVGID_43_);}
	.st45{fill:url(#SVGID_44_);}
	.st46{fill:url(#SVGID_45_);}
	.st47{fill:url(#SVGID_46_);}
	.st48{fill:url(#SVGID_47_);}
	.st49{fill:url(#SVGID_48_);}
	.st50{fill:url(#SVGID_49_);}
	.st51{fill:url(#SVGID_50_);}
	.st52{fill:url(#SVGID_51_);}
	.st53{fill:url(#SVGID_52_);}
	.st54{fill:url(#SVGID_53_);}
	.st55{fill:url(#SVGID_54_);}
	.st56{fill:url(#SVGID_55_);}
	.st57{fill:url(#SVGID_56_);}
	.st58{fill:url(#SVGID_57_);}
	.st59{fill:url(#SVGID_58_);}
	.st60{fill:url(#SVGID_59_);}
	.st61{fill:url(#SVGID_60_);}
	.st62{fill:url(#SVGID_61_);}
	.st63{fill:url(#SVGID_62_);}
	.st64{fill:url(#SVGID_63_);}
	.st65{fill:url(#SVGID_64_);}
	.st66{fill:url(#SVGID_65_);}
	.st67{fill:url(#SVGID_66_);}
	.st68{fill:url(#SVGID_67_);}
	.st69{fill:url(#SVGID_68_);}
	.st70{fill:url(#SVGID_69_);}
	.st71{fill:url(#SVGID_70_);}
	.st72{fill:url(#SVGID_71_);}
	.st73{fill:url(#SVGID_72_);}
	.st74{fill:url(#SVGID_73_);}
	.st75{fill:url(#SVGID_74_);}
	.st76{fill:url(#SVGID_75_);}
	.st77{fill:url(#SVGID_76_);}
	.st78{fill:url(#SVGID_77_);}
	.st79{fill:url(#SVGID_78_);}
	.st80{fill:url(#SVGID_79_);}
	.st81{fill:url(#SVGID_80_);}
	.st82{fill:url(#SVGID_81_);}
	.st83{fill:url(#SVGID_82_);}
	.st84{fill:url(#SVGID_83_);}
	.st85{fill:url(#SVGID_84_);}
	.st86{fill:url(#SVGID_85_);}
	.st87{fill:url(#SVGID_86_);}
	.st88{fill:url(#SVGID_87_);}
</style>
<g>
	<path class="st0" d="M108,149.7c2.1,33,3.2,54.7,22.9,84c21.5,31.9,62.6,32.8,87.1,26c42.8-12,101.9-47.8,99.1-77.2
		c-4.8-51.3-57.7-28.1-103.7-70C170.6,73.4,104.6,98.1,108,149.7z"/>
	<path class="st1" d="M115.9,161.9c-29.7,0-53.8-24.1-53.8-53.8s24.1-53.8,53.8-53.8s53.8,24.1,53.8,53.8S145.6,161.9,115.9,161.9z
		 M115.9,77.9c-16.7,0-30.2,13.5-30.2,30.2s13.5,30.2,30.2,30.2s30.2-13.5,30.2-30.2S132.6,77.9,115.9,77.9z"/>
	<g>
		<linearGradient id="SVGID_1_" gradientUnits="userSpaceOnUse" x1="0.1458" y1="172.7535" x2="3.5204" y2="172.7535">
			<stop  offset="0.5019" style="stop-color:#5A3795"/>
			<stop  offset="1" style="stop-color:#2E60AD"/>
		</linearGradient>
		<path class="st2" d="M1.8,171.1c0.9,0,1.7,0.8,1.7,1.7c0,0.9-0.8,1.7-1.7,1.7s-1.7-0.8-1.7-1.7C0.1,171.8,0.9,171.1,1.8,171.1"/>
		<linearGradient id="SVGID_2_" gradientUnits="userSpaceOnUse" x1="0.1458" y1="162.7278" x2="3.5204" y2="162.7278">
			<stop  offset="0.5019" style="stop-color:#5A3795"/>
			<stop  offset="1" style="stop-color:#2E60AD"/>
		</linearGradient>
		<path class="st3" d="M1.8,161c0.9,0,1.7,0.8,1.7,1.7c0,0.9-0.8,1.7-1.7,1.7s-1.7-0.8-1.7-1.7C0.1,161.8,0.9,161,1.8,161"/>
		<linearGradient id="SVGID_3_" gradientUnits="userSpaceOnUse" x1="0.1458" y1="152.7019" x2="3.5204" y2="152.7019">
			<stop  offset="0.5019" style="stop-color:#5A3795"/>
			<stop  offset="1" style="stop-color:#2E60AD"/>
		</linearGradient>
		<path class="st4" d="M1.8,151c0.9,0,1.7,0.8,1.7,1.7c0,0.9-0.8,1.7-1.7,1.7s-1.7-0.8-1.7-1.7C0.1,151.8,0.9,151,1.8,151"/>
		<linearGradient id="SVGID_4_" gradientUnits="userSpaceOnUse" x1="10.1712" y1="182.7794" x2="13.5461" y2="182.7794">
			<stop  offset="0.5019" style="stop-color:#5A3795"/>
			<stop  offset="1" style="stop-color:#2E60AD"/>
		</linearGradient>
		<path class="st5" d="M11.9,181.1c0.9,0,1.7,0.8,1.7,1.7c0,0.9-0.8,1.7-1.7,1.7c-0.9,0-1.7-0.8-1.7-1.7
			C10.2,181.8,10.9,181.1,11.9,181.1"/>
		<linearGradient id="SVGID_5_" gradientUnits="userSpaceOnUse" x1="10.1712" y1="172.7535" x2="13.5461" y2="172.7535">
			<stop  offset="0.5019" style="stop-color:#5A3795"/>
			<stop  offset="1" style="stop-color:#2E60AD"/>
		</linearGradient>
		<path class="st6" d="M11.9,171.1c0.9,0,1.7,0.8,1.7,1.7c0,0.9-0.8,1.7-1.7,1.7c-0.9,0-1.7-0.8-1.7-1.7
			C10.2,171.8,10.9,171.1,11.9,171.1"/>
		<linearGradient id="SVGID_6_" gradientUnits="userSpaceOnUse" x1="10.1712" y1="162.7278" x2="13.5461" y2="162.7278">
			<stop  offset="0.5019" style="stop-color:#5A3795"/>
			<stop  offset="1" style="stop-color:#2E60AD"/>
		</linearGradient>
		<path class="st7" d="M11.9,161c0.9,0,1.7,0.8,1.7,1.7c0,0.9-0.8,1.7-1.7,1.7c-0.9,0-1.7-0.8-1.7-1.7C10.2,161.8,10.9,161,11.9,161
			"/>
		<linearGradient id="SVGID_7_" gradientUnits="userSpaceOnUse" x1="10.1712" y1="152.7019" x2="13.5461" y2="152.7019">
			<stop  offset="0.5019" style="stop-color:#5A3795"/>
			<stop  offset="1" style="stop-color:#2E60AD"/>
		</linearGradient>
		<path class="st8" d="M11.9,151c0.9,0,1.7,0.8,1.7,1.7c0,0.9-0.8,1.7-1.7,1.7c-0.9,0-1.7-0.8-1.7-1.7C10.2,151.8,10.9,151,11.9,151
			"/>
		<linearGradient id="SVGID_8_" gradientUnits="userSpaceOnUse" x1="10.1712" y1="142.6763" x2="13.5461" y2="142.6763">
			<stop  offset="0.5019" style="stop-color:#5A3795"/>
			<stop  offset="1" style="stop-color:#2E60AD"/>
		</linearGradient>
		<path class="st9" d="M11.9,141c0.9,0,1.7,0.8,1.7,1.7c0,0.9-0.8,1.7-1.7,1.7c-0.9,0-1.7-0.8-1.7-1.7C10.2,141.7,10.9,141,11.9,141
			"/>
		<linearGradient id="SVGID_9_" gradientUnits="userSpaceOnUse" x1="20.1972" y1="182.7794" x2="23.5721" y2="182.7794">
			<stop  offset="0.5019" style="stop-color:#5A3795"/>
			<stop  offset="1" style="stop-color:#2E60AD"/>
		</linearGradient>
		<path class="st10" d="M21.9,181.1c0.9,0,1.7,0.8,1.7,1.7c0,0.9-0.8,1.7-1.7,1.7s-1.7-0.8-1.7-1.7C20.2,181.8,21,181.1,21.9,181.1"
			/>
		<linearGradient id="SVGID_10_" gradientUnits="userSpaceOnUse" x1="20.1972" y1="172.7535" x2="23.5721" y2="172.7535">
			<stop  offset="0.5019" style="stop-color:#5A3795"/>
			<stop  offset="1" style="stop-color:#2E60AD"/>
		</linearGradient>
		<path class="st11" d="M21.9,171.1c0.9,0,1.7,0.8,1.7,1.7c0,0.9-0.8,1.7-1.7,1.7s-1.7-0.8-1.7-1.7C20.2,171.8,21,171.1,21.9,171.1"
			/>
		<linearGradient id="SVGID_11_" gradientUnits="userSpaceOnUse" x1="20.1972" y1="162.7278" x2="23.5721" y2="162.7278">
			<stop  offset="0.5019" style="stop-color:#5A3795"/>
			<stop  offset="1" style="stop-color:#2E60AD"/>
		</linearGradient>
		<path class="st12" d="M21.9,161c0.9,0,1.7,0.8,1.7,1.7c0,0.9-0.8,1.7-1.7,1.7s-1.7-0.8-1.7-1.7C20.2,161.8,21,161,21.9,161"/>
		<linearGradient id="SVGID_12_" gradientUnits="userSpaceOnUse" x1="20.1972" y1="152.7019" x2="23.5721" y2="152.7019">
			<stop  offset="0.5019" style="stop-color:#5A3795"/>
			<stop  offset="1" style="stop-color:#2E60AD"/>
		</linearGradient>
		<path class="st13" d="M21.9,151c0.9,0,1.7,0.8,1.7,1.7c0,0.9-0.8,1.7-1.7,1.7s-1.7-0.8-1.7-1.7C20.2,151.8,21,151,21.9,151"/>
		<linearGradient id="SVGID_13_" gradientUnits="userSpaceOnUse" x1="20.1972" y1="142.6763" x2="23.5721" y2="142.6763">
			<stop  offset="0.5019" style="stop-color:#5A3795"/>
			<stop  offset="1" style="stop-color:#2E60AD"/>
		</linearGradient>
		<path class="st14" d="M21.9,141c0.9,0,1.7,0.8,1.7,1.7c0,0.9-0.8,1.7-1.7,1.7s-1.7-0.8-1.7-1.7C20.2,141.7,21,141,21.9,141"/>
		<linearGradient id="SVGID_14_" gradientUnits="userSpaceOnUse" x1="30.2229" y1="212.8569" x2="33.5978" y2="212.8569">
			<stop  offset="0.5019" style="stop-color:#5A3795"/>
			<stop  offset="1" style="stop-color:#2E60AD"/>
		</linearGradient>
		<path class="st15" d="M31.9,211.2c0.9,0,1.7,0.8,1.7,1.7c0,0.9-0.8,1.7-1.7,1.7s-1.7-0.8-1.7-1.7C30.2,211.9,31,211.2,31.9,211.2"
			/>
		<linearGradient id="SVGID_15_" gradientUnits="userSpaceOnUse" x1="30.2229" y1="202.8309" x2="33.5978" y2="202.8309">
			<stop  offset="0.5019" style="stop-color:#5A3795"/>
			<stop  offset="1" style="stop-color:#2E60AD"/>
		</linearGradient>
		<path class="st16" d="M31.9,201.1c0.9,0,1.7,0.8,1.7,1.7c0,0.9-0.8,1.7-1.7,1.7s-1.7-0.8-1.7-1.7C30.2,201.9,31,201.1,31.9,201.1"
			/>
		<linearGradient id="SVGID_16_" gradientUnits="userSpaceOnUse" x1="30.2229" y1="192.8051" x2="33.5978" y2="192.8051">
			<stop  offset="0.5019" style="stop-color:#5A3795"/>
			<stop  offset="1" style="stop-color:#2E60AD"/>
		</linearGradient>
		<path class="st17" d="M31.9,191.1c0.9,0,1.7,0.8,1.7,1.7c0,0.9-0.8,1.7-1.7,1.7s-1.7-0.8-1.7-1.7C30.2,191.9,31,191.1,31.9,191.1"
			/>
		<linearGradient id="SVGID_17_" gradientUnits="userSpaceOnUse" x1="30.2229" y1="182.7794" x2="33.5978" y2="182.7794">
			<stop  offset="0.5019" style="stop-color:#5A3795"/>
			<stop  offset="1" style="stop-color:#2E60AD"/>
		</linearGradient>
		<path class="st18" d="M31.9,181.1c0.9,0,1.7,0.8,1.7,1.7c0,0.9-0.8,1.7-1.7,1.7s-1.7-0.8-1.7-1.7C30.2,181.8,31,181.1,31.9,181.1"
			/>
		<linearGradient id="SVGID_18_" gradientUnits="userSpaceOnUse" x1="30.2229" y1="172.7535" x2="33.5978" y2="172.7535">
			<stop  offset="0.5019" style="stop-color:#5A3795"/>
			<stop  offset="1" style="stop-color:#2E60AD"/>
		</linearGradient>
		<path class="st19" d="M31.9,171.1c0.9,0,1.7,0.8,1.7,1.7c0,0.9-0.8,1.7-1.7,1.7s-1.7-0.8-1.7-1.7C30.2,171.8,31,171.1,31.9,171.1"
			/>
		<linearGradient id="SVGID_19_" gradientUnits="userSpaceOnUse" x1="30.2229" y1="162.7278" x2="33.5978" y2="162.7278">
			<stop  offset="0.5019" style="stop-color:#5A3795"/>
			<stop  offset="1" style="stop-color:#2E60AD"/>
		</linearGradient>
		<path class="st20" d="M31.9,161c0.9,0,1.7,0.8,1.7,1.7c0,0.9-0.8,1.7-1.7,1.7s-1.7-0.8-1.7-1.7C30.2,161.8,31,161,31.9,161"/>
		<linearGradient id="SVGID_20_" gradientUnits="userSpaceOnUse" x1="30.2229" y1="152.7019" x2="33.5978" y2="152.7019">
			<stop  offset="0.5019" style="stop-color:#5A3795"/>
			<stop  offset="1" style="stop-color:#2E60AD"/>
		</linearGradient>
		<path class="st21" d="M31.9,151c0.9,0,1.7,0.8,1.7,1.7c0,0.9-0.8,1.7-1.7,1.7s-1.7-0.8-1.7-1.7C30.2,151.8,31,151,31.9,151"/>
		<linearGradient id="SVGID_21_" gradientUnits="userSpaceOnUse" x1="30.2229" y1="142.6763" x2="33.5978" y2="142.6763">
			<stop  offset="0.5019" style="stop-color:#5A3795"/>
			<stop  offset="1" style="stop-color:#2E60AD"/>
		</linearGradient>
		<path class="st22" d="M31.9,141c0.9,0,1.7,0.8,1.7,1.7c0,0.9-0.8,1.7-1.7,1.7s-1.7-0.8-1.7-1.7C30.2,141.7,31,141,31.9,141"/>
		<linearGradient id="SVGID_22_" gradientUnits="userSpaceOnUse" x1="20.1972" y1="212.8569" x2="23.5721" y2="212.8569">
			<stop  offset="0.5019" style="stop-color:#5A3795"/>
			<stop  offset="1" style="stop-color:#2E60AD"/>
		</linearGradient>
		<path class="st23" d="M21.9,211.2c0.9,0,1.7,0.8,1.7,1.7c0,0.9-0.8,1.7-1.7,1.7c-0.9,0-1.7-0.8-1.7-1.7
			C20.2,211.9,21,211.2,21.9,211.2"/>
		<linearGradient id="SVGID_23_" gradientUnits="userSpaceOnUse" x1="20.1972" y1="202.8309" x2="23.5721" y2="202.8309">
			<stop  offset="0.5019" style="stop-color:#5A3795"/>
			<stop  offset="1" style="stop-color:#2E60AD"/>
		</linearGradient>
		<path class="st24" d="M21.9,201.1c0.9,0,1.7,0.8,1.7,1.7c0,0.9-0.8,1.7-1.7,1.7c-0.9,0-1.7-0.8-1.7-1.7
			C20.2,201.9,21,201.1,21.9,201.1"/>
		<linearGradient id="SVGID_24_" gradientUnits="userSpaceOnUse" x1="20.1972" y1="192.8051" x2="23.5721" y2="192.8051">
			<stop  offset="0.5019" style="stop-color:#5A3795"/>
			<stop  offset="1" style="stop-color:#2E60AD"/>
		</linearGradient>
		<path class="st25" d="M21.9,191.1c0.9,0,1.7,0.8,1.7,1.7c0,0.9-0.8,1.7-1.7,1.7c-0.9,0-1.7-0.8-1.7-1.7
			C20.2,191.9,21,191.1,21.9,191.1"/>
		<linearGradient id="SVGID_25_" gradientUnits="userSpaceOnUse" x1="10.1712" y1="202.8309" x2="13.5461" y2="202.8309">
			<stop  offset="0.5019" style="stop-color:#5A3795"/>
			<stop  offset="1" style="stop-color:#2E60AD"/>
		</linearGradient>
		<path class="st26" d="M11.9,201.1c0.9,0,1.7,0.8,1.7,1.7c0,0.9-0.8,1.7-1.7,1.7c-0.9,0-1.7-0.8-1.7-1.7
			C10.2,201.9,10.9,201.1,11.9,201.1"/>
		<linearGradient id="SVGID_26_" gradientUnits="userSpaceOnUse" x1="10.1712" y1="192.8051" x2="13.5461" y2="192.8051">
			<stop  offset="0.5019" style="stop-color:#5A3795"/>
			<stop  offset="1" style="stop-color:#2E60AD"/>
		</linearGradient>
		<path class="st27" d="M11.9,191.1c0.9,0,1.7,0.8,1.7,1.7c0,0.9-0.8,1.7-1.7,1.7c-0.9,0-1.7-0.8-1.7-1.7
			C10.2,191.9,10.9,191.1,11.9,191.1"/>
		<linearGradient id="SVGID_27_" gradientUnits="userSpaceOnUse" x1="0.1458" y1="182.7794" x2="3.5207" y2="182.7794">
			<stop  offset="0.5019" style="stop-color:#5A3795"/>
			<stop  offset="1" style="stop-color:#2E60AD"/>
		</linearGradient>
		<path class="st28" d="M1.8,181.1c0.9,0,1.7,0.8,1.7,1.7c0,0.9-0.8,1.7-1.7,1.7c-0.9,0-1.7-0.8-1.7-1.7
			C0.1,181.8,0.9,181.1,1.8,181.1"/>
		<linearGradient id="SVGID_28_" gradientUnits="userSpaceOnUse" x1="0.1458" y1="192.8051" x2="3.5207" y2="192.8051">
			<stop  offset="0.5019" style="stop-color:#5A3795"/>
			<stop  offset="1" style="stop-color:#2E60AD"/>
		</linearGradient>
		<path class="st29" d="M1.8,191.1c0.9,0,1.7,0.8,1.7,1.7c0,0.9-0.8,1.7-1.7,1.7c-0.9,0-1.7-0.8-1.7-1.7
			C0.1,191.9,0.9,191.1,1.8,191.1"/>
		<linearGradient id="SVGID_29_" gradientUnits="userSpaceOnUse" x1="40.249" y1="202.8309" x2="43.6235" y2="202.8309">
			<stop  offset="0.5019" style="stop-color:#5A3795"/>
			<stop  offset="1" style="stop-color:#2E60AD"/>
		</linearGradient>
		<path class="st30" d="M41.9,201.1c0.9,0,1.7,0.8,1.7,1.7c0,0.9-0.8,1.7-1.7,1.7c-0.9,0-1.7-0.8-1.7-1.7
			C40.2,201.9,41,201.1,41.9,201.1"/>
		<linearGradient id="SVGID_30_" gradientUnits="userSpaceOnUse" x1="40.249" y1="192.8051" x2="43.6235" y2="192.8051">
			<stop  offset="0.5019" style="stop-color:#5A3795"/>
			<stop  offset="1" style="stop-color:#2E60AD"/>
		</linearGradient>
		<path class="st31" d="M41.9,191.1c0.9,0,1.7,0.8,1.7,1.7c0,0.9-0.8,1.7-1.7,1.7c-0.9,0-1.7-0.8-1.7-1.7
			C40.2,191.9,41,191.1,41.9,191.1"/>
		<linearGradient id="SVGID_31_" gradientUnits="userSpaceOnUse" x1="40.249" y1="182.7794" x2="43.6235" y2="182.7794">
			<stop  offset="0.5019" style="stop-color:#5A3795"/>
			<stop  offset="1" style="stop-color:#2E60AD"/>
		</linearGradient>
		<path class="st32" d="M41.9,181.1c0.9,0,1.7,0.8,1.7,1.7c0,0.9-0.8,1.7-1.7,1.7c-0.9,0-1.7-0.8-1.7-1.7
			C40.2,181.8,41,181.1,41.9,181.1"/>
		<linearGradient id="SVGID_32_" gradientUnits="userSpaceOnUse" x1="40.249" y1="172.7535" x2="43.6235" y2="172.7535">
			<stop  offset="0.5019" style="stop-color:#5A3795"/>
			<stop  offset="1" style="stop-color:#2E60AD"/>
		</linearGradient>
		<path class="st33" d="M41.9,171.1c0.9,0,1.7,0.8,1.7,1.7c0,0.9-0.8,1.7-1.7,1.7c-0.9,0-1.7-0.8-1.7-1.7
			C40.2,171.8,41,171.1,41.9,171.1"/>
		<linearGradient id="SVGID_33_" gradientUnits="userSpaceOnUse" x1="40.249" y1="162.7278" x2="43.6235" y2="162.7278">
			<stop  offset="0.5019" style="stop-color:#5A3795"/>
			<stop  offset="1" style="stop-color:#2E60AD"/>
		</linearGradient>
		<path class="st34" d="M41.9,161c0.9,0,1.7,0.8,1.7,1.7c0,0.9-0.8,1.7-1.7,1.7c-0.9,0-1.7-0.8-1.7-1.7C40.2,161.8,41,161,41.9,161"
			/>
		<linearGradient id="SVGID_34_" gradientUnits="userSpaceOnUse" x1="40.249" y1="152.7019" x2="43.6235" y2="152.7019">
			<stop  offset="0.5019" style="stop-color:#5A3795"/>
			<stop  offset="1" style="stop-color:#2E60AD"/>
		</linearGradient>
		<path class="st35" d="M41.9,151c0.9,0,1.7,0.8,1.7,1.7c0,0.9-0.8,1.7-1.7,1.7c-0.9,0-1.7-0.8-1.7-1.7C40.2,151.8,41,151,41.9,151"
			/>
		<linearGradient id="SVGID_35_" gradientUnits="userSpaceOnUse" x1="50.2744" y1="202.8309" x2="53.6493" y2="202.8309">
			<stop  offset="0.5019" style="stop-color:#5A3795"/>
			<stop  offset="1" style="stop-color:#2E60AD"/>
		</linearGradient>
		<path class="st36" d="M52,201.1c0.9,0,1.7,0.8,1.7,1.7c0,0.9-0.8,1.7-1.7,1.7s-1.7-0.8-1.7-1.7C50.3,201.9,51,201.1,52,201.1"/>
		<linearGradient id="SVGID_36_" gradientUnits="userSpaceOnUse" x1="50.2744" y1="192.8051" x2="53.6493" y2="192.8051">
			<stop  offset="0.5019" style="stop-color:#5A3795"/>
			<stop  offset="1" style="stop-color:#2E60AD"/>
		</linearGradient>
		<path class="st37" d="M52,191.1c0.9,0,1.7,0.8,1.7,1.7c0,0.9-0.8,1.7-1.7,1.7s-1.7-0.8-1.7-1.7C50.3,191.9,51,191.1,52,191.1"/>
		<linearGradient id="SVGID_37_" gradientUnits="userSpaceOnUse" x1="50.2744" y1="182.7794" x2="53.6493" y2="182.7794">
			<stop  offset="0.5019" style="stop-color:#5A3795"/>
			<stop  offset="1" style="stop-color:#2E60AD"/>
		</linearGradient>
		<path class="st38" d="M52,181.1c0.9,0,1.7,0.8,1.7,1.7c0,0.9-0.8,1.7-1.7,1.7s-1.7-0.8-1.7-1.7C50.3,181.8,51,181.1,52,181.1"/>
		<linearGradient id="SVGID_38_" gradientUnits="userSpaceOnUse" x1="50.2744" y1="172.7535" x2="53.6493" y2="172.7535">
			<stop  offset="0.5019" style="stop-color:#5A3795"/>
			<stop  offset="1" style="stop-color:#2E60AD"/>
		</linearGradient>
		<path class="st39" d="M52,171.1c0.9,0,1.7,0.8,1.7,1.7c0,0.9-0.8,1.7-1.7,1.7s-1.7-0.8-1.7-1.7C50.3,171.8,51,171.1,52,171.1"/>
		<linearGradient id="SVGID_39_" gradientUnits="userSpaceOnUse" x1="50.2744" y1="162.7278" x2="53.6493" y2="162.7278">
			<stop  offset="0.5019" style="stop-color:#5A3795"/>
			<stop  offset="1" style="stop-color:#2E60AD"/>
		</linearGradient>
		<path class="st40" d="M52,161c0.9,0,1.7,0.8,1.7,1.7c0,0.9-0.8,1.7-1.7,1.7s-1.7-0.8-1.7-1.7C50.3,161.8,51,161,52,161"/>
		<linearGradient id="SVGID_40_" gradientUnits="userSpaceOnUse" x1="50.2744" y1="152.7019" x2="53.6493" y2="152.7019">
			<stop  offset="0.5019" style="stop-color:#5A3795"/>
			<stop  offset="1" style="stop-color:#2E60AD"/>
		</linearGradient>
		<path class="st41" d="M52,151c0.9,0,1.7,0.8,1.7,1.7c0,0.9-0.8,1.7-1.7,1.7s-1.7-0.8-1.7-1.7C50.3,151.8,51,151,52,151"/>
		<linearGradient id="SVGID_41_" gradientUnits="userSpaceOnUse" x1="60.3003" y1="192.8051" x2="63.6752" y2="192.8051">
			<stop  offset="0.5019" style="stop-color:#5A3795"/>
			<stop  offset="1" style="stop-color:#2E60AD"/>
		</linearGradient>
		<path class="st42" d="M62,191.1c0.9,0,1.7,0.8,1.7,1.7c0,0.9-0.8,1.7-1.7,1.7c-0.9,0-1.7-0.8-1.7-1.7
			C60.3,191.9,61.1,191.1,62,191.1"/>
		<linearGradient id="SVGID_42_" gradientUnits="userSpaceOnUse" x1="60.3003" y1="182.7794" x2="63.6752" y2="182.7794">
			<stop  offset="0.5019" style="stop-color:#5A3795"/>
			<stop  offset="1" style="stop-color:#2E60AD"/>
		</linearGradient>
		<path class="st43" d="M62,181.1c0.9,0,1.7,0.8,1.7,1.7c0,0.9-0.8,1.7-1.7,1.7c-0.9,0-1.7-0.8-1.7-1.7
			C60.3,181.8,61.1,181.1,62,181.1"/>
		<linearGradient id="SVGID_43_" gradientUnits="userSpaceOnUse" x1="60.3003" y1="172.7535" x2="63.6752" y2="172.7535">
			<stop  offset="0.5019" style="stop-color:#5A3795"/>
			<stop  offset="1" style="stop-color:#2E60AD"/>
		</linearGradient>
		<path class="st44" d="M62,171.1c0.9,0,1.7,0.8,1.7,1.7c0,0.9-0.8,1.7-1.7,1.7c-0.9,0-1.7-0.8-1.7-1.7
			C60.3,171.8,61.1,171.1,62,171.1"/>
		<linearGradient id="SVGID_44_" gradientUnits="userSpaceOnUse" x1="60.3003" y1="162.7278" x2="63.6752" y2="162.7278">
			<stop  offset="0.5019" style="stop-color:#5A3795"/>
			<stop  offset="1" style="stop-color:#2E60AD"/>
		</linearGradient>
		<path class="st45" d="M62,161c0.9,0,1.7,0.8,1.7,1.7c0,0.9-0.8,1.7-1.7,1.7c-0.9,0-1.7-0.8-1.7-1.7C60.3,161.8,61.1,161,62,161"/>
		<linearGradient id="SVGID_45_" gradientUnits="userSpaceOnUse" x1="60.3003" y1="152.7019" x2="63.6752" y2="152.7019">
			<stop  offset="0.5019" style="stop-color:#5A3795"/>
			<stop  offset="1" style="stop-color:#2E60AD"/>
		</linearGradient>
		<path class="st46" d="M62,151c0.9,0,1.7,0.8,1.7,1.7c0,0.9-0.8,1.7-1.7,1.7c-0.9,0-1.7-0.8-1.7-1.7C60.3,151.8,61.1,151,62,151"/>
		<linearGradient id="SVGID_46_" gradientUnits="userSpaceOnUse" x1="60.3003" y1="142.6763" x2="63.6752" y2="142.6763">
			<stop  offset="0.5019" style="stop-color:#5A3795"/>
			<stop  offset="1" style="stop-color:#2E60AD"/>
		</linearGradient>
		<path class="st47" d="M62,141c0.9,0,1.7,0.8,1.7,1.7c0,0.9-0.8,1.7-1.7,1.7c-0.9,0-1.7-0.8-1.7-1.7C60.3,141.7,61.1,141,62,141"/>
		<linearGradient id="SVGID_47_" gradientUnits="userSpaceOnUse" x1="60.3003" y1="132.6503" x2="63.6752" y2="132.6503">
			<stop  offset="0.5019" style="stop-color:#5A3795"/>
			<stop  offset="1" style="stop-color:#2E60AD"/>
		</linearGradient>
		<path class="st48" d="M62,131c0.9,0,1.7,0.8,1.7,1.7c0,0.9-0.8,1.7-1.7,1.7c-0.9,0-1.7-0.8-1.7-1.7C60.3,131.7,61.1,131,62,131"/>
		<linearGradient id="SVGID_48_" gradientUnits="userSpaceOnUse" x1="60.3003" y1="122.6246" x2="63.6752" y2="122.6246">
			<stop  offset="0.5019" style="stop-color:#5A3795"/>
			<stop  offset="1" style="stop-color:#2E60AD"/>
		</linearGradient>
		<path class="st49" d="M62,120.9c0.9,0,1.7,0.8,1.7,1.7c0,0.9-0.8,1.7-1.7,1.7c-0.9,0-1.7-0.8-1.7-1.7
			C60.3,121.7,61.1,120.9,62,120.9"/>
		<linearGradient id="SVGID_49_" gradientUnits="userSpaceOnUse" x1="70.326" y1="182.7794" x2="73.7009" y2="182.7794">
			<stop  offset="0.5019" style="stop-color:#5A3795"/>
			<stop  offset="1" style="stop-color:#2E60AD"/>
		</linearGradient>
		<path class="st50" d="M72,181.1c0.9,0,1.7,0.8,1.7,1.7c0,0.9-0.8,1.7-1.7,1.7c-0.9,0-1.7-0.8-1.7-1.7
			C70.3,181.8,71.1,181.1,72,181.1"/>
		<linearGradient id="SVGID_50_" gradientUnits="userSpaceOnUse" x1="70.326" y1="172.7535" x2="73.7009" y2="172.7535">
			<stop  offset="0.5019" style="stop-color:#5A3795"/>
			<stop  offset="1" style="stop-color:#2E60AD"/>
		</linearGradient>
		<path class="st51" d="M72,171.1c0.9,0,1.7,0.8,1.7,1.7c0,0.9-0.8,1.7-1.7,1.7c-0.9,0-1.7-0.8-1.7-1.7
			C70.3,171.8,71.1,171.1,72,171.1"/>
		<linearGradient id="SVGID_51_" gradientUnits="userSpaceOnUse" x1="70.326" y1="162.7278" x2="73.7009" y2="162.7278">
			<stop  offset="0.5019" style="stop-color:#5A3795"/>
			<stop  offset="1" style="stop-color:#2E60AD"/>
		</linearGradient>
		<path class="st52" d="M72,161c0.9,0,1.7,0.8,1.7,1.7c0,0.9-0.8,1.7-1.7,1.7c-0.9,0-1.7-0.8-1.7-1.7C70.3,161.8,71.1,161,72,161"/>
		<linearGradient id="SVGID_52_" gradientUnits="userSpaceOnUse" x1="70.326" y1="152.7019" x2="73.7009" y2="152.7019">
			<stop  offset="0.5019" style="stop-color:#5A3795"/>
			<stop  offset="1" style="stop-color:#2E60AD"/>
		</linearGradient>
		<path class="st53" d="M72,151c0.9,0,1.7,0.8,1.7,1.7c0,0.9-0.8,1.7-1.7,1.7c-0.9,0-1.7-0.8-1.7-1.7C70.3,151.8,71.1,151,72,151"/>
		<linearGradient id="SVGID_53_" gradientUnits="userSpaceOnUse" x1="70.326" y1="142.6763" x2="73.7009" y2="142.6763">
			<stop  offset="0.5019" style="stop-color:#5A3795"/>
			<stop  offset="1" style="stop-color:#2E60AD"/>
		</linearGradient>
		<path class="st54" d="M72,141c0.9,0,1.7,0.8,1.7,1.7c0,0.9-0.8,1.7-1.7,1.7c-0.9,0-1.7-0.8-1.7-1.7C70.3,141.7,71.1,141,72,141"/>
		<linearGradient id="SVGID_54_" gradientUnits="userSpaceOnUse" x1="70.326" y1="132.6503" x2="73.7009" y2="132.6503">
			<stop  offset="0.5019" style="stop-color:#5A3795"/>
			<stop  offset="1" style="stop-color:#2E60AD"/>
		</linearGradient>
		<path class="st55" d="M72,131c0.9,0,1.7,0.8,1.7,1.7c0,0.9-0.8,1.7-1.7,1.7c-0.9,0-1.7-0.8-1.7-1.7C70.3,131.7,71.1,131,72,131"/>
		<linearGradient id="SVGID_55_" gradientUnits="userSpaceOnUse" x1="70.326" y1="122.6246" x2="73.7009" y2="122.6246">
			<stop  offset="0.5019" style="stop-color:#5A3795"/>
			<stop  offset="1" style="stop-color:#2E60AD"/>
		</linearGradient>
		<path class="st56" d="M72,120.9c0.9,0,1.7,0.8,1.7,1.7c0,0.9-0.8,1.7-1.7,1.7c-0.9,0-1.7-0.8-1.7-1.7
			C70.3,121.7,71.1,120.9,72,120.9"/>
		<linearGradient id="SVGID_56_" gradientUnits="userSpaceOnUse" x1="70.326" y1="112.5987" x2="73.7009" y2="112.5987">
			<stop  offset="0.5019" style="stop-color:#5A3795"/>
			<stop  offset="1" style="stop-color:#2E60AD"/>
		</linearGradient>
		<path class="st57" d="M72,110.9c0.9,0,1.7,0.8,1.7,1.7c0,0.9-0.8,1.7-1.7,1.7c-0.9,0-1.7-0.8-1.7-1.7
			C70.3,111.7,71.1,110.9,72,110.9"/>
		<linearGradient id="SVGID_57_" gradientUnits="userSpaceOnUse" x1="80.3519" y1="182.7794" x2="83.7268" y2="182.7794">
			<stop  offset="0.5019" style="stop-color:#5A3795"/>
			<stop  offset="1" style="stop-color:#2E60AD"/>
		</linearGradient>
		<path class="st58" d="M82,181.1c0.9,0,1.7,0.8,1.7,1.7c0,0.9-0.8,1.7-1.7,1.7s-1.7-0.8-1.7-1.7C80.4,181.8,81.1,181.1,82,181.1"/>
		<linearGradient id="SVGID_58_" gradientUnits="userSpaceOnUse" x1="80.3519" y1="172.7535" x2="83.7268" y2="172.7535">
			<stop  offset="0.5019" style="stop-color:#5A3795"/>
			<stop  offset="1" style="stop-color:#2E60AD"/>
		</linearGradient>
		<path class="st59" d="M82,171.1c0.9,0,1.7,0.8,1.7,1.7c0,0.9-0.8,1.7-1.7,1.7s-1.7-0.8-1.7-1.7C80.4,171.8,81.1,171.1,82,171.1"/>
		<linearGradient id="SVGID_59_" gradientUnits="userSpaceOnUse" x1="80.3519" y1="162.7278" x2="83.7268" y2="162.7278">
			<stop  offset="0.5019" style="stop-color:#5A3795"/>
			<stop  offset="1" style="stop-color:#2E60AD"/>
		</linearGradient>
		<path class="st60" d="M82,161c0.9,0,1.7,0.8,1.7,1.7c0,0.9-0.8,1.7-1.7,1.7s-1.7-0.8-1.7-1.7C80.4,161.8,81.1,161,82,161"/>
		<linearGradient id="SVGID_60_" gradientUnits="userSpaceOnUse" x1="80.3519" y1="152.7019" x2="83.7268" y2="152.7019">
			<stop  offset="0.5019" style="stop-color:#5A3795"/>
			<stop  offset="1" style="stop-color:#2E60AD"/>
		</linearGradient>
		<path class="st61" d="M82,151c0.9,0,1.7,0.8,1.7,1.7c0,0.9-0.8,1.7-1.7,1.7s-1.7-0.8-1.7-1.7C80.4,151.8,81.1,151,82,151"/>
		<linearGradient id="SVGID_61_" gradientUnits="userSpaceOnUse" x1="80.3519" y1="142.6763" x2="83.7268" y2="142.6763">
			<stop  offset="0.5019" style="stop-color:#5A3795"/>
			<stop  offset="1" style="stop-color:#2E60AD"/>
		</linearGradient>
		<path class="st62" d="M82,141c0.9,0,1.7,0.8,1.7,1.7c0,0.9-0.8,1.7-1.7,1.7s-1.7-0.8-1.7-1.7C80.4,141.7,81.1,141,82,141"/>
		<linearGradient id="SVGID_62_" gradientUnits="userSpaceOnUse" x1="80.3519" y1="132.6503" x2="83.7268" y2="132.6503">
			<stop  offset="0.5019" style="stop-color:#5A3795"/>
			<stop  offset="1" style="stop-color:#2E60AD"/>
		</linearGradient>
		<path class="st63" d="M82,131c0.9,0,1.7,0.8,1.7,1.7c0,0.9-0.8,1.7-1.7,1.7s-1.7-0.8-1.7-1.7C80.4,131.7,81.1,131,82,131"/>
		<linearGradient id="SVGID_63_" gradientUnits="userSpaceOnUse" x1="80.3519" y1="122.6246" x2="83.7268" y2="122.6246">
			<stop  offset="0.5019" style="stop-color:#5A3795"/>
			<stop  offset="1" style="stop-color:#2E60AD"/>
		</linearGradient>
		<path class="st64" d="M82,120.9c0.9,0,1.7,0.8,1.7,1.7c0,0.9-0.8,1.7-1.7,1.7s-1.7-0.8-1.7-1.7C80.4,121.7,81.1,120.9,82,120.9"/>
		<linearGradient id="SVGID_64_" gradientUnits="userSpaceOnUse" x1="80.3519" y1="112.5987" x2="83.7268" y2="112.5987">
			<stop  offset="0.5019" style="stop-color:#5A3795"/>
			<stop  offset="1" style="stop-color:#2E60AD"/>
		</linearGradient>
		<path class="st65" d="M82,110.9c0.9,0,1.7,0.8,1.7,1.7c0,0.9-0.8,1.7-1.7,1.7s-1.7-0.8-1.7-1.7C80.4,111.7,81.1,110.9,82,110.9"/>
		<linearGradient id="SVGID_65_" gradientUnits="userSpaceOnUse" x1="80.3519" y1="102.5731" x2="83.7268" y2="102.5731">
			<stop  offset="0.5019" style="stop-color:#5A3795"/>
			<stop  offset="1" style="stop-color:#2E60AD"/>
		</linearGradient>
		<path class="st66" d="M82,100.9c0.9,0,1.7,0.8,1.7,1.7c0,0.9-0.8,1.7-1.7,1.7s-1.7-0.8-1.7-1.7C80.4,101.6,81.1,100.9,82,100.9"/>
		<linearGradient id="SVGID_66_" gradientUnits="userSpaceOnUse" x1="90.3776" y1="182.7794" x2="93.7525" y2="182.7794">
			<stop  offset="0.5019" style="stop-color:#5A3795"/>
			<stop  offset="1" style="stop-color:#2E60AD"/>
		</linearGradient>
		<path class="st67" d="M92.1,181.1c0.9,0,1.7,0.8,1.7,1.7c0,0.9-0.8,1.7-1.7,1.7s-1.7-0.8-1.7-1.7
			C90.4,181.8,91.1,181.1,92.1,181.1"/>
		<linearGradient id="SVGID_67_" gradientUnits="userSpaceOnUse" x1="90.3776" y1="172.7535" x2="93.7525" y2="172.7535">
			<stop  offset="0.5019" style="stop-color:#5A3795"/>
			<stop  offset="1" style="stop-color:#2E60AD"/>
		</linearGradient>
		<path class="st68" d="M92.1,171.1c0.9,0,1.7,0.8,1.7,1.7c0,0.9-0.8,1.7-1.7,1.7s-1.7-0.8-1.7-1.7
			C90.4,171.8,91.1,171.1,92.1,171.1"/>
		<linearGradient id="SVGID_68_" gradientUnits="userSpaceOnUse" x1="90.3776" y1="162.7278" x2="93.7525" y2="162.7278">
			<stop  offset="0.5019" style="stop-color:#5A3795"/>
			<stop  offset="1" style="stop-color:#2E60AD"/>
		</linearGradient>
		<path class="st69" d="M92.1,161c0.9,0,1.7,0.8,1.7,1.7c0,0.9-0.8,1.7-1.7,1.7s-1.7-0.8-1.7-1.7C90.4,161.8,91.1,161,92.1,161"/>
		<linearGradient id="SVGID_69_" gradientUnits="userSpaceOnUse" x1="90.3776" y1="152.7019" x2="93.7525" y2="152.7019">
			<stop  offset="0.5019" style="stop-color:#5A3795"/>
			<stop  offset="1" style="stop-color:#2E60AD"/>
		</linearGradient>
		<path class="st70" d="M92.1,151c0.9,0,1.7,0.8,1.7,1.7c0,0.9-0.8,1.7-1.7,1.7s-1.7-0.8-1.7-1.7C90.4,151.8,91.1,151,92.1,151"/>
		<linearGradient id="SVGID_70_" gradientUnits="userSpaceOnUse" x1="90.3776" y1="142.6763" x2="93.7525" y2="142.6763">
			<stop  offset="0.5019" style="stop-color:#5A3795"/>
			<stop  offset="1" style="stop-color:#2E60AD"/>
		</linearGradient>
		<path class="st71" d="M92.1,141c0.9,0,1.7,0.8,1.7,1.7c0,0.9-0.8,1.7-1.7,1.7s-1.7-0.8-1.7-1.7C90.4,141.7,91.1,141,92.1,141"/>
		<linearGradient id="SVGID_71_" gradientUnits="userSpaceOnUse" x1="90.3776" y1="132.6503" x2="93.7525" y2="132.6503">
			<stop  offset="0.5019" style="stop-color:#5A3795"/>
			<stop  offset="1" style="stop-color:#2E60AD"/>
		</linearGradient>
		<path class="st72" d="M92.1,131c0.9,0,1.7,0.8,1.7,1.7c0,0.9-0.8,1.7-1.7,1.7s-1.7-0.8-1.7-1.7C90.4,131.7,91.1,131,92.1,131"/>
		<linearGradient id="SVGID_72_" gradientUnits="userSpaceOnUse" x1="90.3776" y1="122.6246" x2="93.7525" y2="122.6246">
			<stop  offset="0.5019" style="stop-color:#5A3795"/>
			<stop  offset="1" style="stop-color:#2E60AD"/>
		</linearGradient>
		<path class="st73" d="M92.1,120.9c0.9,0,1.7,0.8,1.7,1.7c0,0.9-0.8,1.7-1.7,1.7s-1.7-0.8-1.7-1.7
			C90.4,121.7,91.1,120.9,92.1,120.9"/>
		<linearGradient id="SVGID_73_" gradientUnits="userSpaceOnUse" x1="90.3776" y1="112.5987" x2="93.7525" y2="112.5987">
			<stop  offset="0.5019" style="stop-color:#5A3795"/>
			<stop  offset="1" style="stop-color:#2E60AD"/>
		</linearGradient>
		<path class="st74" d="M92.1,110.9c0.9,0,1.7,0.8,1.7,1.7c0,0.9-0.8,1.7-1.7,1.7s-1.7-0.8-1.7-1.7
			C90.4,111.7,91.1,110.9,92.1,110.9"/>
		<linearGradient id="SVGID_74_" gradientUnits="userSpaceOnUse" x1="90.3776" y1="102.5731" x2="93.7525" y2="102.5731">
			<stop  offset="0.5019" style="stop-color:#5A3795"/>
			<stop  offset="1" style="stop-color:#2E60AD"/>
		</linearGradient>
		<path class="st75" d="M92.1,100.9c0.9,0,1.7,0.8,1.7,1.7c0,0.9-0.8,1.7-1.7,1.7s-1.7-0.8-1.7-1.7
			C90.4,101.6,91.1,100.9,92.1,100.9"/>
		<linearGradient id="SVGID_75_" gradientUnits="userSpaceOnUse" x1="100.4035" y1="182.7794" x2="103.7784" y2="182.7794">
			<stop  offset="0.5019" style="stop-color:#5A3795"/>
			<stop  offset="1" style="stop-color:#2E60AD"/>
		</linearGradient>
		<path class="st76" d="M102.1,181.1c0.9,0,1.7,0.8,1.7,1.7c0,0.9-0.8,1.7-1.7,1.7c-0.9,0-1.7-0.8-1.7-1.7
			C100.4,181.8,101.2,181.1,102.1,181.1"/>
		<linearGradient id="SVGID_76_" gradientUnits="userSpaceOnUse" x1="100.4035" y1="172.7535" x2="103.7784" y2="172.7535">
			<stop  offset="0.5019" style="stop-color:#5A3795"/>
			<stop  offset="1" style="stop-color:#2E60AD"/>
		</linearGradient>
		<path class="st77" d="M102.1,171.1c0.9,0,1.7,0.8,1.7,1.7c0,0.9-0.8,1.7-1.7,1.7c-0.9,0-1.7-0.8-1.7-1.7
			C100.4,171.8,101.2,171.1,102.1,171.1"/>
		<linearGradient id="SVGID_77_" gradientUnits="userSpaceOnUse" x1="100.4035" y1="162.7278" x2="103.7784" y2="162.7278">
			<stop  offset="0.5019" style="stop-color:#5A3795"/>
			<stop  offset="1" style="stop-color:#2E60AD"/>
		</linearGradient>
		<path class="st78" d="M102.1,161c0.9,0,1.7,0.8,1.7,1.7c0,0.9-0.8,1.7-1.7,1.7c-0.9,0-1.7-0.8-1.7-1.7
			C100.4,161.8,101.2,161,102.1,161"/>
		<linearGradient id="SVGID_78_" gradientUnits="userSpaceOnUse" x1="100.4035" y1="152.7019" x2="103.7784" y2="152.7019">
			<stop  offset="0.5019" style="stop-color:#5A3795"/>
			<stop  offset="1" style="stop-color:#2E60AD"/>
		</linearGradient>
		<path class="st79" d="M102.1,151c0.9,0,1.7,0.8,1.7,1.7c0,0.9-0.8,1.7-1.7,1.7c-0.9,0-1.7-0.8-1.7-1.7
			C100.4,151.8,101.2,151,102.1,151"/>
		<linearGradient id="SVGID_79_" gradientUnits="userSpaceOnUse" x1="100.4035" y1="142.6763" x2="103.7784" y2="142.6763">
			<stop  offset="0.5019" style="stop-color:#5A3795"/>
			<stop  offset="1" style="stop-color:#2E60AD"/>
		</linearGradient>
		<path class="st80" d="M102.1,141c0.9,0,1.7,0.8,1.7,1.7c0,0.9-0.8,1.7-1.7,1.7c-0.9,0-1.7-0.8-1.7-1.7
			C100.4,141.7,101.2,141,102.1,141"/>
		<linearGradient id="SVGID_80_" gradientUnits="userSpaceOnUse" x1="100.4035" y1="132.6503" x2="103.7784" y2="132.6503">
			<stop  offset="0.5019" style="stop-color:#5A3795"/>
			<stop  offset="1" style="stop-color:#2E60AD"/>
		</linearGradient>
		<path class="st81" d="M102.1,131c0.9,0,1.7,0.8,1.7,1.7c0,0.9-0.8,1.7-1.7,1.7c-0.9,0-1.7-0.8-1.7-1.7
			C100.4,131.7,101.2,131,102.1,131"/>
		<linearGradient id="SVGID_81_" gradientUnits="userSpaceOnUse" x1="100.4035" y1="122.6246" x2="103.7784" y2="122.6246">
			<stop  offset="0.5019" style="stop-color:#5A3795"/>
			<stop  offset="1" style="stop-color:#2E60AD"/>
		</linearGradient>
		<path class="st82" d="M102.1,120.9c0.9,0,1.7,0.8,1.7,1.7c0,0.9-0.8,1.7-1.7,1.7c-0.9,0-1.7-0.8-1.7-1.7
			C100.4,121.7,101.2,120.9,102.1,120.9"/>
		<linearGradient id="SVGID_82_" gradientUnits="userSpaceOnUse" x1="100.4035" y1="112.5987" x2="103.7784" y2="112.5987">
			<stop  offset="0.5019" style="stop-color:#5A3795"/>
			<stop  offset="1" style="stop-color:#2E60AD"/>
		</linearGradient>
		<path class="st83" d="M102.1,110.9c0.9,0,1.7,0.8,1.7,1.7c0,0.9-0.8,1.7-1.7,1.7c-0.9,0-1.7-0.8-1.7-1.7
			C100.4,111.7,101.2,110.9,102.1,110.9"/>
		<linearGradient id="SVGID_83_" gradientUnits="userSpaceOnUse" x1="110.4293" y1="172.7535" x2="113.8042" y2="172.7535">
			<stop  offset="0.5019" style="stop-color:#5A3795"/>
			<stop  offset="1" style="stop-color:#2E60AD"/>
		</linearGradient>
		<path class="st84" d="M112.1,171.1c0.9,0,1.7,0.8,1.7,1.7c0,0.9-0.8,1.7-1.7,1.7c-0.9,0-1.7-0.8-1.7-1.7
			C110.4,171.8,111.2,171.1,112.1,171.1"/>
		<linearGradient id="SVGID_84_" gradientUnits="userSpaceOnUse" x1="110.4293" y1="162.7278" x2="113.8042" y2="162.7278">
			<stop  offset="0.5019" style="stop-color:#5A3795"/>
			<stop  offset="1" style="stop-color:#2E60AD"/>
		</linearGradient>
		<path class="st85" d="M112.1,161c0.9,0,1.7,0.8,1.7,1.7c0,0.9-0.8,1.7-1.7,1.7c-0.9,0-1.7-0.8-1.7-1.7
			C110.4,161.8,111.2,161,112.1,161"/>
		<linearGradient id="SVGID_85_" gradientUnits="userSpaceOnUse" x1="110.4293" y1="152.7019" x2="113.8042" y2="152.7019">
			<stop  offset="0.5019" style="stop-color:#5A3795"/>
			<stop  offset="1" style="stop-color:#2E60AD"/>
		</linearGradient>
		<path class="st86" d="M112.1,151c0.9,0,1.7,0.8,1.7,1.7c0,0.9-0.8,1.7-1.7,1.7c-0.9,0-1.7-0.8-1.7-1.7
			C110.4,151.8,111.2,151,112.1,151"/>
		<linearGradient id="SVGID_86_" gradientUnits="userSpaceOnUse" x1="110.4293" y1="142.6763" x2="113.8042" y2="142.6763">
			<stop  offset="0.5019" style="stop-color:#5A3795"/>
			<stop  offset="1" style="stop-color:#2E60AD"/>
		</linearGradient>
		<path class="st87" d="M112.1,141c0.9,0,1.7,0.8,1.7,1.7c0,0.9-0.8,1.7-1.7,1.7c-0.9,0-1.7-0.8-1.7-1.7
			C110.4,141.7,111.2,141,112.1,141"/>
		<linearGradient id="SVGID_87_" gradientUnits="userSpaceOnUse" x1="110.4293" y1="132.6503" x2="113.8042" y2="132.6503">
			<stop  offset="0.5019" style="stop-color:#5A3795"/>
			<stop  offset="1" style="stop-color:#2E60AD"/>
		</linearGradient>
		<path class="st88" d="M112.1,131c0.9,0,1.7,0.8,1.7,1.7c0,0.9-0.8,1.7-1.7,1.7c-0.9,0-1.7-0.8-1.7-1.7
			C110.4,131.7,111.2,131,112.1,131"/>
	</g>
</g>
</svg>
