<?xml version="1.0" standalone="no"?>
<!DOCTYPE svg PUBLIC "-//W3C//DTD SVG 20010904//EN"
 "http://www.w3.org/TR/2001/REC-SVG-20010904/DTD/svg10.dtd">
<svg version="1.0" xmlns="http://www.w3.org/2000/svg"
 width="260.000000pt" height="260.000000pt" viewBox="0 0 260.000000 260.000000"
 preserveAspectRatio="xMidYMid meet">
<metadata>
Created by potrace 1.11, written by Peter Selinger 2001-2013
</metadata>
<g transform="translate(0.000000,260.000000) scale(0.100000,-0.100000)"
fill="#000000" stroke="none">
<path d="M1127 2314 c-628 -113 -1002 -746 -801 -1354 15 -44 35 -87 46 -96
29 -27 86 -23 110 6 24 30 21 61 -16 185 -119 397 72 834 449 1022 208 104
450 121 668 47 85 -29 117 -30 148 -5 28 23 31 81 5 109 -9 11 -52 31 -95 46
-167 55 -353 69 -514 40z"/>
<path d="M1195 1761 c-98 -16 -169 -69 -196 -148 -8 -21 -14 -72 -14 -114 0
-61 5 -85 26 -125 36 -70 94 -105 265 -159 169 -54 184 -66 184 -152 0 -67
-10 -88 -51 -102 -41 -14 -167 -14 -208 0 -39 14 -51 35 -51 93 0 59 -25 86
-79 86 -22 0 -51 -4 -65 -10 -24 -9 -26 -14 -26 -71 0 -85 18 -137 62 -181 52
-52 113 -68 263 -68 150 0 211 16 263 68 46 46 62 97 62 198 -1 157 -42 200
-268 275 -84 28 -165 61 -180 74 -24 20 -27 30 -27 85 0 55 3 65 28 86 25 21
38 24 117 24 49 0 100 -5 113 -11 31 -14 47 -48 47 -102 0 -24 5 -48 12 -55 7
-7 39 -12 73 -12 34 0 66 5 73 12 16 16 15 94 -3 154 -18 63 -71 117 -133 139
-54 18 -216 27 -287 16z"/>
<path d="M2153 1740 c-49 -20 -54 -65 -19 -167 175 -514 -165 -1065 -706
-1144 -114 -17 -252 -6 -363 27 -124 37 -155 40 -185 16 -29 -24 -33 -81 -6
-110 22 -26 151 -68 268 -88 125 -22 289 -14 419 19 585 151 914 759 723 1337
-15 44 -34 86 -43 94 -22 20 -61 27 -88 16z"/>
</g>
</svg>
